<svg xmlns="http://www.w3.org/2000/svg" xmlns:xlink="http://www.w3.org/1999/xlink" viewBox="0 0 1343 767"><defs><style>.cls-1{isolation:isolate;}.cls-2{fill:#4bc1dd;}.cls-3{fill:#30acce;opacity:0.7;}.cls-4{fill:#f4f4f4;}.cls-5{fill:#bbbdbf;}.cls-6{fill:#2c2e3a;}.cls-7{fill:#343a54;}.cls-42,.cls-8{fill:#fff;}.cls-9{fill:#f2f2f2;opacity:0.17;}.cls-10{fill:#414654;}.cls-11{fill:#bcbec0;}.cls-12{fill:#d1d3d4;}.cls-13{fill:#f1f2f2;}.cls-14{fill:#808285;}.cls-15{fill:url(#linear-gradient);}.cls-16{fill:url(#linear-gradient-2);}.cls-17{fill:url(#linear-gradient-3);}.cls-18{fill:url(#linear-gradient-4);}.cls-19{fill:url(#linear-gradient-5);}.cls-20{fill:url(#linear-gradient-6);}.cls-21{fill:url(#linear-gradient-7);}.cls-22{fill:url(#linear-gradient-8);}.cls-23{fill:url(#linear-gradient-9);}.cls-24{fill:#fcfcfc;}.cls-25{fill:#eaeaea;}.cls-26{fill:#a6a8ab;}.cls-27{fill:#efce73;}.cls-28{fill:#616775;}.cls-29{fill:#d8d8d8;}.cls-30{fill:#efb065;}.cls-31{fill:#f95353;}.cls-32{fill:#fec873;}.cls-33{fill:#e39b47;}.cls-34{fill:#efd5a9;}.cls-35{fill:#d6b59d;}.cls-36{fill:#c3a386;}.cls-37{fill:#5d5f63;}.cls-38,.cls-39{mix-blend-mode:multiply;}.cls-38{fill:url(#linear-gradient-10);}.cls-39{fill:#bdbec0;}.cls-40{fill:#4b72aa;}.cls-41{fill:#f9f9f9;}.cls-42{font-size:61.5px;font-family: 'Montserrat', sans-serif!important;letter-spacing:-0.01em;}.cls-43{letter-spacing:0em;}.cls-44{letter-spacing:-0.01em;}.cls-45{letter-spacing:-0.01em;}.cls-46{letter-spacing:-0.04em;}.cls-47{letter-spacing:-0.01em;}.cls-48{letter-spacing:0em;}.cls-49{fill:none;}.cls-50{opacity:0.2;}.cls-51{fill:#353535;}</style><linearGradient id="linear-gradient" x1="7216.62" y1="2381.33" x2="7201.14" y2="2381.33" gradientTransform="matrix(0.01, -1, -1, -0.01, 2554.23, 7716.21)" gradientUnits="userSpaceOnUse"><stop offset="0" stop-color="#dcddde"/><stop offset="1" stop-color="#a7a9ac"/></linearGradient><linearGradient id="linear-gradient-2" x1="7216.63" y1="2392.89" x2="7201.16" y2="2392.89" xlink:href="#linear-gradient"/><linearGradient id="linear-gradient-3" x1="7216.64" y1="2404.44" x2="7201.17" y2="2404.44" xlink:href="#linear-gradient"/><linearGradient id="linear-gradient-4" x1="7216.66" y1="2416" x2="7201.18" y2="2416" xlink:href="#linear-gradient"/><linearGradient id="linear-gradient-5" x1="7216.67" y1="2427.56" x2="7201.2" y2="2427.56" xlink:href="#linear-gradient"/><linearGradient id="linear-gradient-6" x1="7216.68" y1="2439.12" x2="7201.21" y2="2439.12" xlink:href="#linear-gradient"/><linearGradient id="linear-gradient-7" x1="7216.7" y1="2450.67" x2="7201.23" y2="2450.67" xlink:href="#linear-gradient"/><linearGradient id="linear-gradient-8" x1="7216.71" y1="2462.23" x2="7201.23" y2="2462.23" xlink:href="#linear-gradient"/><linearGradient id="linear-gradient-9" x1="7216.73" y1="2473.78" x2="7201.25" y2="2473.78" xlink:href="#linear-gradient"/><linearGradient id="linear-gradient-10" x1="271.62" y1="761" x2="271.62" y2="304" gradientUnits="userSpaceOnUse"><stop offset="0.31" stop-color="#fff"/><stop offset="0.47" stop-color="#fafbfb"/><stop offset="0.65" stop-color="#ededee"/><stop offset="0.84" stop-color="#d7d8d9"/><stop offset="1" stop-color="#bdbec0"/></linearGradient></defs><title>computacion</title><g class="cls-1"><g id="Capa_1" data-name="Capa 1"><polyline class="cls-2" points="0 0 0 767 1343 767 1343 0"/><path class="cls-3" d="M768.8,333.11,720.07,214.24c-1.87-4.56-5.94-7.51-10.36-7.51a10.07,10.07,0,0,0-4.83,1.24l-43.22,23.28c-5.69,3.07-8.15,10.87-5.47,17.39l48.73,118.87a9.82,9.82,0,0,0,8.87,6.43,8.63,8.63,0,0,0,4.13-1.06L764.12,348C769,345.37,771.09,338.69,768.8,333.11Z" transform="translate(2 9)"/><path class="cls-4" d="M765.42,341.47l-46.21,24.89c-4.45,2.4-9.81.19-11.9-4.92L658.57,242.57c-2.48-6-.19-13.3,5.08-16.14l43.22-23.28c5.28-2.84,11.62-.22,14.1,5.82l48.73,118.87C771.8,332.94,769.87,339.08,765.42,341.47Z" transform="translate(2 9)"/><path class="cls-5" d="M715.43,368.27a9.82,9.82,0,0,1-8.87-6.43L657.83,243c-2.68-6.52-.22-14.32,5.48-17.39l43.22-23.28a10.08,10.08,0,0,1,4.83-1.24c4.43,0,8.49,2.95,10.36,7.51l48.73,118.87c2.29,5.58.19,12.26-4.68,14.88l-46.21,24.89A8.63,8.63,0,0,1,715.43,368.27ZM711.36,203a8.63,8.63,0,0,0-4.13,1.06L664,227.29c-4.87,2.63-7,9.3-4.69,14.88L708.05,361a8.17,8.17,0,0,0,7.38,5.34,7.17,7.17,0,0,0,3.43-.88l46.21-24.89c4.05-2.18,5.8-7.73,3.9-12.37L720.23,209.38A9.82,9.82,0,0,0,711.36,203Z" transform="translate(2 9)"/><path class="cls-6" d="M763.07,320l-56.81,30.6L663.37,246a2,2,0,0,1,.79-2.49l53.84-29a1.55,1.55,0,0,1,2.18.9Z" transform="translate(2 9)"/><path class="cls-7" d="M693.61,220.06l-10.13,5.45a.38.38,0,0,1-.52-.23h0a.49.49,0,0,1,.18-.61l10.13-5.45a.38.38,0,0,1,.52.23h0A.49.49,0,0,1,693.61,220.06Z" transform="translate(2 9)"/><path class="cls-7" d="M681,226.31a1.13,1.13,0,0,1-.41,1.42.88.88,0,0,1-1.22-.54,1.13,1.13,0,0,1,.41-1.42A.88.88,0,0,1,681,226.31Z" transform="translate(2 9)"/><path class="cls-8" d="M743.09,342c1.27,3.1.21,6.73-2.36,8.11s-5.69,0-7-3.1-.21-6.73,2.36-8.11S741.82,338.87,743.09,342Z" transform="translate(2 9)"/><path class="cls-9" d="M720.18,215.37l-37.83,76.89-19-46.3s-.43-1.85.72-2.47l54-29.07A1.51,1.51,0,0,1,720.18,215.37Z" transform="translate(2 9)"/><path class="cls-3" d="M709.22,403,580.3,358.25c-6.06-2.1-12.47,1.83-14.3,8.76L512.7,568.44c-1.83,6.93,1.59,14.29,7.64,16.39l128.92,44.75c6.06,2.09,12.47-1.84,14.3-8.76l53.31-201.45C718.7,412.44,715.27,405.09,709.22,403Z" transform="translate(2 9)"/><path class="cls-5" d="M660.26,615.15c-1.84,6.92-8.24,10.85-14.3,8.76L517,579.16c-6.05-2.1-9.48-9.46-7.64-16.39l53.3-201.43c1.83-6.93,8.25-10.86,14.3-8.76l128.92,44.74c6.05,2.1,9.48,9.45,7.65,16.38Z" transform="translate(2 9)"/><path class="cls-4" d="M658.61,614.57c-1.56,5.9-7,9.23-12.15,7.44L517.54,577.27c-5.14-1.78-8.06-8-6.5-13.92l53.3-201.43c1.57-5.9,7-9.24,12.16-7.45l128.92,44.74c5.14,1.79,8.06,8,6.49,13.92Z" transform="translate(2 9)"/><polygon class="cls-6" points="660.46 613.26 518.05 563.63 567.84 376.19 710.25 425.82 660.46 613.26"/><polygon class="cls-9" points="710.25 425.82 535.73 497.06 567.84 376.19 710.25 425.82"/><path class="cls-8" d="M590.88,592.25c-1.08,4.07-4.84,6.37-8.4,5.13s-5.56-5.54-4.48-9.62,4.84-6.37,8.4-5.13S592,588.18,590.88,592.25Z" transform="translate(2 9)"/><path class="cls-7" d="M648.66,389.11l-19.84-6.92a.45.45,0,0,1-.25-.54l0-.11a.37.37,0,0,1,.47-.29l19.84,6.92a.45.45,0,0,1,.25.54l0,.11A.37.37,0,0,1,648.66,389.11Z" transform="translate(2 9)"/><path class="cls-7" d="M626.52,380.88a1,1,0,0,1-1.26.77,1.19,1.19,0,0,1-.67-1.44,1,1,0,0,1,1.26-.77A1.19,1.19,0,0,1,626.52,380.88Z" transform="translate(2 9)"/><path class="cls-3" d="M246.25,486.2l-13.09-.12a1.48,1.48,0,0,0-2.81,0l-8.75-.08a1.47,1.47,0,0,0-2.8,0l-8.75-.08a1.47,1.47,0,0,0-2.81,0l-8.75-.08a1.47,1.47,0,0,0-2.81,0l-8.75-.08a1.48,1.48,0,0,0-2.81,0l-8.75-.08a1.48,1.48,0,0,0-2.81,0l-8.74-.08a1.48,1.48,0,0,0-2.81,0l-8.75-.08a1.47,1.47,0,0,0-2.81,0l-8.74-.08a1.57,1.57,0,0,0-1.4-1,1.56,1.56,0,0,0-1.42,1l-13.11-.12c-2.39,0-4.36,2.2-4.37,4.94l-1.3,190.89c0,2.73,1.92,5,4.31,5L244.89,687c2.39,0,4.36-2.2,4.38-4.94l1.29-190.89C250.59,488.48,248.64,486.22,246.25,486.2Z" transform="translate(2 9)"/><path class="cls-10" d="M246,678.33c0,2.73-2,5-4.38,4.94l-121.48-1.09c-2.39,0-4.33-2.28-4.31-5l1.3-190.89c0-2.74,2-5,4.37-4.94L243,482.42c2.39,0,4.35,2.28,4.32,5Z" transform="translate(2 9)"/><path class="cls-11" d="M128.87,673.32c-3.43,0-6.22-3.27-6.19-7.2l1.14-167.71c0-3.93,2.86-7.12,6.29-7.1l104.09.93c3.43,0,6.22,3.28,6.19,7.2l-1.14,167.71c0,3.94-2.85,7.12-6.28,7.1Z" transform="translate(2 9)"/><path class="cls-12" d="M128.88,672c-3.43,0-6.21-3.27-6.19-7.21l1.14-167.7c0-3.94,2.86-7.13,6.29-7.1l104.09.93c3.43,0,6.22,3.27,6.2,7.2l-1.14,167.71c0,3.93-2.86,7.13-6.29,7.1Z" transform="translate(2 9)"/><path class="cls-13" d="M123.83,495.71l0,3c0-3.94,2.85-7.12,6.29-7.09l104.1.93c3.43,0,6.22,3.27,6.19,7.2v-3c0-3.93-2.76-7.17-6.18-7.2l-104.1-.92C126.69,488.6,123.86,491.8,123.83,495.71Z" transform="translate(2 9)"/><path class="cls-8" d="M128.89,670.63c-3.43,0-6.22-3.27-6.19-7.2l1.14-167.71c0-3.93,2.85-7.12,6.29-7.08l104.09.92c3.43,0,6.22,3.28,6.19,7.2l-1.14,167.71c0,3.93-2.86,7.12-6.29,7.09Z" transform="translate(2 9)"/><path class="cls-14" d="M228.38,494.08a2.16,2.16,0,0,0-2,2.27,2.18,2.18,0,0,0,2,2.32,2.32,2.32,0,0,0,0-4.59Z" transform="translate(2 9)"/><path class="cls-15" d="M228.46,481.26a1.67,1.67,0,0,0-1.57,1.76l-.09,12.75a1.69,1.69,0,0,0,1.55,1.79h0a1.68,1.68,0,0,0,1.57-1.77l.09-12.75a1.68,1.68,0,0,0-1.55-1.79Z" transform="translate(2 9)"/><path class="cls-14" d="M216.82,494a2.31,2.31,0,1,0,2,2.31A2.16,2.16,0,0,0,216.82,494Z" transform="translate(2 9)"/><path class="cls-16" d="M216.9,481.16a1.66,1.66,0,0,0-1.57,1.76l-.09,12.75a1.67,1.67,0,0,0,1.54,1.79h0a1.67,1.67,0,0,0,1.57-1.76l.08-12.74a1.67,1.67,0,0,0-1.54-1.79Z" transform="translate(2 9)"/><path class="cls-14" d="M205.26,493.88a2.15,2.15,0,0,0-2,2.27,2.19,2.19,0,0,0,2,2.31,2.32,2.32,0,0,0,0-4.59Z" transform="translate(2 9)"/><path class="cls-17" d="M205.35,481.06a1.67,1.67,0,0,0-1.57,1.76l-.09,12.75a1.7,1.7,0,0,0,1.56,1.79h0a1.68,1.68,0,0,0,1.56-1.76l.08-12.75a1.67,1.67,0,0,0-1.54-1.79Z" transform="translate(2 9)"/><path class="cls-14" d="M193.7,493.77a2.15,2.15,0,0,0-2,2.27,2,2,0,1,0,2-2.27Z" transform="translate(2 9)"/><path class="cls-18" d="M193.79,480.95a1.67,1.67,0,0,0-1.56,1.76l-.09,12.75a1.68,1.68,0,0,0,1.54,1.79h0a1.68,1.68,0,0,0,1.57-1.77l.09-12.75a1.69,1.69,0,0,0-1.55-1.79Z" transform="translate(2 9)"/><path class="cls-14" d="M182.14,493.67a2.32,2.32,0,1,0,2,2.31A2.17,2.17,0,0,0,182.14,493.67Z" transform="translate(2 9)"/><path class="cls-19" d="M182.23,480.85a1.67,1.67,0,0,0-1.57,1.75l-.08,12.75a1.68,1.68,0,0,0,1.54,1.79h0a1.68,1.68,0,0,0,1.58-1.76l.08-12.75a1.67,1.67,0,0,0-1.55-1.78Z" transform="translate(2 9)"/><path class="cls-14" d="M170.59,493.57a2.32,2.32,0,1,0,2,2.31A2.15,2.15,0,0,0,170.59,493.57Z" transform="translate(2 9)"/><path class="cls-20" d="M170.68,480.75a1.66,1.66,0,0,0-1.58,1.76L169,495.25a1.69,1.69,0,0,0,1.56,1.79h0a1.67,1.67,0,0,0,1.56-1.76l.09-12.75a1.68,1.68,0,0,0-1.54-1.78Z" transform="translate(2 9)"/><path class="cls-14" d="M159,493.47a2.15,2.15,0,0,0-2,2.27,2,2,0,1,0,2-2.27Z" transform="translate(2 9)"/><path class="cls-21" d="M159.12,480.65a1.68,1.68,0,0,0-1.58,1.76l-.09,12.75a1.69,1.69,0,0,0,1.55,1.79h0a1.67,1.67,0,0,0,1.57-1.76l.08-12.75a1.67,1.67,0,0,0-1.54-1.79Z" transform="translate(2 9)"/><path class="cls-14" d="M147.47,493.36a2.31,2.31,0,1,0,2,2.31A2.17,2.17,0,0,0,147.47,493.36Z" transform="translate(2 9)"/><path class="cls-22" d="M147.56,480.54A1.68,1.68,0,0,0,146,482.3L145.91,495a1.69,1.69,0,0,0,1.54,1.8h0a1.69,1.69,0,0,0,1.57-1.77l.09-12.75a1.68,1.68,0,0,0-1.55-1.79Z" transform="translate(2 9)"/><path class="cls-14" d="M135.92,493.26a2.32,2.32,0,1,0,2,2.31A2.15,2.15,0,0,0,135.92,493.26Z" transform="translate(2 9)"/><path class="cls-23" d="M136,480.44a1.67,1.67,0,0,0-1.57,1.76l-.09,12.75a1.68,1.68,0,0,0,1.55,1.79h0a1.68,1.68,0,0,0,1.58-1.77l.09-12.75a1.69,1.69,0,0,0-1.55-1.79Z" transform="translate(2 9)"/><path class="cls-3" d="M829.36,394.69l-3.54-.47.15-1.42-11.2-1.6-.31,2.89c-36.25-1.94-58.63,22.56-64.9,30.52l0,0c-1,1-1.91,2-2.81,3-.93.79-1.85,1.58-2.74,2.46-18.5,18.07-22.76,47.27-9.49,65.09a32.5,32.5,0,0,0,12,10c12.51,8.38,29.84,7.1,44.24-3.73a81.13,81.13,0,0,1-22.37,19.34l-2.52-6.44L749,523l-3-8-36,17.91,1.2,3.16-6.18,3.07,1.14,3-5.27,2.62-3.36,1.67h0l-.5.25a1.39,1.39,0,0,0-.59,1.72l.43,1.14a1.1,1.1,0,0,0,1.5.68l.5-.25h0l4-2h0l4.59-2.28L712,557.75l-9.13,4.54a1.39,1.39,0,0,0-.59,1.72l.43,1.14a1.1,1.1,0,0,0,1.5.68l.5-.25h0l4-2h0l4.59-2.28,1.14,3,6.18-3.07,1.26,3.33,36-17.91-3.38-8.92,17-8.75-1.87-4.76a87.76,87.76,0,0,0,33.94-36.53,57.55,57.55,0,0,0,9-23.62c4.08-14.13,2.48-29.09-5.55-39.87-9.88-13.27-26.74-16.53-42.34-9.88,10.74-8.64,27.34-17.57,49.26-16.48l-.28,2.58L825,402l.13-1.17,3.59.48a2,2,0,0,0,2.11-1.92l.23-2.31A2.14,2.14,0,0,0,829.36,394.69ZM740.87,495a35.61,35.61,0,0,1-6.52-16.4A37.74,37.74,0,0,0,740,489.74c8.08,10.85,20.82,15,33.73,12.51-8.88,3.28-18,3.17-25.72-.43A29.59,29.59,0,0,1,740.87,495Zm51.21-.26c1-1,1.91-2,2.81-3,.93-.79,1.85-1.58,2.74-2.46s1.77-1.81,2.61-2.75a53.32,53.32,0,0,1-6.41,7.56,46.69,46.69,0,0,1-14.73,9.83A50.68,50.68,0,0,0,792.08,494.72Zm17.72-34.78c-.35,1.85-.92,4.41-1.78,7.47q-.47,1.2-1,2.38A51.67,51.67,0,0,0,808.51,446,42.81,42.81,0,0,1,809.81,459.94Zm-10.75-27.87c11.41,15.33,8.4,40.06-6.36,56.85-16.83,14.18-38.73,13.74-50.18-1.64-5.89-7.91-7.93-18.32-6.51-28.86a54,54,0,0,1,14-23.22c12.81-12.51,29.34-15.87,41.92-10A29.59,29.59,0,0,1,799.06,432.08Zm-51.21.26c-.91.89-1.77,1.81-2.61,2.75a53.64,53.64,0,0,1,3.65-4.65c.47-.4,1-.77,1.44-1.15l0,0,.1-.15a45.08,45.08,0,0,1,10.35-6.07A50.69,50.69,0,0,0,747.85,432.34Zm-13.3,17.24a55.75,55.75,0,0,0-1.74,8,51.6,51.6,0,0,0-1.39,23.53C728.77,471.26,729.95,459.92,734.55,449.57Zm70.06-22.92a35.61,35.61,0,0,1,6.52,16.4,37.74,37.74,0,0,0-5.66-11.16,32.5,32.5,0,0,0-12-10,34,34,0,0,0-25.6-4.77C781.62,412,796,415.14,804.62,426.65Z" transform="translate(2 9)"/><path class="cls-24" d="M717.53,552.64l.44,1.15a1.38,1.38,0,0,1-.59,1.71l-13.18,6.55a1.09,1.09,0,0,1-1.49-.67l-.44-1.15a1.38,1.38,0,0,1,.59-1.71L716,552A1.09,1.09,0,0,1,717.53,552.64Z" transform="translate(2 9)"/><path class="cls-24" d="M711.62,537l.44,1.15a1.38,1.38,0,0,1-.59,1.71l-13.18,6.55a1.09,1.09,0,0,1-1.49-.67l-.44-1.15a1.38,1.38,0,0,1,.59-1.71l13.18-6.55A1.09,1.09,0,0,1,711.62,537Z" transform="translate(2 9)"/><path class="cls-25" d="M707.4,556.26l-4,2a2.05,2.05,0,0,0-.87,2.54,1.61,1.61,0,0,0,2.22,1l4-2Z" transform="translate(2 9)"/><path class="cls-25" d="M701.49,540.65l-4,2a2.05,2.05,0,0,0-.87,2.54,1.61,1.61,0,0,0,2.22,1l4-2Z" transform="translate(2 9)"/><polygon class="cls-25" points="718.56 538.57 728.11 563.75 716.47 569.53 706.93 544.35 718.56 538.57"/><polygon class="cls-4" points="747.95 520.21 759.95 551.89 723.91 569.79 711.91 538.12 747.95 520.21"/><path class="cls-4" d="M734.46,491.39c-13.27-17.82-9-47,9.49-65.09s44.35-18.27,57.62-.45,9,47-9.49,65.09S747.73,509.22,734.46,491.39Zm64.6-63.09c-12.09-16.24-35.85-15.85-53,.87S724.88,472.7,737,488.94s35.85,15.85,53-.87S811.15,444.54,799.06,428.3Z" transform="translate(2 9)"/><path class="cls-4" d="M740,486c-13.27-17.82-9-47,9.49-65.09s44.35-18.27,57.62-.44,9,47-9.49,65.09S753.29,503.79,740,486Zm64.6-63.09c-12.09-16.24-35.85-15.85-53,.87s-21.21,43.53-9.12,59.77,35.85,15.85,53-.87S816.71,439.12,804.62,422.88Z" transform="translate(2 9)"/><path class="cls-4" d="M738.36,493.66c-13.27-17.82-9-47,9.49-65.09s44.35-18.27,57.62-.44,9,47-9.49,65.09S751.63,511.48,738.36,493.66ZM803,430.57c-12.09-16.24-35.85-15.85-53,.87s-21.21,43.53-9.12,59.77,35.85,15.85,53-.87S815.06,446.81,803,430.57Z" transform="translate(2 9)"/><path class="cls-4" d="M747.74,423.28c.24-.36,24.13-36,67.91-32.92l-.2,3.77c-42-2.91-64.85,31.08-65.08,31.42Z" transform="translate(2 9)"/><path class="cls-4" d="M813.62,453.35c0,.45-5.19,45-44.42,67.42l-1.48-3.38c37.6-21.53,42.58-64.07,42.62-64.5Z" transform="translate(2 9)"/><polygon class="cls-4" points="755.79 543.37 750.04 528.71 767.84 519.56 773.58 534.22 755.79 543.37"/><polygon class="cls-26" points="760.78 533.5 759.8 530.99 762.84 529.43 763.82 531.93 760.78 533.5"/><path class="cls-26" d="M821.2,394.38l.24-2.34a2,2,0,0,1,2.09-1.9l5.84.77a2.13,2.13,0,0,1,1.66,2.4l-.24,2.34a2,2,0,0,1-2.09,1.9l-5.84-.77A2.13,2.13,0,0,1,821.2,394.38Z" transform="translate(2 9)"/><path class="cls-4" d="M826.53,395.47l.31-3.05a1,1,0,0,1,1-.92l1,.13a1,1,0,0,1,.8,1.16l-.31,3.05a1,1,0,0,1-1,.92l-1-.13A1,1,0,0,1,826.53,395.47Z" transform="translate(2 9)"/><path class="cls-27" d="M827.6,392.58v-.08a.07.07,0,0,1,.07-.07l1.31.17a.07.07,0,0,1,.06.08v.08a.07.07,0,0,1-.07.06l-1.31-.17A.07.07,0,0,1,827.6,392.58Z" transform="translate(2 9)"/><path class="cls-27" d="M827.54,393.14h0a.1.1,0,0,1,.11-.1l1.24.16a.11.11,0,0,1,.09.13h0a.1.1,0,0,1-.11.1l-1.24-.16A.11.11,0,0,1,827.54,393.14Z" transform="translate(2 9)"/><path class="cls-27" d="M827.48,393.74h0a.1.1,0,0,1,.11-.1l1.24.16a.11.11,0,0,1,.09.13h0a.1.1,0,0,1-.11.1l-1.24-.16A.11.11,0,0,1,827.48,393.74Z" transform="translate(2 9)"/><path class="cls-27" d="M827.42,394.34h0a.1.1,0,0,1,.11-.1l1.24.16a.11.11,0,0,1,.09.13h0a.1.1,0,0,1-.11.1l-1.24-.16A.11.11,0,0,1,827.42,394.34Z" transform="translate(2 9)"/><path class="cls-27" d="M827.36,394.95h0a.1.1,0,0,1,.11-.1l1.24.16a.11.11,0,0,1,.09.13h0a.1.1,0,0,1-.11.1l-1.24-.16A.11.11,0,0,1,827.36,394.95Z" transform="translate(2 9)"/><path class="cls-27" d="M827.29,395.59v-.08a.07.07,0,0,1,.07-.07l1.31.17a.07.07,0,0,1,.06.08v.08a.07.07,0,0,1-.07.07l-1.31-.17A.07.07,0,0,1,827.29,395.59Z" transform="translate(2 9)"/><polygon class="cls-4" points="815.76 405.65 816.76 396.42 827.97 398.02 826.97 407.25 815.76 405.65"/><polygon class="cls-26" points="820.82 402.49 820.99 400.91 822.91 401.18 822.74 402.76 820.82 402.49"/><path class="cls-3" d="M385.38,507.92,312,562.62c-4.91,3.66-6.31,11.21-3.11,16.84l67.44,118.68c3.2,5.63,9.79,7.22,14.7,3.56L464.41,647c4.91-3.66,6.31-11.21,3.11-16.84L400.08,511.48C396.89,505.86,390.29,504.26,385.38,507.92Z" transform="translate(2 9)"/><path class="cls-10" d="M459,644.32,385.57,699c-4.14,3.08-9.73,1.73-12.42-3L305.71,577.32c-2.69-4.74-1.51-11.14,2.63-14.23l73.38-54.69c4.14-3.08,9.73-1.73,12.42,3l67.44,118.68C464.27,634.83,463.09,641.23,459,644.32Z" transform="translate(2 9)"/><path class="cls-28" d="M459.85,645.9l-73.38,54.69c-4.91,3.66-11.51,2.06-14.7-3.56L304.33,578.35c-3.2-5.62-1.8-13.18,3.11-16.84l73.38-54.69c4.91-3.66,11.51-2.06,14.7,3.56L463,629.06C466.16,634.69,464.76,642.24,459.85,645.9ZM309.24,564.67c-3.39,2.53-4.35,7.73-2.15,11.61L374.53,695c2.2,3.88,6.75,5,10.14,2.46l73.38-54.69c3.39-2.52,4.35-7.73,2.14-11.61L392.76,512.44c-2.2-3.88-6.75-5-10.14-2.46Z" transform="translate(2 9)"/><path class="cls-29" d="M353.1,615.06l-10.19,7.6a2.84,2.84,0,0,1-4.23-1l-2.25-4a3.83,3.83,0,0,1,.9-4.85l10.19-7.6a2.84,2.84,0,0,1,4.23,1l2.25,4A3.83,3.83,0,0,1,353.1,615.06Z" transform="translate(2 9)"/><path class="cls-29" d="M373.82,599.61l-10.19,7.6a2.84,2.84,0,0,1-4.23-1l-2.25-4a3.84,3.84,0,0,1,.9-4.85l10.19-7.6a2.84,2.84,0,0,1,4.23,1l2.25,4A3.83,3.83,0,0,1,373.82,599.61Z" transform="translate(2 9)"/><path class="cls-29" d="M394.55,584.16l-10.19,7.6a2.84,2.84,0,0,1-4.23-1l-2.25-4a3.83,3.83,0,0,1,.9-4.85l10.19-7.6a2.84,2.84,0,0,1,4.23,1l2.25,4A3.83,3.83,0,0,1,394.55,584.16Z" transform="translate(2 9)"/><path class="cls-30" d="M415.27,568.71l-10.19,7.6a2.84,2.84,0,0,1-4.23-1l-2.25-4a3.83,3.83,0,0,1,.9-4.85l10.19-7.6a2.84,2.84,0,0,1,4.23,1l2.25,4A3.83,3.83,0,0,1,415.27,568.71Z" transform="translate(2 9)"/><path class="cls-4" d="M362.59,631.77l-10.19,7.6a2.84,2.84,0,0,1-4.23-1l-2.25-4a3.83,3.83,0,0,1,.9-4.85l10.19-7.6a2.84,2.84,0,0,1,4.23,1l2.25,4A3.83,3.83,0,0,1,362.59,631.77Z" transform="translate(2 9)"/><path class="cls-4" d="M383.32,616.32l-10.19,7.6a2.84,2.84,0,0,1-4.23-1l-2.25-4a3.84,3.84,0,0,1,.9-4.85l10.19-7.6a2.84,2.84,0,0,1,4.23,1l2.25,4A3.83,3.83,0,0,1,383.32,616.32Z" transform="translate(2 9)"/><path class="cls-4" d="M404,600.88l-10.19,7.6a2.84,2.84,0,0,1-4.23-1l-2.25-4a3.83,3.83,0,0,1,.9-4.85l10.19-7.6a2.84,2.84,0,0,1,4.23,1l2.25,4A3.83,3.83,0,0,1,404,600.88Z" transform="translate(2 9)"/><path class="cls-31" d="M424.77,585.43,414.58,593a2.84,2.84,0,0,1-4.23-1l-2.25-4a3.83,3.83,0,0,1,.9-4.85l10.19-7.6a2.84,2.84,0,0,1,4.23,1l2.25,4A3.83,3.83,0,0,1,424.77,585.43Z" transform="translate(2 9)"/><path class="cls-4" d="M372.09,648.49l-10.19,7.6a2.84,2.84,0,0,1-4.23-1l-2.25-4a3.83,3.83,0,0,1,.9-4.85l10.19-7.6a2.84,2.84,0,0,1,4.23,1l2.25,4A3.83,3.83,0,0,1,372.09,648.49Z" transform="translate(2 9)"/><path class="cls-4" d="M392.82,633l-10.19,7.6a2.84,2.84,0,0,1-4.23-1l-2.25-4a3.83,3.83,0,0,1,.9-4.85l10.19-7.6a2.84,2.84,0,0,1,4.23,1l2.25,4A3.84,3.84,0,0,1,392.82,633Z" transform="translate(2 9)"/><path class="cls-4" d="M413.54,617.59l-10.19,7.6a2.84,2.84,0,0,1-4.23-1l-2.25-4a3.83,3.83,0,0,1,.9-4.85l10.19-7.6a2.84,2.84,0,0,1,4.23,1l2.25,4A3.83,3.83,0,0,1,413.54,617.59Z" transform="translate(2 9)"/><path class="cls-4" d="M434.27,602.14l-10.19,7.6a2.84,2.84,0,0,1-4.23-1l-2.25-4a3.84,3.84,0,0,1,.9-4.85l10.19-7.6a2.84,2.84,0,0,1,4.23,1l2.25,4A3.83,3.83,0,0,1,434.27,602.14Z" transform="translate(2 9)"/><path class="cls-4" d="M381.59,665.2l-10.19,7.6a2.84,2.84,0,0,1-4.23-1l-2.25-4a3.83,3.83,0,0,1,.9-4.85l10.19-7.6a2.84,2.84,0,0,1,4.23,1l2.25,4A3.83,3.83,0,0,1,381.59,665.2Z" transform="translate(2 9)"/><path class="cls-4" d="M402.31,649.75l-10.19,7.6a2.84,2.84,0,0,1-4.23-1l-2.25-4a3.83,3.83,0,0,1,.9-4.85l10.19-7.6a2.84,2.84,0,0,1,4.23,1l2.25,4A3.84,3.84,0,0,1,402.31,649.75Z" transform="translate(2 9)"/><path class="cls-4" d="M423,634.3l-10.19,7.6a2.84,2.84,0,0,1-4.23-1l-2.25-4a3.84,3.84,0,0,1,.9-4.85l10.19-7.6a2.84,2.84,0,0,1,4.23,1l2.25,4A3.83,3.83,0,0,1,423,634.3Z" transform="translate(2 9)"/><path class="cls-4" d="M443.76,618.86l-10.19,7.6a2.84,2.84,0,0,1-4.23-1l-2.25-4a3.83,3.83,0,0,1,.9-4.85l10.19-7.6a2.84,2.84,0,0,1,4.23,1l2.25,4A3.83,3.83,0,0,1,443.76,618.86Z" transform="translate(2 9)"/><path class="cls-4" d="M391.09,681.91l-10.19,7.6a2.84,2.84,0,0,1-4.23-1l-2.25-4a3.83,3.83,0,0,1,.9-4.85l10.19-7.6a2.84,2.84,0,0,1,4.23,1l2.25,4A3.83,3.83,0,0,1,391.09,681.91Z" transform="translate(2 9)"/><path class="cls-4" d="M411.81,666.47l-10.19,7.6a2.84,2.84,0,0,1-4.23-1l-2.25-4a3.83,3.83,0,0,1,.9-4.85l10.19-7.6a2.84,2.84,0,0,1,4.23,1l2.25,4A3.83,3.83,0,0,1,411.81,666.47Z" transform="translate(2 9)"/><path class="cls-4" d="M432.54,651l-10.19,7.6a2.84,2.84,0,0,1-4.23-1l-2.25-4a3.83,3.83,0,0,1,.9-4.85l10.19-7.6a2.84,2.84,0,0,1,4.23,1l2.25,4A3.83,3.83,0,0,1,432.54,651Z" transform="translate(2 9)"/><path class="cls-4" d="M453.26,635.57l-10.19,7.6a2.84,2.84,0,0,1-4.23-1l-2.25-4a3.83,3.83,0,0,1,.9-4.85l10.19-7.6a2.84,2.84,0,0,1,4.23,1l2.25,4A3.83,3.83,0,0,1,453.26,635.57Z" transform="translate(2 9)"/><path class="cls-6" d="M403.31,551.11,333.7,603a3.23,3.23,0,0,1-4.81-1.17L316,579.16a4.36,4.36,0,0,1,1-5.51l69.61-51.88a3.23,3.23,0,0,1,4.81,1.17l12.88,22.67A4.36,4.36,0,0,1,403.31,551.11Z" transform="translate(2 9)"/><path class="cls-28" d="M403.74,551.92l-69.57,51.85a4,4,0,0,1-6-1.45L315.33,579.7a5.41,5.41,0,0,1,1.27-6.86L386.16,521a4,4,0,0,1,6,1.45L405,545.06A5.41,5.41,0,0,1,403.74,551.92Zm-86.24,22.51a3.35,3.35,0,0,0-.78,4.24l12.85,22.62a2.48,2.48,0,0,0,3.71.9l69.57-51.85a3.35,3.35,0,0,0,.78-4.24l-12.85-22.62a2.48,2.48,0,0,0-3.71-.9Z" transform="translate(2 9)"/><polygon class="cls-32" points="472.01 502.84 471.24 506.13 337.06 465.11 337.82 461.83 472.01 502.84"/><polygon class="cls-30" points="472.77 499.56 472.01 502.84 337.82 461.83 338.6 458.54 472.77 499.56"/><polygon class="cls-33" points="473.54 496.27 472.77 499.56 338.6 458.54 339.36 455.24 473.54 496.27"/><polygon class="cls-34" points="337.82 461.83 318.87 454.32 337.06 465.11 337.82 461.83"/><polygon class="cls-35" points="318.87 454.32 338.6 458.54 337.82 461.83 318.87 454.32"/><polygon class="cls-36" points="318.87 454.32 339.36 455.24 338.6 458.54 318.87 454.32"/><path class="cls-37" d="M322,446.42a1.53,1.53,0,0,1-.06.33,2.72,2.72,0,0,1-.16.52,5.5,5.5,0,0,1-.34.74l-4.54-2.68,5.15.23A3.87,3.87,0,0,1,322,446.42Z" transform="translate(2 9)"/><polygon class="cls-38" points="142.78 416.59 2 577.83 2 756.07 142.22 761 541.24 304 142.78 416.59"/><path class="cls-39" d="M252.63,369.92c5.31,26.82,51.43,60.48,97.57,48.49,46.34-12,75-65.13,69.72-92s-47-38.83-93.36-26.8C280.43,311.64,247.32,343.11,252.63,369.92Z" transform="translate(2 9)"/><path class="cls-40" d="M253,368.43c5.31,26.83,51.1,58.84,97.25,46.85,46.33-12,75.36-63.49,70-90.32s-47-38.84-93.35-26.81C280.75,310.15,247.65,341.62,253,368.43Z" transform="translate(2 9)"/><path class="cls-6" d="M253.37,366.57c5.32,26.82,51.43,60.48,97.58,48.49,46.33-12,75-65.13,69.72-92s-47-38.85-93.36-26.81C281.16,308.28,248.06,339.75,253.37,366.57Z" transform="translate(2 9)"/><path class="cls-6" d="M30.76,288.93c.69,3.5,4.52,5.47,8.56,4.42L577.55,153.51c4-1.05,6.76-4.72,6.07-8.22L581,132.14c-.69-3.48-4.53-5.47-8.58-4.41L34.21,267.57c-4,1-6.75,4.73-6.06,8.22Z" transform="translate(2 9)"/><path class="cls-39" d="M542.26,301c-.72,2.66-3.7,5.41-6.65,6.18L142.68,409.26c-2.93.76-6.76-.23-8.55-2.23l-10.85-12.17L547.37,284.67Z" transform="translate(2 9)"/><path class="cls-10" d="M34.91,286.75,578.83,145.42c4.09-1.06,6.3,2.06,5,6.89L548.73,282l-.06.2-.07,0-5.18,16.34c-.73,2.66-3.73,5.42-6.7,6.19L140.78,407.59c-3,.77-6.81-.21-8.61-2.21l-10.92-12.16.09,0-.13-.15L33.47,295.31C30.2,291.67,30.82,287.81,34.91,286.75Z" transform="translate(2 9)"/><path class="cls-8" d="M576.28,155,536.81,293.2,136.5,396.94,44.37,293.65C43.89,293.11,576.28,155,576.28,155Z" transform="translate(2 9)"/><polygon class="cls-4" points="579.73 163.4 541.24 304 137.43 406.49 46 302.26 579.73 163.4"/><polygon class="cls-41" points="579.73 163.4 335.39 354.92 541.24 304 579.73 163.4"/><text class="cls-42" transform="translate(886.11 394.38) scale(0.87 1)">COMPUTACIÓN<tspan class="cls-43" x="43.54" y="0"></tspan><tspan class="cls-44" x="153.92" y="0"></tspan><tspan class="cls-45" x="197.83" y="0"></tspan><tspan class="cls-46" x="245.68" y="0"></tspan><tspan class="cls-47" x="279.62" y="0"></tspan><tspan class="cls-48" x="324.02" y="0"></tspan></text><path class="cls-49" d="M-1.77,513.11C-2,343-2,172-1.69,2" transform="translate(2 9)"/><path class="cls-49" d="M1334,2c-1,249,2,499-1,748H.8" transform="translate(2 9)"/><g class="cls-50"><g class="cls-1"><polygon class="cls-51" points="391.97 318.39 392.97 333.3 524.47 298.31 528.06 282.18 391.97 318.39"/><polygon class="cls-51" points="243.09 346.62 244.49 349.84 529.91 273.89 530.76 270.07 243.09 346.62"/><polygon class="cls-51" points="238.16 335.23 239.63 338.64 532.87 260.61 533.77 256.57 238.16 335.23"/><polygon class="cls-51" points="232.96 323.2 234.51 326.81 536 246.58 536.95 242.31 232.96 323.2"/><polygon class="cls-51" points="115.68 348.65 152.03 397.42 240.91 373.77 216.55 321.81 115.68 348.65"/><polygon class="cls-51" points="227.44 310.47 229.09 314.29 539.31 231.74 540.32 227.22 227.44 310.47"/><polygon class="cls-51" points="208.79 267.39 210.78 271.96 550.5 181.57 551.71 176.14 208.79 267.39"/><polygon class="cls-51" points="80.55 301.51 111.76 343.39 213.92 316.21 193 271.59 80.55 301.51"/></g><polygon class="cls-51" points="221.6 296.98 223.35 301.02 542.82 216.01 543.88 211.22 221.6 296.98"/><polygon class="cls-51" points="215.4 282.64 217.26 286.94 546.54 199.32 547.67 194.22 215.4 282.64"/></g></g></g></svg>