<svg xmlns="http://www.w3.org/2000/svg" xmlns:xlink="http://www.w3.org/1999/xlink" viewBox="0 0 709 257"><defs><style>.cls-1{isolation:isolate;}.cls-2{fill:#4bc1dd;}.cls-3{fill:#30acce;opacity:0.7;}.cls-4{fill:#f4f4f4;}.cls-5{fill:#bbbdbf;}.cls-6{fill:#2c2e3a;}.cls-7{fill:#343a54;}.cls-8{fill:#fff;}.cls-9{fill:#f2f2f2;opacity:0.17;}.cls-10{fill:#414654;}.cls-11{fill:#bcbec0;}.cls-12{fill:#d1d3d4;}.cls-13{fill:#f1f2f2;}.cls-14{fill:#808285;}.cls-15{fill:url(#linear-gradient);}.cls-16{fill:url(#linear-gradient-2);}.cls-17{fill:url(#linear-gradient-3);}.cls-18{fill:url(#linear-gradient-4);}.cls-19{fill:url(#linear-gradient-5);}.cls-20{fill:url(#linear-gradient-6);}.cls-21{fill:url(#linear-gradient-7);}.cls-22{fill:url(#linear-gradient-8);}.cls-23{fill:url(#linear-gradient-9);}.cls-24{fill:#fcfcfc;}.cls-25{fill:#eaeaea;}.cls-26{fill:#a6a8ab;}.cls-27{fill:#efce73;}.cls-28{fill:#616775;}.cls-29{fill:#d8d8d8;}.cls-30{fill:#efb065;}.cls-31{fill:#f95353;}.cls-32{fill:#fec873;}.cls-33{fill:#e39b47;}.cls-34{fill:#efd5a9;}.cls-35{fill:#d6b59d;}.cls-36{fill:#c3a386;}.cls-37{fill:#5d5f63;}.cls-38,.cls-39{mix-blend-mode:multiply;}.cls-38{fill:url(#linear-gradient-10);}.cls-39{fill:#bdbec0;}.cls-40{fill:#4b72aa;}.cls-41{fill:#f9f9f9;}.cls-42{opacity:0.2;}.cls-43{fill:#353535;}</style><linearGradient id="linear-gradient" x1="6986.05" y1="1773.84" x2="6979.77" y2="1773.84" gradientTransform="matrix(0.01, -1, -1, -0.01, 1989.67, 7147.29)" gradientUnits="userSpaceOnUse"><stop offset="0" stop-color="#dcddde"/><stop offset="1" stop-color="#a7a9ac"/></linearGradient><linearGradient id="linear-gradient-2" x1="6986.06" y1="1778.53" x2="6979.78" y2="1778.53" xlink:href="#linear-gradient"/><linearGradient id="linear-gradient-3" x1="6986.06" y1="1783.22" x2="6979.79" y2="1783.22" xlink:href="#linear-gradient"/><linearGradient id="linear-gradient-4" x1="6986.07" y1="1787.91" x2="6979.79" y2="1787.91" xlink:href="#linear-gradient"/><linearGradient id="linear-gradient-5" x1="6986.07" y1="1792.6" x2="6979.8" y2="1792.6" xlink:href="#linear-gradient"/><linearGradient id="linear-gradient-6" x1="6986.08" y1="1797.29" x2="6979.8" y2="1797.29" xlink:href="#linear-gradient"/><linearGradient id="linear-gradient-7" x1="6986.09" y1="1801.98" x2="6979.81" y2="1801.98" xlink:href="#linear-gradient"/><linearGradient id="linear-gradient-8" x1="6986.09" y1="1806.67" x2="6979.81" y2="1806.67" xlink:href="#linear-gradient"/><linearGradient id="linear-gradient-9" x1="6986.1" y1="1811.36" x2="6979.82" y2="1811.36" xlink:href="#linear-gradient"/><linearGradient id="linear-gradient-10" x1="291.32" y1="260.44" x2="291.32" y2="74.99" gradientUnits="userSpaceOnUse"><stop offset="0.31" stop-color="#fff"/><stop offset="0.47" stop-color="#fafbfb"/><stop offset="0.65" stop-color="#ededee"/><stop offset="0.84" stop-color="#d7d8d9"/><stop offset="1" stop-color="#bdbec0"/></linearGradient></defs><title>computacion700</title><g class="cls-1"><g id="Capa_1" data-name="Capa 1"><polyline class="cls-2" points="0 0 0 257 709 257 709 0"/><path class="cls-3" d="M488.88,87.46,469.1,39.22a4.66,4.66,0,0,0-4.21-3,4.09,4.09,0,0,0-2,.5L445.4,46.12a5.67,5.67,0,0,0-2.22,7.06L463,101.42a4,4,0,0,0,3.6,2.61,3.5,3.5,0,0,0,1.68-.43L487,93.5A4.85,4.85,0,0,0,488.88,87.46Z" transform="translate(5 3)"/><path class="cls-4" d="M487.5,90.85,468.76,101a3.46,3.46,0,0,1-4.83-2L444.15,50.72a5.27,5.27,0,0,1,2.06-6.55l17.54-9.45a4.09,4.09,0,0,1,5.72,2.36l19.78,48.23A4.45,4.45,0,0,1,487.5,90.85Z" transform="translate(5 3)"/><path class="cls-5" d="M467.22,101.73a4,4,0,0,1-3.6-2.61L443.85,50.88a5.67,5.67,0,0,1,2.22-7.06l17.54-9.45a4.09,4.09,0,0,1,2-.5,4.66,4.66,0,0,1,4.21,3l19.78,48.23a4.85,4.85,0,0,1-1.9,6L468.9,101.3A3.5,3.5,0,0,1,467.22,101.73Zm-1.65-67.08a3.5,3.5,0,0,0-1.67.43l-17.54,9.45a4.85,4.85,0,0,0-1.9,6l19.78,48.24a3.31,3.31,0,0,0,3,2.17,2.91,2.91,0,0,0,1.39-.36l18.75-10.1a4,4,0,0,0,1.58-5L469.17,37.25A4,4,0,0,0,465.57,34.64Z" transform="translate(5 3)"/><path class="cls-6" d="M486.55,82.13,463.5,94.54,446.1,52.09a.81.81,0,0,1,.32-1l21.85-11.77a.63.63,0,0,1,.88.37Z" transform="translate(5 3)"/><path class="cls-7" d="M458.37,41.58l-4.11,2.21a.15.15,0,0,1-.21-.09h0a.2.2,0,0,1,.07-.25l4.11-2.21a.15.15,0,0,1,.21.09h0A.2.2,0,0,1,458.37,41.58Z" transform="translate(5 3)"/><path class="cls-7" d="M453.27,44.12a.46.46,0,0,1-.17.58.36.36,0,0,1-.49-.22.46.46,0,0,1,.17-.58A.36.36,0,0,1,453.27,44.12Z" transform="translate(5 3)"/><path class="cls-8" d="M478.45,91.05a2.63,2.63,0,0,1-1,3.29,2,2,0,0,1-2.82-1.26,2.63,2.63,0,0,1,1-3.29A2,2,0,0,1,478.45,91.05Z" transform="translate(5 3)"/><path class="cls-9" d="M469.15,39.68,453.8,70.88,446.1,52.1s-.18-.75.29-1l21.9-11.79A.61.61,0,0,1,469.15,39.68Z" transform="translate(5 3)"/><path class="cls-3" d="M464.7,115.81,412.39,97.66c-2.46-.85-5.06.74-5.8,3.56L385,183c-.74,2.81.65,5.8,3.1,6.65l52.31,18.16c2.46.85,5.06-.75,5.8-3.56l21.63-81.75C468.55,119.65,467.15,116.67,464.7,115.81Z" transform="translate(5 3)"/><path class="cls-5" d="M444.83,201.91c-.75,2.81-3.35,4.4-5.8,3.56L386.72,187.3c-2.46-.85-3.85-3.84-3.1-6.65l21.63-81.74c.74-2.81,3.35-4.41,5.8-3.56l52.31,18.16c2.46.85,3.85,3.84,3.1,6.65Z" transform="translate(5 3)"/><path class="cls-4" d="M444.17,201.67a3.9,3.9,0,0,1-4.93,3l-52.31-18.16a4.68,4.68,0,0,1-2.64-5.65l21.63-81.74c.64-2.39,2.85-3.75,4.93-3l52.32,18.15a4.68,4.68,0,0,1,2.64,5.65Z" transform="translate(5 3)"/><polygon class="cls-6" points="449.1 200.49 391.31 180.35 411.52 104.29 469.31 124.43 449.1 200.49"/><polygon class="cls-9" points="469.31 124.43 398.49 153.33 411.52 104.29 469.31 124.43"/><path class="cls-8" d="M416.68,192.62a2.69,2.69,0,0,1-3.41,2.08,3.23,3.23,0,0,1-1.82-3.9,2.69,2.69,0,0,1,3.41-2.08A3.23,3.23,0,0,1,416.68,192.62Z" transform="translate(5 3)"/><path class="cls-7" d="M440.13,110.18l-8.05-2.81a.18.18,0,0,1-.1-.22v0a.15.15,0,0,1,.19-.12l8.05,2.81a.18.18,0,0,1,.1.22v0A.15.15,0,0,1,440.13,110.18Z" transform="translate(5 3)"/><path class="cls-7" d="M431.14,106.84a.4.4,0,0,1-.51.31.48.48,0,0,1-.27-.59.4.4,0,0,1,.51-.31A.48.48,0,0,1,431.14,106.84Z" transform="translate(5 3)"/><path class="cls-3" d="M276.83,149.58l-5.31,0a.6.6,0,0,0-1.14,0l-3.55,0a.6.6,0,0,0-1.14,0l-3.55,0a.6.6,0,0,0-1.14,0l-3.55,0a.6.6,0,0,0-1.14,0l-3.55,0a.6.6,0,0,0-1.14,0l-3.55,0a.6.6,0,0,0-1.14,0l-3.55,0a.6.6,0,0,0-1.14,0l-3.55,0a.6.6,0,0,0-1.14,0l-3.55,0a.64.64,0,0,0-.57-.42.63.63,0,0,0-.57.41l-5.32,0a1.9,1.9,0,0,0-1.77,2l-.53,77.46a1.91,1.91,0,0,0,1.75,2l49.29.44a1.91,1.91,0,0,0,1.78-2l.52-77.46A1.92,1.92,0,0,0,276.83,149.58Z" transform="translate(5 3)"/><path class="cls-10" d="M276.72,227.54a1.91,1.91,0,0,1-1.78,2l-49.29-.44a1.91,1.91,0,0,1-1.75-2l.53-77.46a1.9,1.9,0,0,1,1.77-2l49.29.44a1.92,1.92,0,0,1,1.75,2Z" transform="translate(5 3)"/><path class="cls-11" d="M229.2,225.51a2.75,2.75,0,0,1-2.51-2.92l.46-68.05a2.74,2.74,0,0,1,2.55-2.88l42.24.38a2.75,2.75,0,0,1,2.51,2.92L274,223a2.73,2.73,0,0,1-2.55,2.88Z" transform="translate(5 3)"/><path class="cls-12" d="M229.21,225a2.75,2.75,0,0,1-2.51-2.93l.46-68.05a2.74,2.74,0,0,1,2.55-2.88l42.24.38a2.75,2.75,0,0,1,2.51,2.92L274,222.46a2.74,2.74,0,0,1-2.55,2.88Z" transform="translate(5 3)"/><path class="cls-13" d="M227.16,153.44v1.21a2.73,2.73,0,0,1,2.55-2.88l42.24.38a2.75,2.75,0,0,1,2.51,2.92v-1.2a2.75,2.75,0,0,0-2.51-2.92l-42.24-.37A2.73,2.73,0,0,0,227.16,153.44Z" transform="translate(5 3)"/><path class="cls-8" d="M229.21,224.42a2.75,2.75,0,0,1-2.51-2.92l.46-68.06a2.73,2.73,0,0,1,2.55-2.87l42.24.37a2.75,2.75,0,0,1,2.51,2.92L274,221.92a2.74,2.74,0,0,1-2.55,2.88Z" transform="translate(5 3)"/><path class="cls-14" d="M269.58,152.78a.88.88,0,0,0-.82.92.89.89,0,0,0,.81.94.94.94,0,0,0,0-1.86Z" transform="translate(5 3)"/><path class="cls-15" d="M269.61,147.58a.68.68,0,0,0-.64.71l0,5.17a.69.69,0,0,0,.63.73h0a.68.68,0,0,0,.64-.72l0-5.17a.68.68,0,0,0-.63-.73Z" transform="translate(5 3)"/><ellipse class="cls-14" cx="264.88" cy="153.67" rx="0.93" ry="0.81" transform="translate(114.19 420.37) rotate(-89.56)"/><path class="cls-16" d="M264.92,147.53a.68.68,0,0,0-.64.72l0,5.17a.68.68,0,0,0,.63.72h0a.68.68,0,0,0,.64-.72l0-5.17a.68.68,0,0,0-.62-.73Z" transform="translate(5 3)"/><ellipse class="cls-14" cx="260.19" cy="153.63" rx="0.93" ry="0.81" transform="translate(110.1 415.95) rotate(-89.68)"/><path class="cls-17" d="M260.23,147.49a.68.68,0,0,0-.64.71l0,5.17a.69.69,0,0,0,.63.73h0a.68.68,0,0,0,.63-.71l0-5.17a.68.68,0,0,0-.63-.73Z" transform="translate(5 3)"/><ellipse class="cls-14" cx="255.5" cy="153.58" rx="0.93" ry="0.81" transform="matrix(0.01, -1, 1, 0.01, 104.92, 410.87)"/><path class="cls-18" d="M255.54,147.45a.68.68,0,0,0-.63.72l0,5.17a.68.68,0,0,0,.62.73h0a.68.68,0,0,0,.64-.72l0-5.17a.69.69,0,0,0-.63-.73Z" transform="translate(5 3)"/><path class="cls-14" d="M250.82,152.61a.94.94,0,1,0,.81.94A.88.88,0,0,0,250.82,152.61Z" transform="translate(5 3)"/><path class="cls-19" d="M250.85,147.41a.68.68,0,0,0-.64.71l0,5.17a.68.68,0,0,0,.63.73h0a.68.68,0,0,0,.64-.71l0-5.17a.68.68,0,0,0-.63-.72Z" transform="translate(5 3)"/><ellipse class="cls-14" cx="246.12" cy="153.5" rx="0.93" ry="0.81" transform="translate(95.97 401.58) rotate(-89.61)"/><path class="cls-20" d="M246.17,147.37a.67.67,0,0,0-.64.71l0,5.17a.69.69,0,0,0,.63.73h0a.68.68,0,0,0,.63-.72l0-5.17a.68.68,0,0,0-.63-.72Z" transform="translate(5 3)"/><ellipse class="cls-14" cx="241.44" cy="153.46" rx="0.93" ry="0.81" transform="translate(91.3 396.82) rotate(-89.6)"/><path class="cls-21" d="M241.48,147.33a.68.68,0,0,0-.64.71l0,5.17a.68.68,0,0,0,.63.73h0a.68.68,0,0,0,.64-.71l0-5.17a.68.68,0,0,0-.63-.73Z" transform="translate(5 3)"/><ellipse class="cls-14" cx="236.74" cy="153.42" rx="0.93" ry="0.81" transform="translate(86.94 392.26) rotate(-89.66)"/><path class="cls-22" d="M236.78,147.28a.68.68,0,0,0-.64.71l0,5.17a.68.68,0,0,0,.62.73h0a.68.68,0,0,0,.64-.72l0-5.17a.68.68,0,0,0-.63-.73Z" transform="translate(5 3)"/><ellipse class="cls-14" cx="232.05" cy="153.38" rx="0.93" ry="0.81" transform="translate(82 387.31) rotate(-89.58)"/><path class="cls-23" d="M232.1,147.24a.68.68,0,0,0-.64.71l0,5.17a.68.68,0,0,0,.63.73h0a.68.68,0,0,0,.64-.72l0-5.17a.69.69,0,0,0-.63-.73Z" transform="translate(5 3)"/><path class="cls-3" d="M513.45,112.45l-1.44-.19.06-.58-4.55-.65-.13,1.17c-14.71-.79-23.79,9.15-26.34,12.39l0,0c-.4.39-.78.79-1.14,1.2s-.75.64-1.11,1c-7.51,7.33-9.24,19.18-3.85,26.41a13.19,13.19,0,0,0,4.88,4.06c5.08,3.4,12.11,2.88,18-1.51a32.92,32.92,0,0,1-9.08,7.85l-1-2.61-6.84,3.52-1.23-3.25L465,168.53l.49,1.28L463,171.06l.46,1.22-2.14,1.06-1.36.68h0l-.2.1a.56.56,0,0,0-.24.7l.17.46a.44.44,0,0,0,.61.28l.2-.1h0l1.64-.82h0l1.86-.93,1.86,4.9-3.7,1.84a.57.57,0,0,0-.24.7l.17.46a.44.44,0,0,0,.61.28l.2-.1h0l1.64-.82h0l1.86-.93.46,1.22,2.51-1.25.51,1.35,14.62-7.27-1.37-3.62,6.91-3.55-.76-1.93A35.61,35.61,0,0,0,503,150.19a23.35,23.35,0,0,0,3.66-9.59c1.66-5.73,1-11.8-2.25-16.18-4-5.39-10.85-6.71-17.18-4a29.21,29.21,0,0,1,20-6.69l-.11,1,4.55.65.05-.48,1.46.19a.81.81,0,0,0,.86-.78l.09-.94A.87.87,0,0,0,513.45,112.45Zm-35.91,40.7a14.45,14.45,0,0,1-2.65-6.66,15.32,15.32,0,0,0,2.3,4.53,13.43,13.43,0,0,0,13.69,5.08,13.47,13.47,0,0,1-10.44-.18A12,12,0,0,1,477.55,153.14Zm20.78-.11c.4-.39.78-.79,1.14-1.2s.75-.64,1.11-1,.72-.73,1.06-1.12a21.64,21.64,0,0,1-2.6,3.07,19,19,0,0,1-6,4A20.57,20.57,0,0,0,498.33,153Zm-108.05,8.21c-.14.75-.37,1.79-.72,3q-.19.49-.4,1a21,21,0,0,0,.6-9.67A17.37,17.37,0,0,1,390.27,161.25Zm110.88-33.63c4.63,6.22,3.41,16.26-2.58,23.07-6.83,5.76-15.72,5.58-20.36-.66a15.93,15.93,0,0,1-2.64-11.71,21.93,21.93,0,0,1,5.67-9.42c5.2-5.08,11.91-6.44,17-4A12,12,0,0,1,501.16,127.62Zm-20.78.11c-.37.36-.72.73-1.06,1.12A21.77,21.77,0,0,1,480.8,127l.58-.47,0,0,0-.06a18.29,18.29,0,0,1,4.2-2.46A20.57,20.57,0,0,0,480.38,127.72Zm-5.4,7a22.62,22.62,0,0,0-.71,3.24,20.94,20.94,0,0,0-.56,9.55A19.46,19.46,0,0,1,475,134.72Zm28.43-9.3a14.45,14.45,0,0,1,2.65,6.66,15.32,15.32,0,0,0-2.3-4.53,13.19,13.19,0,0,0-4.88-4.06,13.79,13.79,0,0,0-10.39-1.94C494.08,119.48,499.93,120.75,503.41,125.42Z" transform="translate(5 3)"/><path class="cls-24" d="M468.07,176.54l.18.47a.56.56,0,0,1-.24.69l-5.35,2.66a.44.44,0,0,1-.61-.27l-.18-.47a.56.56,0,0,1,.24-.69l5.35-2.66A.44.44,0,0,1,468.07,176.54Z" transform="translate(5 3)"/><path class="cls-24" d="M465.67,170.21l.18.47a.56.56,0,0,1-.24.69L460.26,174a.44.44,0,0,1-.61-.27l-.18-.47a.56.56,0,0,1,.24-.69l5.35-2.66A.44.44,0,0,1,465.67,170.21Z" transform="translate(5 3)"/><path class="cls-25" d="M464,178l-1.64.82a.83.83,0,0,0-.35,1,.66.66,0,0,0,.9.41l1.64-.82Z" transform="translate(5 3)"/><path class="cls-25" d="M461.56,171.68l-1.64.82a.83.83,0,0,0-.35,1,.66.66,0,0,0,.9.41l1.64-.82Z" transform="translate(5 3)"/><polygon class="cls-25" points="472.68 170.18 476.55 180.4 471.83 182.75 467.96 172.53 472.68 170.18"/><polygon class="cls-4" points="484.6 162.73 489.47 175.58 474.85 182.85 469.98 170 484.6 162.73"/><path class="cls-4" d="M474.94,151.69c-5.38-7.23-3.66-19.08,3.85-26.41s18-7.41,23.38-.18,3.66,19.08-3.85,26.41S480.33,158.92,474.94,151.69Zm26.21-25.6c-4.91-6.59-14.55-6.43-21.5.35s-8.61,17.66-3.7,24.25,14.55,6.43,21.5-.35S506.06,132.68,501.16,126.09Z" transform="translate(5 3)"/><path class="cls-4" d="M477.2,149.49c-5.38-7.23-3.66-19.08,3.85-26.41s18-7.41,23.38-.18,3.66,19.08-3.85,26.41S482.58,156.72,477.2,149.49Zm26.21-25.6c-4.91-6.59-14.55-6.43-21.5.35s-8.61,17.66-3.7,24.25,14.55,6.43,21.5-.35S508.32,130.48,503.41,123.89Z" transform="translate(5 3)"/><path class="cls-4" d="M476.53,152.61c-5.38-7.23-3.66-19.08,3.85-26.41s18-7.41,23.38-.18,3.66,19.08-3.85,26.41S481.91,159.84,476.53,152.61ZM502.74,127c-4.91-6.59-14.55-6.43-21.5.35s-8.61,17.66-3.7,24.25,14.55,6.43,21.5-.35S507.65,133.6,502.74,127Z" transform="translate(5 3)"/><path class="cls-4" d="M480.33,124.05c.1-.15,9.79-14.59,27.56-13.36l-.08,1.53c-17-1.18-26.32,12.61-26.41,12.75Z" transform="translate(5 3)"/><path class="cls-4" d="M507.06,136.25c0,.18-2.11,18.24-18,27.36l-.6-1.37c15.26-8.74,17.28-26,17.3-26.17Z" transform="translate(5 3)"/><polygon class="cls-4" points="487.79 172.13 485.45 166.18 492.68 162.47 495.01 168.41 487.79 172.13"/><polygon class="cls-26" points="489.81 168.12 489.42 167.11 490.65 166.47 491.05 167.49 489.81 168.12"/><path class="cls-26" d="M394.9,134.64l.1-.95a.8.8,0,0,1,.85-.77l2.37.31a.86.86,0,0,1,.67,1l-.1.95a.8.8,0,0,1-.85.77l-2.37-.31A.86.86,0,0,1,394.9,134.64Z" transform="translate(5 3)"/><path class="cls-4" d="M397.06,135.08l.12-1.24a.39.39,0,0,1,.41-.37l.4.05a.42.42,0,0,1,.33.47l-.12,1.24a.39.39,0,0,1-.41.37l-.4-.05A.42.42,0,0,1,397.06,135.08Z" transform="translate(5 3)"/><path class="cls-27" d="M397.49,133.91v0a0,0,0,0,1,0,0l.53.07a0,0,0,0,1,0,0v0a0,0,0,0,1,0,0l-.53-.07A0,0,0,0,1,397.49,133.91Z" transform="translate(5 3)"/><path class="cls-27" d="M397.47,134.14h0a0,0,0,0,1,0,0l.5.07a0,0,0,0,1,0,.05h0a0,0,0,0,1,0,0l-.5-.07A0,0,0,0,1,397.47,134.14Z" transform="translate(5 3)"/><path class="cls-27" d="M397.45,134.38h0a0,0,0,0,1,0,0l.5.07a0,0,0,0,1,0,.05h0a0,0,0,0,1,0,0l-.5-.07A0,0,0,0,1,397.45,134.38Z" transform="translate(5 3)"/><path class="cls-27" d="M397.42,134.63h0a0,0,0,0,1,0,0l.5.07a0,0,0,0,1,0,.05h0a0,0,0,0,1,0,0l-.5-.07A0,0,0,0,1,397.42,134.63Z" transform="translate(5 3)"/><path class="cls-27" d="M397.4,134.87h0a0,0,0,0,1,0,0l.5.07a0,0,0,0,1,0,.05h0a0,0,0,0,1,0,0l-.5-.07A0,0,0,0,1,397.4,134.87Z" transform="translate(5 3)"/><path class="cls-27" d="M397.37,135.13v0a0,0,0,0,1,0,0l.53.07a0,0,0,0,1,0,0v0a0,0,0,0,1,0,0l-.53-.07A0,0,0,0,1,397.37,135.13Z" transform="translate(5 3)"/><polygon class="cls-4" points="396.88 138.56 397.29 134.82 401.83 135.47 401.43 139.21 396.88 138.56"/><polygon class="cls-26" points="398.93 137.28 399 136.64 399.78 136.75 399.71 137.39 398.93 137.28"/><path class="cls-3" d="M333.29,158.4l-29.78,22.19a5.39,5.39,0,0,0-1.26,6.83l27.37,48.16a4,4,0,0,0,6,1.45l29.78-22.19a5.39,5.39,0,0,0,1.26-6.83l-27.37-48.16A4,4,0,0,0,333.29,158.4Z" transform="translate(5 3)"/><path class="cls-10" d="M363.14,213.74l-29.78,22.19a3.38,3.38,0,0,1-5-1.22L301,186.56a4.57,4.57,0,0,1,1.07-5.77l29.78-22.19a3.38,3.38,0,0,1,5,1.22L364.21,208A4.57,4.57,0,0,1,363.14,213.74Z" transform="translate(5 3)"/><path class="cls-28" d="M363.51,214.39l-29.78,22.19a4,4,0,0,1-6-1.45L300.4,187a5.39,5.39,0,0,1,1.26-6.83l29.78-22.19a4,4,0,0,1,6,1.45l27.37,48.16A5.39,5.39,0,0,1,363.51,214.39Zm-61.12-33a3.72,3.72,0,0,0-.87,4.71l27.37,48.16a2.76,2.76,0,0,0,4.12,1l29.78-22.19a3.72,3.72,0,0,0,.87-4.71l-27.37-48.16a2.76,2.76,0,0,0-4.11-1Z" transform="translate(5 3)"/><path class="cls-29" d="M320.19,201.87,316.05,205a1.15,1.15,0,0,1-1.72-.42l-.91-1.61a1.56,1.56,0,0,1,.36-2l4.14-3.08a1.15,1.15,0,0,1,1.72.42l.91,1.61A1.56,1.56,0,0,1,320.19,201.87Z" transform="translate(5 3)"/><path class="cls-29" d="M328.6,195.6l-4.14,3.08a1.15,1.15,0,0,1-1.72-.42l-.91-1.61a1.56,1.56,0,0,1,.36-2l4.14-3.08a1.15,1.15,0,0,1,1.72.42l.91,1.61A1.56,1.56,0,0,1,328.6,195.6Z" transform="translate(5 3)"/><path class="cls-29" d="M337,189.33l-4.14,3.08a1.15,1.15,0,0,1-1.72-.42l-.91-1.61a1.56,1.56,0,0,1,.36-2l4.14-3.08a1.15,1.15,0,0,1,1.72.42l.91,1.61A1.56,1.56,0,0,1,337,189.33Z" transform="translate(5 3)"/><path class="cls-30" d="M345.42,183.06l-4.14,3.08a1.15,1.15,0,0,1-1.72-.42l-.91-1.61a1.56,1.56,0,0,1,.36-2l4.14-3.08a1.15,1.15,0,0,1,1.72.42l.91,1.61A1.56,1.56,0,0,1,345.42,183.06Z" transform="translate(5 3)"/><path class="cls-4" d="M324,208.65l-4.14,3.08a1.15,1.15,0,0,1-1.72-.42l-.91-1.61a1.56,1.56,0,0,1,.36-2l4.14-3.08a1.15,1.15,0,0,1,1.72.42l.91,1.61A1.56,1.56,0,0,1,324,208.65Z" transform="translate(5 3)"/><path class="cls-4" d="M332.45,202.38l-4.14,3.08a1.15,1.15,0,0,1-1.72-.42l-.91-1.61a1.56,1.56,0,0,1,.36-2l4.14-3.08a1.15,1.15,0,0,1,1.72.42l.91,1.61A1.56,1.56,0,0,1,332.45,202.38Z" transform="translate(5 3)"/><path class="cls-4" d="M340.86,196.12l-4.14,3.08a1.15,1.15,0,0,1-1.72-.42l-.91-1.61a1.56,1.56,0,0,1,.36-2l4.14-3.08a1.15,1.15,0,0,1,1.72.42l.91,1.61A1.56,1.56,0,0,1,340.86,196.12Z" transform="translate(5 3)"/><path class="cls-31" d="M349.27,189.85l-4.14,3.08a1.15,1.15,0,0,1-1.72-.42l-.91-1.61a1.56,1.56,0,0,1,.36-2l4.14-3.08a1.15,1.15,0,0,1,1.72.42l.91,1.61A1.56,1.56,0,0,1,349.27,189.85Z" transform="translate(5 3)"/><path class="cls-4" d="M327.9,215.43l-4.14,3.08a1.15,1.15,0,0,1-1.72-.42l-.91-1.61a1.56,1.56,0,0,1,.36-2l4.14-3.08a1.15,1.15,0,0,1,1.72.42l.91,1.61A1.56,1.56,0,0,1,327.9,215.43Z" transform="translate(5 3)"/><path class="cls-4" d="M336.31,209.17l-4.14,3.08a1.15,1.15,0,0,1-1.72-.42l-.91-1.61a1.56,1.56,0,0,1,.36-2l4.14-3.08a1.15,1.15,0,0,1,1.72.42l.91,1.61A1.56,1.56,0,0,1,336.31,209.17Z" transform="translate(5 3)"/><path class="cls-4" d="M344.72,202.9,340.58,206a1.15,1.15,0,0,1-1.72-.42L338,204a1.56,1.56,0,0,1,.36-2l4.14-3.08a1.15,1.15,0,0,1,1.72.42l.91,1.61A1.56,1.56,0,0,1,344.72,202.9Z" transform="translate(5 3)"/><path class="cls-4" d="M353.13,196.63,349,199.71a1.15,1.15,0,0,1-1.72-.42l-.91-1.61a1.56,1.56,0,0,1,.36-2l4.14-3.08a1.15,1.15,0,0,1,1.72.42l.91,1.61A1.56,1.56,0,0,1,353.13,196.63Z" transform="translate(5 3)"/><path class="cls-4" d="M331.75,222.22l-4.14,3.08a1.15,1.15,0,0,1-1.72-.42l-.91-1.61a1.56,1.56,0,0,1,.36-2l4.14-3.08a1.15,1.15,0,0,1,1.72.42l.91,1.61A1.56,1.56,0,0,1,331.75,222.22Z" transform="translate(5 3)"/><path class="cls-4" d="M340.16,215.95,336,219a1.15,1.15,0,0,1-1.72-.42L333.4,217a1.56,1.56,0,0,1,.36-2l4.14-3.08a1.15,1.15,0,0,1,1.72.42l.91,1.61A1.56,1.56,0,0,1,340.16,215.95Z" transform="translate(5 3)"/><path class="cls-4" d="M348.57,209.68l-4.14,3.08a1.15,1.15,0,0,1-1.72-.42l-.91-1.61a1.56,1.56,0,0,1,.36-2l4.14-3.08a1.15,1.15,0,0,1,1.72.42l.91,1.61A1.56,1.56,0,0,1,348.57,209.68Z" transform="translate(5 3)"/><path class="cls-4" d="M357,203.41l-4.14,3.08a1.15,1.15,0,0,1-1.72-.42l-.91-1.61a1.56,1.56,0,0,1,.36-2l4.14-3.08a1.15,1.15,0,0,1,1.72.42l.91,1.61A1.56,1.56,0,0,1,357,203.41Z" transform="translate(5 3)"/><path class="cls-4" d="M335.61,229l-4.14,3.08a1.15,1.15,0,0,1-1.72-.42l-.91-1.61a1.56,1.56,0,0,1,.36-2l4.14-3.08a1.15,1.15,0,0,1,1.72.42L336,227A1.56,1.56,0,0,1,335.61,229Z" transform="translate(5 3)"/><path class="cls-4" d="M344,222.73l-4.14,3.08a1.15,1.15,0,0,1-1.72-.42l-.91-1.61a1.56,1.56,0,0,1,.36-2l4.14-3.08a1.15,1.15,0,0,1,1.72.42l.91,1.61A1.56,1.56,0,0,1,344,222.73Z" transform="translate(5 3)"/><path class="cls-4" d="M352.43,216.46l-4.14,3.08a1.15,1.15,0,0,1-1.72-.42l-.91-1.61a1.56,1.56,0,0,1,.36-2l4.14-3.08a1.15,1.15,0,0,1,1.72.42l.91,1.61A1.56,1.56,0,0,1,352.43,216.46Z" transform="translate(5 3)"/><path class="cls-4" d="M360.84,210.19l-4.14,3.08a1.15,1.15,0,0,1-1.72-.42l-.91-1.61a1.56,1.56,0,0,1,.36-2l4.14-3.08a1.15,1.15,0,0,1,1.72.42l.91,1.61A1.56,1.56,0,0,1,360.84,210.19Z" transform="translate(5 3)"/><path class="cls-6" d="M340.56,175.92,312.32,197a1.31,1.31,0,0,1-2-.47l-5.23-9.2a1.77,1.77,0,0,1,.41-2.24L333.8,164a1.31,1.31,0,0,1,2,.47l5.23,9.2A1.77,1.77,0,0,1,340.56,175.92Z" transform="translate(5 3)"/><path class="cls-28" d="M340.74,176.25l-28.23,21a1.63,1.63,0,0,1-2.43-.59l-5.22-9.18a2.2,2.2,0,0,1,.51-2.78l28.23-21a1.63,1.63,0,0,1,2.43.59l5.22,9.18A2.2,2.2,0,0,1,340.74,176.25Zm-35,9.13a1.36,1.36,0,0,0-.32,1.72l5.22,9.18a1,1,0,0,0,1.5.36l28.23-21a1.36,1.36,0,0,0,.32-1.72l-5.22-9.18a1,1,0,0,0-1.5-.36Z" transform="translate(5 3)"/><polygon class="cls-32" points="372.63 155.68 372.32 157.02 317.87 140.37 318.18 139.04 372.63 155.68"/><polygon class="cls-30" points="372.94 154.35 372.63 155.68 318.18 139.04 318.49 137.7 372.94 154.35"/><polygon class="cls-33" points="373.25 153.01 372.94 154.35 318.49 137.7 318.8 136.37 373.25 153.01"/><polygon class="cls-34" points="318.18 139.04 310.49 135.99 317.87 140.37 318.18 139.04"/><polygon class="cls-35" points="310.49 135.99 318.49 137.7 318.18 139.04 310.49 135.99"/><polygon class="cls-36" points="310.49 135.99 318.8 136.37 318.49 137.7 310.49 135.99"/><path class="cls-37" d="M307.56,133.44a.62.62,0,0,1,0,.13,1.1,1.1,0,0,1-.06.21,2.23,2.23,0,0,1-.14.3L305.49,133l2.09.09A1.57,1.57,0,0,1,307.56,133.44Z" transform="translate(5 3)"/><polygon class="cls-38" points="245.3 253 400.73 74.99 239.03 120.68 181.91 186.11 181.91 253 245.3 253"/><path class="cls-39" d="M279.42,102.4c2.16,10.88,20.87,24.54,39.59,19.68s30.45-26.43,28.29-37.32S328.23,69,309.42,73.88,277.27,91.52,279.42,102.4Z" transform="translate(5 3)"/><path class="cls-40" d="M279.56,101.79c2.16,10.89,20.74,23.88,39.46,19S349.6,95,347.44,84.15s-19.08-15.76-37.88-10.88S277.4,90.91,279.56,101.79Z" transform="translate(5 3)"/><path class="cls-6" d="M279.72,101c2.16,10.88,20.87,24.54,39.59,19.68s30.45-26.43,28.29-37.31-19.08-15.77-37.88-10.88S277.57,90.15,279.72,101Z" transform="translate(5 3)"/><path class="cls-6" d="M189.39,69.53a2.67,2.67,0,0,0,3.48,1.8L411.27,14.58a3.08,3.08,0,0,0,2.46-3.34l-1.06-5.34a2.68,2.68,0,0,0-3.48-1.79L190.79,60.86a3.08,3.08,0,0,0-2.46,3.33Z" transform="translate(5 3)"/><path class="cls-39" d="M397,74.42a4.06,4.06,0,0,1-2.7,2.51L234.81,118.36a3.79,3.79,0,0,1-3.47-.9l-4.4-4.94L399,67.8Z" transform="translate(5 3)"/><path class="cls-10" d="M191.07,68.65,411.79,11.3c1.66-.43,2.56.84,2,2.8L399.58,66.7l0,.08h0l-2.1,6.63a4.09,4.09,0,0,1-2.72,2.51L234,117.68a3.82,3.82,0,0,1-3.5-.9l-4.43-4.93h0l-.05-.06-35.6-39.66C189.16,70.64,189.42,69.08,191.07,68.65Z" transform="translate(5 3)"/><path class="cls-8" d="M410.76,15.18l-16,56.08L232.3,113.36,194.91,71.45C194.72,71.23,410.76,15.18,410.76,15.18Z" transform="translate(5 3)"/><polygon class="cls-4" points="416.34 17.94 400.73 74.99 236.86 116.58 199.76 74.29 416.34 17.94"/><polygon class="cls-41" points="416.34 17.94 317.19 95.66 400.73 74.99 416.34 17.94"/><g class="cls-42"><g class="cls-1"><polygon class="cls-43" points="339.15 81.83 339.56 87.89 392.92 73.69 394.38 67.14 339.15 81.83"/><polygon class="cls-43" points="278.74 93.29 279.31 94.6 395.13 63.78 395.47 62.23 278.74 93.29"/><polygon class="cls-43" points="276.74 88.67 277.34 90.05 396.33 58.39 396.69 56.75 276.74 88.67"/><polygon class="cls-43" points="274.63 83.79 275.26 85.25 397.6 52.7 397.99 50.96 274.63 83.79"/><polygon class="cls-43" points="227.04 94.11 241.79 113.9 277.86 104.3 267.97 83.22 227.04 94.11"/><polygon class="cls-43" points="272.39 78.62 273.06 80.17 398.94 46.67 399.35 44.84 272.39 78.62"/><polygon class="cls-43" points="264.82 61.14 265.63 62.99 403.48 26.31 403.97 24.11 264.82 61.14"/><polygon class="cls-43" points="212.78 74.98 225.45 91.98 266.9 80.95 258.41 62.84 212.78 74.98"/></g><polygon class="cls-43" points="270.02 73.14 270.73 74.78 400.36 40.29 400.8 38.34 270.02 73.14"/><polygon class="cls-43" points="267.5 67.33 268.26 69.07 401.88 33.52 402.34 31.45 267.5 67.33"/></g></g></g></svg>