<svg id="Capa_1" data-name="Capa 1" xmlns="http://www.w3.org/2000/svg" viewBox="0 0 1343 767"><defs><style>.cls-1{fill:#00e676;}.cls-2{fill:#e0e1e2;}.cls-3{fill:#ededed;}.cls-4{fill:#393d44;}.cls-5{fill:#c3cbd8;}.cls-6{fill:#30353a;}.cls-7{fill:#2a2f35;}.cls-8{fill:#ccc;}.cls-9{fill:#f7f7f7;}.cls-10{fill:#efefef;}.cls-11{fill:#ddd;}.cls-12{fill:#f2d738;}.cls-13{fill:#d6b929;}.cls-14{fill:#db4242;}.cls-15{fill:#f25151;}.cls-16{fill:#bcbcbc;}.cls-17{fill:#c4c4c4;}.cls-18{fill:#c6c6c6;}.cls-19{fill:#e2c033;}.cls-20{fill:#494e51;}.cls-21{fill:#d6d4d4;}.cls-22{fill:#1b1f23;}.cls-23{font-size:61.5px;fill:#fff;font-family: 'Montserrat', sans-serif!important;}.cls-24{letter-spacing:0em;}.cls-25{letter-spacing:-0.01em;}.cls-26{letter-spacing:-0.02em;}</style></defs><title>electronica</title><polyline class="cls-1" points="0 0 0 767 1343 767 1343 0"/><polygon class="cls-2" points="643.01 237.84 636.07 241.85 627.17 236.69 634.11 236.53 643.01 237.84"/><polygon class="cls-3" points="643.01 235.34 636.07 239.34 627.17 234.19 634.11 230.18 643.01 235.34"/><polygon class="cls-2" points="627.17 234.19 627.17 236.69 636.07 241.85 636.07 239.34 627.17 234.19"/><polygon class="cls-3" points="643.01 237.84 643.01 235.34 636.07 239.34 636.07 241.85 643.01 237.84"/><polygon class="cls-2" points="657.11 243.52 650.17 247.53 634.08 238.24 641.02 234.23 657.11 243.52"/><polygon class="cls-3" points="657.11 237.17 650.17 241.18 634.08 231.89 641.02 227.89 657.11 237.17"/><polygon class="cls-2" points="634.08 231.89 634.08 238.24 650.17 247.53 650.17 241.18 634.08 231.89"/><polygon class="cls-3" points="657.11 243.52 657.11 237.17 650.17 241.18 650.17 247.53 657.11 243.52"/><polygon class="cls-2" points="658.31 229.06 651.37 233.06 642.48 227.91 649.41 227.74 658.31 229.06"/><polygon class="cls-3" points="658.31 226.55 651.37 230.55 642.48 225.4 649.41 221.39 658.31 226.55"/><polygon class="cls-2" points="642.48 225.4 642.48 227.91 651.37 233.06 651.37 230.55 642.48 225.4"/><polygon class="cls-3" points="658.31 229.06 658.31 226.55 651.37 230.55 651.37 233.06 658.31 229.06"/><polygon class="cls-2" points="672.41 234.73 665.47 238.74 649.38 229.45 656.32 225.44 672.41 234.73"/><polygon class="cls-3" points="672.41 228.39 665.47 232.39 649.38 223.1 656.32 219.1 672.41 228.39"/><polygon class="cls-2" points="649.38 223.1 649.38 229.45 665.47 238.74 665.47 232.39 649.38 223.1"/><polygon class="cls-3" points="672.41 234.73 672.41 228.39 665.47 232.39 665.47 238.74 672.41 234.73"/><polygon class="cls-2" points="673.62 220.27 666.68 224.27 657.78 219.12 664.72 218.95 673.62 220.27"/><polygon class="cls-3" points="673.62 217.76 666.68 221.77 657.78 216.61 664.72 212.61 673.62 217.76"/><polygon class="cls-2" points="657.78 216.61 657.78 219.12 666.68 224.27 666.68 221.77 657.78 216.61"/><polygon class="cls-3" points="673.62 220.27 673.62 217.76 666.68 221.77 666.68 224.27 673.62 220.27"/><polygon class="cls-2" points="687.71 225.95 680.77 229.95 664.68 220.66 671.62 216.66 687.71 225.95"/><polygon class="cls-3" points="687.71 219.6 680.77 223.61 664.68 214.32 671.62 210.31 687.71 219.6"/><polygon class="cls-2" points="664.68 214.32 664.68 220.66 680.77 229.95 680.77 223.61 664.68 214.32"/><polygon class="cls-3" points="687.71 225.95 687.71 219.6 680.77 223.61 680.77 229.95 687.71 225.95"/><polygon class="cls-2" points="688.92 211.48 681.98 215.49 673.08 210.33 680.02 210.17 688.92 211.48"/><polygon class="cls-3" points="688.92 208.97 681.98 212.98 673.08 207.82 680.02 203.82 688.92 208.97"/><polygon class="cls-2" points="673.08 207.82 673.08 210.33 681.98 215.49 681.98 212.98 673.08 207.82"/><polygon class="cls-3" points="688.92 211.48 688.92 208.97 681.98 212.98 681.98 215.49 688.92 211.48"/><polygon class="cls-2" points="703.01 217.16 696.08 221.17 679.99 211.88 686.93 207.87 703.01 217.16"/><polygon class="cls-3" points="703.01 210.81 696.08 214.82 679.99 205.53 686.93 201.53 703.01 210.81"/><polygon class="cls-2" points="679.99 205.53 679.99 211.88 696.08 221.17 696.08 214.82 679.99 205.53"/><polygon class="cls-3" points="703.01 217.16 703.01 210.81 696.08 214.82 696.08 221.17 703.01 217.16"/><polygon class="cls-4" points="761.69 235.91 690.71 276.89 637.12 245.95 708.1 204.98 761.69 235.91"/><polygon class="cls-4" points="761.69 247.63 690.71 288.61 637.12 257.67 708.1 216.69 761.69 247.63"/><polygon class="cls-5" points="702.58 216.19 698.43 213.8 707.48 208.58 711.62 210.97 702.58 216.19"/><polygon class="cls-5" points="709.24 220.04 705.1 217.65 714.14 212.43 718.29 214.82 709.24 220.04"/><polygon class="cls-5" points="732.99 233.75 711.76 221.5 720.81 216.27 742.04 228.53 732.99 233.75"/><polygon class="cls-6" points="637.12 257.67 637.12 245.95 690.71 276.89 690.71 288.61 637.12 257.67"/><polygon class="cls-7" points="761.69 247.63 761.69 235.91 690.71 276.89 690.71 288.61 761.69 247.63"/><polygon class="cls-2" points="729.18 293.24 722.24 297.25 713.34 292.09 720.28 291.93 729.18 293.24"/><polygon class="cls-3" points="729.18 290.74 722.24 294.74 713.34 289.59 720.28 285.58 729.18 290.74"/><polygon class="cls-2" points="713.34 289.59 713.34 292.09 722.24 297.25 722.24 294.74 713.34 289.59"/><polygon class="cls-3" points="729.18 293.24 729.18 290.74 722.24 294.74 722.24 297.25 729.18 293.24"/><polygon class="cls-2" points="722.3 286.75 715.36 290.76 699.27 281.47 706.21 277.46 722.3 286.75"/><polygon class="cls-3" points="722.3 280.4 715.36 284.41 699.27 275.12 706.21 271.12 722.3 280.4"/><polygon class="cls-2" points="699.27 275.12 699.27 281.47 715.36 290.76 715.36 284.41 699.27 275.12"/><polygon class="cls-3" points="722.3 286.75 722.3 280.4 715.36 284.41 715.36 290.76 722.3 286.75"/><polygon class="cls-2" points="744.36 284.46 737.42 288.46 728.52 283.31 735.46 283.14 744.36 284.46"/><polygon class="cls-3" points="744.36 281.95 737.42 285.95 728.52 280.8 735.46 276.79 744.36 281.95"/><polygon class="cls-2" points="728.52 280.8 728.52 283.31 737.42 288.46 737.42 285.95 728.52 280.8"/><polygon class="cls-3" points="744.36 284.46 744.36 281.95 737.42 285.95 737.42 288.46 744.36 284.46"/><polygon class="cls-2" points="737.48 277.96 730.54 281.97 714.45 272.68 721.39 268.68 737.48 277.96"/><polygon class="cls-3" points="737.48 271.62 730.54 275.62 714.45 266.33 721.39 262.33 737.48 271.62"/><polygon class="cls-2" points="714.45 266.33 714.45 272.68 730.54 281.97 730.54 275.62 714.45 266.33"/><polygon class="cls-3" points="737.48 277.96 737.48 271.62 730.54 275.62 730.54 281.97 737.48 277.96"/><polygon class="cls-2" points="759.54 275.67 752.6 279.68 743.71 274.52 750.64 274.35 759.54 275.67"/><polygon class="cls-3" points="759.54 273.16 752.6 277.17 743.71 272.01 750.64 268.01 759.54 273.16"/><polygon class="cls-2" points="743.71 272.01 743.71 274.52 752.6 279.68 752.6 277.17 743.71 272.01"/><polygon class="cls-3" points="759.54 275.67 759.54 273.16 752.6 277.17 752.6 279.68 759.54 275.67"/><polygon class="cls-2" points="752.66 269.18 745.72 273.18 729.63 263.89 736.57 259.89 752.66 269.18"/><polygon class="cls-3" points="752.66 262.83 745.72 266.84 729.63 257.55 736.57 253.54 752.66 262.83"/><polygon class="cls-2" points="729.63 257.55 729.63 263.89 745.72 273.18 745.72 266.84 729.63 257.55"/><polygon class="cls-3" points="752.66 269.18 752.66 262.83 745.72 266.84 745.72 273.18 752.66 269.18"/><polygon class="cls-2" points="774.72 266.88 767.78 270.89 758.89 265.73 765.82 265.57 774.72 266.88"/><polygon class="cls-3" points="774.72 264.38 767.78 268.38 758.89 263.23 765.82 259.22 774.72 264.38"/><polygon class="cls-2" points="758.89 263.23 758.89 265.73 767.78 270.89 767.78 268.38 758.89 263.23"/><polygon class="cls-3" points="774.72 266.88 774.72 264.38 767.78 268.38 767.78 270.89 774.72 266.88"/><polygon class="cls-2" points="767.84 260.39 760.9 264.4 744.82 255.11 751.75 251.1 767.84 260.39"/><polygon class="cls-3" points="767.84 254.04 760.9 258.05 744.82 248.76 751.75 244.76 767.84 254.04"/><polygon class="cls-2" points="744.82 248.76 744.82 255.11 760.9 264.4 760.9 258.05 744.82 248.76"/><polygon class="cls-3" points="767.84 260.39 767.84 254.04 760.9 258.05 760.9 264.4 767.84 260.39"/><polygon class="cls-3" points="921.65 281.37 916.46 278.37 916.46 272.37 921.65 275.37 921.65 281.37"/><polygon class="cls-3" points="916.46 278.37 911.26 275.37 911.26 269.38 916.46 272.37 916.46 278.37"/><polygon class="cls-3" points="916.46 284.36 911.26 281.37 911.26 275.37 916.46 278.37 916.46 284.36"/><polygon class="cls-3" points="917.95 287.26 908.22 281.65 908.22 279.61 917.95 285.23 917.95 287.26"/><polygon class="cls-3" points="903.05 282.57 906.93 280.35 906.09 284.32 903.05 282.57"/><polygon class="cls-2" points="916.48 284.32 911.28 281.33 911.28 275.33 916.48 278.33 916.48 284.32"/><polygon class="cls-2" points="911.28 281.33 906.09 278.33 906.09 272.34 911.28 275.33 911.28 281.33"/><polygon class="cls-2" points="911.28 287.32 906.09 284.32 906.09 278.33 911.28 281.33 911.28 287.32"/><polygon class="cls-2" points="912.78 290.22 903.05 284.61 903.05 282.57 912.78 288.19 912.78 290.22"/><polygon class="cls-3" points="906.09 272.34 911.26 269.38 921.65 275.37 916.48 278.33 906.09 272.34"/><polygon class="cls-3" points="916.48 284.32 921.65 281.37 921.65 275.37 916.48 278.33 916.48 284.32"/><polygon class="cls-3" points="917.95 285.23 912.78 288.19 912.78 290.22 917.95 287.26 917.95 285.23"/><polygon class="cls-3" points="911.28 287.32 916.32 284.23 917.95 285.23 912.78 288.19 911.28 287.32"/><polygon class="cls-3" points="911.28 281.33 911.28 287.32 916.32 284.23 911.28 281.33"/><polygon class="cls-3" points="910.13 287.96 904.94 284.96 904.94 278.97 910.13 281.97 910.13 287.96"/><polygon class="cls-3" points="904.94 284.96 899.75 281.97 899.75 275.97 904.94 278.97 904.94 284.96"/><polygon class="cls-3" points="904.94 290.96 899.75 287.96 899.75 281.97 904.94 284.96 904.94 290.96"/><polygon class="cls-3" points="906.44 293.86 896.71 288.24 896.71 286.21 906.44 291.82 906.44 293.86"/><polygon class="cls-3" points="891.54 289.17 895.41 286.95 894.58 290.92 891.54 289.17"/><polygon class="cls-2" points="904.96 290.92 899.77 287.92 899.77 281.93 904.96 284.93 904.96 290.92"/><polygon class="cls-2" points="899.77 287.92 894.58 284.93 894.58 278.93 899.77 281.93 899.77 287.92"/><polygon class="cls-2" points="899.77 293.92 894.58 290.92 894.58 284.93 899.77 287.92 899.77 293.92"/><polygon class="cls-2" points="901.27 296.82 891.54 291.2 891.54 289.17 901.27 294.78 901.27 296.82"/><polygon class="cls-3" points="894.58 278.93 899.75 275.97 910.13 281.97 904.96 284.93 894.58 278.93"/><polygon class="cls-3" points="904.96 290.92 910.13 287.96 910.13 281.97 904.96 284.93 904.96 290.92"/><polygon class="cls-3" points="906.44 291.82 901.27 294.78 901.27 296.82 906.44 293.86 906.44 291.82"/><polygon class="cls-3" points="899.77 293.92 904.8 290.83 906.44 291.82 901.27 294.78 899.77 293.92"/><polygon class="cls-3" points="899.77 287.92 899.77 293.92 904.8 290.83 899.77 287.92"/><polygon class="cls-3" points="898.62 294.56 893.43 291.56 893.43 285.57 898.62 288.56 898.62 294.56"/><polygon class="cls-3" points="893.43 291.56 888.24 288.56 888.24 282.57 893.43 285.57 893.43 291.56"/><polygon class="cls-3" points="893.43 297.56 888.24 294.56 888.24 288.56 893.43 291.56 893.43 297.56"/><polygon class="cls-3" points="894.92 300.46 885.2 294.84 885.2 292.8 894.92 298.42 894.92 300.46"/><polygon class="cls-3" points="880.03 295.76 883.9 293.54 883.07 297.52 880.03 295.76"/><polygon class="cls-2" points="893.45 297.52 888.26 294.52 888.26 288.53 893.45 291.52 893.45 297.52"/><polygon class="cls-2" points="888.26 294.52 883.07 291.52 883.07 285.53 888.26 288.53 888.26 294.52"/><polygon class="cls-2" points="888.26 300.51 883.07 297.52 883.07 291.52 888.26 294.52 888.26 300.51"/><polygon class="cls-2" points="889.75 303.42 880.03 297.8 880.03 295.76 889.75 301.38 889.75 303.42"/><polygon class="cls-3" points="883.07 285.53 888.24 282.57 898.62 288.56 893.45 291.52 883.07 285.53"/><polygon class="cls-3" points="893.45 297.52 898.62 294.56 898.62 288.56 893.45 291.52 893.45 297.52"/><polygon class="cls-3" points="894.92 298.42 889.75 301.38 889.75 303.42 894.92 300.46 894.92 298.42"/><polygon class="cls-3" points="888.26 300.51 893.29 297.43 894.92 298.42 889.75 301.38 888.26 300.51"/><polygon class="cls-3" points="888.26 294.52 888.26 300.51 893.29 297.43 888.26 294.52"/><polygon class="cls-3" points="887.1 301.15 881.91 298.16 881.91 292.16 887.1 295.16 887.1 301.15"/><polygon class="cls-3" points="881.91 298.16 876.72 295.16 876.72 289.17 881.91 292.16 881.91 298.16"/><polygon class="cls-3" points="881.91 304.15 876.72 301.15 876.72 295.16 881.91 298.16 881.91 304.15"/><polygon class="cls-3" points="883.41 307.05 873.68 301.44 873.68 299.4 883.41 305.01 883.41 307.05"/><polygon class="cls-3" points="868.51 302.36 872.38 300.14 871.55 304.11 868.51 302.36"/><polygon class="cls-2" points="881.93 304.11 876.74 301.12 876.74 295.12 881.93 298.12 881.93 304.11"/><polygon class="cls-2" points="876.74 301.12 871.55 298.12 871.55 292.13 876.74 295.12 876.74 301.12"/><polygon class="cls-2" points="876.74 307.11 871.55 304.11 871.55 298.12 876.74 301.12 876.74 307.11"/><polygon class="cls-2" points="878.24 310.01 868.51 304.39 868.51 302.36 878.24 307.98 878.24 310.01"/><polygon class="cls-3" points="871.55 292.13 876.72 289.17 887.1 295.16 881.93 298.12 871.55 292.13"/><polygon class="cls-3" points="881.93 304.11 887.1 301.15 887.1 295.16 881.93 298.12 881.93 304.11"/><polygon class="cls-3" points="883.41 305.01 878.24 307.98 878.24 310.01 883.41 307.05 883.41 305.01"/><polygon class="cls-3" points="876.74 307.11 881.77 304.02 883.41 305.01 878.24 307.98 876.74 307.11"/><polygon class="cls-3" points="876.74 301.12 876.74 307.11 881.77 304.02 876.74 301.12"/><polygon class="cls-3" points="875.59 307.75 870.4 304.75 870.4 298.76 875.59 301.76 875.59 307.75"/><polygon class="cls-3" points="870.4 304.75 865.21 301.76 865.21 295.76 870.4 298.76 870.4 304.75"/><polygon class="cls-3" points="870.4 310.75 865.21 307.75 865.21 301.76 870.4 304.75 870.4 310.75"/><polygon class="cls-3" points="871.89 313.65 862.17 308.03 862.17 306 871.89 311.61 871.89 313.65"/><polygon class="cls-3" points="857 308.95 860.87 306.73 860.04 310.71 857 308.95"/><polygon class="cls-2" points="870.42 310.71 865.23 307.71 865.23 301.72 870.42 304.71 870.42 310.71"/><polygon class="cls-2" points="865.23 307.71 860.04 304.71 860.04 298.72 865.23 301.72 865.23 307.71"/><polygon class="cls-2" points="865.23 313.71 860.04 310.71 860.04 304.71 865.23 307.71 865.23 313.71"/><polygon class="cls-2" points="866.73 316.61 857 310.99 857 308.95 866.73 314.57 866.73 316.61"/><polygon class="cls-3" points="860.04 298.72 865.21 295.76 875.59 301.76 870.42 304.71 860.04 298.72"/><polygon class="cls-3" points="870.42 310.71 875.59 307.75 875.59 301.76 870.42 304.71 870.42 310.71"/><polygon class="cls-3" points="871.89 311.61 866.73 314.57 866.73 316.61 871.89 313.65 871.89 311.61"/><polygon class="cls-3" points="865.23 313.71 870.26 310.62 871.89 311.61 866.73 314.57 865.23 313.71"/><polygon class="cls-3" points="865.23 307.71 865.23 313.71 870.26 310.62 865.23 307.71"/><polygon class="cls-3" points="864.08 314.35 858.88 311.35 858.88 305.36 864.08 308.35 864.08 314.35"/><polygon class="cls-3" points="858.88 311.35 853.69 308.35 853.69 302.36 858.88 305.36 858.88 311.35"/><polygon class="cls-3" points="858.88 317.34 853.69 314.35 853.69 308.35 858.88 311.35 858.88 317.34"/><polygon class="cls-3" points="860.38 320.25 850.65 314.63 850.65 312.59 860.38 318.21 860.38 320.25"/><polygon class="cls-3" points="845.48 315.55 849.36 313.33 848.52 317.31 845.48 315.55"/><polygon class="cls-2" points="858.9 317.31 853.71 314.31 853.71 308.31 858.9 311.31 858.9 317.31"/><polygon class="cls-2" points="853.71 314.31 848.52 311.31 848.52 305.32 853.71 308.31 853.71 314.31"/><polygon class="cls-2" points="853.71 320.3 848.52 317.31 848.52 311.31 853.71 314.31 853.71 320.3"/><polygon class="cls-2" points="855.21 323.2 845.48 317.59 845.48 315.55 855.21 321.17 855.21 323.2"/><polygon class="cls-3" points="848.52 305.32 853.69 302.36 864.08 308.35 858.9 311.31 848.52 305.32"/><polygon class="cls-3" points="858.9 317.31 864.08 314.35 864.08 308.35 858.9 311.31 858.9 317.31"/><polygon class="cls-3" points="860.38 318.21 855.21 321.17 855.21 323.2 860.38 320.25 860.38 318.21"/><polygon class="cls-3" points="853.71 320.3 858.75 317.21 860.38 318.21 855.21 321.17 853.71 320.3"/><polygon class="cls-3" points="853.71 314.31 853.71 320.3 858.75 317.21 853.71 314.31"/><polygon class="cls-3" points="852.56 320.94 847.37 317.95 847.37 311.95 852.56 314.95 852.56 320.94"/><polygon class="cls-3" points="847.37 317.95 842.18 314.95 842.18 308.95 847.37 311.95 847.37 317.95"/><polygon class="cls-3" points="847.37 323.94 842.18 320.94 842.18 314.95 847.37 317.95 847.37 323.94"/><polygon class="cls-3" points="848.87 326.84 839.14 321.23 839.14 319.19 848.87 324.8 848.87 326.84"/><polygon class="cls-3" points="833.97 322.15 837.84 319.93 837.01 323.9 833.97 322.15"/><polygon class="cls-2" points="847.39 323.9 842.2 320.9 842.2 314.91 847.39 317.91 847.39 323.9"/><polygon class="cls-2" points="842.2 320.9 837.01 317.91 837.01 311.91 842.2 314.91 842.2 320.9"/><polygon class="cls-2" points="842.2 326.9 837.01 323.9 837.01 317.91 842.2 320.9 842.2 326.9"/><polygon class="cls-2" points="843.7 329.8 833.97 324.18 833.97 322.15 843.7 327.76 843.7 329.8"/><polygon class="cls-3" points="837.01 311.91 842.18 308.95 852.56 314.95 847.39 317.91 837.01 311.91"/><polygon class="cls-3" points="847.39 323.9 852.56 320.94 852.56 314.95 847.39 317.91 847.39 323.9"/><polygon class="cls-3" points="848.87 324.8 843.7 327.76 843.7 329.8 848.87 326.84 848.87 324.8"/><polygon class="cls-3" points="842.2 326.9 847.23 323.81 848.87 324.8 843.7 327.76 842.2 326.9"/><polygon class="cls-3" points="842.2 320.9 842.2 326.9 847.23 323.81 842.2 320.9"/><polygon class="cls-3" points="841.05 327.54 835.86 324.54 835.86 318.55 841.05 321.55 841.05 327.54"/><polygon class="cls-3" points="835.86 324.54 830.66 321.55 830.66 315.55 835.86 318.55 835.86 324.54"/><polygon class="cls-3" points="835.86 330.54 830.66 327.54 830.66 321.55 835.86 324.54 835.86 330.54"/><polygon class="cls-3" points="837.35 333.44 827.62 327.82 827.62 325.78 837.35 331.4 837.35 333.44"/><polygon class="cls-3" points="822.46 328.74 826.33 326.52 825.49 330.5 822.46 328.74"/><polygon class="cls-2" points="835.88 330.5 830.69 327.5 830.69 321.51 835.88 324.5 835.88 330.5"/><polygon class="cls-2" points="830.69 327.5 825.49 324.5 825.49 318.51 830.69 321.51 830.69 327.5"/><polygon class="cls-2" points="830.69 333.5 825.49 330.5 825.49 324.5 830.69 327.5 830.69 333.5"/><polygon class="cls-2" points="832.18 336.4 822.46 330.78 822.46 328.74 832.18 334.36 832.18 336.4"/><polygon class="cls-3" points="825.49 318.51 830.66 315.55 841.05 321.55 835.88 324.5 825.49 318.51"/><polygon class="cls-3" points="835.88 330.5 841.05 327.54 841.05 321.55 835.88 324.5 835.88 330.5"/><polygon class="cls-3" points="837.35 331.4 832.18 334.36 832.18 336.4 837.35 333.44 837.35 331.4"/><polygon class="cls-3" points="830.69 333.5 835.72 330.41 837.35 331.4 832.18 334.36 830.69 333.5"/><polygon class="cls-3" points="830.69 327.5 830.69 333.5 835.72 330.41 830.69 327.5"/><polygon class="cls-3" points="829.53 334.13 824.34 331.14 824.34 325.14 829.53 328.14 829.53 334.13"/><polygon class="cls-3" points="824.34 331.14 819.15 328.14 819.15 322.15 824.34 325.14 824.34 331.14"/><polygon class="cls-3" points="824.34 337.13 819.15 334.13 819.15 328.14 824.34 331.14 824.34 337.13"/><polygon class="cls-3" points="825.84 340.03 816.11 334.42 816.11 332.38 825.84 338 825.84 340.03"/><polygon class="cls-3" points="810.94 335.34 814.81 333.12 813.98 337.1 810.94 335.34"/><polygon class="cls-2" points="824.36 337.1 819.17 334.1 819.17 328.1 824.36 331.1 824.36 337.1"/><polygon class="cls-2" points="819.17 334.1 813.98 331.1 813.98 325.11 819.17 328.1 819.17 334.1"/><polygon class="cls-2" points="819.17 340.09 813.98 337.1 813.98 331.1 819.17 334.1 819.17 340.09"/><polygon class="cls-2" points="820.67 342.99 810.94 337.38 810.94 335.34 820.67 340.96 820.67 342.99"/><polygon class="cls-3" points="813.98 325.11 819.15 322.15 829.53 328.14 824.36 331.1 813.98 325.11"/><polygon class="cls-3" points="824.36 337.1 829.53 334.13 829.53 328.14 824.36 331.1 824.36 337.1"/><polygon class="cls-3" points="825.84 338 820.67 340.96 820.67 342.99 825.84 340.03 825.84 338"/><polygon class="cls-3" points="819.17 340.09 824.2 337 825.84 338 820.67 340.96 819.17 340.09"/><polygon class="cls-3" points="819.17 334.1 819.17 340.09 824.2 337 819.17 334.1"/><polygon class="cls-3" points="818.02 340.73 812.83 337.74 812.83 331.74 818.02 334.74 818.02 340.73"/><polygon class="cls-3" points="812.83 337.74 807.63 334.74 807.63 328.74 812.83 331.74 812.83 337.74"/><polygon class="cls-3" points="812.83 343.73 807.63 340.73 807.63 334.74 812.83 337.74 812.83 343.73"/><polygon class="cls-3" points="814.32 346.63 804.6 341.01 804.6 338.98 814.32 344.59 814.32 346.63"/><polygon class="cls-3" points="799.43 341.94 803.3 339.72 802.47 343.69 799.43 341.94"/><polygon class="cls-2" points="812.85 343.69 807.66 340.69 807.66 334.7 812.85 337.7 812.85 343.69"/><polygon class="cls-2" points="807.66 340.69 802.47 337.7 802.47 331.7 807.66 334.7 807.66 340.69"/><polygon class="cls-2" points="807.66 346.69 802.47 343.69 802.47 337.7 807.66 340.69 807.66 346.69"/><polygon class="cls-2" points="809.15 349.59 799.43 343.97 799.43 341.94 809.15 347.55 809.15 349.59"/><polygon class="cls-3" points="802.47 331.7 807.63 328.74 818.02 334.74 812.85 337.7 802.47 331.7"/><polygon class="cls-3" points="812.85 343.69 818.02 340.73 818.02 334.74 812.85 337.7 812.85 343.69"/><polygon class="cls-3" points="814.32 344.59 809.15 347.55 809.15 349.59 814.32 346.63 814.32 344.59"/><polygon class="cls-3" points="807.66 346.69 812.69 343.6 814.32 344.59 809.15 347.55 807.66 346.69"/><polygon class="cls-3" points="807.66 340.69 807.66 346.69 812.69 343.6 807.66 340.69"/><polygon class="cls-3" points="806.5 347.33 801.31 344.33 801.31 338.34 806.5 341.33 806.5 347.33"/><polygon class="cls-3" points="801.31 344.33 796.12 341.33 796.12 335.34 801.31 338.34 801.31 344.33"/><polygon class="cls-3" points="801.31 350.32 796.12 347.33 796.12 341.33 801.31 344.33 801.31 350.32"/><polygon class="cls-3" points="802.81 353.23 793.08 347.61 793.08 345.57 802.81 351.19 802.81 353.23"/><polygon class="cls-3" points="787.91 348.53 791.78 346.31 790.95 350.29 787.91 348.53"/><polygon class="cls-2" points="801.33 350.29 796.14 347.29 796.14 341.3 801.33 344.29 801.33 350.29"/><polygon class="cls-2" points="796.14 347.29 790.95 344.29 790.95 338.3 796.14 341.3 796.14 347.29"/><polygon class="cls-2" points="796.14 353.28 790.95 350.29 790.95 344.29 796.14 347.29 796.14 353.28"/><polygon class="cls-2" points="797.64 356.19 787.91 350.57 787.91 348.53 797.64 354.15 797.64 356.19"/><polygon class="cls-3" points="790.95 338.3 796.12 335.34 806.5 341.33 801.33 344.29 790.95 338.3"/><polygon class="cls-3" points="801.33 350.29 806.5 347.33 806.5 341.33 801.33 344.29 801.33 350.29"/><polygon class="cls-3" points="802.81 351.19 797.64 354.15 797.64 356.19 802.81 353.23 802.81 351.19"/><polygon class="cls-3" points="796.14 353.28 801.17 350.19 802.81 351.19 797.64 354.15 796.14 353.28"/><polygon class="cls-3" points="796.14 347.29 796.14 353.28 801.17 350.19 796.14 347.29"/><polygon class="cls-3" points="794.99 353.92 789.8 350.93 789.8 344.93 794.99 347.93 794.99 353.92"/><polygon class="cls-3" points="789.8 350.93 784.61 347.93 784.61 341.94 789.8 344.93 789.8 350.93"/><polygon class="cls-3" points="789.8 356.92 784.61 353.92 784.61 347.93 789.8 350.93 789.8 356.92"/><polygon class="cls-3" points="791.29 359.82 781.57 354.21 781.57 352.17 791.29 357.79 791.29 359.82"/><polygon class="cls-3" points="776.4 355.13 780.27 352.91 779.44 356.88 776.4 355.13"/><polygon class="cls-2" points="789.82 356.88 784.63 353.89 784.63 347.89 789.82 350.89 789.82 356.88"/><polygon class="cls-2" points="784.63 353.89 779.44 350.89 779.44 344.89 784.63 347.89 784.63 353.89"/><polygon class="cls-2" points="784.63 359.88 779.44 356.88 779.44 350.89 784.63 353.89 784.63 359.88"/><polygon class="cls-2" points="786.13 362.78 776.4 357.17 776.4 355.13 786.13 360.75 786.13 362.78"/><polygon class="cls-3" points="779.44 344.89 784.61 341.94 794.99 347.93 789.82 350.89 779.44 344.89"/><polygon class="cls-3" points="789.82 356.88 794.99 353.92 794.99 347.93 789.82 350.89 789.82 356.88"/><polygon class="cls-3" points="791.29 357.79 786.13 360.75 786.13 362.78 791.29 359.82 791.29 357.79"/><polygon class="cls-3" points="784.63 359.88 789.66 356.79 791.29 357.79 786.13 360.75 784.63 359.88"/><polygon class="cls-3" points="784.63 353.89 784.63 359.88 789.66 356.79 784.63 353.89"/><polygon class="cls-3" points="783.48 360.52 778.28 357.52 778.28 351.53 783.48 354.53 783.48 360.52"/><polygon class="cls-3" points="778.28 357.52 773.09 354.53 773.09 348.53 778.28 351.53 778.28 357.52"/><polygon class="cls-3" points="778.28 363.52 773.09 360.52 773.09 354.53 778.28 357.52 778.28 363.52"/><polygon class="cls-3" points="779.78 366.42 770.05 360.8 770.05 358.76 779.78 364.38 779.78 366.42"/><polygon class="cls-3" points="764.88 361.72 768.76 359.5 767.92 363.48 764.88 361.72"/><polygon class="cls-2" points="778.31 363.48 773.12 360.48 773.12 354.49 778.31 357.49 778.31 363.48"/><polygon class="cls-2" points="773.12 360.48 767.92 357.49 767.92 351.49 773.12 354.49 773.12 360.48"/><polygon class="cls-2" points="773.12 366.48 767.92 363.48 767.92 357.49 773.12 360.48 773.12 366.48"/><polygon class="cls-2" points="774.61 369.38 764.88 363.76 764.88 361.72 774.61 367.34 774.61 369.38"/><polygon class="cls-3" points="767.92 351.49 773.09 348.53 783.48 354.53 778.31 357.49 767.92 351.49"/><polygon class="cls-3" points="778.31 363.48 783.48 360.52 783.48 354.53 778.31 357.49 778.31 363.48"/><polygon class="cls-3" points="779.78 364.38 774.61 367.34 774.61 369.38 779.78 366.42 779.78 364.38"/><polygon class="cls-3" points="773.12 366.48 778.15 363.39 779.78 364.38 774.61 367.34 773.12 366.48"/><polygon class="cls-3" points="773.12 360.48 773.12 366.48 778.15 363.39 773.12 360.48"/><polygon class="cls-3" points="1091.57 357.39 1086.38 360.39 1086.38 366.38 1091.57 363.38 1091.57 357.39"/><polygon class="cls-3" points="1086.38 360.39 1081.18 363.38 1081.18 369.38 1086.38 366.38 1086.38 360.39"/><polygon class="cls-3" points="1086.38 354.39 1081.18 357.39 1081.18 363.38 1086.38 360.39 1086.38 354.39"/><polygon class="cls-3" points="1087.87 351.49 1078.14 357.11 1078.14 359.14 1087.87 353.53 1087.87 351.49"/><polygon class="cls-3" points="1072.98 356.19 1076.85 358.4 1076.02 354.43 1072.98 356.19"/><polygon class="cls-2" points="1086.4 354.43 1081.21 357.43 1081.21 363.42 1086.4 360.42 1086.4 354.43"/><polygon class="cls-2" points="1081.21 357.43 1076.02 360.42 1076.02 366.42 1081.21 363.42 1081.21 357.43"/><polygon class="cls-2" points="1081.21 351.43 1076.02 354.43 1076.02 360.42 1081.21 357.43 1081.21 351.43"/><polygon class="cls-2" points="1082.7 348.53 1072.98 354.15 1072.98 356.19 1082.7 350.57 1082.7 348.53"/><polygon class="cls-3" points="1076.02 366.42 1081.18 369.38 1091.57 363.38 1086.4 360.42 1076.02 366.42"/><polygon class="cls-3" points="1086.4 354.43 1091.57 357.39 1091.57 363.38 1086.4 360.42 1086.4 354.43"/><polygon class="cls-3" points="1087.87 353.53 1082.7 350.57 1082.7 348.53 1087.87 351.49 1087.87 353.53"/><polygon class="cls-3" points="1081.21 351.43 1086.24 354.52 1087.87 353.53 1082.7 350.57 1081.21 351.43"/><polygon class="cls-3" points="1081.21 357.43 1081.21 351.43 1086.24 354.52 1081.21 357.43"/><polygon class="cls-3" points="1080.05 350.79 1074.86 353.79 1074.86 359.78 1080.05 356.79 1080.05 350.79"/><polygon class="cls-3" points="1074.86 353.79 1069.67 356.79 1069.67 362.78 1074.86 359.78 1074.86 353.79"/><polygon class="cls-3" points="1074.86 347.8 1069.67 350.79 1069.67 356.79 1074.86 353.79 1074.86 347.8"/><polygon class="cls-3" points="1076.36 344.89 1066.63 350.51 1066.63 352.55 1076.36 346.93 1076.36 344.89"/><polygon class="cls-3" points="1061.46 349.59 1065.33 351.81 1064.5 347.83 1061.46 349.59"/><polygon class="cls-2" points="1074.88 347.83 1069.69 350.83 1069.69 356.82 1074.88 353.83 1074.88 347.83"/><polygon class="cls-2" points="1069.69 350.83 1064.5 353.83 1064.5 359.82 1069.69 356.82 1069.69 350.83"/><polygon class="cls-2" points="1069.69 344.84 1064.5 347.83 1064.5 353.83 1069.69 350.83 1069.69 344.84"/><polygon class="cls-2" points="1071.19 341.94 1061.46 347.55 1061.46 349.59 1071.19 343.97 1071.19 341.94"/><polygon class="cls-3" points="1064.5 359.82 1069.67 362.78 1080.05 356.79 1074.88 353.83 1064.5 359.82"/><polygon class="cls-3" points="1074.88 347.83 1080.05 350.79 1080.05 356.79 1074.88 353.83 1074.88 347.83"/><polygon class="cls-3" points="1076.36 346.93 1071.19 343.97 1071.19 341.94 1076.36 344.89 1076.36 346.93"/><polygon class="cls-3" points="1069.69 344.84 1074.72 347.93 1076.36 346.93 1071.19 343.97 1069.69 344.84"/><polygon class="cls-3" points="1069.69 350.83 1069.69 344.84 1074.72 347.93 1069.69 350.83"/><polygon class="cls-3" points="1068.54 344.2 1063.35 347.19 1063.35 353.19 1068.54 350.19 1068.54 344.2"/><polygon class="cls-3" points="1063.35 347.19 1058.16 350.19 1058.16 356.19 1063.35 353.19 1063.35 347.19"/><polygon class="cls-3" points="1063.35 341.2 1058.16 344.2 1058.16 350.19 1063.35 347.19 1063.35 341.2"/><polygon class="cls-3" points="1064.85 338.3 1055.12 343.92 1055.12 345.95 1064.85 340.34 1064.85 338.3"/><polygon class="cls-3" points="1049.95 342.99 1053.82 345.21 1052.99 341.24 1049.95 342.99"/><polygon class="cls-2" points="1063.37 341.24 1058.18 344.24 1058.18 350.23 1063.37 347.23 1063.37 341.24"/><polygon class="cls-2" points="1058.18 344.24 1052.99 347.23 1052.99 353.23 1058.18 350.23 1058.18 344.24"/><polygon class="cls-2" points="1058.18 338.24 1052.99 341.24 1052.99 347.23 1058.18 344.24 1058.18 338.24"/><polygon class="cls-2" points="1059.67 335.34 1049.95 340.96 1049.95 342.99 1059.67 337.38 1059.67 335.34"/><polygon class="cls-3" points="1052.99 353.23 1058.16 356.19 1068.54 350.19 1063.37 347.23 1052.99 353.23"/><polygon class="cls-3" points="1063.37 341.24 1068.54 344.2 1068.54 350.19 1063.37 347.23 1063.37 341.24"/><polygon class="cls-3" points="1064.85 340.34 1059.67 337.38 1059.67 335.34 1064.85 338.3 1064.85 340.34"/><polygon class="cls-3" points="1058.18 338.24 1063.21 341.33 1064.85 340.34 1059.67 337.38 1058.18 338.24"/><polygon class="cls-3" points="1058.18 344.24 1058.18 338.24 1063.21 341.33 1058.18 344.24"/><polygon class="cls-3" points="1057.03 337.6 1051.83 340.6 1051.83 346.59 1057.03 343.6 1057.03 337.6"/><polygon class="cls-3" points="1051.83 340.6 1046.64 343.6 1046.64 349.59 1051.83 346.59 1051.83 340.6"/><polygon class="cls-3" points="1051.83 334.6 1046.64 337.6 1046.64 343.6 1051.83 340.6 1051.83 334.6"/><polygon class="cls-3" points="1053.33 331.7 1043.6 337.32 1043.6 339.36 1053.33 333.74 1053.33 331.7"/><polygon class="cls-3" points="1038.43 336.4 1042.31 338.62 1041.47 334.64 1038.43 336.4"/><polygon class="cls-2" points="1051.86 334.64 1046.66 337.64 1046.66 343.63 1051.86 340.63 1051.86 334.64"/><polygon class="cls-2" points="1046.66 337.64 1041.47 340.63 1041.47 346.63 1046.66 343.63 1046.66 337.64"/><polygon class="cls-2" points="1046.66 331.64 1041.47 334.64 1041.47 340.63 1046.66 337.64 1046.66 331.64"/><polygon class="cls-2" points="1048.16 328.74 1038.43 334.36 1038.43 336.4 1048.16 330.78 1048.16 328.74"/><polygon class="cls-3" points="1041.47 346.63 1046.64 349.59 1057.03 343.6 1051.86 340.63 1041.47 346.63"/><polygon class="cls-3" points="1051.86 334.64 1057.03 337.6 1057.03 343.6 1051.86 340.63 1051.86 334.64"/><polygon class="cls-3" points="1053.33 333.74 1048.16 330.78 1048.16 328.74 1053.33 331.7 1053.33 333.74"/><polygon class="cls-3" points="1046.66 331.64 1051.69 334.73 1053.33 333.74 1048.16 330.78 1046.66 331.64"/><polygon class="cls-3" points="1046.66 337.64 1046.66 331.64 1051.69 334.73 1046.66 337.64"/><polygon class="cls-3" points="1045.51 331 1040.32 334 1040.32 340 1045.51 337 1045.51 331"/><polygon class="cls-3" points="1040.32 334 1035.13 337 1035.13 342.99 1040.32 340 1040.32 334"/><polygon class="cls-3" points="1040.32 328.01 1035.13 331 1035.13 337 1040.32 334 1040.32 328.01"/><polygon class="cls-3" points="1041.82 325.11 1032.09 330.72 1032.09 332.76 1041.82 327.14 1041.82 325.11"/><polygon class="cls-3" points="1026.92 329.8 1030.79 332.02 1029.96 328.05 1026.92 329.8"/><polygon class="cls-2" points="1040.34 328.05 1035.15 331.04 1035.15 337.04 1040.34 334.04 1040.34 328.05"/><polygon class="cls-2" points="1035.15 331.04 1029.96 334.04 1029.96 340.03 1035.15 337.04 1035.15 331.04"/><polygon class="cls-2" points="1035.15 325.05 1029.96 328.05 1029.96 334.04 1035.15 331.04 1035.15 325.05"/><polygon class="cls-2" points="1036.65 322.15 1026.92 327.76 1026.92 329.8 1036.65 324.18 1036.65 322.15"/><polygon class="cls-3" points="1029.96 340.03 1035.13 342.99 1045.51 337 1040.34 334.04 1029.96 340.03"/><polygon class="cls-3" points="1040.34 328.05 1045.51 331 1045.51 337 1040.34 334.04 1040.34 328.05"/><polygon class="cls-3" points="1041.82 327.14 1036.65 324.18 1036.65 322.15 1041.82 325.11 1041.82 327.14"/><polygon class="cls-3" points="1035.15 325.05 1040.18 328.14 1041.82 327.14 1036.65 324.18 1035.15 325.05"/><polygon class="cls-3" points="1035.15 331.04 1035.15 325.05 1040.18 328.14 1035.15 331.04"/><polygon class="cls-3" points="1034 324.41 1028.81 327.4 1028.81 333.4 1034 330.4 1034 324.41"/><polygon class="cls-3" points="1028.81 327.4 1023.61 330.4 1023.61 336.4 1028.81 333.4 1028.81 327.4"/><polygon class="cls-3" points="1028.81 321.41 1023.61 324.41 1023.61 330.4 1028.81 327.4 1028.81 321.41"/><polygon class="cls-3" points="1030.3 318.51 1020.57 324.13 1020.57 326.16 1030.3 320.55 1030.3 318.51"/><polygon class="cls-3" points="1015.4 323.2 1019.28 325.42 1018.45 321.45 1015.4 323.2"/><polygon class="cls-2" points="1028.83 321.45 1023.64 324.45 1023.64 330.44 1028.83 327.44 1028.83 321.45"/><polygon class="cls-2" points="1023.64 324.45 1018.45 327.44 1018.45 333.44 1023.64 330.44 1023.64 324.45"/><polygon class="cls-2" points="1023.64 318.45 1018.45 321.45 1018.45 327.44 1023.64 324.45 1023.64 318.45"/><polygon class="cls-2" points="1025.13 315.55 1015.4 321.17 1015.4 323.2 1025.13 317.59 1025.13 315.55"/><polygon class="cls-3" points="1018.45 333.44 1023.61 336.4 1034 330.4 1028.83 327.44 1018.45 333.44"/><polygon class="cls-3" points="1028.83 321.45 1034 324.41 1034 330.4 1028.83 327.44 1028.83 321.45"/><polygon class="cls-3" points="1030.3 320.55 1025.13 317.59 1025.13 315.55 1030.3 318.51 1030.3 320.55"/><polygon class="cls-3" points="1023.64 318.45 1028.67 321.54 1030.3 320.55 1025.13 317.59 1023.64 318.45"/><polygon class="cls-3" points="1023.64 324.45 1023.64 318.45 1028.67 321.54 1023.64 324.45"/><polygon class="cls-3" points="1022.48 317.81 1017.29 320.81 1017.29 326.8 1022.48 323.81 1022.48 317.81"/><polygon class="cls-3" points="1017.29 320.81 1012.1 323.81 1012.1 329.8 1017.29 326.8 1017.29 320.81"/><polygon class="cls-3" points="1017.29 314.81 1012.1 317.81 1012.1 323.81 1017.29 320.81 1017.29 314.81"/><polygon class="cls-3" points="1018.79 311.91 1009.06 317.53 1009.06 319.57 1018.79 313.95 1018.79 311.91"/><polygon class="cls-3" points="1003.89 316.61 1007.76 318.83 1006.93 314.85 1003.89 316.61"/><polygon class="cls-2" points="1017.31 314.85 1012.12 317.85 1012.12 323.84 1017.31 320.85 1017.31 314.85"/><polygon class="cls-2" points="1012.12 317.85 1006.93 320.85 1006.93 326.84 1012.12 323.84 1012.12 317.85"/><polygon class="cls-2" points="1012.12 311.86 1006.93 314.85 1006.93 320.85 1012.12 317.85 1012.12 311.86"/><polygon class="cls-2" points="1013.62 308.95 1003.89 314.57 1003.89 316.61 1013.62 310.99 1013.62 308.95"/><polygon class="cls-3" points="1006.93 326.84 1012.1 329.8 1022.48 323.81 1017.31 320.85 1006.93 326.84"/><polygon class="cls-3" points="1017.31 314.85 1022.48 317.81 1022.48 323.81 1017.31 320.85 1017.31 314.85"/><polygon class="cls-3" points="1018.79 313.95 1013.62 310.99 1013.62 308.95 1018.79 311.91 1018.79 313.95"/><polygon class="cls-3" points="1012.12 311.86 1017.15 314.94 1018.79 313.95 1013.62 310.99 1012.12 311.86"/><polygon class="cls-3" points="1012.12 317.85 1012.12 311.86 1017.15 314.94 1012.12 317.85"/><polygon class="cls-3" points="1010.97 311.21 1005.78 314.21 1005.78 320.21 1010.97 317.21 1010.97 311.21"/><polygon class="cls-3" points="1005.78 314.21 1000.59 317.21 1000.59 323.2 1005.78 320.21 1005.78 314.21"/><polygon class="cls-3" points="1005.78 308.22 1000.59 311.21 1000.59 317.21 1005.78 314.21 1005.78 308.22"/><polygon class="cls-3" points="1007.27 305.32 997.55 310.93 997.55 312.97 1007.27 307.35 1007.27 305.32"/><polygon class="cls-3" points="992.38 310.01 996.25 312.23 995.42 308.26 992.38 310.01"/><polygon class="cls-2" points="1005.8 308.26 1000.61 311.25 1000.61 317.25 1005.8 314.25 1005.8 308.26"/><polygon class="cls-2" points="1000.61 311.25 995.42 314.25 995.42 320.25 1000.61 317.25 1000.61 311.25"/><polygon class="cls-2" points="1000.61 305.26 995.42 308.26 995.42 314.25 1000.61 311.25 1000.61 305.26"/><polygon class="cls-2" points="1002.1 302.36 992.38 307.98 992.38 310.01 1002.1 304.39 1002.1 302.36"/><polygon class="cls-3" points="995.42 320.25 1000.59 323.2 1010.97 317.21 1005.8 314.25 995.42 320.25"/><polygon class="cls-3" points="1005.8 308.26 1010.97 311.21 1010.97 317.21 1005.8 314.25 1005.8 308.26"/><polygon class="cls-3" points="1007.27 307.35 1002.1 304.39 1002.1 302.36 1007.27 305.32 1007.27 307.35"/><polygon class="cls-3" points="1000.61 305.26 1005.64 308.35 1007.27 307.35 1002.1 304.39 1000.61 305.26"/><polygon class="cls-3" points="1000.61 311.25 1000.61 305.26 1005.64 308.35 1000.61 311.25"/><polygon class="cls-3" points="999.45 304.62 994.26 307.62 994.26 313.61 999.45 310.61 999.45 304.62"/><polygon class="cls-3" points="994.26 307.62 989.07 310.61 989.07 316.61 994.26 313.61 994.26 307.62"/><polygon class="cls-3" points="994.26 301.62 989.07 304.62 989.07 310.61 994.26 307.62 994.26 301.62"/><polygon class="cls-3" points="995.76 298.72 986.03 304.34 986.03 306.37 995.76 300.76 995.76 298.72"/><polygon class="cls-3" points="980.86 303.42 984.74 305.63 983.9 301.66 980.86 303.42"/><polygon class="cls-2" points="994.28 301.66 989.09 304.66 989.09 310.65 994.28 307.65 994.28 301.66"/><polygon class="cls-2" points="989.09 304.66 983.9 307.65 983.9 313.65 989.09 310.65 989.09 304.66"/><polygon class="cls-2" points="989.09 298.66 983.9 301.66 983.9 307.65 989.09 304.66 989.09 298.66"/><polygon class="cls-2" points="990.59 295.76 980.86 301.38 980.86 303.42 990.59 297.8 990.59 295.76"/><polygon class="cls-3" points="983.9 313.65 989.07 316.61 999.45 310.61 994.28 307.65 983.9 313.65"/><polygon class="cls-3" points="994.28 301.66 999.45 304.62 999.45 310.61 994.28 307.65 994.28 301.66"/><polygon class="cls-3" points="995.76 300.76 990.59 297.8 990.59 295.76 995.76 298.72 995.76 300.76"/><polygon class="cls-3" points="989.09 298.66 994.12 301.75 995.76 300.76 990.59 297.8 989.09 298.66"/><polygon class="cls-3" points="989.09 304.66 989.09 298.66 994.12 301.75 989.09 304.66"/><polygon class="cls-3" points="987.94 298.02 982.75 301.02 982.75 307.01 987.94 304.02 987.94 298.02"/><polygon class="cls-3" points="982.75 301.02 977.56 304.02 977.56 310.01 982.75 307.01 982.75 301.02"/><polygon class="cls-3" points="982.75 295.03 977.56 298.02 977.56 304.02 982.75 301.02 982.75 295.03"/><polygon class="cls-3" points="984.25 292.13 974.52 297.74 974.52 299.78 984.25 294.16 984.25 292.13"/><polygon class="cls-3" points="969.35 296.82 973.22 299.04 972.39 295.06 969.35 296.82"/><polygon class="cls-2" points="982.77 295.06 977.58 298.06 977.58 304.06 982.77 301.06 982.77 295.06"/><polygon class="cls-2" points="977.58 298.06 972.39 301.06 972.39 307.05 977.58 304.06 977.58 298.06"/><polygon class="cls-2" points="977.58 292.07 972.39 295.06 972.39 301.06 977.58 298.06 977.58 292.07"/><polygon class="cls-2" points="979.08 289.17 969.35 294.78 969.35 296.82 979.08 291.2 979.08 289.17"/><polygon class="cls-3" points="972.39 307.05 977.56 310.01 987.94 304.02 982.77 301.06 972.39 307.05"/><polygon class="cls-3" points="982.77 295.06 987.94 298.02 987.94 304.02 982.77 301.06 982.77 295.06"/><polygon class="cls-3" points="984.25 294.16 979.08 291.2 979.08 289.17 984.25 292.13 984.25 294.16"/><polygon class="cls-3" points="977.58 292.07 982.61 295.16 984.25 294.16 979.08 291.2 977.58 292.07"/><polygon class="cls-3" points="977.58 298.06 977.58 292.07 982.61 295.16 977.58 298.06"/><polygon class="cls-3" points="976.42 291.43 971.23 294.42 971.23 300.42 976.42 297.42 976.42 291.43"/><polygon class="cls-3" points="971.23 294.42 966.04 297.42 966.04 303.42 971.23 300.42 971.23 294.42"/><polygon class="cls-3" points="971.23 288.43 966.04 291.43 966.04 297.42 971.23 294.42 971.23 288.43"/><polygon class="cls-3" points="972.73 285.53 963 291.14 963 293.18 972.73 287.56 972.73 285.53"/><polygon class="cls-3" points="957.83 290.22 961.71 292.44 960.87 288.47 957.83 290.22"/><polygon class="cls-2" points="971.26 288.47 966.07 291.46 966.07 297.46 971.26 294.46 971.26 288.47"/><polygon class="cls-2" points="966.07 291.46 960.87 294.46 960.87 300.46 966.07 297.46 966.07 291.46"/><polygon class="cls-2" points="966.07 285.47 960.87 288.47 960.87 294.46 966.07 291.46 966.07 285.47"/><polygon class="cls-2" points="967.56 282.57 957.83 288.19 957.83 290.22 967.56 284.61 967.56 282.57"/><polygon class="cls-3" points="960.87 300.46 966.04 303.42 976.42 297.42 971.26 294.46 960.87 300.46"/><polygon class="cls-3" points="971.26 288.47 976.42 291.43 976.42 297.42 971.26 294.46 971.26 288.47"/><polygon class="cls-3" points="972.73 287.56 967.56 284.61 967.56 282.57 972.73 285.53 972.73 287.56"/><polygon class="cls-3" points="966.07 285.47 971.1 288.56 972.73 287.56 967.56 284.61 966.07 285.47"/><polygon class="cls-3" points="966.07 291.46 966.07 285.47 971.1 288.56 966.07 291.46"/><polygon class="cls-3" points="964.91 284.83 959.72 287.83 959.72 293.82 964.91 290.82 964.91 284.83"/><polygon class="cls-3" points="959.72 287.83 954.53 290.82 954.53 296.82 959.72 293.82 959.72 287.83"/><polygon class="cls-3" points="959.72 281.83 954.53 284.83 954.53 290.82 959.72 287.83 959.72 281.83"/><polygon class="cls-3" points="961.22 278.93 951.49 284.55 951.49 286.58 961.22 280.97 961.22 278.93"/><polygon class="cls-3" points="946.32 283.63 950.19 285.85 949.36 281.87 946.32 283.63"/><polygon class="cls-2" points="959.74 281.87 954.55 284.87 954.55 290.86 959.74 287.87 959.74 281.87"/><polygon class="cls-2" points="954.55 284.87 949.36 287.87 949.36 293.86 954.55 290.86 954.55 284.87"/><polygon class="cls-2" points="954.55 278.87 949.36 281.87 949.36 287.87 954.55 284.87 954.55 278.87"/><polygon class="cls-2" points="956.05 275.97 946.32 281.59 946.32 283.63 956.05 278.01 956.05 275.97"/><polygon class="cls-3" points="949.36 293.86 954.53 296.82 964.91 290.82 959.74 287.87 949.36 293.86"/><polygon class="cls-3" points="959.74 281.87 964.91 284.83 964.91 290.82 959.74 287.87 959.74 281.87"/><polygon class="cls-3" points="961.22 280.97 956.05 278.01 956.05 275.97 961.22 278.93 961.22 280.97"/><polygon class="cls-3" points="954.55 278.87 959.58 281.96 961.22 280.97 956.05 278.01 954.55 278.87"/><polygon class="cls-3" points="954.55 284.87 954.55 278.87 959.58 281.96 954.55 284.87"/><polygon class="cls-3" points="953.4 278.23 948.21 281.23 948.21 287.23 953.4 284.23 953.4 278.23"/><polygon class="cls-3" points="948.21 281.23 943.01 284.23 943.01 290.22 948.21 287.23 948.21 281.23"/><polygon class="cls-3" points="948.21 275.24 943.01 278.23 943.01 284.23 948.21 281.23 948.21 275.24"/><polygon class="cls-3" points="949.7 272.34 939.98 277.95 939.98 279.99 949.7 274.37 949.7 272.34"/><polygon class="cls-3" points="934.8 277.03 938.68 279.25 937.85 275.27 934.8 277.03"/><polygon class="cls-2" points="948.23 275.27 943.04 278.27 943.04 284.27 948.23 281.27 948.23 275.27"/><polygon class="cls-2" points="943.04 278.27 937.85 281.27 937.85 287.26 943.04 284.27 943.04 278.27"/><polygon class="cls-2" points="943.04 272.28 937.85 275.27 937.85 281.27 943.04 278.27 943.04 272.28"/><polygon class="cls-2" points="944.53 269.38 934.8 274.99 934.8 277.03 944.53 271.41 944.53 269.38"/><polygon class="cls-3" points="937.85 287.26 943.01 290.22 953.4 284.23 948.23 281.27 937.85 287.26"/><polygon class="cls-3" points="948.23 275.27 953.4 278.23 953.4 284.23 948.23 281.27 948.23 275.27"/><polygon class="cls-3" points="949.7 274.37 944.53 271.41 944.53 269.38 949.7 272.34 949.7 274.37"/><polygon class="cls-3" points="943.04 272.28 948.07 275.37 949.7 274.37 944.53 271.41 943.04 272.28"/><polygon class="cls-3" points="943.04 278.27 943.04 272.28 948.07 275.37 943.04 278.27"/><path class="cls-6" d="M916.36,466.81,762,377.68c-2-1.18-1.78-3.23.57-4.59l153.24-88.47c2.35-1.36,5.91-1.51,7.95-.33l154.39,89.13c2,1.18,1.78,3.23-.57,4.59L924.3,466.48C922,467.84,918.4,468,916.36,466.81Z" transform="translate(8 3)"/><polygon class="cls-7" points="1087.48 360.53 1087.48 378.63 1066.77 368.55 1087.48 360.53"/><polygon class="cls-6" points="768.61 360.53 768.61 378.55 792.54 370.05 768.61 360.53"/><path class="cls-7" d="M1078.12,373.42,1011,334.66,920,449.58v18h.2a9.1,9.1,0,0,0,4.06-1.11L1077.55,378C1079.9,376.65,1080.15,374.6,1078.12,373.42Z" transform="translate(8 3)"/><path class="cls-4" d="M916.36,448.79,762,359.66c-2-1.18-1.78-3.23.57-4.59l153.24-88.47c2.35-1.36,5.91-1.51,7.95-.33l154.39,89.13c2,1.18,1.78,3.23-.57,4.59L924.3,448.46C922,449.82,918.4,450,916.36,448.79Z" transform="translate(8 3)"/><path class="cls-7" d="M930.82,294.47c-6,3.44-15.6,3.44-21.55,0s-6-9,0-12.44,15.6-3.44,21.55,0S936.77,291,930.82,294.47Z" transform="translate(8 3)"/><path class="cls-6" d="M930.82,286.68c-6-3.44-15.6-3.44-21.55,0a9.29,9.29,0,0,0-3.91,3.9,9.29,9.29,0,0,0,3.91,3.9c6,3.44,15.6,3.44,21.55,0a9.29,9.29,0,0,0,3.91-3.9A9.29,9.29,0,0,0,930.82,286.68Z" transform="translate(8 3)"/><polygon class="cls-3" points="917 470.1 914.8 468.81 914.67 471.93 917 470.1"/><polygon class="cls-2" points="917 472.13 907.31 477.73 907.31 475.7 917 470.1 917 472.13"/><polygon class="cls-2" points="914.8 458.63 909.63 461.62 909.63 455.65 914.8 452.66 914.8 458.63"/><polygon class="cls-2" points="909.63 461.62 904.46 464.6 904.46 458.63 909.63 455.65 909.63 461.62"/><polygon class="cls-2" points="909.63 467.58 904.46 470.57 904.46 464.6 909.63 461.62 909.63 467.58"/><polygon class="cls-2" points="911.12 468.75 901.44 474.35 901.44 472.32 911.12 466.72 911.12 468.75"/><polygon class="cls-3" points="920.68 456.04 914.8 452.66 904.46 458.63 910.34 462.01 920.68 456.04"/><polygon class="cls-3" points="904.46 470.57 910.34 473.95 910.34 462.01 904.46 458.63 904.46 470.57"/><polygon class="cls-3" points="901.44 472.32 907.31 475.7 910.34 473.95 904.46 470.57 901.44 472.32"/><polygon class="cls-3" points="907.31 477.73 901.44 474.35 901.44 472.32 907.31 475.7 907.31 477.73"/><polygon class="cls-3" points="905.25 463.3 903.05 462.01 902.91 465.13 905.25 463.3"/><polygon class="cls-2" points="905.25 465.33 895.56 470.93 895.56 468.9 905.25 463.3 905.25 465.33"/><polygon class="cls-2" points="903.05 451.83 897.88 454.82 897.88 448.85 903.05 445.86 903.05 451.83"/><polygon class="cls-2" points="897.88 454.82 892.71 457.8 892.71 451.83 897.88 448.85 897.88 454.82"/><polygon class="cls-2" points="897.88 460.79 892.71 463.77 892.71 457.8 897.88 454.82 897.88 460.79"/><polygon class="cls-2" points="899.37 461.95 889.68 467.55 889.68 465.52 899.37 459.92 899.37 461.95"/><polygon class="cls-3" points="908.92 449.24 903.05 445.86 892.71 451.83 898.59 455.21 908.92 449.24"/><polygon class="cls-3" points="892.71 463.77 898.59 467.15 898.59 455.21 892.71 451.83 892.71 463.77"/><polygon class="cls-3" points="889.68 465.52 895.56 468.9 898.59 467.15 892.71 463.77 889.68 465.52"/><polygon class="cls-3" points="895.56 470.93 889.68 467.55 889.68 465.52 895.56 468.9 895.56 470.93"/><polygon class="cls-3" points="893.49 456.5 891.29 455.21 891.16 458.33 893.49 456.5"/><polygon class="cls-2" points="893.49 458.53 883.8 464.13 883.8 462.1 893.49 456.5 893.49 458.53"/><polygon class="cls-2" points="891.29 445.03 886.12 448.02 886.12 442.05 891.29 439.06 891.29 445.03"/><polygon class="cls-2" points="886.12 448.02 880.95 451 880.95 445.03 886.12 442.05 886.12 448.02"/><polygon class="cls-2" points="886.12 453.99 880.95 456.97 880.95 451 886.12 448.02 886.12 453.99"/><polygon class="cls-2" points="887.61 455.15 877.93 460.75 877.93 458.72 887.61 453.13 887.61 455.15"/><polygon class="cls-3" points="897.17 442.44 891.29 439.06 880.95 445.03 886.83 448.41 897.17 442.44"/><polygon class="cls-3" points="880.95 456.97 886.83 460.35 886.83 448.41 880.95 445.03 880.95 456.97"/><polygon class="cls-3" points="877.93 458.72 883.8 462.1 886.83 460.35 880.95 456.97 877.93 458.72"/><polygon class="cls-3" points="883.8 464.13 877.93 460.75 877.93 458.72 883.8 462.1 883.8 464.13"/><polygon class="cls-3" points="881.74 449.7 879.54 448.41 879.4 451.53 881.74 449.7"/><polygon class="cls-2" points="881.74 451.73 872.05 457.33 872.05 455.3 881.74 449.7 881.74 451.73"/><polygon class="cls-2" points="879.54 438.23 874.37 441.22 874.37 435.25 879.54 432.26 879.54 438.23"/><polygon class="cls-2" points="874.37 441.22 869.2 444.2 869.2 438.23 874.37 435.25 874.37 441.22"/><polygon class="cls-2" points="874.37 447.19 869.2 450.17 869.2 444.2 874.37 441.22 874.37 447.19"/><polygon class="cls-2" points="875.86 448.35 866.17 453.95 866.17 451.92 875.86 446.32 875.86 448.35"/><polygon class="cls-3" points="885.41 435.64 879.54 432.26 869.2 438.23 875.08 441.61 885.41 435.64"/><polygon class="cls-3" points="869.2 450.17 875.08 453.55 875.08 441.61 869.2 438.23 869.2 450.17"/><polygon class="cls-3" points="866.17 451.92 872.05 455.3 875.08 453.55 869.2 450.17 866.17 451.92"/><polygon class="cls-3" points="872.05 457.33 866.17 453.95 866.17 451.92 872.05 455.3 872.05 457.33"/><polygon class="cls-3" points="869.98 442.91 867.78 441.61 867.65 444.73 869.98 442.91"/><polygon class="cls-2" points="869.98 444.93 860.29 450.53 860.29 448.5 869.98 442.91 869.98 444.93"/><polygon class="cls-2" points="867.78 431.43 862.61 434.42 862.61 428.45 867.78 425.46 867.78 431.43"/><polygon class="cls-2" points="862.61 434.42 857.44 437.4 857.44 431.43 862.61 428.45 862.61 434.42"/><polygon class="cls-2" points="862.61 440.39 857.44 443.37 857.44 437.4 862.61 434.42 862.61 440.39"/><polygon class="cls-2" points="864.1 441.55 854.42 447.15 854.42 445.12 864.1 439.53 864.1 441.55"/><polygon class="cls-3" points="873.66 428.84 867.78 425.46 857.44 431.43 863.32 434.81 873.66 428.84"/><polygon class="cls-3" points="857.44 443.37 863.32 446.75 863.32 434.81 857.44 431.43 857.44 443.37"/><polygon class="cls-3" points="854.42 445.12 860.29 448.5 863.32 446.75 857.44 443.37 854.42 445.12"/><polygon class="cls-3" points="860.29 450.53 854.42 447.15 854.42 445.12 860.29 448.5 860.29 450.53"/><polygon class="cls-3" points="858.23 436.11 856.03 434.81 855.89 437.93 858.23 436.11"/><polygon class="cls-2" points="858.23 438.13 848.54 443.73 848.54 441.7 858.23 436.11 858.23 438.13"/><polygon class="cls-2" points="856.03 424.63 850.86 427.62 850.86 421.65 856.03 418.66 856.03 424.63"/><polygon class="cls-2" points="850.86 427.62 845.69 430.6 845.69 424.63 850.86 421.65 850.86 427.62"/><polygon class="cls-2" points="850.86 433.59 845.69 436.57 845.69 430.6 850.86 427.62 850.86 433.59"/><polygon class="cls-2" points="852.35 434.75 842.66 440.35 842.66 438.32 852.35 432.73 852.35 434.75"/><polygon class="cls-3" points="861.91 422.04 856.03 418.66 845.69 424.63 851.57 428.01 861.91 422.04"/><polygon class="cls-3" points="845.69 436.57 851.57 439.95 851.57 428.01 845.69 424.63 845.69 436.57"/><polygon class="cls-3" points="842.66 438.32 848.54 441.7 851.57 439.95 845.69 436.57 842.66 438.32"/><polygon class="cls-3" points="848.54 443.73 842.66 440.35 842.66 438.32 848.54 441.7 848.54 443.73"/><polygon class="cls-3" points="846.47 429.31 844.27 428.01 844.14 431.13 846.47 429.31"/><polygon class="cls-2" points="846.47 431.33 836.78 436.93 836.78 434.9 846.47 429.31 846.47 431.33"/><polygon class="cls-2" points="844.27 417.83 839.1 420.82 839.1 414.85 844.27 411.86 844.27 417.83"/><polygon class="cls-2" points="839.1 420.82 833.93 423.8 833.93 417.83 839.1 414.85 839.1 420.82"/><polygon class="cls-2" points="839.1 426.79 833.93 429.77 833.93 423.8 839.1 420.82 839.1 426.79"/><polygon class="cls-2" points="840.6 427.95 830.91 433.55 830.91 431.52 840.6 425.93 840.6 427.95"/><polygon class="cls-3" points="850.15 415.25 844.27 411.86 833.93 417.83 839.81 421.21 850.15 415.25"/><polygon class="cls-3" points="833.93 429.77 839.81 433.15 839.81 421.21 833.93 417.83 833.93 429.77"/><polygon class="cls-3" points="830.91 431.52 836.78 434.9 839.81 433.15 833.93 429.77 830.91 431.52"/><polygon class="cls-3" points="836.78 436.93 830.91 433.55 830.91 431.52 836.78 434.9 836.78 436.93"/><polygon class="cls-3" points="834.72 422.51 832.52 421.21 832.38 424.33 834.72 422.51"/><polygon class="cls-2" points="834.72 424.54 825.03 430.13 825.03 428.1 834.72 422.51 834.72 424.54"/><polygon class="cls-2" points="832.52 411.03 827.35 414.02 827.35 408.05 832.52 405.06 832.52 411.03"/><polygon class="cls-2" points="827.35 414.02 822.18 417 822.18 411.03 827.35 408.05 827.35 414.02"/><polygon class="cls-2" points="827.35 419.99 822.18 422.97 822.18 417 827.35 414.02 827.35 419.99"/><polygon class="cls-2" points="828.84 421.15 819.15 426.75 819.15 424.72 828.84 419.13 828.84 421.15"/><polygon class="cls-3" points="838.4 408.44 832.52 405.06 822.18 411.03 828.06 414.41 838.4 408.44"/><polygon class="cls-3" points="822.18 422.97 828.06 426.35 828.06 414.41 822.18 411.03 822.18 422.97"/><polygon class="cls-3" points="819.15 424.72 825.03 428.1 828.06 426.35 822.18 422.97 819.15 424.72"/><polygon class="cls-3" points="825.03 430.13 819.15 426.75 819.15 424.72 825.03 428.1 825.03 430.13"/><polygon class="cls-3" points="822.96 415.71 820.76 414.41 820.63 417.53 822.96 415.71"/><polygon class="cls-2" points="822.96 417.74 813.28 423.33 813.28 421.3 822.96 415.71 822.96 417.74"/><polygon class="cls-2" points="820.76 404.23 815.6 407.22 815.6 401.25 820.76 398.26 820.76 404.23"/><polygon class="cls-2" points="815.6 407.22 810.43 410.2 810.43 404.23 815.6 401.25 815.6 407.22"/><polygon class="cls-2" points="815.6 413.19 810.43 416.17 810.43 410.2 815.6 407.22 815.6 413.19"/><polygon class="cls-2" points="817.09 414.36 807.4 419.95 807.4 417.92 817.09 412.33 817.09 414.36"/><polygon class="cls-3" points="826.64 401.64 820.76 398.26 810.43 404.23 816.3 407.62 826.64 401.64"/><polygon class="cls-3" points="810.43 416.17 816.3 419.55 816.3 407.62 810.43 404.23 810.43 416.17"/><polygon class="cls-3" points="807.4 417.92 813.28 421.3 816.3 419.55 810.43 416.17 807.4 417.92"/><polygon class="cls-3" points="813.28 423.33 807.4 419.95 807.4 417.92 813.28 421.3 813.28 423.33"/><polygon class="cls-3" points="811.21 408.91 809.01 407.61 808.88 410.73 811.21 408.91"/><polygon class="cls-2" points="811.21 410.94 801.52 416.53 801.52 414.5 811.21 408.91 811.21 410.94"/><polygon class="cls-2" points="809.01 397.43 803.84 400.42 803.84 394.45 809.01 391.47 809.01 397.43"/><polygon class="cls-2" points="803.84 400.42 798.67 403.4 798.67 397.44 803.84 394.45 803.84 400.42"/><polygon class="cls-2" points="803.84 406.39 798.67 409.37 798.67 403.4 803.84 400.42 803.84 406.39"/><polygon class="cls-2" points="805.33 407.56 795.64 413.15 795.64 411.12 805.33 405.53 805.33 407.56"/><polygon class="cls-3" points="814.89 394.85 809.01 391.47 798.67 397.44 804.55 400.81 814.89 394.85"/><polygon class="cls-3" points="798.67 409.37 804.55 412.75 804.55 400.81 798.67 397.44 798.67 409.37"/><polygon class="cls-3" points="795.64 411.12 801.52 414.5 804.55 412.75 798.67 409.37 795.64 411.12"/><polygon class="cls-3" points="801.52 416.53 795.64 413.15 795.64 411.12 801.52 414.5 801.52 416.53"/><polygon class="cls-3" points="799.45 402.11 797.25 400.81 797.12 403.93 799.45 402.11"/><polygon class="cls-2" points="799.45 404.14 789.77 409.73 789.77 407.7 799.45 402.11 799.45 404.14"/><polygon class="cls-2" points="797.25 390.63 792.09 393.62 792.09 387.65 797.25 384.67 797.25 390.63"/><polygon class="cls-2" points="792.09 393.62 786.92 396.6 786.92 390.63 792.09 387.65 792.09 393.62"/><polygon class="cls-2" points="792.09 399.59 786.92 402.57 786.92 396.6 792.09 393.62 792.09 399.59"/><polygon class="cls-2" points="793.58 400.76 783.89 406.35 783.89 404.32 793.58 398.73 793.58 400.76"/><polygon class="cls-3" points="803.13 388.05 797.25 384.67 786.92 390.63 792.79 394.01 803.13 388.05"/><polygon class="cls-3" points="786.92 402.57 792.79 405.95 792.79 394.01 786.92 390.63 786.92 402.57"/><polygon class="cls-3" points="783.89 404.32 789.77 407.7 792.79 405.95 786.92 402.57 783.89 404.32"/><polygon class="cls-3" points="789.77 409.73 783.89 406.35 783.89 404.32 789.77 407.7 789.77 409.73"/><polygon class="cls-3" points="787.7 395.31 785.5 394.01 785.37 397.13 787.7 395.31"/><polygon class="cls-2" points="787.7 397.34 778.01 402.93 778.01 400.9 787.7 395.31 787.7 397.34"/><polygon class="cls-2" points="785.5 383.83 780.33 386.82 780.33 380.85 785.5 377.87 785.5 383.83"/><polygon class="cls-2" points="780.33 386.82 775.16 389.81 775.16 383.83 780.33 380.85 780.33 386.82"/><polygon class="cls-2" points="780.33 392.79 775.16 395.77 775.16 389.81 780.33 386.82 780.33 392.79"/><polygon class="cls-2" points="781.82 393.96 772.13 399.55 772.13 397.52 781.82 391.93 781.82 393.96"/><polygon class="cls-3" points="791.38 381.25 785.5 377.87 775.16 383.83 781.04 387.22 791.38 381.25"/><polygon class="cls-3" points="775.16 395.77 781.04 399.15 781.04 387.22 775.16 383.83 775.16 395.77"/><polygon class="cls-3" points="772.13 397.52 778.01 400.9 781.04 399.15 775.16 395.77 772.13 397.52"/><polygon class="cls-3" points="778.01 402.93 772.13 399.55 772.13 397.52 778.01 400.9 778.01 402.93"/><polygon class="cls-3" points="775.94 388.51 773.75 387.21 773.61 390.33 775.94 388.51"/><polygon class="cls-2" points="915.51 459.03 910.34 462.01 910.34 467.98 910.34 473.95 915.51 470.96 915.51 465 920.68 462.01 920.68 456.04 915.51 459.03"/><polygon class="cls-2" points="898.59 455.21 898.59 461.18 898.59 467.15 903.75 464.17 903.75 458.2 908.92 455.21 908.92 449.24 903.75 452.23 898.59 455.21"/><polygon class="cls-2" points="886.83 448.41 886.83 454.38 886.83 460.35 892 457.37 892 451.4 897.17 448.41 897.17 442.44 892 445.43 886.83 448.41"/><polygon class="cls-2" points="875.08 441.61 875.08 447.58 875.08 453.55 880.25 450.57 880.25 444.6 885.41 441.61 885.41 435.64 880.25 438.63 875.08 441.61"/><polygon class="cls-2" points="863.32 434.81 863.32 440.78 863.32 446.75 868.49 443.77 868.49 437.8 873.66 434.81 873.66 428.84 868.49 431.83 863.32 434.81"/><polygon class="cls-2" points="851.57 428.01 851.57 433.98 851.57 439.95 856.74 436.97 856.74 431 861.91 428.01 861.91 422.04 856.74 425.03 851.57 428.01"/><polygon class="cls-2" points="839.81 421.21 839.81 427.18 839.81 433.15 844.98 430.17 844.98 424.2 850.15 421.21 850.15 415.25 844.98 418.23 839.81 421.21"/><polygon class="cls-2" points="828.06 414.41 828.06 420.38 828.06 426.35 833.23 423.37 833.23 417.4 838.4 414.41 838.4 408.44 833.23 411.43 828.06 414.41"/><polygon class="cls-2" points="816.3 407.62 816.3 413.58 816.3 419.55 821.47 416.57 821.47 410.6 826.64 407.61 826.64 401.64 821.47 404.63 816.3 407.62"/><polygon class="cls-2" points="804.55 400.81 804.55 406.78 804.55 412.75 809.72 409.77 809.72 403.8 814.89 400.81 814.89 394.85 809.72 397.83 804.55 400.81"/><polygon class="cls-2" points="792.79 394.01 792.79 399.98 792.79 405.95 797.96 402.97 797.96 397 803.13 394.01 803.13 388.05 797.96 391.03 792.79 394.01"/><polygon class="cls-2" points="781.04 387.22 781.04 393.19 781.04 399.15 786.21 396.17 786.21 390.2 791.38 387.21 791.38 381.25 786.21 384.23 781.04 387.22"/><polygon class="cls-2" points="769.28 380.42 769.28 386.38 769.28 392.35 774.45 389.37 774.45 383.4 779.62 380.42 779.62 374.45 774.45 377.43 769.28 380.42"/><polygon class="cls-2" points="775.94 390.54 766.26 396.13 766.26 394.1 775.94 388.51 775.94 390.54"/><polygon class="cls-2" points="773.75 377.04 768.58 380.02 768.58 374.05 773.75 371.07 773.75 377.04"/><polygon class="cls-2" points="768.58 380.02 763.41 383 763.41 377.04 768.58 374.05 768.58 380.02"/><polygon class="cls-2" points="768.58 385.99 763.41 388.97 763.41 383 768.58 380.02 768.58 385.99"/><polygon class="cls-2" points="770.07 387.16 760.38 392.75 760.38 390.72 770.07 385.13 770.07 387.16"/><polygon class="cls-3" points="779.62 374.45 773.75 371.07 763.41 377.04 769.28 380.42 779.62 374.45"/><polygon class="cls-3" points="763.41 388.97 769.28 392.35 769.28 380.42 763.41 377.04 763.41 388.97"/><polygon class="cls-3" points="760.38 390.72 766.26 394.1 769.28 392.35 763.41 388.97 760.38 390.72"/><polygon class="cls-3" points="766.26 396.13 760.38 392.75 760.38 390.72 766.26 394.1 766.26 396.13"/><polygon class="cls-3" points="1033.21 415.71 1035.4 414.41 1035.54 417.53 1033.21 415.71"/><polygon class="cls-2" points="982.51 428.84 982.51 434.81 987.68 437.8 987.68 443.77 992.85 446.75 992.85 440.78 992.85 434.81 987.68 431.83 982.51 428.84"/><polygon class="cls-2" points="994.26 422.04 994.26 428.01 999.43 431 999.43 436.97 1004.6 439.95 1004.6 433.98 1004.6 428.01 999.43 425.03 994.26 422.04"/><polygon class="cls-2" points="1006.02 415.25 1006.02 421.21 1011.19 424.2 1011.19 430.17 1016.36 433.15 1016.36 427.18 1016.36 421.21 1011.19 418.23 1006.02 415.25"/><polygon class="cls-2" points="1017.77 408.44 1017.77 414.41 1022.94 417.4 1022.94 423.37 1028.11 426.35 1028.11 420.38 1028.11 414.41 1022.94 411.43 1017.77 408.44"/><polygon class="cls-2" points="1034.7 404.63 1029.53 401.64 1029.53 407.61 1034.7 410.6 1034.7 416.57 1039.87 419.55 1039.87 413.58 1039.87 407.62 1034.7 404.63"/><polygon class="cls-2" points="1033.21 417.74 1042.89 423.33 1042.89 421.3 1033.21 415.71 1033.21 417.74"/><polygon class="cls-2" points="1035.4 404.23 1040.58 407.22 1040.58 401.25 1035.4 398.26 1035.4 404.23"/><polygon class="cls-2" points="1040.58 407.22 1045.74 410.2 1045.74 404.23 1040.58 401.25 1040.58 407.22"/><polygon class="cls-2" points="1040.58 413.19 1045.74 416.17 1045.74 410.2 1040.58 407.22 1040.58 413.19"/><polygon class="cls-2" points="1039.08 414.36 1048.77 419.95 1048.77 417.92 1039.08 412.33 1039.08 414.36"/><polygon class="cls-3" points="1029.53 401.64 1035.4 398.26 1045.74 404.23 1039.87 407.62 1029.53 401.64"/><polygon class="cls-3" points="1048.77 417.92 1042.89 421.3 1039.87 419.55 1045.74 416.17 1048.77 417.92"/><polygon class="cls-3" points="1042.89 423.33 1048.77 419.95 1048.77 417.92 1042.89 421.3 1042.89 423.33"/><polygon class="cls-3" points="1080.23 388.51 1082.42 387.21 1082.56 390.33 1080.23 388.51"/><polygon class="cls-2" points="1041.28 394.85 1041.28 400.81 1046.45 403.8 1046.45 409.77 1051.62 412.75 1051.62 406.78 1051.62 400.81 1046.45 397.83 1041.28 394.85"/><polygon class="cls-2" points="1053.04 388.05 1053.04 394.01 1058.21 397 1058.21 402.97 1063.38 405.95 1063.38 399.98 1063.38 394.01 1058.21 391.03 1053.04 388.05"/><polygon class="cls-2" points="1064.79 381.25 1064.79 387.21 1069.96 390.2 1069.96 396.17 1075.13 399.15 1075.13 393.19 1075.13 387.22 1069.96 384.23 1064.79 381.25"/><polygon class="cls-2" points="1081.72 377.43 1076.55 374.45 1076.55 380.42 1081.72 383.4 1081.72 389.37 1086.88 392.35 1086.88 386.38 1086.88 380.42 1081.72 377.43"/><polygon class="cls-2" points="1080.23 390.54 1089.91 396.13 1089.91 394.1 1080.23 388.51 1080.23 390.54"/><polygon class="cls-2" points="1082.42 377.04 1087.59 380.02 1087.59 374.05 1082.42 371.07 1082.42 377.04"/><polygon class="cls-2" points="1087.59 380.02 1092.76 383 1092.76 377.04 1087.59 374.05 1087.59 380.02"/><polygon class="cls-2" points="1087.59 385.99 1092.76 388.97 1092.76 383 1087.59 380.02 1087.59 385.99"/><polygon class="cls-2" points="1086.1 387.16 1095.79 392.75 1095.79 390.72 1086.1 385.13 1086.1 387.16"/><polygon class="cls-3" points="1076.55 374.45 1082.42 371.07 1092.76 377.04 1086.88 380.42 1076.55 374.45"/><polygon class="cls-3" points="1092.76 388.97 1086.88 392.35 1086.88 380.42 1092.76 377.04 1092.76 388.97"/><polygon class="cls-3" points="1095.79 390.72 1089.91 394.1 1086.88 392.35 1092.76 388.97 1095.79 390.72"/><polygon class="cls-3" points="1089.91 396.13 1095.79 392.75 1095.79 390.72 1089.91 394.1 1089.91 396.13"/><polygon class="cls-3" points="1068.47 395.31 1070.67 394.01 1070.8 397.13 1068.47 395.31"/><polygon class="cls-2" points="1068.47 397.34 1078.16 402.93 1078.16 400.9 1068.47 395.31 1068.47 397.34"/><polygon class="cls-2" points="1070.67 383.83 1075.84 386.82 1075.84 380.85 1070.67 377.87 1070.67 383.83"/><polygon class="cls-2" points="1075.84 386.82 1081.01 389.81 1081.01 383.83 1075.84 380.85 1075.84 386.82"/><polygon class="cls-2" points="1075.84 392.79 1081.01 395.77 1081.01 389.81 1075.84 386.82 1075.84 392.79"/><polygon class="cls-2" points="1074.35 393.96 1084.04 399.55 1084.04 397.52 1074.35 391.93 1074.35 393.96"/><polygon class="cls-3" points="1064.79 381.25 1070.67 377.87 1081.01 383.83 1075.13 387.22 1064.79 381.25"/><polygon class="cls-3" points="1081.01 395.77 1075.13 399.15 1075.13 387.22 1081.01 383.83 1081.01 395.77"/><polygon class="cls-3" points="1084.04 397.52 1078.16 400.9 1075.13 399.15 1081.01 395.77 1084.04 397.52"/><polygon class="cls-3" points="1078.16 402.93 1084.04 399.55 1084.04 397.52 1078.16 400.9 1078.16 402.93"/><polygon class="cls-3" points="1056.72 402.11 1058.91 400.81 1059.05 403.93 1056.72 402.11"/><polygon class="cls-2" points="1056.72 404.14 1066.4 409.73 1066.4 407.7 1056.72 402.11 1056.72 404.14"/><polygon class="cls-2" points="1058.91 390.63 1064.08 393.62 1064.08 387.65 1058.91 384.67 1058.91 390.63"/><polygon class="cls-2" points="1064.08 393.62 1069.25 396.6 1069.25 390.63 1064.08 387.65 1064.08 393.62"/><polygon class="cls-2" points="1064.08 399.59 1069.25 402.57 1069.25 396.6 1064.08 393.62 1064.08 399.59"/><polygon class="cls-2" points="1062.59 400.76 1072.28 406.35 1072.28 404.32 1062.59 398.73 1062.59 400.76"/><polygon class="cls-3" points="1053.04 388.05 1058.91 384.67 1069.25 390.63 1063.38 394.01 1053.04 388.05"/><polygon class="cls-3" points="1069.25 402.57 1063.38 405.95 1063.38 394.01 1069.25 390.63 1069.25 402.57"/><polygon class="cls-3" points="1072.28 404.32 1066.4 407.7 1063.38 405.95 1069.25 402.57 1072.28 404.32"/><polygon class="cls-3" points="1066.4 409.73 1072.28 406.35 1072.28 404.32 1066.4 407.7 1066.4 409.73"/><polygon class="cls-3" points="1044.96 408.91 1047.16 407.61 1047.29 410.73 1044.96 408.91"/><polygon class="cls-2" points="1044.96 410.94 1054.65 416.53 1054.65 414.5 1044.96 408.91 1044.96 410.94"/><polygon class="cls-2" points="1047.16 397.43 1052.33 400.42 1052.33 394.45 1047.16 391.47 1047.16 397.43"/><polygon class="cls-2" points="1052.33 400.42 1057.5 403.4 1057.5 397.44 1052.33 394.45 1052.33 400.42"/><polygon class="cls-2" points="1052.33 406.39 1057.5 409.37 1057.5 403.4 1052.33 400.42 1052.33 406.39"/><polygon class="cls-2" points="1050.84 407.56 1060.53 413.15 1060.53 411.12 1050.84 405.53 1050.84 407.56"/><polygon class="cls-3" points="1041.28 394.85 1047.16 391.47 1057.5 397.44 1051.62 400.81 1041.28 394.85"/><polygon class="cls-3" points="1057.5 409.37 1051.62 412.75 1051.62 400.81 1057.5 397.44 1057.5 409.37"/><polygon class="cls-3" points="1060.53 411.12 1054.65 414.5 1051.62 412.75 1057.5 409.37 1060.53 411.12"/><polygon class="cls-3" points="1054.65 416.53 1060.53 413.15 1060.53 411.12 1054.65 414.5 1054.65 416.53"/><polygon class="cls-3" points="1045.74 416.17 1039.87 419.55 1039.87 407.62 1045.74 404.23 1045.74 416.17"/><polygon class="cls-3" points="1021.45 422.51 1023.65 421.21 1023.78 424.33 1021.45 422.51"/><polygon class="cls-2" points="1021.45 424.54 1031.14 430.13 1031.14 428.1 1021.45 422.51 1021.45 424.54"/><polygon class="cls-2" points="1023.65 411.03 1028.82 414.02 1028.82 408.05 1023.65 405.06 1023.65 411.03"/><polygon class="cls-2" points="1028.82 414.02 1033.99 417 1033.99 411.03 1028.82 408.05 1028.82 414.02"/><polygon class="cls-2" points="1028.82 419.99 1033.99 422.97 1033.99 417 1028.82 414.02 1028.82 419.99"/><polygon class="cls-2" points="1027.33 421.15 1037.02 426.75 1037.02 424.72 1027.33 419.13 1027.33 421.15"/><polygon class="cls-3" points="1017.77 408.44 1023.65 405.06 1033.99 411.03 1028.11 414.41 1017.77 408.44"/><polygon class="cls-3" points="1033.99 422.97 1028.11 426.35 1028.11 414.41 1033.99 411.03 1033.99 422.97"/><polygon class="cls-3" points="1037.02 424.72 1031.14 428.1 1028.11 426.35 1033.99 422.97 1037.02 424.72"/><polygon class="cls-3" points="1031.14 430.13 1037.02 426.75 1037.02 424.72 1031.14 428.1 1031.14 430.13"/><polygon class="cls-3" points="1009.7 429.31 1011.9 428.01 1012.03 431.13 1009.7 429.31"/><polygon class="cls-2" points="1009.7 431.33 1019.38 436.93 1019.38 434.9 1009.7 429.31 1009.7 431.33"/><polygon class="cls-2" points="1011.9 417.83 1017.07 420.82 1017.07 414.85 1011.9 411.86 1011.9 417.83"/><polygon class="cls-2" points="1017.07 420.82 1022.24 423.8 1022.24 417.83 1017.07 414.85 1017.07 420.82"/><polygon class="cls-2" points="1017.07 426.79 1022.24 429.77 1022.24 423.8 1017.07 420.82 1017.07 426.79"/><polygon class="cls-2" points="1015.58 427.95 1025.26 433.55 1025.26 431.52 1015.58 425.93 1015.58 427.95"/><polygon class="cls-3" points="1006.02 415.25 1011.9 411.86 1022.24 417.83 1016.36 421.21 1006.02 415.25"/><polygon class="cls-3" points="1022.24 429.77 1016.36 433.15 1016.36 421.21 1022.24 417.83 1022.24 429.77"/><polygon class="cls-3" points="1025.26 431.52 1019.38 434.9 1016.36 433.15 1022.24 429.77 1025.26 431.52"/><polygon class="cls-3" points="1019.38 436.93 1025.26 433.55 1025.26 431.52 1019.38 434.9 1019.38 436.93"/><polygon class="cls-3" points="997.94 436.11 1000.14 434.81 1000.28 437.93 997.94 436.11"/><polygon class="cls-2" points="997.94 438.13 1007.63 443.73 1007.63 441.7 997.94 436.11 997.94 438.13"/><polygon class="cls-2" points="1000.14 424.63 1005.31 427.62 1005.31 421.65 1000.14 418.66 1000.14 424.63"/><polygon class="cls-2" points="1005.31 427.62 1010.48 430.6 1010.48 424.63 1005.31 421.65 1005.31 427.62"/><polygon class="cls-2" points="1005.31 433.59 1010.48 436.57 1010.48 430.6 1005.31 427.62 1005.31 433.59"/><polygon class="cls-2" points="1003.82 434.75 1013.51 440.35 1013.51 438.32 1003.82 432.73 1003.82 434.75"/><polygon class="cls-3" points="994.26 422.04 1000.14 418.66 1010.48 424.63 1004.6 428.01 994.26 422.04"/><polygon class="cls-3" points="1010.48 436.57 1004.6 439.95 1004.6 428.01 1010.48 424.63 1010.48 436.57"/><polygon class="cls-3" points="1013.51 438.32 1007.63 441.7 1004.6 439.95 1010.48 436.57 1013.51 438.32"/><polygon class="cls-3" points="1007.63 443.73 1013.51 440.35 1013.51 438.32 1007.63 441.7 1007.63 443.73"/><polygon class="cls-3" points="986.19 442.91 988.39 441.61 988.52 444.73 986.19 442.91"/><polygon class="cls-2" points="986.19 444.93 995.88 450.53 995.88 448.5 986.19 442.91 986.19 444.93"/><polygon class="cls-2" points="988.39 431.43 993.56 434.42 993.56 428.45 988.39 425.46 988.39 431.43"/><polygon class="cls-2" points="993.56 434.42 998.73 437.4 998.73 431.43 993.56 428.45 993.56 434.42"/><polygon class="cls-2" points="993.56 440.39 998.73 443.37 998.73 437.4 993.56 434.42 993.56 440.39"/><polygon class="cls-2" points="992.07 441.55 1001.75 447.15 1001.75 445.12 992.07 439.53 992.07 441.55"/><polygon class="cls-3" points="982.51 428.84 988.39 425.46 998.73 431.43 992.85 434.81 982.51 428.84"/><polygon class="cls-3" points="998.73 443.37 992.85 446.75 992.85 434.81 998.73 431.43 998.73 443.37"/><polygon class="cls-3" points="1001.75 445.12 995.88 448.5 992.85 446.75 998.73 443.37 1001.75 445.12"/><polygon class="cls-3" points="995.88 450.53 1001.75 447.15 1001.75 445.12 995.88 448.5 995.88 450.53"/><polygon class="cls-3" points="974.43 449.7 976.63 448.41 976.77 451.53 974.43 449.7"/><polygon class="cls-2" points="959 442.44 959 448.41 964.17 451.4 964.17 457.37 969.34 460.35 969.34 454.38 969.34 448.41 964.17 445.43 959 442.44"/><polygon class="cls-2" points="975.92 438.63 970.75 435.64 970.75 441.61 975.92 444.6 975.92 450.57 981.09 453.55 981.09 447.58 981.09 441.61 975.92 438.63"/><polygon class="cls-2" points="974.43 451.73 984.12 457.33 984.12 455.3 974.43 449.7 974.43 451.73"/><polygon class="cls-2" points="976.63 438.23 981.8 441.22 981.8 435.25 976.63 432.26 976.63 438.23"/><polygon class="cls-2" points="981.8 441.22 986.97 444.2 986.97 438.23 981.8 435.25 981.8 441.22"/><polygon class="cls-2" points="981.8 447.19 986.97 450.17 986.97 444.2 981.8 441.22 981.8 447.19"/><polygon class="cls-2" points="980.31 448.35 990 453.95 990 451.92 980.31 446.32 980.31 448.35"/><polygon class="cls-3" points="970.75 435.64 976.63 432.26 986.97 438.23 981.09 441.61 970.75 435.64"/><polygon class="cls-3" points="986.97 450.17 981.09 453.55 981.09 441.61 986.97 438.23 986.97 450.17"/><polygon class="cls-3" points="990 451.92 984.12 455.3 981.09 453.55 986.97 450.17 990 451.92"/><polygon class="cls-3" points="984.12 457.33 990 453.95 990 451.92 984.12 455.3 984.12 457.33"/><polygon class="cls-3" points="962.68 456.5 964.88 455.21 965.01 458.33 962.68 456.5"/><polygon class="cls-2" points="962.68 458.53 972.37 464.13 972.37 462.1 962.68 456.5 962.68 458.53"/><polygon class="cls-2" points="964.88 445.03 970.05 448.02 970.05 442.05 964.88 439.06 964.88 445.03"/><polygon class="cls-2" points="970.05 448.02 975.22 451 975.22 445.03 970.05 442.05 970.05 448.02"/><polygon class="cls-2" points="970.05 453.99 975.22 456.97 975.22 451 970.05 448.02 970.05 453.99"/><polygon class="cls-2" points="968.56 455.15 978.24 460.75 978.24 458.72 968.56 453.13 968.56 455.15"/><polygon class="cls-3" points="959 442.44 964.88 439.06 975.22 445.03 969.34 448.41 959 442.44"/><polygon class="cls-3" points="975.22 456.97 969.34 460.35 969.34 448.41 975.22 445.03 975.22 456.97"/><polygon class="cls-3" points="978.24 458.72 972.37 462.1 969.34 460.35 975.22 456.97 978.24 458.72"/><polygon class="cls-3" points="972.37 464.13 978.24 460.75 978.24 458.72 972.37 462.1 972.37 464.13"/><polygon class="cls-3" points="950.92 463.3 953.12 462.01 953.26 465.13 950.92 463.3"/><polygon class="cls-2" points="952.41 452.23 947.25 449.24 947.25 455.21 952.41 458.2 952.41 464.17 957.59 467.15 957.59 461.18 957.59 455.21 952.41 452.23"/><polygon class="cls-2" points="950.92 465.33 960.61 470.93 960.61 468.9 950.92 463.3 950.92 465.33"/><polygon class="cls-2" points="953.12 451.83 958.29 454.82 958.29 448.85 953.12 445.86 953.12 451.83"/><polygon class="cls-2" points="958.29 454.82 963.46 457.8 963.46 451.83 958.29 448.85 958.29 454.82"/><polygon class="cls-2" points="958.29 460.79 963.46 463.77 963.46 457.8 958.29 454.82 958.29 460.79"/><polygon class="cls-2" points="956.8 461.95 966.49 467.55 966.49 465.52 956.8 459.92 956.8 461.95"/><polygon class="cls-3" points="947.25 449.24 953.12 445.86 963.46 451.83 957.59 455.21 947.25 449.24"/><polygon class="cls-3" points="963.46 463.77 957.59 467.15 957.59 455.21 963.46 451.83 963.46 463.77"/><polygon class="cls-3" points="966.49 465.52 960.61 468.9 957.59 467.15 963.46 463.77 966.49 465.52"/><polygon class="cls-3" points="960.61 470.93 966.49 467.55 966.49 465.52 960.61 468.9 960.61 470.93"/><polygon class="cls-3" points="939.17 470.1 941.37 468.81 941.5 471.93 939.17 470.1"/><polygon class="cls-2" points="940.66 459.03 935.49 456.04 935.49 462.01 940.66 465 940.66 470.96 945.83 473.95 945.83 467.98 945.83 462.01 940.66 459.03"/><polygon class="cls-2" points="939.17 472.13 948.86 477.73 948.86 475.7 939.17 470.1 939.17 472.13"/><polygon class="cls-2" points="941.37 458.63 946.54 461.62 946.54 455.65 941.37 452.66 941.37 458.63"/><polygon class="cls-2" points="946.54 461.62 951.71 464.6 951.71 458.63 946.54 455.65 946.54 461.62"/><polygon class="cls-2" points="946.54 467.58 951.71 470.57 951.71 464.6 946.54 461.62 946.54 467.58"/><polygon class="cls-2" points="945.05 468.75 954.73 474.35 954.73 472.32 945.05 466.72 945.05 468.75"/><polygon class="cls-3" points="935.49 456.04 941.37 452.66 951.71 458.63 945.83 462.01 935.49 456.04"/><polygon class="cls-3" points="951.71 470.57 945.83 473.95 945.83 462.01 951.71 458.63 951.71 470.57"/><polygon class="cls-3" points="954.73 472.32 948.86 475.7 945.83 473.95 951.71 470.57 954.73 472.32"/><polygon class="cls-3" points="948.86 477.73 954.73 474.35 954.73 472.32 948.86 475.7 948.86 477.73"/><polygon class="cls-5" points="943.41 308.75 937.75 305.48 950.12 298.34 955.79 301.61 943.41 308.75"/><polygon class="cls-5" points="952.53 314.01 946.86 310.74 959.23 303.6 964.9 306.87 952.53 314.01"/><polygon class="cls-5" points="985 332.76 955.97 316 968.35 308.86 997.38 325.62 985 332.76"/><path class="cls-8" d="M667.34,349.33,612.46,381c-9.62,5.55-24.17,6.16-32.5,1.35l-2.25-1.3c-8.33-4.81-7.29-13.21,2.33-18.77l54.88-.9c9.62-5.55,24.17-36.94,32.5-32.13l2.25,1.3C678,335.38,677,343.78,667.34,349.33Z" transform="translate(8 3)"/><polygon class="cls-8" points="580.09 369.25 580.09 376.29 683.29 341.7 683.29 334.73 580.09 369.25"/><path class="cls-9" d="M667.34,342.68l-54.88,31.68c-9.62,5.55-24.17,6.16-32.5,1.35l-2.25-1.3c-8.33-4.81-7.29-13.21,2.33-18.77L634.92,324c9.62-5.55,24.17-6.16,32.5-1.35l2.25,1.3C678,328.72,677,337.13,667.34,342.68Z" transform="translate(8 3)"/><path class="cls-8" d="M661.43,342.19l-48,27.72c-8.42,4.86-21.15,5.39-28.44,1.18L583,370c-7.29-4.21-6.38-11.56,2-16.42l48-17.67c8.42-4.86,21.15-15.45,28.44-11.24l2,1.14C670.76,330,669.85,337.33,661.43,342.19Z" transform="translate(8 3)"/><polygon class="cls-8" points="586.07 343.11 586.07 366.15 676.38 335.89 676.38 312.9 586.07 343.11"/><path class="cls-9" d="M661.43,319.49l-48,27.72c-8.42,4.86-21.15,5.39-28.44,1.18l-2-1.14c-7.29-4.21-6.38-11.56,2-16.42l48-27.72c8.42-4.86,21.15-5.39,28.44-1.18l2,1.14C670.76,307.28,669.85,314.63,661.43,319.49Z" transform="translate(8 3)"/><path class="cls-10" d="M583.1,367.73l-.49-.28a7.84,7.84,0,0,1-3.27-6.26v-9.29c0-2.41,1.47-3.52,3.27-2.47l.49.28a7.84,7.84,0,0,1,3.27,6.26v9.29C586.38,367.67,584.91,368.78,583.1,367.73Z" transform="translate(8 3)"/><polygon class="cls-9" points="709.79 436.42 639.17 395.64 691.02 365.71 761.64 406.48 709.79 436.42"/><polygon class="cls-11" points="709.79 561.37 639.17 520.6 639.17 395.64 709.79 436.42 709.79 561.37"/><polygon class="cls-8" points="761.64 531.43 709.79 561.37 709.79 436.42 761.64 406.48 761.64 531.43"/><path class="cls-7" d="M660.94,434.86c0,6.09-4.28,8.56-9.55,5.51s-9.55-10.45-9.55-16.54,4.28-8.56,9.55-5.51S660.94,428.77,660.94,434.86Z" transform="translate(8 3)"/><polygon class="cls-7" points="657.39 449.14 666.17 444.02 652.68 420.62 643.96 425.7 657.39 449.14"/><path class="cls-6" d="M652.25,439.92c0,6.09-4.28,8.56-9.55,5.51s-9.55-10.45-9.55-16.54,4.28-8.56,9.55-5.51S652.25,433.83,652.25,439.92Z" transform="translate(8 3)"/><path class="cls-12" d="M649.35,438.25c0,4.24-3,6-6.65,3.84A14.71,14.71,0,0,1,636,430.57c0-4.24,3-6,6.65-3.84A14.71,14.71,0,0,1,649.35,438.25Z" transform="translate(8 3)"/><path class="cls-6" d="M639.57,429l-.3,4.42,1.5,3.3,1.92,2.2,2.54.56,1.56-.07a4.09,4.09,0,0,0,.59-2.29,10.38,10.38,0,0,0-4.69-8.13,4.12,4.12,0,0,0-2.25-.64Z" transform="translate(8 3)"/><path class="cls-13" d="M644.54,438.78a10.38,10.38,0,0,1-4.69-8.13,4.09,4.09,0,0,1,.59-2.29c-1.45.08-2.44,1.3-2.44,3.35a10.38,10.38,0,0,0,4.69,8.13c1.76,1,3.3.78,4.1-.42A4.12,4.12,0,0,1,644.54,438.78Z" transform="translate(8 3)"/><path class="cls-7" d="M693.72,452.26c0,6.09-4.28,8.56-9.55,5.51s-9.55-10.45-9.55-16.54,4.28-8.56,9.55-5.51S693.72,446.17,693.72,452.26Z" transform="translate(8 3)"/><polygon class="cls-7" points="690.18 466.54 698.95 461.42 685.47 438.02 676.75 443.1 690.18 466.54"/><path class="cls-6" d="M685,457.32c0,6.09-4.28,8.56-9.55,5.51s-9.55-10.45-9.55-16.54,4.28-8.56,9.55-5.51S685,451.23,685,457.32Z" transform="translate(8 3)"/><path class="cls-12" d="M682.13,455.65c0,4.24-3,6-6.65,3.84A14.71,14.71,0,0,1,668.83,448c0-4.24,3-6,6.65-3.84A14.71,14.71,0,0,1,682.13,455.65Z" transform="translate(8 3)"/><path class="cls-6" d="M672.36,446.4l-.3,4.42,1.5,3.3,1.92,2.2,2.54.56,1.56-.07a4.08,4.08,0,0,0,.59-2.29,10.38,10.38,0,0,0-4.69-8.13,4.12,4.12,0,0,0-2.25-.64Z" transform="translate(8 3)"/><path class="cls-13" d="M677.33,456.18a10.38,10.38,0,0,1-4.69-8.13,4.09,4.09,0,0,1,.59-2.29c-1.45.08-2.44,1.3-2.44,3.35a10.38,10.38,0,0,0,4.69,8.13c1.76,1,3.3.78,4.1-.42A4.12,4.12,0,0,1,677.33,456.18Z" transform="translate(8 3)"/><path class="cls-14" d="M660.94,469.79c0,6.09-4.28,8.56-9.55,5.51s-9.55-10.45-9.55-16.54,4.28-8.56,9.55-5.51S660.94,463.7,660.94,469.79Z" transform="translate(8 3)"/><polygon class="cls-14" points="657.39 484.07 666.17 478.95 652.68 455.55 643.96 460.63 657.39 484.07"/><path class="cls-15" d="M652.25,474.85c0,6.09-4.28,8.56-9.55,5.51s-9.55-10.45-9.55-16.54,4.28-8.56,9.55-5.51S652.25,468.76,652.25,474.85Z" transform="translate(8 3)"/><path class="cls-12" d="M649.35,473.18c0,4.24-3,6-6.65,3.84A14.71,14.71,0,0,1,636,465.5c0-4.24,3-6,6.65-3.84A14.71,14.71,0,0,1,649.35,473.18Z" transform="translate(8 3)"/><path class="cls-6" d="M639.57,463.93l-.3,4.42,1.5,3.3,1.92,2.2,2.54.56,1.56-.07a4.09,4.09,0,0,0,.59-2.29,10.38,10.38,0,0,0-4.69-8.13,4.12,4.12,0,0,0-2.25-.64Z" transform="translate(8 3)"/><path class="cls-13" d="M644.54,473.71a10.38,10.38,0,0,1-4.69-8.13,4.09,4.09,0,0,1,.59-2.29c-1.45.08-2.44,1.3-2.44,3.35a10.38,10.38,0,0,0,4.69,8.13c1.76,1,3.3.78,4.1-.42A4.12,4.12,0,0,1,644.54,473.71Z" transform="translate(8 3)"/><path class="cls-7" d="M693.72,487.19c0,6.09-4.28,8.56-9.55,5.51s-9.55-10.45-9.55-16.54,4.28-8.56,9.55-5.51S693.72,481.1,693.72,487.19Z" transform="translate(8 3)"/><polygon class="cls-7" points="690.18 501.47 698.95 496.35 685.47 472.95 676.75 478.03 690.18 501.47"/><path class="cls-6" d="M685,492.25c0,6.09-4.28,8.56-9.55,5.51s-9.55-10.45-9.55-16.54,4.28-8.56,9.55-5.51S685,486.16,685,492.25Z" transform="translate(8 3)"/><path class="cls-12" d="M682.13,490.58c0,4.24-3,6-6.65,3.84a14.71,14.71,0,0,1-6.65-11.52c0-4.24,3-6,6.65-3.84A14.71,14.71,0,0,1,682.13,490.58Z" transform="translate(8 3)"/><path class="cls-6" d="M672.36,481.33l-.3,4.42,1.5,3.3,1.92,2.2,2.54.56,1.56-.07a4.09,4.09,0,0,0,.59-2.29,10.38,10.38,0,0,0-4.69-8.13,4.12,4.12,0,0,0-2.25-.64Z" transform="translate(8 3)"/><path class="cls-13" d="M677.33,491.11a10.38,10.38,0,0,1-4.69-8.13,4.09,4.09,0,0,1,.59-2.29c-1.45.08-2.44,1.3-2.44,3.35a10.38,10.38,0,0,0,4.69,8.13c1.76,1,3.3.78,4.1-.42A4.12,4.12,0,0,1,677.33,491.11Z" transform="translate(8 3)"/><path class="cls-7" d="M660.94,504.72c0,6.09-4.28,8.56-9.55,5.51s-9.55-10.45-9.55-16.54,4.28-8.56,9.55-5.51S660.94,498.63,660.94,504.72Z" transform="translate(8 3)"/><polygon class="cls-7" points="657.39 519 666.17 513.88 652.68 490.48 643.96 495.56 657.39 519"/><path class="cls-6" d="M652.25,509.78c0,6.09-4.28,8.56-9.55,5.51s-9.55-10.45-9.55-16.54,4.28-8.56,9.55-5.51S652.25,503.69,652.25,509.78Z" transform="translate(8 3)"/><path class="cls-12" d="M649.35,508.11c0,4.24-3,6-6.65,3.84A14.71,14.71,0,0,1,636,500.43c0-4.24,3-6,6.65-3.84A14.71,14.71,0,0,1,649.35,508.11Z" transform="translate(8 3)"/><path class="cls-6" d="M639.57,498.86l-.3,4.42,1.5,3.3,1.92,2.2,2.54.56,1.56-.07a4.09,4.09,0,0,0,.59-2.29,10.38,10.38,0,0,0-4.69-8.13,4.12,4.12,0,0,0-2.25-.64Z" transform="translate(8 3)"/><path class="cls-13" d="M644.54,508.64a10.38,10.38,0,0,1-4.69-8.13,4.09,4.09,0,0,1,.59-2.29c-1.45.08-2.44,1.3-2.44,3.35a10.38,10.38,0,0,0,4.69,8.13c1.76,1,3.3.78,4.1-.42A4.12,4.12,0,0,1,644.54,508.64Z" transform="translate(8 3)"/><path class="cls-7" d="M693.72,522.12c0,6.09-4.28,8.56-9.55,5.51s-9.55-10.45-9.55-16.54,4.28-8.56,9.55-5.51S693.72,516,693.72,522.12Z" transform="translate(8 3)"/><polygon class="cls-7" points="690.18 536.4 698.95 531.28 685.47 507.88 676.75 512.96 690.18 536.4"/><path class="cls-6" d="M685,527.18c0,6.09-4.28,8.56-9.55,5.51s-9.55-10.45-9.55-16.54,4.28-8.56,9.55-5.51S685,521.09,685,527.18Z" transform="translate(8 3)"/><path class="cls-12" d="M682.13,525.51c0,4.24-3,6-6.65,3.84a14.71,14.71,0,0,1-6.65-11.52c0-4.24,3-6,6.65-3.84A14.71,14.71,0,0,1,682.13,525.51Z" transform="translate(8 3)"/><path class="cls-6" d="M672.36,516.26l-.3,4.42,1.5,3.3,1.92,2.2,2.54.56,1.56-.07a4.09,4.09,0,0,0,.59-2.29,10.38,10.38,0,0,0-4.69-8.13,4.12,4.12,0,0,0-2.25-.64Z" transform="translate(8 3)"/><path class="cls-13" d="M677.33,526a10.38,10.38,0,0,1-4.69-8.13,4.09,4.09,0,0,1,.59-2.29c-1.45.08-2.44,1.3-2.44,3.35a10.38,10.38,0,0,0,4.69,8.13c1.76,1,3.3.78,4.1-.42A4.12,4.12,0,0,1,677.33,526Z" transform="translate(8 3)"/><polygon class="cls-16" points="728.46 548.57 730.1 549.64 718.79 556.17 718.79 554.15 728.46 548.57"/><path class="cls-17" d="M722.1,546.64l-11.31,6.53V441.9c0-3.87,2.36-8.37,5.26-10.05l.78-.45c2.91-1.68,5.26.1,5.26,4Z" transform="translate(8 3)"/><path class="cls-11" d="M719.5,430.83a5.72,5.72,0,0,1,1,3.47V545.57l-9.66,5.58v2l11.31-6.53V435.37C722.1,432.8,721.05,431.15,719.5,430.83Z" transform="translate(8 3)"/><polygon class="cls-16" points="728.46 548.57 730.1 549.64 718.79 556.17 718.79 554.15 728.46 548.57"/><path class="cls-17" d="M747.82,531.79l-11.31,6.53V427c0-3.87,2.36-8.37,5.26-10.05l.78-.45c2.91-1.68,5.26.1,5.26,4Z" transform="translate(8 3)"/><path class="cls-11" d="M745.23,416a5.72,5.72,0,0,1,1,3.47V530.72l-9.66,5.58v2l11.31-6.53V420.52C747.82,417.94,746.78,416.3,745.23,416Z" transform="translate(8 3)"/><polygon class="cls-16" points="754.18 533.72 755.83 534.79 744.52 541.31 744.52 539.29 754.18 533.72"/><path class="cls-18" d="M1216.4,582.38c-30.23,17.45-79.24,17.45-109.47,0s-30.23-45.75,0-63.2,79.24-17.45,109.47,0S1246.63,564.92,1216.4,582.38Z" transform="translate(8 3)"/><path class="cls-11" d="M1218.72,577.7c-31.51,18.19-82.6,18.19-114.11,0s-31.51-47.69,0-65.88,82.6-18.19,114.11,0S1250.23,559.51,1218.72,577.7Z" transform="translate(8 3)"/><rect class="cls-11" x="1088.99" y="532.2" width="161.37" height="15.55"/><rect class="cls-11" x="1092.27" y="537.35" width="154.81" height="14.92"/><path class="cls-9" d="M1218.72,562.14c-31.51,18.19-82.6,18.19-114.11,0s-31.51-47.69,0-65.88,82.6-18.19,114.11,0S1250.23,544,1218.72,562.14Z" transform="translate(8 3)"/><path class="cls-18" d="M1116,512.85l16.9-9.76,4.28,2.47a13.89,13.89,0,0,1,1.56,1,5.11,5.11,0,0,1,1,1.06,1.71,1.71,0,0,1,.36,1.1,2,2,0,0,1-.55,1.13,6,6,0,0,1-1.5,1.15l-.08,0a6.5,6.5,0,0,1-5.92.56q2.5,2-1.13,4.1l-.11.06a9.51,9.51,0,0,1-4.85,1.37,9.9,9.9,0,0,1-4.93-1.41Zm5.85.59.94.54a4.39,4.39,0,0,0,2.41.69,5.74,5.74,0,0,0,2.48-.85q1.48-.85,1.56-1.53t-1.23-1.44l-.84-.48Zm7.66-4.43.82.48a4.26,4.26,0,0,0,2.3.68,5.23,5.23,0,0,0,2.29-.78c.78-.45,1.12-.88,1-1.29s-.58-.87-1.45-1.37l-.52-.3Z" transform="translate(8 3)"/><path class="cls-18" d="M1127.13,519.26l20.2-7.85,3.77,2.18-13.61,11.66-3.19-1.84,3.12-2.52-2.68-1.55-4.36,1.8Zm10.07-1,2,1.16,5.72-4.47Z" transform="translate(8 3)"/><path class="cls-18" d="M1140.26,526.84l14.36-8.29-2.7-1.56,2.54-1.47,8.8,5.08-2.54,1.47-2.66-1.54-14.36,8.29Z" transform="translate(8 3)"/><path class="cls-18" d="M1149.35,532.09l14.36-8.29-2.7-1.56,2.54-1.47,8.8,5.08-2.54,1.47-2.66-1.54-14.36,8.29Z" transform="translate(8 3)"/><path class="cls-18" d="M1156.85,536.42l16.9-9.76,7.36,4.25-2.39,1.38-3.92-2.27-4.47,2.58,3,1.76-2.41,1.39-3-1.76-5.29,3.05,4,2.29-2.34,1.35Z" transform="translate(8 3)"/><path class="cls-18" d="M1166,541.69l16.9-9.76,4.27,2.47a13,13,0,0,1,2.11,1.46,3.46,3.46,0,0,1,1,1.4,1.53,1.53,0,0,1-.26,1.45,5.67,5.67,0,0,1-1.81,1.48,10.71,10.71,0,0,1-3.1,1.26,7.37,7.37,0,0,1-3.12,0L1176,547.5l-3.51-2,5.69-5.52-1.19-.69-7.62,4.4Zm13.14-3.62.86.49a4.4,4.4,0,0,0,2.35.68,5.17,5.17,0,0,0,2.39-.78q1.25-.72,1.38-1.32t-1.06-1.28l-1-.61Z" transform="translate(8 3)"/><path class="cls-18" d="M1180.25,549.93l6.7-3.87,6.89-7.8,3.22,1.86-4.15,4.5,7.68-2.47,3.15,1.82-13.49,4-6.7,3.87Z" transform="translate(8 3)"/><path class="cls-18" d="M1177.06,515.11l-.2-.12c-.76-.44-.66-1.2.21-1.71l20.19-11.66a3.29,3.29,0,0,1,3-.12l.2.12c.76.44.66,1.2-.21,1.71L1180,515A3.29,3.29,0,0,1,1177.06,515.11Z" transform="translate(8 3)"/><path class="cls-18" d="M1177,501.56h0a3.06,3.06,0,0,1,2.75-.11l20.81,12c.71.41.62,1.12-.2,1.59h0a3.06,3.06,0,0,1-2.75.11l-20.81-12C1176.05,502.74,1176.14,502,1177,501.56Z" transform="translate(8 3)"/><path class="cls-11" d="M916,237.82c-20.34,11.74-53.3,11.74-73.64,0s-20.34-30.78,0-42.52,53.3-11.74,73.64,0S936.36,226.08,916,237.82Z" transform="translate(8 3)"/><polygon class="cls-11" points="939.27 219.56 939.27 206.3 835.14 206.3 835.14 220.01 939.27 219.56"/><path class="cls-9" d="M916,224.56c-20.34,11.74-53.3,11.74-73.64,0s-20.34-30.78,0-42.52,53.3-11.74,73.64,0S936.36,212.82,916,224.56Z" transform="translate(8 3)"/><path class="cls-11" d="M911.57,217.7c-17.87,10.32-46.85,10.32-64.72,0s-17.87-27,0-37.37,46.85-10.32,64.72,0S929.44,207.38,911.57,217.7Z" transform="translate(8 3)"/><polygon class="cls-11" points="932.96 202.01 932.96 113.17 841.45 113.17 841.45 202.41 932.96 202.01"/><path class="cls-9" d="M911.57,128.86c-17.87,10.32-46.85,10.32-64.72,0s-17.87-27,0-37.37,46.85-10.32,64.72,0S929.44,118.54,911.57,128.86Z" transform="translate(8 3)"/><path class="cls-11" d="M904.8,125c-14.14,8.16-37.05,8.16-51.19,0s-14.14-21.39,0-29.55,37.05-8.16,51.19,0S918.94,116.79,904.8,125Z" transform="translate(8 3)"/><path class="cls-18" d="M893.91,119.59,882,112.73l11.88-6.86a.72.72,0,0,0,0-1.36,2.61,2.61,0,0,0-2.36,0l-11.88,6.86-11.88-6.86a2.61,2.61,0,0,0-2.36,0,.72.72,0,0,0,0,1.36l11.88,6.86-11.88,6.86a.72.72,0,0,0,0,1.36,2.61,2.61,0,0,0,2.36,0l11.88-6.86L891.55,121a2.61,2.61,0,0,0,2.36,0A.72.72,0,0,0,893.91,119.59Z" transform="translate(8 3)"/><path class="cls-18" d="M853.61,100.52c14.14-8.16,37.05-8.16,51.19,0,5.94,3.43,9.35,7.75,10.3,12.22,1.31-6.17-2.1-12.6-10.3-17.34-14.14-8.16-37.05-8.16-51.19,0-8.2,4.73-11.61,11.17-10.3,17.34C844.27,108.27,847.68,103.94,853.61,100.52Z" transform="translate(8 3)"/><path class="cls-10" d="M878.19,201.59l-.49-.28a7.84,7.84,0,0,1-3.27-6.26v-63c0-2.41,1.47-3.52,3.27-2.47l.49.28a7.84,7.84,0,0,1,3.27,6.26v63C881.47,201.53,880,202.64,878.19,201.59Z" transform="translate(8 3)"/><polygon class="cls-2" points="962.55 631.68 894.32 592.29 929.61 571.91 997.83 611.3 962.55 631.68"/><polygon class="cls-9" points="962.55 621.79 894.32 582.4 929.61 562.02 997.83 601.41 962.55 621.79"/><polygon class="cls-8" points="962.55 631.68 962.55 621.79 894.32 582.4 894.32 592.29 962.55 631.68"/><polygon class="cls-8" points="997.83 611.3 997.83 601.41 962.55 621.79 962.55 631.68 997.83 611.3"/><polygon class="cls-2" points="982.73 600.88 929.31 519.27 936.43 515.17 989.86 596.78 982.73 600.88"/><polygon class="cls-9" points="982.73 546.01 929.31 515.17 936.43 507.42 989.86 538.27 982.73 546.01"/><polygon class="cls-8" points="982.73 600.88 982.73 546.01 929.31 515.17 929.31 570.04 982.73 600.88"/><polygon class="cls-8" points="989.86 596.78 989.86 538.27 982.73 546.01 982.73 600.88 989.86 596.78"/><polygon class="cls-12" points="933.16 531.35 927.79 528.25 933.16 525.15 938.53 528.25 933.16 531.35"/><polygon class="cls-19" points="927.79 528.25 927.79 580.29 933.16 583.39 933.16 531.35 927.79 528.25"/><polygon class="cls-13" points="938.53 580.29 938.53 528.25 933.16 531.35 933.16 583.39 938.53 580.29"/><polygon class="cls-12" points="944.36 537.94 938.99 534.84 944.36 531.74 949.73 534.84 944.36 537.94"/><polygon class="cls-19" points="938.99 534.84 938.99 586.88 944.36 589.98 944.36 537.94 938.99 534.84"/><polygon class="cls-13" points="949.73 586.88 949.73 534.84 944.36 537.94 944.36 589.98 949.73 586.88"/><polygon class="cls-12" points="955.56 544.53 950.19 541.43 955.56 538.33 960.92 541.43 955.56 544.53"/><polygon class="cls-19" points="950.19 541.43 950.19 593.47 955.56 596.57 955.56 544.53 950.19 541.43"/><polygon class="cls-13" points="960.92 593.47 960.92 541.43 955.56 544.53 955.56 596.57 960.92 593.47"/><polygon class="cls-12" points="966.76 551.12 961.39 548.02 966.76 544.92 972.12 548.02 966.76 551.12"/><polygon class="cls-19" points="961.39 548.02 961.39 600.06 966.76 603.16 966.76 551.12 961.39 548.02"/><polygon class="cls-13" points="972.12 600.06 972.12 548.02 966.76 551.12 966.76 603.16 972.12 600.06"/><polygon class="cls-11" points="1228.02 463.61 1221.17 459.66 1221.17 420.1 1228.02 424.05 1228.02 463.61"/><polygon class="cls-8" points="1234.11 460.1 1228.02 463.61 1228.02 424.05 1234.11 420.54 1234.11 460.1"/><polygon class="cls-11" points="1260.37 445.02 1253.52 441.06 1253.52 401.5 1260.37 405.46 1260.37 445.02"/><polygon class="cls-8" points="1266.46 441.5 1260.37 445.02 1260.37 405.46 1266.46 401.94 1266.46 441.5"/><polygon class="cls-11" points="1170.83 430.97 1163.98 427.02 1163.98 387.46 1170.83 391.42 1170.83 430.97"/><polygon class="cls-8" points="1176.92 427.46 1170.83 430.97 1170.83 391.42 1176.92 387.9 1176.92 427.46"/><path class="cls-6" d="M1248.63,420.7c-23.16,13.37-60.71,13.37-83.87,0s-23.16-35,0-48.42,60.71-13.37,83.87,0S1271.79,407.33,1248.63,420.7Z" transform="translate(8 3)"/><rect class="cls-6" x="1155.39" y="381.92" width="118.61" height="17.57"/><path class="cls-20" d="M1248.63,403.14c-23.16,13.37-60.71,13.37-83.87,0s-23.16-35.05,0-48.42,60.71-13.37,83.87,0S1271.79,389.76,1248.63,403.14Z" transform="translate(8 3)"/><path class="cls-6" d="M1244.36,394.48c-20.8,12-54.52,12-75.32,0s-20.8-31.48,0-43.48,54.52-12,75.32,0S1265.15,382.47,1244.36,394.48Z" transform="translate(8 3)"/><rect class="cls-6" x="1161.44" y="359.96" width="106.51" height="15.78"/><path class="cls-4" d="M1244.36,378.7c-20.8,12-54.52,12-75.32,0s-20.8-31.48,0-43.48,54.52-12,75.32,0S1265.15,366.7,1244.36,378.7Z" transform="translate(8 3)"/><path class="cls-6" d="M1248.63,380.31c-23.16,13.37-60.71,13.37-83.87,0s-23.16-35,0-48.42,60.71-13.37,83.87,0S1271.79,366.94,1248.63,380.31Z" transform="translate(8 3)"/><rect class="cls-6" x="1155.39" y="219.36" width="118.61" height="139.74"/><path class="cls-20" d="M1248.63,240.57c-23.16,13.37-60.71,13.37-83.87,0s-23.16-35,0-48.42,60.71-13.37,83.87,0S1271.79,227.2,1248.63,240.57Z" transform="translate(8 3)"/><path class="cls-10" d="M1238.78,234.88c-17.72,10.23-46.44,10.23-64.16,0s-17.72-26.81,0-37,46.44-10.23,64.16,0S1256.49,224.65,1238.78,234.88Z" transform="translate(8 3)"/><path class="cls-21" d="M1174.62,200.78c17.72-10.23,46.44-10.23,64.16,0,8.21,4.74,12.61,10.85,13.21,17.05.7-7.18-3.7-14.5-13.21-20-17.72-10.23-46.44-10.23-64.16,0-9.51,5.49-13.9,12.81-13.21,20C1162,211.63,1166.41,205.52,1174.62,200.78Z" transform="translate(8 3)"/><path class="cls-21" d="M1228.13,226.68l-17.88-10.32L1228.13,206a1.08,1.08,0,0,0,0-2.05,3.92,3.92,0,0,0-3.55,0l-17.88,10.32L1188.82,204a3.92,3.92,0,0,0-3.55,0,1.08,1.08,0,0,0,0,2.05l17.88,10.32-17.88,10.32a1.08,1.08,0,0,0,0,2.05,3.92,3.92,0,0,0,3.55,0l17.88-10.32,17.88,10.32a3.92,3.92,0,0,0,3.55,0A1.08,1.08,0,0,0,1228.13,226.68Z" transform="translate(8 3)"/><path class="cls-20" d="M1161.72,363.07l-.78-.45c-2.88-1.66-5.21-6.12-5.21-10V252.31c0-3.84,2.33-5.6,5.21-3.94l.78.45c2.88,1.66,5.21,6.12,5.21,10V359.12C1166.94,363,1164.6,364.73,1161.72,363.07Z" transform="translate(8 3)"/><polygon class="cls-4" points="1069.76 266.17 1019 236.86 1069.76 207.56 1120.52 236.86 1069.76 266.17"/><polygon class="cls-4" points="1069.76 218.56 1019 189.25 1069.76 159.94 1120.52 189.25 1069.76 218.56"/><polygon class="cls-6" points="1019 236.86 1019 189.25 1069.76 218.56 1069.76 266.17 1019 236.86"/><polygon class="cls-7" points="1120.52 189.25 1120.52 236.86 1069.76 266.17 1069.76 218.56 1120.52 189.25"/><polygon class="cls-7" points="1019 204.78 1019 200.86 1069.76 230.16 1069.76 234.09 1019 204.78"/><polygon class="cls-22" points="1120.52 200.86 1120.52 204.78 1069.76 234.09 1069.76 230.16 1120.52 200.86"/><polygon class="cls-5" points="1064.95 170.85 1060.81 168.46 1069.86 163.24 1074 165.63 1064.95 170.85"/><polygon class="cls-5" points="1071.62 174.7 1067.47 172.31 1076.52 167.09 1080.66 169.48 1071.62 174.7"/><polygon class="cls-5" points="1095.37 188.41 1074.14 176.16 1083.18 170.93 1104.41 183.19 1095.37 188.41"/><path class="cls-9" d="M1100.83,266.21l-6.91-4V223.43l.48.28c3.55,2,6.43,7.55,6.43,12.28Z" transform="translate(8 3)"/><polygon class="cls-9" points="1091.77 232.19 1101.92 226.43 1108.83 269.21 1098.68 274.97 1091.77 232.19"/><path class="cls-8" d="M1090.68,272l-6.91-4V229.19l.48.28c3.55,2,6.43,7.55,6.43,12.28Z" transform="translate(8 3)"/><path class="cls-9" d="M1022,266.21l6.91-4V223.43l-.48.28c-3.55,2-6.43,7.55-6.43,12.28Z" transform="translate(8 3)"/><polygon class="cls-9" points="1047.07 232.19 1036.91 226.43 1030.01 269.21 1040.16 274.97 1047.07 232.19"/><path class="cls-8" d="M1032.16,272l6.91-4V229.19l-.48.28c-3.55,2-6.43,7.55-6.43,12.28Z" transform="translate(8 3)"/><text class="cls-23" transform="translate(58.11 376.38) scale(0.87 1)">ELECTRNICA<tspan class="cls-24" x="77.73" y="0"></tspan><tspan class="cls-25" x="118.75" y="0"></tspan><tspan x="162.72" y="0"></tspan><tspan class="cls-26" x="364.18" y="0"></tspan><tspan x="407.6" y="0"></tspan></text></svg>