<svg id="Capa_1" data-name="Capa 1" xmlns="http://www.w3.org/2000/svg" viewBox="0 0 1345 750"><defs><style>.cls-1{fill:#ff5252;}.cls-2{fill:#7c8a98;}.cls-3{fill:#4d5a68;}.cls-4{fill:#109d59;}.cls-5{fill:#6c7a88;}.cls-6{fill:#34b67a;}.cls-7{fill:#198762;}.cls-8{fill:#0f4d38;}.cls-9{fill:#dc4437;}.cls-10{fill:#f5b400;}.cls-11{fill:#ebf0f5;}.cls-12{fill:#f19b2c;}.cls-13{fill:#9caab8;}.cls-14{fill:#dfe8f0;}.cls-15{fill:#c5d3e1;}.cls-16{fill:#7bd0a9;}.cls-17,.cls-19{fill:#fff;}.cls-18{fill:#e54d42;}.cls-19{font-size:61.5px;font-family: 'Montserrat', sans-serif!important;}.cls-20{letter-spacing:0em;}.cls-21{letter-spacing:-0.01em;}.cls-22{letter-spacing:-0.01em;}</style></defs><title>electricidad</title><rect class="cls-1" width="1345" height="750"/><path class="cls-2" d="M540.58,543.81h-90c-28.61,0-51.9-26.43-51.9-58.91V416.77h11.54V484.9c0,25.26,18.1,45.81,40.36,45.81h90Z" transform="translate(12 0)"/><path class="cls-3" d="M422.35,313.65c-4.5,0-8.44-3.73-9.12-8.93a362.64,362.64,0,0,1-2.59-43.4c0-28.86,20.69-52.33,46.11-52.33h83c25.42,0,46.1,23.47,46.1,52.33a363,363,0,0,1-2.59,43.4c-.75,5.72-5.46,9.66-10.48,8.8s-8.52-6.18-7.77-11.91a346.1,346.1,0,0,0,2.38-40.29c0-17.31-12.4-31.38-27.65-31.38h-83c-15.24,0-27.65,14.08-27.65,31.38a346,346,0,0,0,2.38,40.29c.75,5.72-2.71,11.05-7.76,11.91A8.35,8.35,0,0,1,422.35,313.65Z" transform="translate(12 0)"/><path class="cls-4" d="M577.5,498.53c0,2.89-2.06,5.23-4.61,5.23H427c-2.55,0-4.61-2.34-4.61-5.23V461.26c0-2.91,2.06-5.24,4.61-5.24H572.89c2.55,0,4.61,2.34,4.61,5.24Z" transform="translate(12 0)"/><path class="cls-5" d="M517.91,525.89a3,3,0,0,1,2.81-3.19h6a3,3,0,0,1,2.81,3.19v22.73a3,3,0,0,1-2.81,3.19h-6a3,3,0,0,1-2.81-3.19Z" transform="translate(12 0)"/><ellipse class="cls-6" cx="514.05" cy="375.4" rx="113.12" ry="128.36"/><path class="cls-4" d="M595.23,375.4c0,58.41-41.72,105.75-93.18,105.75s-93.18-47.34-93.18-105.75S450.59,269.66,502,269.66,595.23,317,595.23,375.4Z" transform="translate(12 0)"/><path class="cls-6" d="M499.47,334.74c0,20.89-14.91,37.81-33.32,37.81s-33.31-16.92-33.31-37.81,14.91-37.8,33.31-37.8S499.47,313.87,499.47,334.74Z" transform="translate(12 0)"/><path class="cls-7" d="M488.5,334.74c0,12.45-7.88,22.79-18.3,24.93v-4.16a1,1,0,0,0-.94-1.06h-5.82a1,1,0,0,0-.94,1.06v4.23c-10.6-2-18.68-12.4-18.68-25s8.08-23,18.68-25v4a1,1,0,0,0,.94,1.07h5.82a1,1,0,0,0,.94-1.07v-4C480.62,312,488.5,322.32,488.5,334.74Z" transform="translate(12 0)"/><path class="cls-8" d="M461.47,334.71c0,3.18-2.28,5.76-5.07,5.76s-5.08-2.58-5.08-5.76,2.27-5.76,5.08-5.76S461.47,331.53,461.47,334.71Z" transform="translate(12 0)"/><ellipse class="cls-8" cx="488.65" cy="334.71" rx="5.07" ry="5.76"/><path class="cls-6" d="M571.25,334.74c0,20.89-14.91,37.81-33.31,37.81s-33.32-16.92-33.32-37.81,14.91-37.8,33.32-37.8S571.25,313.87,571.25,334.74Z" transform="translate(12 0)"/><path class="cls-7" d="M560.28,334.74c0,12.45-7.89,22.79-18.29,24.93v-4.16a1,1,0,0,0-.94-1.06h-5.83a1,1,0,0,0-.94,1.06v4.23c-10.6-2-18.68-12.4-18.68-25s8.08-23,18.68-25v4a1,1,0,0,0,.94,1.07H541a1,1,0,0,0,.94-1.07v-4C552.4,312,560.28,322.32,560.28,334.74Z" transform="translate(12 0)"/><ellipse class="cls-8" cx="540.17" cy="334.71" rx="5.08" ry="5.76"/><path class="cls-8" d="M553.51,334.71c0,3.18-2.27,5.76-5.07,5.76s-5.07-2.58-5.07-5.76,2.26-5.76,5.07-5.76S553.51,331.53,553.51,334.71Z" transform="translate(12 0)"/><path class="cls-6" d="M499.47,418.23c0,20.87-14.91,37.79-33.32,37.79s-33.31-16.93-33.31-37.79,14.91-37.82,33.31-37.82S499.47,397.33,499.47,418.23Z" transform="translate(12 0)"/><path class="cls-7" d="M488.5,418.22c0,12.45-7.88,22.79-18.3,24.94V439a1,1,0,0,0-.94-1.07h-5.82a1,1,0,0,0-.94,1.07v4.23c-10.6-1.95-18.68-12.4-18.68-25s8.08-23,18.68-25v4a1,1,0,0,0,.94,1.06h5.82a1,1,0,0,0,.94-1.06v-4C480.62,395.45,488.5,405.79,488.5,418.22Z" transform="translate(12 0)"/><path class="cls-8" d="M461.47,418.18c0,3.18-2.28,5.76-5.07,5.76s-5.08-2.58-5.08-5.76,2.27-5.76,5.08-5.76S461.47,415,461.47,418.18Z" transform="translate(12 0)"/><path class="cls-8" d="M481.72,418.18c0,3.18-2.26,5.76-5.07,5.76s-5.07-2.58-5.07-5.76,2.27-5.76,5.07-5.76S481.72,415,481.72,418.18Z" transform="translate(12 0)"/><path class="cls-6" d="M571.25,418.23c0,20.87-14.91,37.79-33.31,37.79s-33.32-16.93-33.32-37.79,14.91-37.82,33.32-37.82S571.25,397.33,571.25,418.23Z" transform="translate(12 0)"/><path class="cls-7" d="M560.28,418.22c0,12.45-7.89,22.79-18.29,24.94V439a1,1,0,0,0-.94-1.07h-5.83a1,1,0,0,0-.94,1.07v4.23c-10.6-1.95-18.68-12.4-18.68-25s8.08-23,18.68-25v4a1,1,0,0,0,.94,1.06H541a1,1,0,0,0,.94-1.06v-4C552.4,395.45,560.28,405.79,560.28,418.22Z" transform="translate(12 0)"/><path class="cls-8" d="M533.25,418.18c0,3.18-2.27,5.76-5.07,5.76s-5.09-2.58-5.09-5.76,2.28-5.76,5.09-5.76S533.25,415,533.25,418.18Z" transform="translate(12 0)"/><path class="cls-8" d="M553.51,418.18c0,3.18-2.27,5.76-5.07,5.76s-5.07-2.58-5.07-5.76,2.26-5.76,5.07-5.76S553.51,415,553.51,418.18Z" transform="translate(12 0)"/><path class="cls-3" d="M549.18,548.5a2.68,2.68,0,0,1,2.5-2.83h21a2.69,2.69,0,0,1,2.5,2.83v.36a2.68,2.68,0,0,1-2.5,2.84h-21a2.67,2.67,0,0,1-2.5-2.84Z" transform="translate(12 0)"/><path class="cls-3" d="M549.18,525.65a2.67,2.67,0,0,1,2.5-2.83h21a2.68,2.68,0,0,1,2.5,2.83V526a2.68,2.68,0,0,1-2.5,2.84h-21a2.68,2.68,0,0,1-2.5-2.84Z" transform="translate(12 0)"/><path class="cls-2" d="M522.48,558.33V516.19a3,3,0,0,1,2.8-3.19H558a3,3,0,0,1,2.82,3.19v42.14a3,3,0,0,1-2.82,3.19H525.28A3,3,0,0,1,522.48,558.33Z" transform="translate(12 0)"/><path class="cls-5" d="M550.06,561.52V513H558a3,3,0,0,1,2.82,3.19v42.14a3,3,0,0,1-2.82,3.19Z" transform="translate(12 0)"/><path class="cls-9" d="M264.06,398.28H244.32c-2.36,0-4.28-2.33-4.28-5.21V267.46c0-2.88,1.91-5.21,4.28-5.21h19.74c2.36,0,4.28,2.33,4.28,5.21V393.08C268.34,396,266.43,398.28,264.06,398.28Z" transform="translate(12 0)"/><path class="cls-6" d="M268.34,365.35H240v-97.9c0-2.88,1.91-5.21,4.28-5.21h19.74c2.36,0,4.28,2.33,4.28,5.21Z" transform="translate(12 0)"/><path class="cls-10" d="M247.39,401.88a1.66,1.66,0,0,1-1.47-1.8h0a1.66,1.66,0,0,1,1.47-1.8H261a1.66,1.66,0,0,1,1.48,1.8h0a1.66,1.66,0,0,1-1.48,1.8Z" transform="translate(12 0)"/><path class="cls-11" d="M253,278.41h2.41v11.85H253Z" transform="translate(12 0)"/><path class="cls-11" d="M253.31,384.76V380h1.75v4.78h4v2.16h-4v4.79h-1.75v-4.79h-4v-2.16Z" transform="translate(12 0)"/><path class="cls-4" d="M261,340.67l-3.78,1.66v6.33l3.78,1.62v2.86l-13.66-6.19V344l13.66-6.2ZM255.33,343l-3.71,1.55c-.24.11-.63.27-1.17.47l-1.17.42a17.82,17.82,0,0,1,2.5.89l3.55,1.49Z" transform="translate(12 0)"/><path class="cls-4" d="M261,325.34,257.24,327v6.34l3.78,1.62v2.85l-13.66-6.19v-2.95l13.66-6.2Zm-5.69,2.36-3.71,1.55c-.24.11-.63.27-1.17.47s-.92.34-1.17.41a17.92,17.92,0,0,1,2.5.9l3.55,1.5Z" transform="translate(12 0)"/><path class="cls-4" d="M261,310l-3.78,1.65V318L261,319.6v2.85l-13.66-6.2v-2.94L261,307.12Zm-5.69,2.37-3.71,1.55c-.24.11-.63.27-1.17.47s-.92.34-1.17.41a18.36,18.36,0,0,1,2.5.89l3.55,1.5Z" transform="translate(12 0)"/><path class="cls-6" d="M190.84,265.08h30c3.59,0,6.51,3.55,6.51,7.92V426c0,4.37-2.92,7.92-6.51,7.92h-30c-3.59,0-6.5-3.55-6.5-7.92V273C184.33,268.63,187.25,265.08,190.84,265.08Z" transform="translate(12 0)"/><path class="cls-9" d="M184.33,315.17h43V426c0,4.37-2.92,7.92-6.51,7.92h-30c-3.59,0-6.5-3.55-6.5-7.92Z" transform="translate(12 0)"/><path class="cls-10" d="M216.19,259.61a2.53,2.53,0,0,1,2.24,2.74h0a2.52,2.52,0,0,1-2.24,2.73H195.51a2.52,2.52,0,0,1-2.25-2.73h0a2.53,2.53,0,0,1,2.25-2.74Z" transform="translate(12 0)"/><path class="cls-11" d="M207.68,424H204V406h3.67Z" transform="translate(12 0)"/><path class="cls-11" d="M207.19,285.64v7.27h-2.66v-7.27h-6.12v-3.28h6.12v-7.29h2.66v7.29h6.09v3.28Z" transform="translate(12 0)"/><path class="cls-12" d="M215.32,368.2l-5.24,2.3v8.78l5.24,2.25v4l-18.95-8.6V372.8l18.95-8.59Zm-7.9,3.29-5.13,2.15q-.52.24-1.63.65c-.74.28-1.29.47-1.63.57a25.18,25.18,0,0,1,3.48,1.24l4.91,2.07Z" transform="translate(12 0)"/><path class="cls-12" d="M215.32,346.92l-5.24,2.3V358l5.24,2.25v4l-18.95-8.6v-4.09l18.95-8.6Zm-7.9,3.29-5.13,2.15c-.35.16-.89.38-1.63.65s-1.29.47-1.63.57a25.18,25.18,0,0,1,3.48,1.25l4.91,2.07Z" transform="translate(12 0)"/><path class="cls-13" d="M77.9,475.7A2.15,2.15,0,0,0,76,473.37H59.87A2.15,2.15,0,0,0,58,475.7V476a2.16,2.16,0,0,0,1.91,2.34H76A2.16,2.16,0,0,0,77.9,476Z" transform="translate(12 0)"/><path class="cls-13" d="M77.9,456.9A2.16,2.16,0,0,0,76,454.57H59.87A2.16,2.16,0,0,0,58,456.9v.29a2.16,2.16,0,0,0,1.91,2.33H76a2.16,2.16,0,0,0,1.92-2.33Z" transform="translate(12 0)"/><path class="cls-14" d="M178.8,460.67H83.09v10.49H178.8c6.54,0,11.85,6.48,11.85,14.43v25.55c0,8-5.31,14.43-11.85,14.43h-7.65v10.49h7.65c11.29,0,20.47-11.18,20.47-24.92V485.59C199.27,471.85,190.09,460.67,178.8,460.67Z" transform="translate(12 0)"/><path class="cls-15" d="M98.36,483.78V449.12a2.42,2.42,0,0,0-2.15-2.62h-25A2.41,2.41,0,0,0,69,449.12v34.65a2.42,2.42,0,0,0,2.15,2.63h25A2.42,2.42,0,0,0,98.36,483.78Z" transform="translate(12 0)"/><path class="cls-15" d="M177.88,521a2.42,2.42,0,0,0-2.15-2.62h-4.58A2.43,2.43,0,0,0,169,521v18.69a2.43,2.43,0,0,0,2.16,2.63h4.58a2.43,2.43,0,0,0,2.15-2.63Z" transform="translate(12 0)"/><path class="cls-15" d="M101.86,457.11a2.42,2.42,0,0,0-2.15-2.62H95.13A2.42,2.42,0,0,0,93,457.11V475.8a2.43,2.43,0,0,0,2.16,2.62h4.58a2.43,2.43,0,0,0,2.15-2.62Z" transform="translate(12 0)"/><path class="cls-14" d="M171.15,507.08c0-3.62-2.42-6.56-5.39-6.56H41.52c-3,0-5.39,2.93-5.39,6.56V555c0,3.62,2.41,6.56,5.39,6.56H165.77c3,0,5.39-2.94,5.39-6.56Z" transform="translate(12 0)"/><ellipse class="cls-15" cx="72.65" cy="531.02" rx="19.95" ry="24.29"/><path class="cls-13" d="M74,531c0-8-4.72-14.64-11-16v2.68a.64.64,0,0,1-.56.68H59a.64.64,0,0,1-.56-.68V515c-6.35,1.26-11.19,8-11.19,16.06s4.84,14.8,11.19,16.07V544.5a.63.63,0,0,1,.56-.68h3.49a.63.63,0,0,1,.56.68V547C69.31,545.65,74,539,74,531Z" transform="translate(12 0)"/><ellipse class="cls-3" cx="66.8" cy="531.04" rx="3.04" ry="3.7"/><ellipse class="cls-3" cx="78.94" cy="531.04" rx="3.04" ry="3.7"/><ellipse class="cls-15" cx="115.64" cy="531.02" rx="19.95" ry="24.29"/><path class="cls-13" d="M117,531c0-8-4.72-14.64-11-16v2.68a.63.63,0,0,1-.56.68H102a.64.64,0,0,1-.56-.68V515c-6.35,1.26-11.19,8-11.19,16.06s4.84,14.8,11.19,16.07V544.5a.63.63,0,0,1,.56-.68h3.49a.63.63,0,0,1,.56.68V547C112.3,545.65,117,539,117,531Z" transform="translate(12 0)"/><ellipse class="cls-3" cx="109.79" cy="531.04" rx="3.04" ry="3.7"/><ellipse class="cls-3" cx="121.93" cy="531.04" rx="3.04" ry="3.7"/><ellipse class="cls-15" cx="158.63" cy="531.02" rx="19.95" ry="24.29"/><path class="cls-13" d="M160,531c0-8-4.72-14.64-11-16v2.68a.63.63,0,0,1-.56.68H145a.64.64,0,0,1-.56-.68V515c-6.35,1.26-11.19,8-11.19,16.06s4.84,14.8,11.19,16.07V544.5a.64.64,0,0,1,.56-.68h3.49a.63.63,0,0,1,.56.68V547C155.29,545.65,160,539,160,531Z" transform="translate(12 0)"/><ellipse class="cls-3" cx="152.79" cy="531.04" rx="3.04" ry="3.7"/><ellipse class="cls-3" cx="164.92" cy="531.04" rx="3.04" ry="3.7"/><path class="cls-14" d="M77.21,486.4V446.5h-6A2.41,2.41,0,0,0,69,449.12v34.65a2.42,2.42,0,0,0,2.15,2.63Z" transform="translate(12 0)"/><path class="cls-15" d="M332.29,190.27V302c0,8.45-5.29,15.39-12.08,16.17V195.93c0-1.91-1.28-3.48-2.85-3.48a3.22,3.22,0,0,0-2.89,3.48V318c-6.34-1.27-11.14-8-11.14-16V190.27c0-9,6-16.27,13.36-16.27h2.25C326.3,174,332.29,181.29,332.29,190.27Z" transform="translate(12 0)"/><path class="cls-15" d="M364.53,190.27V302c0,8.45-5.29,15.39-12.08,16.17V195.93c0-1.91-1.28-3.48-2.86-3.48s-2.88,1.56-2.88,3.48V318c-6.34-1.27-11.15-8-11.15-16V190.27c0-9,6-16.27,13.36-16.27h2.25C358.54,174,364.53,181.29,364.53,190.27Z" transform="translate(12 0)"/><path class="cls-14" d="M369.42,312.72v13.75a10.61,10.61,0,0,1-.66,3.5c-2.36,6.62-10.21,13.1-10.21,14.08v17.57c0,7.84-5.22,14.22-11.71,14.22H321c-6.47,0-11.71-6.38-11.71-14.22V344c0-1-7.82-7.43-10.21-14a10.82,10.82,0,0,1-.66-3.53V312.72a16.07,16.07,0,0,1,2.44-8.67,11,11,0,0,1,9.27-5.58h47.58a11,11,0,0,1,9.27,5.58A16.07,16.07,0,0,1,369.42,312.72Z" transform="translate(12 0)"/><path class="cls-5" d="M315.84,396.48c0,2.87,8.1,5.17,18.08,5.17s18.09-2.3,18.09-5.17-8.1-5.14-18.09-5.14S315.84,393.65,315.84,396.48Z" transform="translate(12 0)"/><path class="cls-15" d="M361.32,364.69c0,3.35-2.22,6-4.93,6H311.47c-2.73,0-5-2.67-5-6a7.14,7.14,0,0,1,.2-1.67c.58-2.52,2.51-4.36,4.75-4.36H356.4a4.6,4.6,0,0,1,3.49,1.76,6.74,6.74,0,0,1,1.24,2.6A7.47,7.47,0,0,1,361.32,364.69Z" transform="translate(12 0)"/><path class="cls-15" d="M361.32,376.74c0,3.35-2.22,6-4.93,6H311.47c-2.73,0-5-2.67-5-6a7.09,7.09,0,0,1,.2-1.67c.58-2.52,2.51-4.36,4.75-4.36H356.4a4.63,4.63,0,0,1,3.49,1.75,6.8,6.8,0,0,1,1.24,2.61A7.42,7.42,0,0,1,361.32,376.74Z" transform="translate(12 0)"/><path class="cls-15" d="M361.32,388.78c0,3.35-2.22,6-4.93,6H311.47c-2.73,0-5-2.67-5-6a7.07,7.07,0,0,1,.2-1.66c.58-2.52,2.51-4.36,4.75-4.36H356.4a4.63,4.63,0,0,1,3.49,1.75,6.77,6.77,0,0,1,1.24,2.61A7.4,7.4,0,0,1,361.32,388.78Z" transform="translate(12 0)"/><rect class="cls-15" x="321.35" y="355.58" width="49.15" height="3.51"/><path class="cls-11" d="M369.42,312.72v13.75a10.61,10.61,0,0,1-.66,3.5,3.1,3.1,0,0,1-.53,0H299.08a10.82,10.82,0,0,1-.66-3.53V312.72a16.07,16.07,0,0,1,2.44-8.67H367A16.07,16.07,0,0,1,369.42,312.72Z" transform="translate(12 0)"/><path class="cls-16" d="M335.19,322.86a7.84,7.84,0,0,1-1.27-4.21,5,5,0,0,1,3.36,1.8c1.28,1.65,1.84,3.53,1.27,4.2S336.46,324.51,335.19,322.86Z" transform="translate(12 0)"/><path class="cls-16" d="M336.74,320.71a7.34,7.34,0,0,1,1.54-4.06,7.51,7.51,0,0,1,1.33,4.17c-.05,2.27-.75,4.09-1.54,4.06S336.68,323,336.74,320.71Z" transform="translate(12 0)"/><path class="cls-16" d="M335.35,325.73a5.28,5.28,0,0,1-3.33-1.89,5.13,5.13,0,0,1,3.43-1.62c1.87.07,3.36.92,3.33,1.89S337.22,325.81,335.35,325.73Z" transform="translate(12 0)"/><path class="cls-16" d="M346.88,325.85h-4.32v-9.3h4.32v1.28h-3.07v2.54h2.88v1.27h-2.88v2.92h3.07Z" transform="translate(12 0)"/><path class="cls-16" d="M351.78,317.72a1.91,1.91,0,0,0-1.69.93,4.53,4.53,0,0,0-.62,2.56,4.7,4.7,0,0,0,.59,2.59,2,2,0,0,0,1.72.88,4,4,0,0,0,.94-.12,9.61,9.61,0,0,0,.94-.31v1.3a4.8,4.8,0,0,1-2,.42,3,3,0,0,1-2.57-1.24,6,6,0,0,1-.9-3.54,6.73,6.73,0,0,1,.44-2.54,3.54,3.54,0,0,1,1.26-1.66,3.25,3.25,0,0,1,1.93-.58,4.07,4.07,0,0,1,2.16.6l-.45,1.27a6.21,6.21,0,0,0-.81-.39A2.51,2.51,0,0,0,351.78,317.72Z" transform="translate(12 0)"/><path class="cls-16" d="M362.09,321.18a5.83,5.83,0,0,1-.93,3.53,3.43,3.43,0,0,1-5.3,0,7.27,7.27,0,0,1,0-7.09,3.14,3.14,0,0,1,2.66-1.23,3.1,3.1,0,0,1,2.64,1.25A5.83,5.83,0,0,1,362.09,321.18Zm-5.83,0a4.83,4.83,0,0,0,.57,2.61,2,2,0,0,0,3.37,0,4.89,4.89,0,0,0,.56-2.62,4.81,4.81,0,0,0-.56-2.59,1.84,1.84,0,0,0-1.68-.89,1.89,1.89,0,0,0-1.69.89A4.81,4.81,0,0,0,356.26,321.18Z" transform="translate(12 0)"/><path class="cls-14" d="M877,550.55c0,6.06-4,11-9,11H763.65c-5,0-9-4.91-9-11V423.5c0-6.07,4-11,9-11H868c5,0,9,4.9,9,11Z" transform="translate(12 0)"/><path class="cls-17" d="M863.84,556.63h-96c-5.06,0-9.17-5-9.17-11.14V428.56c0-6.15,4.11-11.16,9.17-11.16h96c5,0,9.15,5,9.15,11.16V545.49C873,551.64,868.89,556.63,863.84,556.63Zm-96-137.1c-4.1,0-7.42,4-7.42,9V545.49c0,5,3.32,9,7.42,9h96c4.09,0,7.41-4,7.41-9V428.56c0-5-3.32-9-7.41-9Z" transform="translate(12 0)"/><path class="cls-13" d="M851.61,484.42c0,21.43-12.66,39.23-29.38,42.95v-7.2a1.68,1.68,0,0,0-1.5-1.83h-9.35a1.68,1.68,0,0,0-1.5,1.83v7.32c-17-3.42-30-21.4-30-43.07s13-39.63,30-43.06v6.92a1.7,1.7,0,0,0,1.5,1.83h9.35a1.7,1.7,0,0,0,1.5-1.83v-6.8C839,445.2,851.61,463,851.61,484.42Z" transform="translate(12 0)"/><ellipse class="cls-3" cx="812.08" cy="484.35" rx="8.15" ry="9.92"/><path class="cls-3" d="M840.74,484.35c0,5.48-3.66,9.92-8.16,9.92s-8.14-4.44-8.14-9.92,3.65-9.92,8.14-9.92S840.74,478.87,840.74,484.35Z" transform="translate(12 0)"/><path class="cls-14" d="M354.77,551.2c0,5.71-3.79,10.32-8.48,10.32H248.12c-4.68,0-8.47-4.61-8.47-10.32V431.67c0-5.7,3.79-10.32,8.47-10.32h98.16c4.69,0,8.48,4.62,8.48,10.32Z" transform="translate(12 0)"/><path class="cls-17" d="M342.38,556.93H252c-4.77,0-8.62-4.72-8.62-10.5v-110c0-5.78,3.86-10.5,8.62-10.5h90.33c4.75,0,8.62,4.71,8.62,10.5v110C351,552.22,347.13,556.93,342.38,556.93ZM252,427.94c-3.85,0-7,3.81-7,8.5v110c0,4.68,3.13,8.49,7,8.49h90.33c3.85,0,7-3.81,7-8.49v-110c0-4.69-3.13-8.5-7-8.5Z" transform="translate(12 0)"/><path class="cls-15" d="M337.77,489.31c0,27.27-18.16,49.38-40.56,49.38s-40.55-22.11-40.55-49.38,18.15-49.39,40.55-49.39S337.77,462,337.77,489.31Z" transform="translate(12 0)"/><path class="cls-14" d="M332.22,489.68a49.26,49.26,0,0,1-5.46,22.85c-6.21,11.89-17.12,19.77-29.56,19.77-19.33,0-35-19.08-35-42.62a51.28,51.28,0,0,1,.54-7.51c1.75-12,7.6-22.19,15.71-28.47a30.46,30.46,0,0,1,18.76-6.64c17.26,0,31.62,15.22,34.48,35.23A49.73,49.73,0,0,1,332.22,489.68Z" transform="translate(12 0)"/><path class="cls-18" d="M324,474.73c-.11-.25-.26-.49-.39-.74v0c-5.43-15-19.06-23.48-32.55-19.41a27.53,27.53,0,0,0-13.6,9.61,38.79,38.79,0,0,0-7.78,25.19c1.71-9.12,8-17,16.63-19.64,10.26-3.08,20.38,2.31,24.63,12.28.15.32.28.67.41,1a.48.48,0,0,0,.07.17c1.56,3.1,4.63,4.77,7.68,3.86,0,0,.07,0,.08-.05h.1a7.21,7.21,0,0,0,3.93-3.05,9.76,9.76,0,0,0,1.36-7.32A8.52,8.52,0,0,0,324,474.73Z" transform="translate(12 0)"/><path class="cls-14" d="M647.77,441.28c-7.88-11.78-12.62-26.94-12.62-43.39,0-36.16,22.89-65.88,52-68.8h4.52c29.08,2.92,52,32.63,52,68.8,0,16.45-4.75,31.61-12.62,43.39h.06s-13.7,44-11.36,61.64a8.69,8.69,0,0,1,.85,3.58v1.9c0,4.24-2.82,7.7-6.26,7.7H664.47c-3.43,0-6.26-3.45-6.26-7.7v-1.9a8.69,8.69,0,0,1,.85-3.58c2.34-17.63-11.37-61.64-11.37-61.64Z" transform="translate(12 0)"/><path class="cls-15" d="M701.56,506.77c0,8.18-5.45,14.82-12.17,14.82h0c-6.72,0-12.17-6.64-12.17-14.82V463.6c0-8.19,5.46-14.82,12.17-14.82h0c6.72,0,12.17,6.64,12.17,14.82Z" transform="translate(12 0)"/><path class="cls-5" d="M669.85,555.94c0,3.09,8.74,5.58,19.53,5.58s19.54-2.49,19.54-5.58-8.75-5.56-19.54-5.56S669.85,552.88,669.85,555.94Z" transform="translate(12 0)"/><path class="cls-13" d="M719,521.58c0,3.62-2.39,6.51-5.32,6.51H665.13c-3,0-5.35-2.89-5.35-6.51a8.26,8.26,0,0,1,.21-1.8c.64-2.72,2.72-4.71,5.14-4.71h48.54a5,5,0,0,1,3.77,1.89,7.32,7.32,0,0,1,1.34,2.82A7.58,7.58,0,0,1,719,521.58Z" transform="translate(12 0)"/><path class="cls-13" d="M719,534.61c0,3.62-2.39,6.51-5.32,6.51H665.13c-3,0-5.35-2.89-5.35-6.51a8.26,8.26,0,0,1,.21-1.8c.64-2.72,2.72-4.71,5.14-4.71h48.54a5,5,0,0,1,3.77,1.89,7.37,7.37,0,0,1,1.34,2.82A7.58,7.58,0,0,1,719,534.61Z" transform="translate(12 0)"/><path class="cls-13" d="M719,547.62c0,3.63-2.39,6.51-5.32,6.51H665.13c-3,0-5.35-2.88-5.35-6.51a8.24,8.24,0,0,1,.21-1.79c.64-2.73,2.72-4.71,5.14-4.71h48.54a5,5,0,0,1,3.77,1.89,7.32,7.32,0,0,1,1.34,2.82A7.56,7.56,0,0,1,719,547.62Z" transform="translate(12 0)"/><path class="cls-13" d="M702.37,515.07h-2.64l.11-59.44,19-53.1c-7.25,0-17.56-2.87-20.39-5.94a9,9,0,0,1-1.63-2.47,44,44,0,0,1-6.81,1.33,50.22,50.22,0,0,1-8-1.47,9.29,9.29,0,0,1-1.69,2.6c-2.83,3.08-13.15,5.93-20.41,5.94L679,456.26v58.81h-2.63V456.6L657,402.34a8.43,8.43,0,0,1-3.13-1,3.65,3.65,0,0,1-1.81-3.5c.07-.87.26-3.51,1.95-4s3.38,2.12,4,3.29l.78,2.15c6.6.27,17.49-2.58,19.81-5.1a6.62,6.62,0,0,0,.84-1.14c-1.63-.74-2.84-1.67-3.2-2.82a3.21,3.21,0,0,1,.58-2.94c1.41-1.84,2.76-1.73,3.44-1.52a4,4,0,0,1,2.38,3.29,7.53,7.53,0,0,1,.13,1.81,50.64,50.64,0,0,0,7.32,1.39,43.9,43.9,0,0,0,6-1.24,7.63,7.63,0,0,1,.12-2,4,4,0,0,1,2.38-3.29c.68-.21,2-.31,3.43,1.52a3.26,3.26,0,0,1,.61,3c-.37,1.19-1.57,2.12-3.16,2.86a6.47,6.47,0,0,0,.78,1c2.31,2.52,13.21,5.4,19.79,5.1l.69-1.93c.71-1.38,2.31-4,4.09-3.5s1.87,3.13,1.94,4a3.63,3.63,0,0,1-1.81,3.5,8.26,8.26,0,0,1-3.15,1L702.37,456.6ZM724,397.35a9.62,9.62,0,0,0-1,1.46c.9-.31,1.07-.64,1.07-.64C724.1,397.83,724.06,397.56,724,397.35Zm-69.29,0c0,.2-.07.46-.09.79,0,0,.17.36,1.06.67l-.07-.17A8.34,8.34,0,0,0,654.75,397.35Zm44.55-8.49h0c-.13,0-.37.34-.49.94a2.32,2.32,0,0,0,0,.3,4.82,4.82,0,0,0,1.26-.75C699.67,389,699.43,388.86,699.29,388.86Zm-20.44.42a4.68,4.68,0,0,0,1.2.68,1.28,1.28,0,0,0,0-.16c-.12-.61-.36-.9-.49-.94S679.15,388.94,678.85,389.28Z" transform="translate(12 0)"/><polygon class="cls-13" points="696.93 426.33 692.71 393.7 695.31 393.2 699.53 425.83 696.93 426.33"/><polygon class="cls-13" points="705.85 426.33 703.24 425.83 707.47 393.2 710.07 393.7 705.85 426.33"/><path class="cls-15" d="M697.68,425.45a3,3,0,0,1-2.69,3.28H683.79a3,3,0,0,1-2.69-3.28h0a3,3,0,0,1,2.69-3.28H695a3,3,0,0,1,2.69,3.28Z" transform="translate(12 0)"/><path class="cls-15" d="M693.45,461.3c0,3.93-1.82,7.12-4.07,7.12h0c-2.25,0-4.07-3.19-4.07-7.12v-32c0-3.93,1.82-7.11,4.07-7.11h0c2.25,0,4.07,3.18,4.07,7.11Z" transform="translate(12 0)"/><path class="cls-14" d="M694.2,514.92V471c0-3-2-5.41-4.44-5.41s-4.45,2.41-4.45,5.41v43.9Z" transform="translate(12 0)"/><text class="cls-19" transform="translate(898 391) scale(0.87 1)">ELECTRICIDAD<tspan class="cls-20" x="77.73" y="0"></tspan><tspan class="cls-21" x="118.75" y="0"></tspan><tspan x="162.72" y="0"></tspan><tspan class="cls-22" x="326.11" y="0"></tspan><tspan x="376.29" y="0"></tspan></text></svg>