<svg id="Capa_1" data-name="Capa 1" xmlns="http://www.w3.org/2000/svg" viewBox="0 0 700.5 250"><defs><style>.cls-1{fill:#00e676;}.cls-2{fill:#e0e1e2;}.cls-3{fill:#ededed;}.cls-4{fill:#393d44;}.cls-5{fill:#c3cbd8;}.cls-6{fill:#30353a;}.cls-7{fill:#2a2f35;}.cls-8{fill:#ccc;}.cls-9{fill:#f7f7f7;}.cls-10{fill:#efefef;}.cls-11{fill:#ddd;}.cls-12{fill:#f2d738;}.cls-13{fill:#d6b929;}.cls-14{fill:#db4242;}.cls-15{fill:#f25151;}.cls-16{fill:#bcbcbc;}.cls-17{fill:#c4c4c4;}.cls-18{fill:#c6c6c6;}.cls-19{fill:#e2c033;}.cls-20{fill:#494e51;}.cls-21{fill:#d6d4d4;}.cls-22{fill:#1b1f23;}</style></defs><title>electronica700</title><polyline class="cls-1" points="0 0 0 250 700.5 250 700.5 0"/><polygon class="cls-2" points="231.83 72.4 228.99 74.04 225.35 71.93 228.19 71.86 231.83 72.4"/><polygon class="cls-3" points="231.83 71.38 228.99 73.02 225.35 70.91 228.19 69.27 231.83 71.38"/><polygon class="cls-2" points="225.35 70.91 225.35 71.93 228.99 74.04 228.99 73.02 225.35 70.91"/><polygon class="cls-3" points="231.83 72.4 231.83 71.38 228.99 73.02 228.99 74.04 231.83 72.4"/><polygon class="cls-2" points="237.6 74.73 234.76 76.37 228.18 72.57 231.01 70.93 237.6 74.73"/><polygon class="cls-3" points="237.6 72.13 234.76 73.77 228.18 69.97 231.01 68.33 237.6 72.13"/><polygon class="cls-2" points="228.18 69.97 228.18 72.57 234.76 76.37 234.76 73.77 228.18 69.97"/><polygon class="cls-3" points="237.6 74.73 237.6 72.13 234.76 73.77 234.76 76.37 237.6 74.73"/><polygon class="cls-2" points="238.09 68.81 235.25 70.45 231.61 68.34 234.45 68.27 238.09 68.81"/><polygon class="cls-3" points="238.09 67.78 235.25 69.42 231.61 67.31 234.45 65.67 238.09 67.78"/><polygon class="cls-2" points="231.61 67.31 231.61 68.34 235.25 70.45 235.25 69.42 231.61 67.31"/><polygon class="cls-3" points="238.09 68.81 238.09 67.78 235.25 69.42 235.25 70.45 238.09 68.81"/><polygon class="cls-2" points="243.86 71.13 241.02 72.77 234.44 68.97 237.28 67.33 243.86 71.13"/><polygon class="cls-3" points="243.86 68.53 241.02 70.17 234.44 66.37 237.28 64.73 243.86 68.53"/><polygon class="cls-2" points="234.44 66.37 234.44 68.97 241.02 72.77 241.02 70.17 234.44 66.37"/><polygon class="cls-3" points="243.86 71.13 243.86 68.53 241.02 70.17 241.02 72.77 243.86 71.13"/><polygon class="cls-2" points="244.35 65.21 241.51 66.85 237.87 64.74 240.71 64.67 244.35 65.21"/><polygon class="cls-3" points="244.35 64.19 241.51 65.83 237.87 63.72 240.71 62.08 244.35 64.19"/><polygon class="cls-2" points="237.87 63.72 237.87 64.74 241.51 66.85 241.51 65.83 237.87 63.72"/><polygon class="cls-3" points="244.35 65.21 244.35 64.19 241.51 65.83 241.51 66.85 244.35 65.21"/><polygon class="cls-2" points="250.12 67.54 247.28 69.18 240.7 65.38 243.54 63.74 250.12 67.54"/><polygon class="cls-3" points="250.12 64.94 247.28 66.58 240.7 62.78 243.54 61.14 250.12 64.94"/><polygon class="cls-2" points="240.7 62.78 240.7 65.38 247.28 69.18 247.28 66.58 240.7 62.78"/><polygon class="cls-3" points="250.12 67.54 250.12 64.94 247.28 66.58 247.28 69.18 250.12 67.54"/><polygon class="cls-2" points="250.61 61.62 247.78 63.26 244.13 61.15 246.97 61.08 250.61 61.62"/><polygon class="cls-3" points="250.61 60.59 247.78 62.23 244.13 60.12 246.97 58.48 250.61 60.59"/><polygon class="cls-2" points="244.13 60.12 244.13 61.15 247.78 63.26 247.78 62.23 244.13 60.12"/><polygon class="cls-3" points="250.61 61.62 250.61 60.59 247.78 62.23 247.78 63.26 250.61 61.62"/><polygon class="cls-2" points="256.38 63.94 253.54 65.58 246.96 61.78 249.8 60.14 256.38 63.94"/><polygon class="cls-3" points="256.38 61.34 253.54 62.98 246.96 59.18 249.8 57.55 256.38 61.34"/><polygon class="cls-2" points="246.96 59.18 246.96 61.78 253.54 65.58 253.54 62.98 246.96 59.18"/><polygon class="cls-3" points="256.38 63.94 256.38 61.34 253.54 62.98 253.54 65.58 256.38 63.94"/><polygon class="cls-4" points="280.39 71.62 251.35 88.38 229.42 75.72 258.46 58.96 280.39 71.62"/><polygon class="cls-4" points="280.39 76.41 251.35 93.17 229.42 80.52 258.46 63.75 280.39 76.41"/><polygon class="cls-5" points="256.2 63.55 254.51 62.57 258.21 60.43 259.9 61.41 256.2 63.55"/><polygon class="cls-5" points="258.93 65.12 257.23 64.14 260.94 62.01 262.63 62.98 258.93 65.12"/><polygon class="cls-5" points="268.65 70.73 259.96 65.72 263.66 63.58 272.35 68.59 268.65 70.73"/><polygon class="cls-6" points="229.42 80.52 229.42 75.72 251.35 88.38 251.35 93.17 229.42 80.52"/><polygon class="cls-7" points="280.39 76.41 280.39 71.62 251.35 88.38 251.35 93.17 280.39 76.41"/><polygon class="cls-2" points="267.09 95.07 264.25 96.71 260.61 94.6 263.45 94.53 267.09 95.07"/><polygon class="cls-3" points="267.09 94.05 264.25 95.68 260.61 93.58 263.45 91.94 267.09 94.05"/><polygon class="cls-2" points="260.61 93.58 260.61 94.6 264.25 96.71 264.25 95.68 260.61 93.58"/><polygon class="cls-3" points="267.09 95.07 267.09 94.05 264.25 95.68 264.25 96.71 267.09 95.07"/><polygon class="cls-2" points="264.27 92.42 261.43 94.05 254.85 90.25 257.69 88.61 264.27 92.42"/><polygon class="cls-3" points="264.27 89.82 261.43 91.46 254.85 87.66 257.69 86.02 264.27 89.82"/><polygon class="cls-2" points="254.85 87.66 254.85 90.25 261.43 94.05 261.43 91.46 254.85 87.66"/><polygon class="cls-3" points="264.27 92.42 264.27 89.82 261.43 91.46 261.43 94.05 264.27 92.42"/><polygon class="cls-2" points="273.3 91.48 270.46 93.11 266.82 91.01 269.66 90.94 273.3 91.48"/><polygon class="cls-3" points="273.3 90.45 270.46 92.09 266.82 89.98 269.66 88.34 273.3 90.45"/><polygon class="cls-2" points="266.82 89.98 266.82 91.01 270.46 93.11 270.46 92.09 266.82 89.98"/><polygon class="cls-3" points="273.3 91.48 273.3 90.45 270.46 92.09 270.46 93.11 273.3 91.48"/><polygon class="cls-2" points="270.48 88.82 267.64 90.46 261.06 86.66 263.9 85.02 270.48 88.82"/><polygon class="cls-3" points="270.48 86.22 267.64 87.86 261.06 84.06 263.9 82.42 270.48 86.22"/><polygon class="cls-2" points="261.06 84.06 261.06 86.66 267.64 90.46 267.64 87.86 261.06 84.06"/><polygon class="cls-3" points="270.48 88.82 270.48 86.22 267.64 87.86 267.64 90.46 270.48 88.82"/><polygon class="cls-2" points="279.51 87.88 276.67 89.52 273.03 87.41 275.87 87.34 279.51 87.88"/><polygon class="cls-3" points="279.51 86.86 276.67 88.49 273.03 86.39 275.87 84.75 279.51 86.86"/><polygon class="cls-2" points="273.03 86.39 273.03 87.41 276.67 89.52 276.67 88.49 273.03 86.39"/><polygon class="cls-3" points="279.51 87.88 279.51 86.86 276.67 88.49 276.67 89.52 279.51 87.88"/><polygon class="cls-2" points="276.69 85.22 273.86 86.86 267.27 83.06 270.11 81.42 276.69 85.22"/><polygon class="cls-3" points="276.69 82.63 273.86 84.27 267.27 80.47 270.11 78.83 276.69 82.63"/><polygon class="cls-2" points="267.27 80.47 267.27 83.06 273.86 86.86 273.86 84.27 267.27 80.47"/><polygon class="cls-3" points="276.69 85.22 276.69 82.63 273.86 84.27 273.86 86.86 276.69 85.22"/><polygon class="cls-2" points="285.72 84.29 282.88 85.92 279.24 83.82 282.08 83.75 285.72 84.29"/><polygon class="cls-3" points="285.72 83.26 282.88 84.9 279.24 82.79 282.08 81.15 285.72 83.26"/><polygon class="cls-2" points="279.24 82.79 279.24 83.82 282.88 85.92 282.88 84.9 279.24 82.79"/><polygon class="cls-3" points="285.72 84.29 285.72 83.26 282.88 84.9 282.88 85.92 285.72 84.29"/><polygon class="cls-2" points="282.9 81.63 280.07 83.27 273.48 79.47 276.32 77.83 282.9 81.63"/><polygon class="cls-3" points="282.9 79.03 280.07 80.67 273.48 76.87 276.32 75.23 282.9 79.03"/><polygon class="cls-2" points="273.48 76.87 273.48 79.47 280.07 83.27 280.07 80.67 273.48 76.87"/><polygon class="cls-3" points="282.9 81.63 282.9 79.03 280.07 80.67 280.07 83.27 282.9 81.63"/><polygon class="cls-3" points="345.83 90.21 343.71 88.98 343.71 86.53 345.83 87.76 345.83 90.21"/><polygon class="cls-3" points="343.71 88.98 341.59 87.76 341.59 85.31 343.71 86.53 343.71 88.98"/><polygon class="cls-3" points="343.71 91.44 341.59 90.21 341.59 87.76 343.71 88.98 343.71 91.44"/><polygon class="cls-3" points="344.32 92.62 340.34 90.33 340.34 89.49 344.32 91.79 344.32 92.62"/><polygon class="cls-3" points="338.23 90.7 339.81 89.8 339.47 91.42 338.23 90.7"/><polygon class="cls-2" points="343.72 91.42 341.6 90.2 341.6 87.74 343.72 88.97 343.72 91.42"/><polygon class="cls-2" points="341.6 90.2 339.47 88.97 339.47 86.52 341.6 87.74 341.6 90.2"/><polygon class="cls-2" points="341.6 92.65 339.47 91.42 339.47 88.97 341.6 90.2 341.6 92.65"/><polygon class="cls-2" points="342.21 93.83 338.23 91.54 338.23 90.7 342.21 93 342.21 93.83"/><polygon class="cls-3" points="339.47 86.52 341.59 85.31 345.83 87.76 343.72 88.97 339.47 86.52"/><polygon class="cls-3" points="343.72 91.42 345.83 90.21 345.83 87.76 343.72 88.97 343.72 91.42"/><polygon class="cls-3" points="344.32 91.79 342.21 93 342.21 93.83 344.32 92.62 344.32 91.79"/><polygon class="cls-3" points="341.6 92.65 343.65 91.38 344.32 91.79 342.21 93 341.6 92.65"/><polygon class="cls-3" points="341.6 90.2 341.6 92.65 343.65 91.38 341.6 90.2"/><polygon class="cls-3" points="341.12 92.91 339 91.68 339 89.23 341.12 90.46 341.12 92.91"/><polygon class="cls-3" points="339 91.68 336.88 90.46 336.88 88 339 89.23 339 91.68"/><polygon class="cls-3" points="339 94.14 336.88 92.91 336.88 90.46 339 91.68 339 94.14"/><polygon class="cls-3" points="339.61 95.32 335.63 93.03 335.63 92.19 339.61 94.49 339.61 95.32"/><polygon class="cls-3" points="333.52 93.4 335.1 92.5 334.76 94.12 333.52 93.4"/><polygon class="cls-2" points="339.01 94.12 336.88 92.89 336.88 90.44 339.01 91.67 339.01 94.12"/><polygon class="cls-2" points="336.88 92.89 334.76 91.67 334.76 89.22 336.88 90.44 336.88 92.89"/><polygon class="cls-2" points="336.88 95.35 334.76 94.12 334.76 91.67 336.88 92.89 336.88 95.35"/><polygon class="cls-2" points="337.5 96.53 333.52 94.24 333.52 93.4 337.5 95.7 337.5 96.53"/><polygon class="cls-3" points="334.76 89.22 336.88 88 341.12 90.46 339.01 91.67 334.76 89.22"/><polygon class="cls-3" points="339.01 94.12 341.12 92.91 341.12 90.46 339.01 91.67 339.01 94.12"/><polygon class="cls-3" points="339.61 94.49 337.5 95.7 337.5 96.53 339.61 95.32 339.61 94.49"/><polygon class="cls-3" points="336.88 95.35 338.94 94.08 339.61 94.49 337.5 95.7 336.88 95.35"/><polygon class="cls-3" points="336.88 92.89 336.88 95.35 338.94 94.08 336.88 92.89"/><polygon class="cls-3" points="336.41 95.61 334.29 94.38 334.29 91.93 336.41 93.16 336.41 95.61"/><polygon class="cls-3" points="334.29 94.38 332.16 93.16 332.16 90.7 334.29 91.93 334.29 94.38"/><polygon class="cls-3" points="334.29 96.83 332.16 95.61 332.16 93.16 334.29 94.38 334.29 96.83"/><polygon class="cls-3" points="334.9 98.02 330.92 95.72 330.92 94.89 334.9 97.19 334.9 98.02"/><polygon class="cls-3" points="328.81 96.1 330.39 95.19 330.05 96.82 328.81 96.1"/><polygon class="cls-2" points="334.3 96.82 332.17 95.59 332.17 93.14 334.3 94.37 334.3 96.82"/><polygon class="cls-2" points="332.17 95.59 330.05 94.37 330.05 91.92 332.17 93.14 332.17 95.59"/><polygon class="cls-2" points="332.17 98.05 330.05 96.82 330.05 94.37 332.17 95.59 332.17 98.05"/><polygon class="cls-2" points="332.79 99.23 328.81 96.94 328.81 96.1 332.79 98.4 332.79 99.23"/><polygon class="cls-3" points="330.05 91.92 332.16 90.7 336.41 93.16 334.3 94.37 330.05 91.92"/><polygon class="cls-3" points="334.3 96.82 336.41 95.61 336.41 93.16 334.3 94.37 334.3 96.82"/><polygon class="cls-3" points="334.9 97.19 332.79 98.4 332.79 99.23 334.9 98.02 334.9 97.19"/><polygon class="cls-3" points="332.17 98.05 334.23 96.78 334.9 97.19 332.79 98.4 332.17 98.05"/><polygon class="cls-3" points="332.17 95.59 332.17 98.05 334.23 96.78 332.17 95.59"/><polygon class="cls-3" points="331.7 98.31 329.58 97.08 329.58 94.63 331.7 95.86 331.7 98.31"/><polygon class="cls-3" points="329.58 97.08 327.45 95.86 327.45 93.4 329.58 94.63 329.58 97.08"/><polygon class="cls-3" points="329.58 99.53 327.45 98.31 327.45 95.86 329.58 97.08 329.58 99.53"/><polygon class="cls-3" points="330.19 100.72 326.21 98.42 326.21 97.59 330.19 99.89 330.19 100.72"/><polygon class="cls-3" points="324.1 98.8 325.68 97.89 325.34 99.52 324.1 98.8"/><polygon class="cls-2" points="329.59 99.52 327.46 98.29 327.46 95.84 329.59 97.07 329.59 99.52"/><polygon class="cls-2" points="327.46 98.29 325.34 97.07 325.34 94.61 327.46 95.84 327.46 98.29"/><polygon class="cls-2" points="327.46 100.75 325.34 99.52 325.34 97.07 327.46 98.29 327.46 100.75"/><polygon class="cls-2" points="328.07 101.93 324.1 99.63 324.1 98.8 328.07 101.1 328.07 101.93"/><polygon class="cls-3" points="325.34 94.61 327.45 93.4 331.7 95.86 329.59 97.07 325.34 94.61"/><polygon class="cls-3" points="329.59 99.52 331.7 98.31 331.7 95.86 329.59 97.07 329.59 99.52"/><polygon class="cls-3" points="330.19 99.89 328.07 101.1 328.07 101.93 330.19 100.72 330.19 99.89"/><polygon class="cls-3" points="327.46 100.75 329.52 99.48 330.19 99.89 328.07 101.1 327.46 100.75"/><polygon class="cls-3" points="327.46 98.29 327.46 100.75 329.52 99.48 327.46 98.29"/><polygon class="cls-3" points="326.99 101.01 324.87 99.78 324.87 97.33 326.99 98.55 326.99 101.01"/><polygon class="cls-3" points="324.87 99.78 322.74 98.55 322.74 96.1 324.87 97.33 324.87 99.78"/><polygon class="cls-3" points="324.87 102.23 322.74 101.01 322.74 98.55 324.87 99.78 324.87 102.23"/><polygon class="cls-3" points="325.48 103.42 321.5 101.12 321.5 100.29 325.48 102.59 325.48 103.42"/><polygon class="cls-3" points="319.38 101.5 320.97 100.59 320.63 102.22 319.38 101.5"/><polygon class="cls-2" points="324.88 102.22 322.75 100.99 322.75 98.54 324.88 99.77 324.88 102.22"/><polygon class="cls-2" points="322.75 100.99 320.63 99.77 320.63 97.31 322.75 98.54 322.75 100.99"/><polygon class="cls-2" points="322.75 103.44 320.63 102.22 320.63 99.77 322.75 100.99 322.75 103.44"/><polygon class="cls-2" points="323.36 104.63 319.38 102.33 319.38 101.5 323.36 103.8 323.36 104.63"/><polygon class="cls-3" points="320.63 97.31 322.74 96.1 326.99 98.55 324.88 99.77 320.63 97.31"/><polygon class="cls-3" points="324.88 102.22 326.99 101.01 326.99 98.55 324.88 99.77 324.88 102.22"/><polygon class="cls-3" points="325.48 102.59 323.36 103.8 323.36 104.63 325.48 103.42 325.48 102.59"/><polygon class="cls-3" points="322.75 103.44 324.81 102.18 325.48 102.59 323.36 103.8 322.75 103.44"/><polygon class="cls-3" points="322.75 100.99 322.75 103.44 324.81 102.18 322.75 100.99"/><polygon class="cls-3" points="322.28 103.71 320.15 102.48 320.15 100.03 322.28 101.25 322.28 103.71"/><polygon class="cls-3" points="320.15 102.48 318.03 101.25 318.03 98.8 320.15 100.03 320.15 102.48"/><polygon class="cls-3" points="320.15 104.93 318.03 103.71 318.03 101.25 320.15 102.48 320.15 104.93"/><polygon class="cls-3" points="320.77 106.12 316.79 103.82 316.79 102.99 320.77 105.28 320.77 106.12"/><polygon class="cls-3" points="314.67 104.2 316.26 103.29 315.92 104.92 314.67 104.2"/><polygon class="cls-2" points="320.16 104.92 318.04 103.69 318.04 101.24 320.16 102.46 320.16 104.92"/><polygon class="cls-2" points="318.04 103.69 315.92 102.46 315.92 100.01 318.04 101.24 318.04 103.69"/><polygon class="cls-2" points="318.04 106.14 315.92 104.92 315.92 102.46 318.04 103.69 318.04 106.14"/><polygon class="cls-2" points="318.65 107.33 314.67 105.03 314.67 104.2 318.65 106.5 318.65 107.33"/><polygon class="cls-3" points="315.92 100.01 318.03 98.8 322.28 101.25 320.16 102.46 315.92 100.01"/><polygon class="cls-3" points="320.16 104.92 322.28 103.71 322.28 101.25 320.16 102.46 320.16 104.92"/><polygon class="cls-3" points="320.77 105.28 318.65 106.5 318.65 107.33 320.77 106.12 320.77 105.28"/><polygon class="cls-3" points="318.04 106.14 320.1 104.88 320.77 105.28 318.65 106.5 318.04 106.14"/><polygon class="cls-3" points="318.04 103.69 318.04 106.14 320.1 104.88 318.04 103.69"/><polygon class="cls-3" points="317.57 106.41 315.44 105.18 315.44 102.73 317.57 103.95 317.57 106.41"/><polygon class="cls-3" points="315.44 105.18 313.32 103.95 313.32 101.5 315.44 102.73 315.44 105.18"/><polygon class="cls-3" points="315.44 107.63 313.32 106.4 313.32 103.95 315.44 105.18 315.44 107.63"/><polygon class="cls-3" points="316.06 108.82 312.08 106.52 312.08 105.69 316.06 107.98 316.06 108.82"/><polygon class="cls-3" points="309.96 106.9 311.55 105.99 311.2 107.61 309.96 106.9"/><polygon class="cls-2" points="315.45 107.61 313.33 106.39 313.33 103.94 315.45 105.16 315.45 107.61"/><polygon class="cls-2" points="313.33 106.39 311.2 105.16 311.2 102.71 313.33 103.94 313.33 106.39"/><polygon class="cls-2" points="313.33 108.84 311.2 107.61 311.2 105.16 313.33 106.39 313.33 108.84"/><polygon class="cls-2" points="313.94 110.03 309.96 107.73 309.96 106.9 313.94 109.19 313.94 110.03"/><polygon class="cls-3" points="311.2 102.71 313.32 101.5 317.57 103.95 315.45 105.16 311.2 102.71"/><polygon class="cls-3" points="315.45 107.61 317.57 106.41 317.57 103.95 315.45 105.16 315.45 107.61"/><polygon class="cls-3" points="316.06 107.98 313.94 109.19 313.94 110.03 316.06 108.82 316.06 107.98"/><polygon class="cls-3" points="313.33 108.84 315.39 107.58 316.06 107.98 313.94 109.19 313.33 108.84"/><polygon class="cls-3" points="313.33 106.39 313.33 108.84 315.39 107.58 313.33 106.39"/><polygon class="cls-3" points="312.86 109.1 310.73 107.88 310.73 105.42 312.86 106.65 312.86 109.1"/><polygon class="cls-3" points="310.73 107.88 308.61 106.65 308.61 104.2 310.73 105.42 310.73 107.88"/><polygon class="cls-3" points="310.73 110.33 308.61 109.1 308.61 106.65 310.73 107.88 310.73 110.33"/><polygon class="cls-3" points="311.35 111.52 307.37 109.22 307.37 108.39 311.35 110.68 311.35 111.52"/><polygon class="cls-3" points="305.25 109.6 306.83 108.69 306.49 110.31 305.25 109.6"/><polygon class="cls-2" points="310.74 110.31 308.62 109.09 308.62 106.64 310.74 107.86 310.74 110.31"/><polygon class="cls-2" points="308.62 109.09 306.49 107.86 306.49 105.41 308.62 106.64 308.62 109.09"/><polygon class="cls-2" points="308.62 111.54 306.49 110.31 306.49 107.86 308.62 109.09 308.62 111.54"/><polygon class="cls-2" points="309.23 112.73 305.25 110.43 305.25 109.6 309.23 111.89 309.23 112.73"/><polygon class="cls-3" points="306.49 105.41 308.61 104.2 312.86 106.65 310.74 107.86 306.49 105.41"/><polygon class="cls-3" points="310.74 110.31 312.86 109.1 312.86 106.65 310.74 107.86 310.74 110.31"/><polygon class="cls-3" points="311.35 110.68 309.23 111.89 309.23 112.73 311.35 111.52 311.35 110.68"/><polygon class="cls-3" points="308.62 111.54 310.68 110.28 311.35 110.68 309.23 111.89 308.62 111.54"/><polygon class="cls-3" points="308.62 109.09 308.62 111.54 310.68 110.28 308.62 109.09"/><polygon class="cls-3" points="308.15 111.8 306.02 110.58 306.02 108.12 308.15 109.35 308.15 111.8"/><polygon class="cls-3" points="306.02 110.58 303.9 109.35 303.9 106.9 306.02 108.12 306.02 110.58"/><polygon class="cls-3" points="306.02 113.03 303.9 111.8 303.9 109.35 306.02 110.58 306.02 113.03"/><polygon class="cls-3" points="306.63 114.22 302.65 111.92 302.65 111.08 306.63 113.38 306.63 114.22"/><polygon class="cls-3" points="300.54 112.3 302.12 111.39 301.78 113.01 300.54 112.3"/><polygon class="cls-2" points="306.03 113.01 303.91 111.79 303.91 109.33 306.03 110.56 306.03 113.01"/><polygon class="cls-2" points="303.91 111.79 301.78 110.56 301.78 108.11 303.91 109.33 303.91 111.79"/><polygon class="cls-2" points="303.91 114.24 301.78 113.01 301.78 110.56 303.91 111.79 303.91 114.24"/><polygon class="cls-2" points="304.52 115.43 300.54 113.13 300.54 112.3 304.52 114.59 304.52 115.43"/><polygon class="cls-3" points="301.78 108.11 303.9 106.9 308.15 109.35 306.03 110.56 301.78 108.11"/><polygon class="cls-3" points="306.03 113.01 308.15 111.8 308.15 109.35 306.03 110.56 306.03 113.01"/><polygon class="cls-3" points="306.63 113.38 304.52 114.59 304.52 115.43 306.63 114.22 306.63 113.38"/><polygon class="cls-3" points="303.91 114.24 305.97 112.97 306.63 113.38 304.52 114.59 303.91 114.24"/><polygon class="cls-3" points="303.91 111.79 303.91 114.24 305.97 112.97 303.91 111.79"/><polygon class="cls-3" points="303.44 114.5 301.31 113.28 301.31 110.82 303.44 112.05 303.44 114.5"/><polygon class="cls-3" points="301.31 113.28 299.19 112.05 299.19 109.6 301.31 110.82 301.31 113.28"/><polygon class="cls-3" points="301.31 115.73 299.19 114.5 299.19 112.05 301.31 113.28 301.31 115.73"/><polygon class="cls-3" points="301.92 116.91 297.94 114.62 297.94 113.78 301.92 116.08 301.92 116.91"/><polygon class="cls-3" points="295.83 114.99 297.41 114.08 297.07 115.71 295.83 114.99"/><polygon class="cls-2" points="301.32 115.71 299.2 114.49 299.2 112.03 301.32 113.26 301.32 115.71"/><polygon class="cls-2" points="299.2 114.49 297.07 113.26 297.07 110.81 299.2 112.03 299.2 114.49"/><polygon class="cls-2" points="299.2 116.94 297.07 115.71 297.07 113.26 299.2 114.49 299.2 116.94"/><polygon class="cls-2" points="299.81 118.13 295.83 115.83 295.83 114.99 299.81 117.29 299.81 118.13"/><polygon class="cls-3" points="297.07 110.81 299.19 109.6 303.44 112.05 301.32 113.26 297.07 110.81"/><polygon class="cls-3" points="301.32 115.71 303.44 114.5 303.44 112.05 301.32 113.26 301.32 115.71"/><polygon class="cls-3" points="301.92 116.08 299.81 117.29 299.81 118.13 301.92 116.91 301.92 116.08"/><polygon class="cls-3" points="299.2 116.94 301.25 115.67 301.92 116.08 299.81 117.29 299.2 116.94"/><polygon class="cls-3" points="299.2 114.49 299.2 116.94 301.25 115.67 299.2 114.49"/><polygon class="cls-3" points="298.72 117.2 296.6 115.97 296.6 113.52 298.72 114.75 298.72 117.2"/><polygon class="cls-3" points="296.6 115.97 294.48 114.75 294.48 112.3 296.6 113.52 296.6 115.97"/><polygon class="cls-3" points="296.6 118.43 294.48 117.2 294.48 114.75 296.6 115.97 296.6 118.43"/><polygon class="cls-3" points="297.21 119.61 293.23 117.31 293.23 116.48 297.21 118.78 297.21 119.61"/><polygon class="cls-3" points="291.12 117.69 292.7 116.78 292.36 118.41 291.12 117.69"/><polygon class="cls-2" points="296.61 118.41 294.49 117.18 294.49 114.73 296.61 115.96 296.61 118.41"/><polygon class="cls-2" points="294.49 117.18 292.36 115.96 292.36 113.51 294.49 114.73 294.49 117.18"/><polygon class="cls-2" points="294.49 119.64 292.36 118.41 292.36 115.96 294.49 117.18 294.49 119.64"/><polygon class="cls-2" points="295.1 120.82 291.12 118.53 291.12 117.69 295.1 119.99 295.1 120.82"/><polygon class="cls-3" points="292.36 113.51 294.48 112.3 298.72 114.75 296.61 115.96 292.36 113.51"/><polygon class="cls-3" points="296.61 118.41 298.72 117.2 298.72 114.75 296.61 115.96 296.61 118.41"/><polygon class="cls-3" points="297.21 118.78 295.1 119.99 295.1 120.82 297.21 119.61 297.21 118.78"/><polygon class="cls-3" points="294.49 119.64 296.54 118.37 297.21 118.78 295.1 119.99 294.49 119.64"/><polygon class="cls-3" points="294.49 117.18 294.49 119.64 296.54 118.37 294.49 117.18"/><polygon class="cls-3" points="294.01 119.9 291.89 118.67 291.89 116.22 294.01 117.45 294.01 119.9"/><polygon class="cls-3" points="291.89 118.67 289.76 117.45 289.76 114.99 291.89 116.22 291.89 118.67"/><polygon class="cls-3" points="291.89 121.13 289.76 119.9 289.76 117.45 291.89 118.67 291.89 121.13"/><polygon class="cls-3" points="292.5 122.31 288.52 120.01 288.52 119.18 292.5 121.48 292.5 122.31"/><polygon class="cls-3" points="286.41 120.39 287.99 119.48 287.65 121.11 286.41 120.39"/><polygon class="cls-2" points="291.9 121.11 289.77 119.88 289.77 117.43 291.9 118.66 291.9 121.11"/><polygon class="cls-2" points="289.77 119.88 287.65 118.66 287.65 116.2 289.77 117.43 289.77 119.88"/><polygon class="cls-2" points="289.77 122.34 287.65 121.11 287.65 118.66 289.77 119.88 289.77 122.34"/><polygon class="cls-2" points="290.39 123.52 286.41 121.22 286.41 120.39 290.39 122.69 290.39 123.52"/><polygon class="cls-3" points="287.65 116.2 289.76 114.99 294.01 117.45 291.9 118.66 287.65 116.2"/><polygon class="cls-3" points="291.9 121.11 294.01 119.9 294.01 117.45 291.9 118.66 291.9 121.11"/><polygon class="cls-3" points="292.5 121.48 290.39 122.69 290.39 123.52 292.5 122.31 292.5 121.48"/><polygon class="cls-3" points="289.77 122.34 291.83 121.07 292.5 121.48 290.39 122.69 289.77 122.34"/><polygon class="cls-3" points="289.77 119.88 289.77 122.34 291.83 121.07 289.77 119.88"/><polygon class="cls-3" points="289.3 122.6 287.18 121.37 287.18 118.92 289.3 120.14 289.3 122.6"/><polygon class="cls-3" points="287.18 121.37 285.05 120.14 285.05 117.69 287.18 118.92 287.18 121.37"/><polygon class="cls-3" points="287.18 123.82 285.05 122.6 285.05 120.14 287.18 121.37 287.18 123.82"/><polygon class="cls-3" points="287.79 125.01 283.81 122.71 283.81 121.88 287.79 124.18 287.79 125.01"/><polygon class="cls-3" points="281.69 123.09 283.28 122.18 282.94 123.81 281.69 123.09"/><polygon class="cls-2" points="287.19 123.81 285.06 122.58 285.06 120.13 287.19 121.36 287.19 123.81"/><polygon class="cls-2" points="285.06 122.58 282.94 121.36 282.94 118.9 285.06 120.13 285.06 122.58"/><polygon class="cls-2" points="285.06 125.03 282.94 123.81 282.94 121.36 285.06 122.58 285.06 125.03"/><polygon class="cls-2" points="285.68 126.22 281.69 123.92 281.69 123.09 285.68 125.39 285.68 126.22"/><polygon class="cls-3" points="282.94 118.9 285.05 117.69 289.3 120.14 287.19 121.36 282.94 118.9"/><polygon class="cls-3" points="287.19 123.81 289.3 122.6 289.3 120.14 287.19 121.36 287.19 123.81"/><polygon class="cls-3" points="287.79 124.18 285.68 125.39 285.68 126.22 287.79 125.01 287.79 124.18"/><polygon class="cls-3" points="285.06 125.03 287.12 123.77 287.79 124.18 285.68 125.39 285.06 125.03"/><polygon class="cls-3" points="285.06 122.58 285.06 125.03 287.12 123.77 285.06 122.58"/><polygon class="cls-3" points="415.36 121.32 413.23 122.54 413.23 125 415.36 123.77 415.36 121.32"/><polygon class="cls-3" points="413.23 122.54 411.11 123.77 411.11 126.22 413.23 125 413.23 122.54"/><polygon class="cls-3" points="413.23 120.09 411.11 121.32 411.11 123.77 413.23 122.54 413.23 120.09"/><polygon class="cls-3" points="413.85 118.9 409.87 121.2 409.87 122.03 413.85 119.74 413.85 118.9"/><polygon class="cls-3" points="407.75 120.82 409.34 121.73 409 120.11 407.75 120.82"/><polygon class="cls-2" points="413.24 120.11 411.12 121.33 411.12 123.78 413.24 122.56 413.24 120.11"/><polygon class="cls-2" points="411.12 121.33 409 122.56 409 125.01 411.12 123.78 411.12 121.33"/><polygon class="cls-2" points="411.12 118.88 409 120.11 409 122.56 411.12 121.33 411.12 118.88"/><polygon class="cls-2" points="411.73 117.69 407.75 119.99 407.75 120.82 411.73 118.53 411.73 117.69"/><polygon class="cls-3" points="409 125.01 411.11 126.22 415.36 123.77 413.24 122.56 409 125.01"/><polygon class="cls-3" points="413.24 120.11 415.36 121.32 415.36 123.77 413.24 122.56 413.24 120.11"/><polygon class="cls-3" points="413.85 119.74 411.73 118.53 411.73 117.69 413.85 118.9 413.85 119.74"/><polygon class="cls-3" points="411.12 118.88 413.18 120.14 413.85 119.74 411.73 118.53 411.12 118.88"/><polygon class="cls-3" points="411.12 121.33 411.12 118.88 413.18 120.14 411.12 121.33"/><polygon class="cls-3" points="410.65 118.62 408.52 119.84 408.52 122.3 410.65 121.07 410.65 118.62"/><polygon class="cls-3" points="408.52 119.84 406.4 121.07 406.4 123.52 408.52 122.3 408.52 119.84"/><polygon class="cls-3" points="408.52 117.39 406.4 118.62 406.4 121.07 408.52 119.84 408.52 117.39"/><polygon class="cls-3" points="409.13 116.2 405.15 118.5 405.15 119.34 409.13 117.04 409.13 116.2"/><polygon class="cls-3" points="403.04 118.13 404.63 119.03 404.28 117.41 403.04 118.13"/><polygon class="cls-2" points="408.53 117.41 406.41 118.63 406.41 121.09 408.53 119.86 408.53 117.41"/><polygon class="cls-2" points="406.41 118.63 404.28 119.86 404.28 122.31 406.41 121.09 406.41 118.63"/><polygon class="cls-2" points="406.41 116.18 404.28 117.41 404.28 119.86 406.41 118.63 406.41 116.18"/><polygon class="cls-2" points="407.02 114.99 403.04 117.29 403.04 118.13 407.02 115.83 407.02 114.99"/><polygon class="cls-3" points="404.28 122.31 406.4 123.52 410.65 121.07 408.53 119.86 404.28 122.31"/><polygon class="cls-3" points="408.53 117.41 410.65 118.62 410.65 121.07 408.53 119.86 408.53 117.41"/><polygon class="cls-3" points="409.13 117.04 407.02 115.83 407.02 114.99 409.13 116.2 409.13 117.04"/><polygon class="cls-3" points="406.41 116.18 408.47 117.44 409.13 117.04 407.02 115.83 406.41 116.18"/><polygon class="cls-3" points="406.41 118.63 406.41 116.18 408.47 117.44 406.41 118.63"/><polygon class="cls-3" points="405.94 115.92 403.81 117.14 403.81 119.6 405.94 118.37 405.94 115.92"/><polygon class="cls-3" points="403.81 117.14 401.69 118.37 401.69 120.82 403.81 119.6 403.81 117.14"/><polygon class="cls-3" points="403.81 114.69 401.69 115.92 401.69 118.37 403.81 117.14 403.81 114.69"/><polygon class="cls-3" points="404.42 113.51 400.44 115.8 400.44 116.64 404.42 114.34 404.42 113.51"/><polygon class="cls-3" points="398.33 115.43 399.91 116.33 399.57 114.71 398.33 115.43"/><polygon class="cls-2" points="403.82 114.71 401.7 115.93 401.7 118.39 403.82 117.16 403.82 114.71"/><polygon class="cls-2" points="401.7 115.93 399.57 117.16 399.57 119.61 401.7 118.39 401.7 115.93"/><polygon class="cls-2" points="401.7 113.48 399.57 114.71 399.57 117.16 401.7 115.93 401.7 113.48"/><polygon class="cls-2" points="402.31 112.3 398.33 114.59 398.33 115.43 402.31 113.13 402.31 112.3"/><polygon class="cls-3" points="399.57 119.61 401.69 120.82 405.94 118.37 403.82 117.16 399.57 119.61"/><polygon class="cls-3" points="403.82 114.71 405.94 115.92 405.94 118.37 403.82 117.16 403.82 114.71"/><polygon class="cls-3" points="404.42 114.34 402.31 113.13 402.31 112.3 404.42 113.51 404.42 114.34"/><polygon class="cls-3" points="401.7 113.48 403.75 114.75 404.42 114.34 402.31 113.13 401.7 113.48"/><polygon class="cls-3" points="401.7 115.93 401.7 113.48 403.75 114.75 401.7 115.93"/><polygon class="cls-3" points="401.23 113.22 399.1 114.45 399.1 116.9 401.23 115.67 401.23 113.22"/><polygon class="cls-3" points="399.1 114.45 396.98 115.67 396.98 118.13 399.1 116.9 399.1 114.45"/><polygon class="cls-3" points="399.1 111.99 396.98 113.22 396.98 115.67 399.1 114.45 399.1 111.99"/><polygon class="cls-3" points="399.71 110.81 395.73 113.11 395.73 113.94 399.71 111.64 399.71 110.81"/><polygon class="cls-3" points="393.62 112.73 395.2 113.64 394.86 112.01 393.62 112.73"/><polygon class="cls-2" points="399.11 112.01 396.99 113.23 396.99 115.69 399.11 114.46 399.11 112.01"/><polygon class="cls-2" points="396.99 113.23 394.86 114.46 394.86 116.91 396.99 115.69 396.99 113.23"/><polygon class="cls-2" points="396.99 110.78 394.86 112.01 394.86 114.46 396.99 113.23 396.99 110.78"/><polygon class="cls-2" points="397.6 109.6 393.62 111.89 393.62 112.73 397.6 110.43 397.6 109.6"/><polygon class="cls-3" points="394.86 116.91 396.98 118.13 401.23 115.67 399.11 114.46 394.86 116.91"/><polygon class="cls-3" points="399.11 112.01 401.23 113.22 401.23 115.67 399.11 114.46 399.11 112.01"/><polygon class="cls-3" points="399.71 111.64 397.6 110.43 397.6 109.6 399.71 110.81 399.71 111.64"/><polygon class="cls-3" points="396.99 110.78 399.04 112.05 399.71 111.64 397.6 110.43 396.99 110.78"/><polygon class="cls-3" points="396.99 113.23 396.99 110.78 399.04 112.05 396.99 113.23"/><polygon class="cls-3" points="396.51 110.52 394.39 111.75 394.39 114.2 396.51 112.97 396.51 110.52"/><polygon class="cls-3" points="394.39 111.75 392.27 112.97 392.27 115.43 394.39 114.2 394.39 111.75"/><polygon class="cls-3" points="394.39 109.3 392.27 110.52 392.27 112.97 394.39 111.75 394.39 109.3"/><polygon class="cls-3" points="395 108.11 391.02 110.41 391.02 111.24 395 108.94 395 108.11"/><polygon class="cls-3" points="388.91 110.03 390.49 110.94 390.15 109.31 388.91 110.03"/><polygon class="cls-2" points="394.4 109.31 392.27 110.54 392.27 112.99 394.4 111.76 394.4 109.31"/><polygon class="cls-2" points="392.27 110.54 390.15 111.76 390.15 114.22 392.27 112.99 392.27 110.54"/><polygon class="cls-2" points="392.27 108.08 390.15 109.31 390.15 111.76 392.27 110.54 392.27 108.08"/><polygon class="cls-2" points="392.89 106.9 388.91 109.19 388.91 110.03 392.89 107.73 392.89 106.9"/><polygon class="cls-3" points="390.15 114.22 392.27 115.43 396.51 112.97 394.4 111.76 390.15 114.22"/><polygon class="cls-3" points="394.4 109.31 396.51 110.52 396.51 112.97 394.4 111.76 394.4 109.31"/><polygon class="cls-3" points="395 108.94 392.89 107.73 392.89 106.9 395 108.11 395 108.94"/><polygon class="cls-3" points="392.27 108.08 394.33 109.35 395 108.94 392.89 107.73 392.27 108.08"/><polygon class="cls-3" points="392.27 110.54 392.27 108.08 394.33 109.35 392.27 110.54"/><polygon class="cls-3" points="391.8 107.82 389.68 109.05 389.68 111.5 391.8 110.28 391.8 107.82"/><polygon class="cls-3" points="389.68 109.05 387.56 110.28 387.56 112.73 389.68 111.5 389.68 109.05"/><polygon class="cls-3" points="389.68 106.6 387.56 107.82 387.56 110.28 389.68 109.05 389.68 106.6"/><polygon class="cls-3" points="390.29 105.41 386.31 107.71 386.31 108.54 390.29 106.24 390.29 105.41"/><polygon class="cls-3" points="384.2 107.33 385.78 108.24 385.44 106.61 384.2 107.33"/><polygon class="cls-2" points="389.69 106.61 387.56 107.84 387.56 110.29 389.69 109.06 389.69 106.61"/><polygon class="cls-2" points="387.56 107.84 385.44 109.06 385.44 111.52 387.56 110.29 387.56 107.84"/><polygon class="cls-2" points="387.56 105.39 385.44 106.61 385.44 109.06 387.56 107.84 387.56 105.39"/><polygon class="cls-2" points="388.18 104.2 384.2 106.5 384.2 107.33 388.18 105.03 388.18 104.2"/><polygon class="cls-3" points="385.44 111.52 387.56 112.73 391.8 110.28 389.69 109.06 385.44 111.52"/><polygon class="cls-3" points="389.69 106.61 391.8 107.82 391.8 110.28 389.69 109.06 389.69 106.61"/><polygon class="cls-3" points="390.29 106.24 388.18 105.03 388.18 104.2 390.29 105.41 390.29 106.24"/><polygon class="cls-3" points="387.56 105.39 389.62 106.65 390.29 106.24 388.18 105.03 387.56 105.39"/><polygon class="cls-3" points="387.56 107.84 387.56 105.39 389.62 106.65 387.56 107.84"/><polygon class="cls-3" points="387.09 105.12 384.97 106.35 384.97 108.8 387.09 107.58 387.09 105.12"/><polygon class="cls-3" points="384.97 106.35 382.84 107.58 382.84 110.03 384.97 108.8 384.97 106.35"/><polygon class="cls-3" points="384.97 103.9 382.84 105.12 382.84 107.58 384.97 106.35 384.97 103.9"/><polygon class="cls-3" points="385.58 102.71 381.6 105.01 381.6 105.84 385.58 103.54 385.58 102.71"/><polygon class="cls-3" points="379.49 104.63 381.07 105.54 380.73 103.91 379.49 104.63"/><polygon class="cls-2" points="384.98 103.91 382.85 105.14 382.85 107.59 384.98 106.36 384.98 103.91"/><polygon class="cls-2" points="382.85 105.14 380.73 106.36 380.73 108.82 382.85 107.59 382.85 105.14"/><polygon class="cls-2" points="382.85 102.69 380.73 103.91 380.73 106.36 382.85 105.14 382.85 102.69"/><polygon class="cls-2" points="383.46 101.5 379.49 103.8 379.49 104.63 383.46 102.33 383.46 101.5"/><polygon class="cls-3" points="380.73 108.82 382.84 110.03 387.09 107.58 384.98 106.36 380.73 108.82"/><polygon class="cls-3" points="384.98 103.91 387.09 105.12 387.09 107.58 384.98 106.36 384.98 103.91"/><polygon class="cls-3" points="385.58 103.54 383.46 102.33 383.46 101.5 385.58 102.71 385.58 103.54"/><polygon class="cls-3" points="382.85 102.69 384.91 103.95 385.58 103.54 383.46 102.33 382.85 102.69"/><polygon class="cls-3" points="382.85 105.14 382.85 102.69 384.91 103.95 382.85 105.14"/><polygon class="cls-3" points="382.38 102.42 380.26 103.65 380.26 106.1 382.38 104.88 382.38 102.42"/><polygon class="cls-3" points="380.26 103.65 378.13 104.88 378.13 107.33 380.26 106.1 380.26 103.65"/><polygon class="cls-3" points="380.26 101.2 378.13 102.42 378.13 104.88 380.26 103.65 380.26 101.2"/><polygon class="cls-3" points="380.87 100.01 376.89 102.31 376.89 103.14 380.87 100.84 380.87 100.01"/><polygon class="cls-3" points="374.77 101.93 376.36 102.84 376.02 101.21 374.77 101.93"/><polygon class="cls-2" points="380.27 101.21 378.14 102.44 378.14 104.89 380.27 103.67 380.27 101.21"/><polygon class="cls-2" points="378.14 102.44 376.02 103.67 376.02 106.12 378.14 104.89 378.14 102.44"/><polygon class="cls-2" points="378.14 99.99 376.02 101.21 376.02 103.67 378.14 102.44 378.14 99.99"/><polygon class="cls-2" points="378.75 98.8 374.77 101.1 374.77 101.93 378.75 99.63 378.75 98.8"/><polygon class="cls-3" points="376.02 106.12 378.13 107.33 382.38 104.88 380.27 103.67 376.02 106.12"/><polygon class="cls-3" points="380.27 101.21 382.38 102.42 382.38 104.88 380.27 103.67 380.27 101.21"/><polygon class="cls-3" points="380.87 100.84 378.75 99.63 378.75 98.8 380.87 100.01 380.87 100.84"/><polygon class="cls-3" points="378.14 99.99 380.2 101.25 380.87 100.84 378.75 99.63 378.14 99.99"/><polygon class="cls-3" points="378.14 102.44 378.14 99.99 380.2 101.25 378.14 102.44"/><polygon class="cls-3" points="377.67 99.73 375.55 100.95 375.55 103.4 377.67 102.18 377.67 99.73"/><polygon class="cls-3" points="375.55 100.95 373.42 102.18 373.42 104.63 375.55 103.4 375.55 100.95"/><polygon class="cls-3" points="375.55 98.5 373.42 99.73 373.42 102.18 375.55 100.95 375.55 98.5"/><polygon class="cls-3" points="376.16 97.31 372.18 99.61 372.18 100.44 376.16 98.15 376.16 97.31"/><polygon class="cls-3" points="370.06 99.23 371.65 100.14 371.31 98.52 370.06 99.23"/><polygon class="cls-2" points="375.56 98.52 373.43 99.74 373.43 102.19 375.56 100.97 375.56 98.52"/><polygon class="cls-2" points="373.43 99.74 371.31 100.97 371.31 103.42 373.43 102.19 373.43 99.74"/><polygon class="cls-2" points="373.43 97.29 371.31 98.52 371.31 100.97 373.43 99.74 373.43 97.29"/><polygon class="cls-2" points="374.04 96.1 370.06 98.4 370.06 99.23 374.04 96.94 374.04 96.1"/><polygon class="cls-3" points="371.31 103.42 373.42 104.63 377.67 102.18 375.56 100.97 371.31 103.42"/><polygon class="cls-3" points="375.56 98.52 377.67 99.73 377.67 102.18 375.56 100.97 375.56 98.52"/><polygon class="cls-3" points="376.16 98.15 374.04 96.94 374.04 96.1 376.16 97.31 376.16 98.15"/><polygon class="cls-3" points="373.43 97.29 375.49 98.55 376.16 98.15 374.04 96.94 373.43 97.29"/><polygon class="cls-3" points="373.43 99.74 373.43 97.29 375.49 98.55 373.43 99.74"/><polygon class="cls-3" points="372.96 97.03 370.83 98.25 370.83 100.71 372.96 99.48 372.96 97.03"/><polygon class="cls-3" points="370.83 98.25 368.71 99.48 368.71 101.93 370.83 100.71 370.83 98.25"/><polygon class="cls-3" points="370.83 95.8 368.71 97.03 368.71 99.48 370.83 98.25 370.83 95.8"/><polygon class="cls-3" points="371.45 94.61 367.47 96.91 367.47 97.75 371.45 95.45 371.45 94.61"/><polygon class="cls-3" points="365.35 96.53 366.94 97.44 366.6 95.82 365.35 96.53"/><polygon class="cls-2" points="370.84 95.82 368.72 97.04 368.72 99.5 370.84 98.27 370.84 95.82"/><polygon class="cls-2" points="368.72 97.04 366.6 98.27 366.6 100.72 368.72 99.5 368.72 97.04"/><polygon class="cls-2" points="368.72 94.59 366.6 95.82 366.6 98.27 368.72 97.04 368.72 94.59"/><polygon class="cls-2" points="369.33 93.4 365.35 95.7 365.35 96.53 369.33 94.24 369.33 93.4"/><polygon class="cls-3" points="366.6 100.72 368.71 101.93 372.96 99.48 370.84 98.27 366.6 100.72"/><polygon class="cls-3" points="370.84 95.82 372.96 97.03 372.96 99.48 370.84 98.27 370.84 95.82"/><polygon class="cls-3" points="371.45 95.45 369.33 94.24 369.33 93.4 371.45 94.61 371.45 95.45"/><polygon class="cls-3" points="368.72 94.59 370.78 95.85 371.45 95.45 369.33 94.24 368.72 94.59"/><polygon class="cls-3" points="368.72 97.04 368.72 94.59 370.78 95.85 368.72 97.04"/><polygon class="cls-3" points="368.25 94.33 366.12 95.55 366.12 98.01 368.25 96.78 368.25 94.33"/><polygon class="cls-3" points="366.12 95.55 364 96.78 364 99.23 366.12 98.01 366.12 95.55"/><polygon class="cls-3" points="366.12 93.1 364 94.33 364 96.78 366.12 95.55 366.12 93.1"/><polygon class="cls-3" points="366.74 91.92 362.76 94.21 362.76 95.05 366.74 92.75 366.74 91.92"/><polygon class="cls-3" points="360.64 93.83 362.23 94.74 361.88 93.12 360.64 93.83"/><polygon class="cls-2" points="366.13 93.12 364.01 94.34 364.01 96.8 366.13 95.57 366.13 93.12"/><polygon class="cls-2" points="364.01 94.34 361.88 95.57 361.88 98.02 364.01 96.8 364.01 94.34"/><polygon class="cls-2" points="364.01 91.89 361.88 93.12 361.88 95.57 364.01 94.34 364.01 91.89"/><polygon class="cls-2" points="364.62 90.7 360.64 93 360.64 93.83 364.62 91.54 364.62 90.7"/><polygon class="cls-3" points="361.88 98.02 364 99.23 368.25 96.78 366.13 95.57 361.88 98.02"/><polygon class="cls-3" points="366.13 93.12 368.25 94.33 368.25 96.78 366.13 95.57 366.13 93.12"/><polygon class="cls-3" points="366.74 92.75 364.62 91.54 364.62 90.7 366.74 91.92 366.74 92.75"/><polygon class="cls-3" points="364.01 91.89 366.07 93.16 366.74 92.75 364.62 91.54 364.01 91.89"/><polygon class="cls-3" points="364.01 94.34 364.01 91.89 366.07 93.16 364.01 94.34"/><polygon class="cls-3" points="363.54 91.63 361.41 92.86 361.41 95.31 363.54 94.08 363.54 91.63"/><polygon class="cls-3" points="361.41 92.86 359.29 94.08 359.29 96.53 361.41 95.31 361.41 92.86"/><polygon class="cls-3" points="361.41 90.4 359.29 91.63 359.29 94.08 361.41 92.86 361.41 90.4"/><polygon class="cls-3" points="362.02 89.22 358.05 91.51 358.05 92.35 362.02 90.05 362.02 89.22"/><polygon class="cls-3" points="355.93 91.14 357.51 92.05 357.17 90.42 355.93 91.14"/><polygon class="cls-2" points="361.42 90.42 359.3 91.64 359.3 94.1 361.42 92.87 361.42 90.42"/><polygon class="cls-2" points="359.3 91.64 357.17 92.87 357.17 95.32 359.3 94.1 359.3 91.64"/><polygon class="cls-2" points="359.3 89.19 357.17 90.42 357.17 92.87 359.3 91.64 359.3 89.19"/><polygon class="cls-2" points="359.91 88 355.93 90.3 355.93 91.14 359.91 88.84 359.91 88"/><polygon class="cls-3" points="357.17 95.32 359.29 96.53 363.54 94.08 361.42 92.87 357.17 95.32"/><polygon class="cls-3" points="361.42 90.42 363.54 91.63 363.54 94.08 361.42 92.87 361.42 90.42"/><polygon class="cls-3" points="362.02 90.05 359.91 88.84 359.91 88 362.02 89.22 362.02 90.05"/><polygon class="cls-3" points="359.3 89.19 361.36 90.46 362.02 90.05 359.91 88.84 359.3 89.19"/><polygon class="cls-3" points="359.3 91.64 359.3 89.19 361.36 90.46 359.3 91.64"/><polygon class="cls-3" points="358.82 88.93 356.7 90.16 356.7 92.61 358.82 91.38 358.82 88.93"/><polygon class="cls-3" points="356.7 90.16 354.58 91.38 354.58 93.83 356.7 92.61 356.7 90.16"/><polygon class="cls-3" points="356.7 87.7 354.58 88.93 354.58 91.38 356.7 90.16 356.7 87.7"/><polygon class="cls-3" points="357.31 86.52 353.33 88.81 353.33 89.65 357.31 87.35 357.31 86.52"/><polygon class="cls-3" points="351.22 88.44 352.8 89.35 352.46 87.72 351.22 88.44"/><polygon class="cls-2" points="356.71 87.72 354.59 88.95 354.59 91.4 356.71 90.17 356.71 87.72"/><polygon class="cls-2" points="354.59 88.95 352.46 90.17 352.46 92.62 354.59 91.4 354.59 88.95"/><polygon class="cls-2" points="354.59 86.49 352.46 87.72 352.46 90.17 354.59 88.95 354.59 86.49"/><polygon class="cls-2" points="355.2 85.31 351.22 87.6 351.22 88.44 355.2 86.14 355.2 85.31"/><polygon class="cls-3" points="352.46 92.62 354.58 93.83 358.82 91.38 356.71 90.17 352.46 92.62"/><polygon class="cls-3" points="356.71 87.72 358.82 88.93 358.82 91.38 356.71 90.17 356.71 87.72"/><polygon class="cls-3" points="357.31 87.35 355.2 86.14 355.2 85.31 357.31 86.52 357.31 87.35"/><polygon class="cls-3" points="354.59 86.49 356.64 87.76 357.31 87.35 355.2 86.14 354.59 86.49"/><polygon class="cls-3" points="354.59 88.95 354.59 86.49 356.64 87.76 354.59 88.95"/><path class="cls-6" d="M346.94,167.31l-63.17-36.47c-.83-.48-.73-1.32.23-1.88l62.7-36.2a3.61,3.61,0,0,1,3.25-.13l63.17,36.47c.83.48.73,1.32-.23,1.88l-62.7,36.2A3.61,3.61,0,0,1,346.94,167.31Z" transform="translate(0)"/><polygon class="cls-7" points="413.68 122.6 413.68 130.01 405.21 125.88 413.68 122.6"/><polygon class="cls-6" points="283.22 122.6 283.22 129.97 293.01 126.5 283.22 122.6"/><path class="cls-7" d="M413.13,129.1l-27.47-15.86-37.2,47v7.37h.08a3.72,3.72,0,0,0,1.66-.45l62.7-36.2C413.86,130.43,414,129.59,413.13,129.1Z" transform="translate(0)"/><path class="cls-4" d="M346.94,159.94l-63.17-36.47c-.83-.48-.73-1.32.23-1.88l62.7-36.2a3.61,3.61,0,0,1,3.25-.13l63.17,36.47c.83.48.73,1.32-.23,1.88l-62.7,36.2A3.61,3.61,0,0,1,346.94,159.94Z" transform="translate(0)"/><path class="cls-7" d="M352.86,96.8a9.75,9.75,0,0,1-8.82,0c-2.44-1.41-2.44-3.69,0-5.09a9.75,9.75,0,0,1,8.82,0C355.3,93.11,355.3,95.39,352.86,96.8Z" transform="translate(0)"/><path class="cls-6" d="M352.86,93.61a9.75,9.75,0,0,0-8.82,0,3.8,3.8,0,0,0-1.6,1.59A3.8,3.8,0,0,0,344,96.8a9.74,9.74,0,0,0,8.82,0,3.8,3.8,0,0,0,1.6-1.59A3.8,3.8,0,0,0,352.86,93.61Z" transform="translate(0)"/><polygon class="cls-3" points="343.93 167.43 343.03 166.9 342.98 168.18 343.93 167.43"/><polygon class="cls-2" points="343.93 168.26 339.97 170.55 339.97 169.72 343.93 167.43 343.93 168.26"/><polygon class="cls-2" points="343.03 162.74 340.92 163.96 340.92 161.52 343.03 160.3 343.03 162.74"/><polygon class="cls-2" points="340.92 163.96 338.8 165.18 338.8 162.74 340.92 161.52 340.92 163.96"/><polygon class="cls-2" points="340.92 166.4 338.8 167.62 338.8 165.18 340.92 163.96 340.92 166.4"/><polygon class="cls-2" points="341.53 166.88 337.56 169.17 337.56 168.34 341.53 166.05 341.53 166.88"/><polygon class="cls-3" points="345.44 161.68 343.03 160.3 338.8 162.74 341.21 164.12 345.44 161.68"/><polygon class="cls-3" points="338.8 167.62 341.21 169.01 341.21 164.12 338.8 162.74 338.8 167.62"/><polygon class="cls-3" points="337.56 168.34 339.97 169.72 341.21 169.01 338.8 167.62 337.56 168.34"/><polygon class="cls-3" points="339.97 170.55 337.56 169.17 337.56 168.34 339.97 169.72 339.97 170.55"/><polygon class="cls-3" points="339.12 164.65 338.23 164.12 338.17 165.4 339.12 164.65"/><polygon class="cls-2" points="339.12 165.48 335.16 167.77 335.16 166.94 339.12 164.65 339.12 165.48"/><polygon class="cls-2" points="338.23 159.96 336.11 161.18 336.11 158.74 338.23 157.51 338.23 159.96"/><polygon class="cls-2" points="336.11 161.18 334 162.4 334 159.96 336.11 158.74 336.11 161.18"/><polygon class="cls-2" points="336.11 163.62 334 164.84 334 162.4 336.11 161.18 336.11 163.62"/><polygon class="cls-2" points="336.72 164.1 332.76 166.39 332.76 165.56 336.72 163.27 336.72 164.1"/><polygon class="cls-3" points="340.63 158.9 338.23 157.51 334 159.96 336.4 161.34 340.63 158.9"/><polygon class="cls-3" points="334 164.84 336.4 166.22 336.4 161.34 334 159.96 334 164.84"/><polygon class="cls-3" points="332.76 165.56 335.16 166.94 336.4 166.22 334 164.84 332.76 165.56"/><polygon class="cls-3" points="335.16 167.77 332.76 166.39 332.76 165.56 335.16 166.94 335.16 167.77"/><polygon class="cls-3" points="334.31 161.87 333.42 161.34 333.36 162.62 334.31 161.87"/><polygon class="cls-2" points="334.31 162.7 330.35 164.99 330.35 164.16 334.31 161.87 334.31 162.7"/><polygon class="cls-2" points="333.42 157.18 331.3 158.4 331.3 155.95 333.42 154.73 333.42 157.18"/><polygon class="cls-2" points="331.3 158.4 329.19 159.62 329.19 157.18 331.3 155.95 331.3 158.4"/><polygon class="cls-2" points="331.3 160.84 329.19 162.06 329.19 159.62 331.3 158.4 331.3 160.84"/><polygon class="cls-2" points="331.91 161.32 327.95 163.6 327.95 162.78 331.91 160.49 331.91 161.32"/><polygon class="cls-3" points="335.82 156.12 333.42 154.73 329.19 157.18 331.59 158.56 335.82 156.12"/><polygon class="cls-3" points="329.19 162.06 331.59 163.44 331.59 158.56 329.19 157.18 329.19 162.06"/><polygon class="cls-3" points="327.95 162.78 330.35 164.16 331.59 163.44 329.19 162.06 327.95 162.78"/><polygon class="cls-3" points="330.35 164.99 327.95 163.6 327.95 162.78 330.35 164.16 330.35 164.99"/><polygon class="cls-3" points="329.5 159.09 328.61 158.56 328.55 159.84 329.5 159.09"/><polygon class="cls-2" points="329.5 159.92 325.54 162.21 325.54 161.38 329.5 159.09 329.5 159.92"/><polygon class="cls-2" points="328.61 154.39 326.49 155.61 326.49 153.17 328.61 151.95 328.61 154.39"/><polygon class="cls-2" points="326.49 155.61 324.38 156.84 324.38 154.39 326.49 153.17 326.49 155.61"/><polygon class="cls-2" points="326.49 158.06 324.38 159.28 324.38 156.84 326.49 155.61 326.49 158.06"/><polygon class="cls-2" points="327.1 158.53 323.14 160.82 323.14 159.99 327.1 157.71 327.1 158.53"/><polygon class="cls-3" points="331.01 153.33 328.61 151.95 324.38 154.39 326.78 155.78 331.01 153.33"/><polygon class="cls-3" points="324.38 159.28 326.78 160.66 326.78 155.78 324.38 154.39 324.38 159.28"/><polygon class="cls-3" points="323.14 159.99 325.54 161.38 326.78 160.66 324.38 159.28 323.14 159.99"/><polygon class="cls-3" points="325.54 162.21 323.14 160.82 323.14 159.99 325.54 161.38 325.54 162.21"/><polygon class="cls-3" points="324.7 156.31 323.8 155.77 323.74 157.05 324.7 156.31"/><polygon class="cls-2" points="324.7 157.13 320.73 159.42 320.73 158.59 324.7 156.31 324.7 157.13"/><polygon class="cls-2" points="323.8 151.61 321.68 152.83 321.68 150.39 323.8 149.17 323.8 151.61"/><polygon class="cls-2" points="321.68 152.83 319.57 154.05 319.57 151.61 321.68 150.39 321.68 152.83"/><polygon class="cls-2" points="321.68 155.28 319.57 156.5 319.57 154.05 321.68 152.83 321.68 155.28"/><polygon class="cls-2" points="322.29 155.75 318.33 158.04 318.33 157.21 322.29 154.92 322.29 155.75"/><polygon class="cls-3" points="326.2 150.55 323.8 149.17 319.57 151.61 321.97 152.99 326.2 150.55"/><polygon class="cls-3" points="319.57 156.5 321.97 157.88 321.97 152.99 319.57 151.61 319.57 156.5"/><polygon class="cls-3" points="318.33 157.21 320.73 158.59 321.97 157.88 319.57 156.5 318.33 157.21"/><polygon class="cls-3" points="320.73 159.42 318.33 158.04 318.33 157.21 320.73 158.59 320.73 159.42"/><polygon class="cls-3" points="319.89 153.52 318.99 152.99 318.93 154.27 319.89 153.52"/><polygon class="cls-2" points="319.89 154.35 315.92 156.64 315.92 155.81 319.89 153.52 319.89 154.35"/><polygon class="cls-2" points="318.99 148.83 316.87 150.05 316.87 147.61 318.99 146.39 318.99 148.83"/><polygon class="cls-2" points="316.87 150.05 314.76 151.27 314.76 148.83 316.87 147.61 316.87 150.05"/><polygon class="cls-2" points="316.87 152.49 314.76 153.71 314.76 151.27 316.87 150.05 316.87 152.49"/><polygon class="cls-2" points="317.48 152.97 313.52 155.26 313.52 154.43 317.48 152.14 317.48 152.97"/><polygon class="cls-3" points="321.39 147.77 318.99 146.39 314.76 148.83 317.16 150.21 321.39 147.77"/><polygon class="cls-3" points="314.76 153.71 317.16 155.1 317.16 150.21 314.76 148.83 314.76 153.71"/><polygon class="cls-3" points="313.52 154.43 315.92 155.81 317.16 155.1 314.76 153.71 313.52 154.43"/><polygon class="cls-3" points="315.92 156.64 313.52 155.26 313.52 154.43 315.92 155.81 315.92 156.64"/><polygon class="cls-3" points="315.08 150.74 314.18 150.21 314.12 151.49 315.08 150.74"/><polygon class="cls-2" points="315.08 151.57 311.11 153.86 311.11 153.03 315.08 150.74 315.08 151.57"/><polygon class="cls-2" points="314.18 146.05 312.06 147.27 312.06 144.83 314.18 143.6 314.18 146.05"/><polygon class="cls-2" points="312.06 147.27 309.95 148.49 309.95 146.05 312.06 144.83 312.06 147.27"/><polygon class="cls-2" points="312.06 149.71 309.95 150.93 309.95 148.49 312.06 147.27 312.06 149.71"/><polygon class="cls-2" points="312.67 150.19 308.71 152.48 308.71 151.65 312.67 149.36 312.67 150.19"/><polygon class="cls-3" points="316.58 144.99 314.18 143.6 309.95 146.05 312.35 147.43 316.58 144.99"/><polygon class="cls-3" points="309.95 150.93 312.35 152.31 312.35 147.43 309.95 146.05 309.95 150.93"/><polygon class="cls-3" points="308.71 151.65 311.11 153.03 312.35 152.31 309.95 150.93 308.71 151.65"/><polygon class="cls-3" points="311.11 153.86 308.71 152.48 308.71 151.65 311.11 153.03 311.11 153.86"/><polygon class="cls-3" points="310.27 147.96 309.37 147.43 309.31 148.71 310.27 147.96"/><polygon class="cls-2" points="310.27 148.79 306.3 151.08 306.3 150.25 310.27 147.96 310.27 148.79"/><polygon class="cls-2" points="309.37 143.26 307.25 144.49 307.25 142.04 309.37 140.82 309.37 143.26"/><polygon class="cls-2" points="307.25 144.49 305.14 145.71 305.14 143.26 307.25 142.04 307.25 144.49"/><polygon class="cls-2" points="307.25 146.93 305.14 148.15 305.14 145.71 307.25 144.49 307.25 146.93"/><polygon class="cls-2" points="307.86 147.41 303.9 149.69 303.9 148.87 307.86 146.58 307.86 147.41"/><polygon class="cls-3" points="311.77 142.21 309.37 140.82 305.14 143.26 307.54 144.65 311.77 142.21"/><polygon class="cls-3" points="305.14 148.15 307.54 149.53 307.54 144.65 305.14 143.26 305.14 148.15"/><polygon class="cls-3" points="303.9 148.87 306.3 150.25 307.54 149.53 305.14 148.15 303.9 148.87"/><polygon class="cls-3" points="306.3 151.08 303.9 149.69 303.9 148.87 306.3 150.25 306.3 151.08"/><polygon class="cls-3" points="305.46 145.18 304.56 144.65 304.5 145.93 305.46 145.18"/><polygon class="cls-2" points="305.46 146.01 301.5 148.29 301.5 147.47 305.46 145.18 305.46 146.01"/><polygon class="cls-2" points="304.56 140.48 302.44 141.7 302.44 139.26 304.56 138.04 304.56 140.48"/><polygon class="cls-2" points="302.44 141.7 300.33 142.93 300.33 140.48 302.44 139.26 302.44 141.7"/><polygon class="cls-2" points="302.44 144.15 300.33 145.37 300.33 142.93 302.44 141.7 302.44 144.15"/><polygon class="cls-2" points="303.05 144.62 299.09 146.91 299.09 146.08 303.05 143.79 303.05 144.62"/><polygon class="cls-3" points="306.96 139.42 304.56 138.04 300.33 140.48 302.73 141.87 306.96 139.42"/><polygon class="cls-3" points="300.33 145.37 302.73 146.75 302.73 141.87 300.33 140.48 300.33 145.37"/><polygon class="cls-3" points="299.09 146.08 301.5 147.47 302.73 146.75 300.33 145.37 299.09 146.08"/><polygon class="cls-3" points="301.5 148.29 299.09 146.91 299.09 146.08 301.5 147.47 301.5 148.29"/><polygon class="cls-3" points="300.65 142.4 299.75 141.86 299.69 143.14 300.65 142.4"/><polygon class="cls-2" points="300.65 143.22 296.69 145.51 296.69 144.68 300.65 142.4 300.65 143.22"/><polygon class="cls-2" points="299.75 137.7 297.63 138.92 297.63 136.48 299.75 135.26 299.75 137.7"/><polygon class="cls-2" points="297.63 138.92 295.52 140.14 295.52 137.7 297.63 136.48 297.63 138.92"/><polygon class="cls-2" points="297.63 141.36 295.52 142.59 295.52 140.14 297.63 138.92 297.63 141.36"/><polygon class="cls-2" points="298.24 141.84 294.28 144.13 294.28 143.3 298.24 141.01 298.24 141.84"/><polygon class="cls-3" points="302.15 136.64 299.75 135.26 295.52 137.7 297.92 139.08 302.15 136.64"/><polygon class="cls-3" points="295.52 142.59 297.92 143.97 297.92 139.08 295.52 137.7 295.52 142.59"/><polygon class="cls-3" points="294.28 143.3 296.69 144.68 297.92 143.97 295.52 142.59 294.28 143.3"/><polygon class="cls-3" points="296.69 145.51 294.28 144.13 294.28 143.3 296.69 144.68 296.69 145.51"/><polygon class="cls-3" points="295.84 139.61 294.94 139.08 294.88 140.36 295.84 139.61"/><polygon class="cls-2" points="295.84 140.44 291.88 142.73 291.88 141.9 295.84 139.61 295.84 140.44"/><polygon class="cls-2" points="294.94 134.92 292.82 136.14 292.82 133.7 294.94 132.48 294.94 134.92"/><polygon class="cls-2" points="292.82 136.14 290.71 137.36 290.71 134.92 292.82 133.7 292.82 136.14"/><polygon class="cls-2" points="292.82 138.58 290.71 139.8 290.71 137.36 292.82 136.14 292.82 138.58"/><polygon class="cls-2" points="293.44 139.06 289.47 141.35 289.47 140.52 293.44 138.23 293.44 139.06"/><polygon class="cls-3" points="297.35 133.86 294.94 132.48 290.71 134.92 293.12 136.3 297.35 133.86"/><polygon class="cls-3" points="290.71 139.8 293.12 141.19 293.12 136.3 290.71 134.92 290.71 139.8"/><polygon class="cls-3" points="289.47 140.52 291.88 141.9 293.12 141.19 290.71 139.8 289.47 140.52"/><polygon class="cls-3" points="291.88 142.73 289.47 141.35 289.47 140.52 291.88 141.9 291.88 142.73"/><polygon class="cls-3" points="291.03 136.83 290.13 136.3 290.08 137.58 291.03 136.83"/><polygon class="cls-2" points="291.03 137.66 287.07 139.95 287.07 139.12 291.03 136.83 291.03 137.66"/><polygon class="cls-2" points="290.13 132.14 288.02 133.36 288.02 130.92 290.13 129.69 290.13 132.14"/><polygon class="cls-2" points="288.02 133.36 285.9 134.58 285.9 132.14 288.02 130.92 288.02 133.36"/><polygon class="cls-2" points="288.02 135.8 285.9 137.02 285.9 134.58 288.02 133.36 288.02 135.8"/><polygon class="cls-2" points="288.63 136.28 284.66 138.57 284.66 137.74 288.63 135.45 288.63 136.28"/><polygon class="cls-3" points="292.54 131.08 290.13 129.69 285.9 132.14 288.31 133.52 292.54 131.08"/><polygon class="cls-3" points="285.9 137.02 288.31 138.4 288.31 133.52 285.9 132.14 285.9 137.02"/><polygon class="cls-3" points="284.66 137.74 287.07 139.12 288.31 138.4 285.9 137.02 284.66 137.74"/><polygon class="cls-3" points="287.07 139.95 284.66 138.57 284.66 137.74 287.07 139.12 287.07 139.95"/><polygon class="cls-3" points="286.22 134.05 285.32 133.52 285.27 134.8 286.22 134.05"/><polygon class="cls-2" points="343.32 162.9 341.21 164.12 341.21 166.56 341.21 169.01 343.32 167.79 343.32 165.34 345.44 164.12 345.44 161.68 343.32 162.9"/><polygon class="cls-2" points="336.4 161.34 336.4 163.78 336.4 166.22 338.51 165 338.51 162.56 340.63 161.34 340.63 158.9 338.51 160.12 336.4 161.34"/><polygon class="cls-2" points="331.59 158.56 331.59 161 331.59 163.44 333.7 162.22 333.7 159.78 335.82 158.56 335.82 156.12 333.7 157.34 331.59 158.56"/><polygon class="cls-2" points="326.78 155.78 326.78 158.22 326.78 160.66 328.9 159.44 328.9 157 331.01 155.78 331.01 153.33 328.9 154.56 326.78 155.78"/><polygon class="cls-2" points="321.97 152.99 321.97 155.44 321.97 157.88 324.09 156.66 324.09 154.22 326.2 152.99 326.2 150.55 324.09 151.77 321.97 152.99"/><polygon class="cls-2" points="317.16 150.21 317.16 152.66 317.16 155.1 319.28 153.88 319.28 151.43 321.39 150.21 321.39 147.77 319.28 148.99 317.16 150.21"/><polygon class="cls-2" points="312.35 147.43 312.35 149.87 312.35 152.31 314.47 151.09 314.47 148.65 316.58 147.43 316.58 144.99 314.47 146.21 312.35 147.43"/><polygon class="cls-2" points="307.54 144.65 307.54 147.09 307.54 149.53 309.66 148.31 309.66 145.87 311.77 144.65 311.77 142.21 309.66 143.43 307.54 144.65"/><polygon class="cls-2" points="302.73 141.87 302.73 144.31 302.73 146.75 304.85 145.53 304.85 143.09 306.96 141.87 306.96 139.42 304.85 140.65 302.73 141.87"/><polygon class="cls-2" points="297.92 139.08 297.92 141.53 297.92 143.97 300.04 142.75 300.04 140.31 302.15 139.08 302.15 136.64 300.04 137.86 297.92 139.08"/><polygon class="cls-2" points="293.12 136.3 293.12 138.74 293.12 141.19 295.23 139.97 295.23 137.52 297.35 136.3 297.35 133.86 295.23 135.08 293.12 136.3"/><polygon class="cls-2" points="288.31 133.52 288.31 135.96 288.31 138.4 290.42 137.18 290.42 134.74 292.54 133.52 292.54 131.08 290.42 132.3 288.31 133.52"/><polygon class="cls-2" points="283.5 130.74 283.5 133.18 283.5 135.62 285.61 134.4 285.61 131.96 287.73 130.74 287.73 128.3 285.61 129.52 283.5 130.74"/><polygon class="cls-2" points="286.22 134.88 282.26 137.17 282.26 136.34 286.22 134.05 286.22 134.88"/><polygon class="cls-2" points="285.32 129.35 283.21 130.58 283.21 128.13 285.32 126.91 285.32 129.35"/><polygon class="cls-2" points="283.21 130.58 281.09 131.8 281.09 129.35 283.21 128.13 283.21 130.58"/><polygon class="cls-2" points="283.21 133.02 281.09 134.24 281.09 131.8 283.21 130.58 283.21 133.02"/><polygon class="cls-2" points="283.82 133.5 279.85 135.78 279.85 134.95 283.82 132.67 283.82 133.5"/><polygon class="cls-3" points="287.73 128.3 285.32 126.91 281.09 129.35 283.5 130.74 287.73 128.3"/><polygon class="cls-3" points="281.09 134.24 283.5 135.62 283.5 130.74 281.09 129.35 281.09 134.24"/><polygon class="cls-3" points="279.85 134.95 282.26 136.34 283.5 135.62 281.09 134.24 279.85 134.95"/><polygon class="cls-3" points="282.26 137.17 279.85 135.78 279.85 134.95 282.26 136.34 282.26 137.17"/><polygon class="cls-3" points="391.48 145.18 392.38 144.65 392.43 145.93 391.48 145.18"/><polygon class="cls-2" points="370.74 150.55 370.74 152.99 372.85 154.22 372.85 156.66 374.97 157.88 374.97 155.44 374.97 152.99 372.85 151.77 370.74 150.55"/><polygon class="cls-2" points="375.55 147.77 375.55 150.21 377.66 151.43 377.66 153.88 379.78 155.1 379.78 152.66 379.78 150.21 377.66 148.99 375.55 147.77"/><polygon class="cls-2" points="380.36 144.99 380.36 147.43 382.47 148.65 382.47 151.09 384.59 152.31 384.59 149.87 384.59 147.43 382.47 146.21 380.36 144.99"/><polygon class="cls-2" points="385.17 142.21 385.17 144.65 387.28 145.87 387.28 148.31 389.39 149.53 389.39 147.09 389.39 144.65 387.28 143.43 385.17 142.21"/><polygon class="cls-2" points="392.09 140.65 389.97 139.42 389.97 141.87 392.09 143.09 392.09 145.53 394.2 146.75 394.2 144.31 394.2 141.87 392.09 140.65"/><polygon class="cls-2" points="391.48 146.01 395.44 148.29 395.44 147.47 391.48 145.18 391.48 146.01"/><polygon class="cls-2" points="392.38 140.48 394.49 141.7 394.49 139.26 392.38 138.04 392.38 140.48"/><polygon class="cls-2" points="394.49 141.7 396.61 142.93 396.61 140.48 394.49 139.26 394.49 141.7"/><polygon class="cls-2" points="394.49 144.15 396.61 145.37 396.61 142.93 394.49 141.7 394.49 144.15"/><polygon class="cls-2" points="393.88 144.62 397.85 146.91 397.85 146.08 393.88 143.79 393.88 144.62"/><polygon class="cls-3" points="389.97 139.42 392.38 138.04 396.61 140.48 394.2 141.87 389.97 139.42"/><polygon class="cls-3" points="397.85 146.08 395.44 147.47 394.2 146.75 396.61 145.37 397.85 146.08"/><polygon class="cls-3" points="395.44 148.29 397.85 146.91 397.85 146.08 395.44 147.47 395.44 148.29"/><polygon class="cls-3" points="410.72 134.05 411.62 133.52 411.67 134.8 410.72 134.05"/><polygon class="cls-2" points="394.78 136.64 394.78 139.08 396.9 140.31 396.9 142.75 399.01 143.97 399.01 141.53 399.01 139.08 396.9 137.86 394.78 136.64"/><polygon class="cls-2" points="399.59 133.86 399.59 136.3 401.71 137.52 401.71 139.97 403.82 141.19 403.82 138.74 403.82 136.3 401.71 135.08 399.59 133.86"/><polygon class="cls-2" points="404.4 131.08 404.4 133.52 406.52 134.74 406.52 137.18 408.63 138.4 408.63 135.96 408.63 133.52 406.52 132.3 404.4 131.08"/><polygon class="cls-2" points="411.33 129.52 409.21 128.3 409.21 130.74 411.33 131.96 411.33 134.4 413.44 135.62 413.44 133.18 413.44 130.74 411.33 129.52"/><polygon class="cls-2" points="410.72 134.88 414.68 137.17 414.68 136.34 410.72 134.05 410.72 134.88"/><polygon class="cls-2" points="411.62 129.35 413.73 130.58 413.73 128.13 411.62 126.91 411.62 129.35"/><polygon class="cls-2" points="413.73 130.58 415.85 131.8 415.85 129.35 413.73 128.13 413.73 130.58"/><polygon class="cls-2" points="413.73 133.02 415.85 134.24 415.85 131.8 413.73 130.58 413.73 133.02"/><polygon class="cls-2" points="413.12 133.5 417.08 135.78 417.08 134.95 413.12 132.67 413.12 133.5"/><polygon class="cls-3" points="409.21 128.3 411.62 126.91 415.85 129.35 413.44 130.74 409.21 128.3"/><polygon class="cls-3" points="415.85 134.24 413.44 135.62 413.44 130.74 415.85 129.35 415.85 134.24"/><polygon class="cls-3" points="417.08 134.95 414.68 136.34 413.44 135.62 415.85 134.24 417.08 134.95"/><polygon class="cls-3" points="414.68 137.17 417.08 135.78 417.08 134.95 414.68 136.34 414.68 137.17"/><polygon class="cls-3" points="405.91 136.83 406.81 136.3 406.86 137.58 405.91 136.83"/><polygon class="cls-2" points="405.91 137.66 409.87 139.95 409.87 139.12 405.91 136.83 405.91 137.66"/><polygon class="cls-2" points="406.81 132.14 408.92 133.36 408.92 130.92 406.81 129.69 406.81 132.14"/><polygon class="cls-2" points="408.92 133.36 411.04 134.58 411.04 132.14 408.92 130.92 408.92 133.36"/><polygon class="cls-2" points="408.92 135.8 411.04 137.02 411.04 134.58 408.92 133.36 408.92 135.8"/><polygon class="cls-2" points="408.31 136.28 412.28 138.57 412.28 137.74 408.31 135.45 408.31 136.28"/><polygon class="cls-3" points="404.4 131.08 406.81 129.69 411.04 132.14 408.63 133.52 404.4 131.08"/><polygon class="cls-3" points="411.04 137.02 408.63 138.4 408.63 133.52 411.04 132.14 411.04 137.02"/><polygon class="cls-3" points="412.28 137.74 409.87 139.12 408.63 138.4 411.04 137.02 412.28 137.74"/><polygon class="cls-3" points="409.87 139.95 412.28 138.57 412.28 137.74 409.87 139.12 409.87 139.95"/><polygon class="cls-3" points="401.1 139.61 402 139.08 402.05 140.36 401.1 139.61"/><polygon class="cls-2" points="401.1 140.44 405.06 142.73 405.06 141.9 401.1 139.61 401.1 140.44"/><polygon class="cls-2" points="402 134.92 404.11 136.14 404.11 133.7 402 132.48 402 134.92"/><polygon class="cls-2" points="404.11 136.14 406.23 137.36 406.23 134.92 404.11 133.7 404.11 136.14"/><polygon class="cls-2" points="404.11 138.58 406.23 139.8 406.23 137.36 404.11 136.14 404.11 138.58"/><polygon class="cls-2" points="403.5 139.06 407.47 141.35 407.47 140.52 403.5 138.23 403.5 139.06"/><polygon class="cls-3" points="399.59 133.86 402 132.48 406.23 134.92 403.82 136.3 399.59 133.86"/><polygon class="cls-3" points="406.23 139.8 403.82 141.19 403.82 136.3 406.23 134.92 406.23 139.8"/><polygon class="cls-3" points="407.47 140.52 405.06 141.9 403.82 141.19 406.23 139.8 407.47 140.52"/><polygon class="cls-3" points="405.06 142.73 407.47 141.35 407.47 140.52 405.06 141.9 405.06 142.73"/><polygon class="cls-3" points="396.29 142.4 397.19 141.86 397.24 143.14 396.29 142.4"/><polygon class="cls-2" points="396.29 143.22 400.25 145.51 400.25 144.68 396.29 142.4 396.29 143.22"/><polygon class="cls-2" points="397.19 137.7 399.3 138.92 399.3 136.48 397.19 135.26 397.19 137.7"/><polygon class="cls-2" points="399.3 138.92 401.42 140.14 401.42 137.7 399.3 136.48 399.3 138.92"/><polygon class="cls-2" points="399.3 141.36 401.42 142.59 401.42 140.14 399.3 138.92 399.3 141.36"/><polygon class="cls-2" points="398.69 141.84 402.66 144.13 402.66 143.3 398.69 141.01 398.69 141.84"/><polygon class="cls-3" points="394.78 136.64 397.19 135.26 401.42 137.7 399.01 139.08 394.78 136.64"/><polygon class="cls-3" points="401.42 142.59 399.01 143.97 399.01 139.08 401.42 137.7 401.42 142.59"/><polygon class="cls-3" points="402.66 143.3 400.25 144.68 399.01 143.97 401.42 142.59 402.66 143.3"/><polygon class="cls-3" points="400.25 145.51 402.66 144.13 402.66 143.3 400.25 144.68 400.25 145.51"/><polygon class="cls-3" points="396.61 145.37 394.2 146.75 394.2 141.87 396.61 140.48 396.61 145.37"/><polygon class="cls-3" points="386.67 147.96 387.57 147.43 387.63 148.71 386.67 147.96"/><polygon class="cls-2" points="386.67 148.79 390.63 151.08 390.63 150.25 386.67 147.96 386.67 148.79"/><polygon class="cls-2" points="387.57 143.26 389.69 144.49 389.69 142.04 387.57 140.82 387.57 143.26"/><polygon class="cls-2" points="389.69 144.49 391.8 145.71 391.8 143.26 389.69 142.04 389.69 144.49"/><polygon class="cls-2" points="389.69 146.93 391.8 148.15 391.8 145.71 389.69 144.49 389.69 146.93"/><polygon class="cls-2" points="389.07 147.41 393.04 149.69 393.04 148.87 389.07 146.58 389.07 147.41"/><polygon class="cls-3" points="385.17 142.21 387.57 140.82 391.8 143.26 389.39 144.65 385.17 142.21"/><polygon class="cls-3" points="391.8 148.15 389.39 149.53 389.39 144.65 391.8 143.26 391.8 148.15"/><polygon class="cls-3" points="393.04 148.87 390.63 150.25 389.39 149.53 391.8 148.15 393.04 148.87"/><polygon class="cls-3" points="390.63 151.08 393.04 149.69 393.04 148.87 390.63 150.25 390.63 151.08"/><polygon class="cls-3" points="381.86 150.74 382.76 150.21 382.81 151.49 381.86 150.74"/><polygon class="cls-2" points="381.86 151.57 385.82 153.86 385.82 153.03 381.86 150.74 381.86 151.57"/><polygon class="cls-2" points="382.76 146.05 384.88 147.27 384.88 144.83 382.76 143.6 382.76 146.05"/><polygon class="cls-2" points="384.88 147.27 386.99 148.49 386.99 146.05 384.88 144.83 384.88 147.27"/><polygon class="cls-2" points="384.88 149.71 386.99 150.93 386.99 148.49 384.88 147.27 384.88 149.71"/><polygon class="cls-2" points="384.27 150.19 388.23 152.48 388.23 151.65 384.27 149.36 384.27 150.19"/><polygon class="cls-3" points="380.36 144.99 382.76 143.6 386.99 146.05 384.59 147.43 380.36 144.99"/><polygon class="cls-3" points="386.99 150.93 384.59 152.31 384.59 147.43 386.99 146.05 386.99 150.93"/><polygon class="cls-3" points="388.23 151.65 385.82 153.03 384.59 152.31 386.99 150.93 388.23 151.65"/><polygon class="cls-3" points="385.82 153.86 388.23 152.48 388.23 151.65 385.82 153.03 385.82 153.86"/><polygon class="cls-3" points="377.05 153.52 377.95 152.99 378.01 154.27 377.05 153.52"/><polygon class="cls-2" points="377.05 154.35 381.01 156.64 381.01 155.81 377.05 153.52 377.05 154.35"/><polygon class="cls-2" points="377.95 148.83 380.07 150.05 380.07 147.61 377.95 146.39 377.95 148.83"/><polygon class="cls-2" points="380.07 150.05 382.18 151.27 382.18 148.83 380.07 147.61 380.07 150.05"/><polygon class="cls-2" points="380.07 152.49 382.18 153.71 382.18 151.27 380.07 150.05 380.07 152.49"/><polygon class="cls-2" points="379.46 152.97 383.42 155.26 383.42 154.43 379.46 152.14 379.46 152.97"/><polygon class="cls-3" points="375.55 147.77 377.95 146.39 382.18 148.83 379.78 150.21 375.55 147.77"/><polygon class="cls-3" points="382.18 153.71 379.78 155.1 379.78 150.21 382.18 148.83 382.18 153.71"/><polygon class="cls-3" points="383.42 154.43 381.01 155.81 379.78 155.1 382.18 153.71 383.42 154.43"/><polygon class="cls-3" points="381.01 156.64 383.42 155.26 383.42 154.43 381.01 155.81 381.01 156.64"/><polygon class="cls-3" points="372.24 156.31 373.14 155.77 373.2 157.05 372.24 156.31"/><polygon class="cls-2" points="372.24 157.13 376.2 159.42 376.2 158.59 372.24 156.31 372.24 157.13"/><polygon class="cls-2" points="373.14 151.61 375.26 152.83 375.26 150.39 373.14 149.17 373.14 151.61"/><polygon class="cls-2" points="375.26 152.83 377.37 154.05 377.37 151.61 375.26 150.39 375.26 152.83"/><polygon class="cls-2" points="375.26 155.28 377.37 156.5 377.37 154.05 375.26 152.83 375.26 155.28"/><polygon class="cls-2" points="374.65 155.75 378.61 158.04 378.61 157.21 374.65 154.92 374.65 155.75"/><polygon class="cls-3" points="370.74 150.55 373.14 149.17 377.37 151.61 374.97 152.99 370.74 150.55"/><polygon class="cls-3" points="377.37 156.5 374.97 157.88 374.97 152.99 377.37 151.61 377.37 156.5"/><polygon class="cls-3" points="378.61 157.21 376.2 158.59 374.97 157.88 377.37 156.5 378.61 157.21"/><polygon class="cls-3" points="376.2 159.42 378.61 158.04 378.61 157.21 376.2 158.59 376.2 159.42"/><polygon class="cls-3" points="367.43 159.09 368.33 158.56 368.39 159.84 367.43 159.09"/><polygon class="cls-2" points="361.12 156.12 361.12 158.56 363.23 159.78 363.23 162.22 365.35 163.44 365.35 161 365.35 158.56 363.23 157.34 361.12 156.12"/><polygon class="cls-2" points="368.04 154.56 365.93 153.33 365.93 155.78 368.04 157 368.04 159.44 370.16 160.66 370.16 158.22 370.16 155.78 368.04 154.56"/><polygon class="cls-2" points="367.43 159.92 371.4 162.21 371.4 161.38 367.43 159.09 367.43 159.92"/><polygon class="cls-2" points="368.33 154.39 370.45 155.61 370.45 153.17 368.33 151.95 368.33 154.39"/><polygon class="cls-2" points="370.45 155.61 372.56 156.84 372.56 154.39 370.45 153.17 370.45 155.61"/><polygon class="cls-2" points="370.45 158.06 372.56 159.28 372.56 156.84 370.45 155.61 370.45 158.06"/><polygon class="cls-2" points="369.84 158.53 373.8 160.82 373.8 159.99 369.84 157.71 369.84 158.53"/><polygon class="cls-3" points="365.93 153.33 368.33 151.95 372.56 154.39 370.16 155.78 365.93 153.33"/><polygon class="cls-3" points="372.56 159.28 370.16 160.66 370.16 155.78 372.56 154.39 372.56 159.28"/><polygon class="cls-3" points="373.8 159.99 371.4 161.38 370.16 160.66 372.56 159.28 373.8 159.99"/><polygon class="cls-3" points="371.4 162.21 373.8 160.82 373.8 159.99 371.4 161.38 371.4 162.21"/><polygon class="cls-3" points="362.62 161.87 363.52 161.34 363.58 162.62 362.62 161.87"/><polygon class="cls-2" points="362.62 162.7 366.59 164.99 366.59 164.16 362.62 161.87 362.62 162.7"/><polygon class="cls-2" points="363.52 157.18 365.64 158.4 365.64 155.95 363.52 154.73 363.52 157.18"/><polygon class="cls-2" points="365.64 158.4 367.75 159.62 367.75 157.18 365.64 155.95 365.64 158.4"/><polygon class="cls-2" points="365.64 160.84 367.75 162.06 367.75 159.62 365.64 158.4 365.64 160.84"/><polygon class="cls-2" points="365.03 161.32 368.99 163.6 368.99 162.78 365.03 160.49 365.03 161.32"/><polygon class="cls-3" points="361.12 156.12 363.52 154.73 367.75 157.18 365.35 158.56 361.12 156.12"/><polygon class="cls-3" points="367.75 162.06 365.35 163.44 365.35 158.56 367.75 157.18 367.75 162.06"/><polygon class="cls-3" points="368.99 162.78 366.59 164.16 365.35 163.44 367.75 162.06 368.99 162.78"/><polygon class="cls-3" points="366.59 164.99 368.99 163.6 368.99 162.78 366.59 164.16 366.59 164.99"/><polygon class="cls-3" points="357.81 164.65 358.71 164.12 358.77 165.4 357.81 164.65"/><polygon class="cls-2" points="358.42 160.12 356.31 158.9 356.31 161.34 358.42 162.56 358.42 165 360.54 166.22 360.54 163.78 360.54 161.34 358.42 160.12"/><polygon class="cls-2" points="357.81 165.48 361.78 167.77 361.78 166.94 357.81 164.65 357.81 165.48"/><polygon class="cls-2" points="358.71 159.96 360.83 161.18 360.83 158.74 358.71 157.51 358.71 159.96"/><polygon class="cls-2" points="360.83 161.18 362.94 162.4 362.94 159.96 360.83 158.74 360.83 161.18"/><polygon class="cls-2" points="360.83 163.62 362.94 164.84 362.94 162.4 360.83 161.18 360.83 163.62"/><polygon class="cls-2" points="360.22 164.1 364.18 166.39 364.18 165.56 360.22 163.27 360.22 164.1"/><polygon class="cls-3" points="356.31 158.9 358.71 157.51 362.94 159.96 360.54 161.34 356.31 158.9"/><polygon class="cls-3" points="362.94 164.84 360.54 166.22 360.54 161.34 362.94 159.96 362.94 164.84"/><polygon class="cls-3" points="364.18 165.56 361.78 166.94 360.54 166.22 362.94 164.84 364.18 165.56"/><polygon class="cls-3" points="361.78 167.77 364.18 166.39 364.18 165.56 361.78 166.94 361.78 167.77"/><polygon class="cls-3" points="353 167.43 353.9 166.9 353.96 168.18 353 167.43"/><polygon class="cls-2" points="353.61 162.9 351.5 161.68 351.5 164.12 353.61 165.34 353.61 167.79 355.73 169.01 355.73 166.56 355.73 164.12 353.61 162.9"/><polygon class="cls-2" points="353 168.26 356.97 170.55 356.97 169.72 353 167.43 353 168.26"/><polygon class="cls-2" points="353.9 162.74 356.02 163.96 356.02 161.52 353.9 160.3 353.9 162.74"/><polygon class="cls-2" points="356.02 163.96 358.13 165.18 358.13 162.74 356.02 161.52 356.02 163.96"/><polygon class="cls-2" points="356.02 166.4 358.13 167.62 358.13 165.18 356.02 163.96 356.02 166.4"/><polygon class="cls-2" points="355.41 166.88 359.37 169.17 359.37 168.34 355.41 166.05 355.41 166.88"/><polygon class="cls-3" points="351.5 161.68 353.9 160.3 358.13 162.74 355.73 164.12 351.5 161.68"/><polygon class="cls-3" points="358.13 167.62 355.73 169.01 355.73 164.12 358.13 162.74 358.13 167.62"/><polygon class="cls-3" points="359.37 168.34 356.97 169.72 355.73 169.01 358.13 167.62 359.37 168.34"/><polygon class="cls-3" points="356.97 170.55 359.37 169.17 359.37 168.34 356.97 169.72 356.97 170.55"/><polygon class="cls-5" points="354.74 101.42 352.42 100.08 357.48 97.16 359.8 98.49 354.74 101.42"/><polygon class="cls-5" points="358.47 103.57 356.15 102.23 361.21 99.31 363.53 100.65 358.47 103.57"/><polygon class="cls-5" points="371.76 111.24 359.88 104.38 364.94 101.46 376.82 108.32 371.76 111.24"/><path class="cls-8" d="M245.06,119.25l-22.45,13c-3.94,2.27-9.89,2.52-13.3.55l-.92-.53c-3.41-2-3-5.41,1-7.68l22.45-.37c3.94-2.27,9.89-15.11,13.3-13.15l.92.53C249.42,113.54,249,117,245.06,119.25Z" transform="translate(0)"/><polygon class="cls-8" points="206.09 126.17 206.09 129.05 248.31 114.9 248.31 112.05 206.09 126.17"/><path class="cls-9" d="M245.06,116.53l-22.45,13c-3.94,2.27-9.89,2.52-13.3.55l-.92-.53c-3.41-2-3-5.41,1-7.68l22.45-13c3.94-2.27,9.89-2.52,13.3-.55l.92.53C249.42,110.82,249,114.25,245.06,116.53Z" transform="translate(0)"/><path class="cls-8" d="M242.64,116.33,223,127.67c-3.44,2-8.65,2.2-11.64.48l-.81-.47c-3-1.72-2.61-4.73.84-6.72L231,113.74c3.44-2,8.65-6.32,11.64-4.6l.81.47C246.46,111.33,246.08,114.34,242.64,116.33Z" transform="translate(0)"/><polygon class="cls-8" points="208.53 115.47 208.53 124.9 245.49 112.52 245.49 103.12 208.53 115.47"/><path class="cls-9" d="M242.64,107,223,118.38c-3.44,2-8.65,2.2-11.64.48l-.81-.47c-3-1.72-2.61-4.73.84-6.72L231,100.34c3.44-2,8.65-2.2,11.64-.48l.81.47C246.46,102,246.08,105,242.64,107Z" transform="translate(0)"/><path class="cls-10" d="M210.59,126.78l-.2-.12a3.21,3.21,0,0,1-1.34-2.56v-3.8c0-1,.6-1.44,1.34-1l.2.12a3.21,3.21,0,0,1,1.34,2.56v3.8C211.93,126.75,211.33,127.2,210.59,126.78Z" transform="translate(0)"/><polygon class="cls-9" points="259.15 153.65 230.26 136.97 251.47 124.72 280.37 141.4 259.15 153.65"/><polygon class="cls-11" points="259.15 204.78 230.26 188.09 230.26 136.97 259.15 153.65 259.15 204.78"/><polygon class="cls-8" points="280.37 192.53 259.15 204.78 259.15 153.65 280.37 141.4 280.37 192.53"/><path class="cls-7" d="M242.44,154.24c0,2.49-1.75,3.5-3.91,2.26a8.64,8.64,0,0,1-3.91-6.77c0-2.49,1.75-3.5,3.91-2.26A8.64,8.64,0,0,1,242.44,154.24Z" transform="translate(0)"/><polygon class="cls-7" points="237.72 158.86 241.31 156.76 235.79 147.19 232.22 149.27 237.72 158.86"/><path class="cls-6" d="M238.88,156.31c0,2.49-1.75,3.5-3.91,2.26a8.64,8.64,0,0,1-3.91-6.77c0-2.49,1.75-3.5,3.91-2.26A8.64,8.64,0,0,1,238.88,156.31Z" transform="translate(0)"/><path class="cls-12" d="M237.7,155.63c0,1.74-1.22,2.44-2.72,1.57a6,6,0,0,1-2.72-4.72c0-1.74,1.22-2.44,2.72-1.57A6,6,0,0,1,237.7,155.63Z" transform="translate(0)"/><path class="cls-6" d="M233.7,151.84l-.12,1.81.61,1.35.78.9,1,.23.64,0a1.67,1.67,0,0,0,.24-.94,4.25,4.25,0,0,0-1.92-3.33,1.68,1.68,0,0,0-.92-.26Z" transform="translate(0)"/><path class="cls-13" d="M235.73,155.84a4.25,4.25,0,0,1-1.92-3.33,1.67,1.67,0,0,1,.24-.94c-.6,0-1,.53-1,1.37a4.25,4.25,0,0,0,1.92,3.33c.72.42,1.35.32,1.68-.17A1.68,1.68,0,0,1,235.73,155.84Z" transform="translate(0)"/><path class="cls-7" d="M255.85,161.36c0,2.49-1.75,3.5-3.91,2.26a8.64,8.64,0,0,1-3.91-6.77c0-2.49,1.75-3.5,3.91-2.26A8.64,8.64,0,0,1,255.85,161.36Z" transform="translate(0)"/><polygon class="cls-7" points="251.13 165.97 254.72 163.88 249.2 154.31 245.63 156.38 251.13 165.97"/><path class="cls-6" d="M252.3,163.43c0,2.49-1.75,3.5-3.91,2.26a8.64,8.64,0,0,1-3.91-6.77c0-2.49,1.75-3.5,3.91-2.26A8.64,8.64,0,0,1,252.3,163.43Z" transform="translate(0)"/><path class="cls-12" d="M251.11,162.75c0,1.74-1.22,2.44-2.72,1.57a6,6,0,0,1-2.72-4.72c0-1.74,1.22-2.44,2.72-1.57A6,6,0,0,1,251.11,162.75Z" transform="translate(0)"/><path class="cls-6" d="M247.11,159l-.12,1.81.61,1.35.78.9,1,.23.64,0a1.67,1.67,0,0,0,.24-.94,4.25,4.25,0,0,0-1.92-3.33,1.68,1.68,0,0,0-.92-.26Z" transform="translate(0)"/><path class="cls-13" d="M249.14,163a4.25,4.25,0,0,1-1.92-3.33,1.67,1.67,0,0,1,.24-.94c-.6,0-1,.53-1,1.37a4.25,4.25,0,0,0,1.92,3.33c.72.42,1.35.32,1.68-.17A1.68,1.68,0,0,1,249.14,163Z" transform="translate(0)"/><path class="cls-14" d="M242.44,168.53c0,2.49-1.75,3.5-3.91,2.26a8.64,8.64,0,0,1-3.91-6.77c0-2.49,1.75-3.5,3.91-2.26A8.64,8.64,0,0,1,242.44,168.53Z" transform="translate(0)"/><polygon class="cls-14" points="237.72 173.15 241.31 171.06 235.79 161.48 232.22 163.56 237.72 173.15"/><path class="cls-15" d="M238.88,170.6c0,2.49-1.75,3.5-3.91,2.26a8.64,8.64,0,0,1-3.91-6.77c0-2.49,1.75-3.5,3.91-2.26A8.64,8.64,0,0,1,238.88,170.6Z" transform="translate(0)"/><path class="cls-12" d="M237.7,169.92c0,1.74-1.22,2.44-2.72,1.57a6,6,0,0,1-2.72-4.72c0-1.74,1.22-2.44,2.72-1.57A6,6,0,0,1,237.7,169.92Z" transform="translate(0)"/><path class="cls-6" d="M233.7,166.14l-.12,1.81.61,1.35.78.9,1,.23.64,0a1.67,1.67,0,0,0,.24-.94,4.25,4.25,0,0,0-1.92-3.33,1.68,1.68,0,0,0-.92-.26Z" transform="translate(0)"/><path class="cls-13" d="M235.73,170.14a4.25,4.25,0,0,1-1.92-3.33,1.67,1.67,0,0,1,.24-.94c-.6,0-1,.53-1,1.37a4.25,4.25,0,0,0,1.92,3.33c.72.42,1.35.32,1.68-.17A1.68,1.68,0,0,1,235.73,170.14Z" transform="translate(0)"/><path class="cls-7" d="M255.85,175.65c0,2.49-1.75,3.5-3.91,2.26a8.64,8.64,0,0,1-3.91-6.77c0-2.49,1.75-3.5,3.91-2.26A8.64,8.64,0,0,1,255.85,175.65Z" transform="translate(0)"/><polygon class="cls-7" points="251.13 180.27 254.72 178.17 249.2 168.6 245.63 170.68 251.13 180.27"/><path class="cls-6" d="M252.3,177.72c0,2.49-1.75,3.5-3.91,2.26a8.64,8.64,0,0,1-3.91-6.77c0-2.49,1.75-3.5,3.91-2.26A8.64,8.64,0,0,1,252.3,177.72Z" transform="translate(0)"/><path class="cls-12" d="M251.11,177c0,1.74-1.22,2.44-2.72,1.57a6,6,0,0,1-2.72-4.72c0-1.74,1.22-2.44,2.72-1.57A6,6,0,0,1,251.11,177Z" transform="translate(0)"/><path class="cls-6" d="M247.11,173.25l-.12,1.81.61,1.35.78.9,1,.23.64,0a1.67,1.67,0,0,0,.24-.94,4.25,4.25,0,0,0-1.92-3.33,1.68,1.68,0,0,0-.92-.26Z" transform="translate(0)"/><path class="cls-13" d="M249.14,177.25a4.25,4.25,0,0,1-1.92-3.33,1.67,1.67,0,0,1,.24-.94c-.6,0-1,.53-1,1.37a4.25,4.25,0,0,0,1.92,3.33c.72.42,1.35.32,1.68-.17A1.68,1.68,0,0,1,249.14,177.25Z" transform="translate(0)"/><path class="cls-7" d="M242.44,182.82c0,2.49-1.75,3.5-3.91,2.26a8.64,8.64,0,0,1-3.91-6.77c0-2.49,1.75-3.5,3.91-2.26A8.64,8.64,0,0,1,242.44,182.82Z" transform="translate(0)"/><polygon class="cls-7" points="237.72 187.44 241.31 185.35 235.79 175.77 232.22 177.85 237.72 187.44"/><path class="cls-6" d="M238.88,184.9c0,2.49-1.75,3.5-3.91,2.26a8.64,8.64,0,0,1-3.91-6.77c0-2.49,1.75-3.5,3.91-2.26A8.64,8.64,0,0,1,238.88,184.9Z" transform="translate(0)"/><path class="cls-12" d="M237.7,184.21c0,1.74-1.22,2.44-2.72,1.57a6,6,0,0,1-2.72-4.72c0-1.74,1.22-2.44,2.72-1.57A6,6,0,0,1,237.7,184.21Z" transform="translate(0)"/><path class="cls-6" d="M233.7,180.43l-.12,1.81.61,1.35.78.9,1,.23.64,0a1.67,1.67,0,0,0,.24-.94,4.25,4.25,0,0,0-1.92-3.33,1.68,1.68,0,0,0-.92-.26Z" transform="translate(0)"/><path class="cls-13" d="M235.73,184.43a4.25,4.25,0,0,1-1.92-3.33,1.67,1.67,0,0,1,.24-.94c-.6,0-1,.53-1,1.37a4.25,4.25,0,0,0,1.92,3.33c.72.42,1.35.32,1.68-.17A1.68,1.68,0,0,1,235.73,184.43Z" transform="translate(0)"/><path class="cls-7" d="M255.85,189.94c0,2.49-1.75,3.5-3.91,2.26a8.64,8.64,0,0,1-3.91-6.77c0-2.49,1.75-3.5,3.91-2.26A8.64,8.64,0,0,1,255.85,189.94Z" transform="translate(0)"/><polygon class="cls-7" points="251.13 194.56 254.72 192.47 249.2 182.89 245.63 184.97 251.13 194.56"/><path class="cls-6" d="M252.3,192c0,2.49-1.75,3.5-3.91,2.26a8.64,8.64,0,0,1-3.91-6.77c0-2.49,1.75-3.5,3.91-2.26A8.64,8.64,0,0,1,252.3,192Z" transform="translate(0)"/><path class="cls-12" d="M251.11,191.33c0,1.74-1.22,2.44-2.72,1.57a6,6,0,0,1-2.72-4.72c0-1.74,1.22-2.44,2.72-1.57A6,6,0,0,1,251.11,191.33Z" transform="translate(0)"/><path class="cls-6" d="M247.11,187.55l-.12,1.81.61,1.35.78.9,1,.23.64,0a1.67,1.67,0,0,0,.24-.94,4.25,4.25,0,0,0-1.92-3.33,1.68,1.68,0,0,0-.92-.26Z" transform="translate(0)"/><path class="cls-13" d="M249.14,191.55a4.25,4.25,0,0,1-1.92-3.33,1.67,1.67,0,0,1,.24-.94c-.6,0-1,.53-1,1.37a4.25,4.25,0,0,0,1.92,3.33c.72.42,1.35.32,1.68-.17A1.68,1.68,0,0,1,249.14,191.55Z" transform="translate(0)"/><polygon class="cls-16" points="266.79 199.54 267.46 199.97 262.84 202.65 262.84 201.82 266.79 199.54"/><path class="cls-17" d="M267.46,200l-4.63,2.67V157.12A5.15,5.15,0,0,1,265,153l.32-.19c1.19-.69,2.15,0,2.15,1.63Z" transform="translate(0)"/><path class="cls-11" d="M266.4,152.59a2.34,2.34,0,0,1,.39,1.42v45.52l-4,2.28v.83l4.63-2.67V154.45C267.46,153.4,267,152.72,266.4,152.59Z" transform="translate(0)"/><polygon class="cls-16" points="266.79 199.54 267.46 199.97 262.84 202.65 262.84 201.82 266.79 199.54"/><path class="cls-17" d="M278,193.9l-4.63,2.67V151a5.15,5.15,0,0,1,2.15-4.11l.32-.19c1.19-.69,2.15,0,2.15,1.63Z" transform="translate(0)"/><path class="cls-11" d="M276.93,146.52a2.34,2.34,0,0,1,.39,1.42v45.52l-4,2.28v.83L278,193.9V148.37C278,147.32,277.56,146.65,276.93,146.52Z" transform="translate(0)"/><polygon class="cls-16" points="277.32 193.46 277.99 193.9 273.36 196.57 273.36 195.74 277.32 193.46"/><path class="cls-18" d="M469.71,214.6c-12.37,7.14-32.42,7.14-44.79,0s-12.37-18.72,0-25.86,32.42-7.14,44.79,0S482.08,207.46,469.71,214.6Z" transform="translate(0)"/><path class="cls-11" d="M470.66,212.68c-12.89,7.44-33.79,7.44-46.69,0s-12.89-19.51,0-27,33.79-7.44,46.69,0S483.55,205.24,470.66,212.68Z" transform="translate(0)"/><rect class="cls-11" x="414.3" y="192.84" width="66.02" height="6.36"/><rect class="cls-11" x="415.64" y="194.95" width="63.34" height="6.11"/><path class="cls-9" d="M470.66,206.32c-12.89,7.44-33.79,7.44-46.69,0s-12.89-19.51,0-27,33.79-7.44,46.69,0S483.55,198.88,470.66,206.32Z" transform="translate(0)"/><path class="cls-18" d="M428.64,186.15l6.91-4,1.75,1a5.68,5.68,0,0,1,.64.42,2.09,2.09,0,0,1,.42.43.7.7,0,0,1,.15.45.81.81,0,0,1-.23.46,2.46,2.46,0,0,1-.61.47l0,0a2.66,2.66,0,0,1-2.42.23q1,.81-.46,1.68l0,0a3.89,3.89,0,0,1-2,.56,4.05,4.05,0,0,1-2-.58Zm2.39.24.38.22a1.8,1.8,0,0,0,1,.28,2.35,2.35,0,0,0,1-.35q.6-.35.64-.63t-.5-.59l-.34-.2Zm3.14-1.81.34.2a1.74,1.74,0,0,0,.94.28,2.14,2.14,0,0,0,.94-.32c.32-.18.46-.36.42-.53s-.24-.35-.59-.56l-.21-.12Z" transform="translate(0)"/><path class="cls-18" d="M433.18,188.77l8.27-3.21,1.54.89-5.57,4.77-1.31-.75,1.28-1-1.1-.63-1.78.74Zm4.12-.39.82.47,2.34-1.83Z" transform="translate(0)"/><path class="cls-18" d="M438.55,191.88l5.88-3.39-1.11-.64,1-.6,3.6,2.08-1,.6-1.09-.63L440,192.69Z" transform="translate(0)"/><path class="cls-18" d="M442.27,194l5.88-3.39L447,190l1-.6,3.6,2.08-1,.6-1.09-.63-5.88,3.39Z" transform="translate(0)"/><path class="cls-18" d="M445.34,195.79l6.91-4,3,1.74-1,.56-1.61-.93-1.83,1.06,1.25.72-1,.57-1.25-.72-2.16,1.25,1.62.94-1,.55Z" transform="translate(0)"/><path class="cls-18" d="M449.08,198l6.91-4,1.75,1a5.33,5.33,0,0,1,.86.6,1.42,1.42,0,0,1,.41.57.63.63,0,0,1-.11.59,2.32,2.32,0,0,1-.74.6,4.38,4.38,0,0,1-1.27.51,3,3,0,0,1-1.28,0l-2.42,2.5-1.43-.83,2.33-2.26-.49-.28-3.12,1.8Zm5.38-1.48.35.2a1.8,1.8,0,0,0,1,.28,2.12,2.12,0,0,0,1-.32q.51-.3.56-.54t-.43-.52l-.43-.25Z" transform="translate(0)"/><path class="cls-18" d="M454.91,201.32l2.74-1.58,2.82-3.19,1.32.76-1.7,1.84,3.14-1,1.29.74L459,200.52l-2.74,1.58Z" transform="translate(0)"/><path class="cls-18" d="M453.61,187.07l-.08,0c-.31-.18-.27-.49.09-.7l8.26-4.77a1.35,1.35,0,0,1,1.21-.05l.08,0c.31.18.27.49-.09.7L454.82,187A1.35,1.35,0,0,1,453.61,187.07Z" transform="translate(0)"/><path class="cls-18" d="M453.57,181.53h0a1.25,1.25,0,0,1,1.13,0l8.51,4.91c.29.17.25.46-.08.65h0a1.25,1.25,0,0,1-1.13,0l-8.51-4.91C453.2,182,453.23,181.72,453.57,181.53Z" transform="translate(0)"/><path class="cls-11" d="M346.81,73.62c-8.32,4.8-21.81,4.8-30.13,0s-8.32-12.59,0-17.4,21.81-4.8,30.13,0S355.13,68.82,346.81,73.62Z" transform="translate(0)"/><polygon class="cls-11" points="353.05 64.93 353.05 59.5 310.44 59.5 310.44 65.11 353.05 64.93"/><path class="cls-9" d="M346.81,68.2c-8.32,4.8-21.81,4.8-30.13,0s-8.32-12.59,0-17.4,21.81-4.8,30.13,0S355.13,63.39,346.81,68.2Z" transform="translate(0)"/><path class="cls-11" d="M345,65.39c-7.31,4.22-19.17,4.22-26.48,0s-7.31-11.07,0-15.29,19.17-4.22,26.48,0S352.3,61.17,345,65.39Z" transform="translate(0)"/><polygon class="cls-11" points="350.46 57.74 350.46 21.4 313.02 21.4 313.02 57.91 350.46 57.74"/><path class="cls-9" d="M345,29c-7.31,4.22-19.17,4.22-26.48,0s-7.31-11.07,0-15.29,19.17-4.22,26.48,0S352.3,24.82,345,29Z" transform="translate(0)"/><path class="cls-11" d="M342.22,27.44c-5.78,3.34-15.16,3.34-20.94,0s-5.78-8.75,0-12.09,15.16-3.34,20.94,0S348,24.1,342.22,27.44Z" transform="translate(0)"/><path class="cls-18" d="M337.76,25.25l-4.86-2.81,4.86-2.81a.29.29,0,0,0,0-.56,1.07,1.07,0,0,0-1,0l-4.86,2.81-4.86-2.81a1.07,1.07,0,0,0-1,0,.29.29,0,0,0,0,.56L331,22.44l-4.86,2.81a.29.29,0,0,0,0,.56,1.07,1.07,0,0,0,1,0L331.93,23l4.86,2.81a1.07,1.07,0,0,0,1,0A.29.29,0,0,0,337.76,25.25Z" transform="translate(0)"/><path class="cls-18" d="M321.27,17.44c5.78-3.34,15.16-3.34,20.94,0,2.43,1.4,3.82,3.17,4.21,5,.54-2.52-.86-5.16-4.21-7.09-5.78-3.34-15.16-3.34-20.94,0-3.35,1.94-4.75,4.57-4.21,7.09C317.45,20.62,318.84,18.85,321.27,17.44Z" transform="translate(0)"/><path class="cls-10" d="M331.33,58.8l-.2-.12a3.21,3.21,0,0,1-1.34-2.56V30.35c0-1,.6-1.44,1.34-1l.2.12A3.21,3.21,0,0,1,332.67,32V57.79C332.67,58.77,332.07,59.23,331.33,58.8Z" transform="translate(0)"/><polygon class="cls-2" points="362.57 233.54 334.65 217.42 349.09 209.09 377.01 225.21 362.57 233.54"/><polygon class="cls-9" points="362.57 229.49 334.65 213.38 349.09 205.04 377.01 221.16 362.57 229.49"/><polygon class="cls-8" points="362.57 233.54 362.57 229.49 334.65 213.38 334.65 217.42 362.57 233.54"/><polygon class="cls-8" points="377.01 225.21 377.01 221.16 362.57 229.49 362.57 233.54 377.01 225.21"/><polygon class="cls-2" points="370.83 220.94 348.97 187.55 351.88 185.87 373.74 219.26 370.83 220.94"/><polygon class="cls-9" points="370.83 198.49 348.97 185.87 351.88 182.7 373.74 195.32 370.83 198.49"/><polygon class="cls-8" points="370.83 220.94 370.83 198.49 348.97 185.87 348.97 208.32 370.83 220.94"/><polygon class="cls-8" points="373.74 219.26 373.74 195.32 370.83 198.49 370.83 220.94 373.74 219.26"/><polygon class="cls-12" points="350.55 192.49 348.35 191.22 350.55 189.96 352.74 191.22 350.55 192.49"/><polygon class="cls-19" points="348.35 191.22 348.35 212.52 350.55 213.79 350.55 192.49 348.35 191.22"/><polygon class="cls-13" points="352.74 212.52 352.74 191.22 350.55 192.49 350.55 213.79 352.74 212.52"/><polygon class="cls-12" points="355.13 195.19 352.93 193.92 355.13 192.65 357.32 193.92 355.13 195.19"/><polygon class="cls-19" points="352.93 193.92 352.93 215.21 355.13 216.48 355.13 195.19 352.93 193.92"/><polygon class="cls-13" points="357.32 215.21 357.32 193.92 355.13 195.19 355.13 216.48 357.32 215.21"/><polygon class="cls-12" points="359.71 197.88 357.51 196.62 359.71 195.35 361.91 196.62 359.71 197.88"/><polygon class="cls-19" points="357.51 196.62 357.51 217.91 359.71 219.18 359.71 197.88 357.51 196.62"/><polygon class="cls-13" points="361.91 217.91 361.91 196.62 359.71 197.88 359.71 219.18 361.91 217.91"/><polygon class="cls-12" points="364.29 200.58 362.1 199.31 364.29 198.04 366.49 199.31 364.29 200.58"/><polygon class="cls-19" points="362.1 199.31 362.1 220.61 364.29 221.87 364.29 200.58 362.1 199.31"/><polygon class="cls-13" points="366.49 220.61 366.49 199.31 364.29 200.58 364.29 221.87 366.49 220.61"/><polygon class="cls-11" points="471.19 164.78 468.38 163.16 468.38 146.97 471.19 148.59 471.19 164.78"/><polygon class="cls-8" points="473.68 163.34 471.19 164.78 471.19 148.59 473.68 147.15 473.68 163.34"/><polygon class="cls-11" points="484.42 157.17 481.62 155.55 481.62 139.37 484.42 140.98 484.42 157.17"/><polygon class="cls-8" points="486.92 155.73 484.42 157.17 484.42 140.98 486.92 139.55 486.92 155.73"/><polygon class="cls-11" points="447.79 151.42 444.99 149.81 444.99 133.62 447.79 135.24 447.79 151.42"/><polygon class="cls-8" points="450.28 149.99 447.79 151.42 447.79 135.24 450.28 133.8 450.28 149.99"/><path class="cls-6" d="M482.89,148.45c-9.48,5.47-24.84,5.47-34.31,0s-9.48-14.34,0-19.81,24.84-5.47,34.31,0S492.37,143,482.89,148.45Z" transform="translate(0)"/><rect class="cls-6" x="441.47" y="131.36" width="48.53" height="7.19"/><path class="cls-20" d="M482.89,141.26c-9.48,5.47-24.84,5.47-34.31,0s-9.48-14.34,0-19.81,24.84-5.47,34.31,0S492.37,135.79,482.89,141.26Z" transform="translate(0)"/><path class="cls-6" d="M481.14,137.72c-8.51,4.91-22.31,4.91-30.82,0s-8.51-12.88,0-17.79,22.31-4.91,30.82,0S489.65,132.81,481.14,137.72Z" transform="translate(0)"/><rect class="cls-6" x="443.95" y="122.37" width="43.58" height="6.46"/><path class="cls-4" d="M481.14,131.26c-8.51,4.91-22.31,4.91-30.82,0s-8.51-12.88,0-17.79,22.31-4.91,30.82,0S489.65,126.35,481.14,131.26Z" transform="translate(0)"/><path class="cls-6" d="M482.89,131.92c-9.48,5.47-24.84,5.47-34.31,0s-9.48-14.34,0-19.81,24.84-5.47,34.31,0S492.37,126.45,482.89,131.92Z" transform="translate(0)"/><rect class="cls-6" x="441.47" y="64.84" width="48.53" height="57.17"/><path class="cls-20" d="M482.89,74.75c-9.48,5.47-24.84,5.47-34.31,0s-9.48-14.34,0-19.81,24.84-5.47,34.31,0S492.37,69.28,482.89,74.75Z" transform="translate(0)"/><path class="cls-10" d="M478.86,72.42c-7.25,4.18-19,4.18-26.25,0s-7.25-11,0-15.16,19-4.18,26.25,0S486.11,68.24,478.86,72.42Z" transform="translate(0)"/><path class="cls-21" d="M452.61,58.47c7.25-4.18,19-4.18,26.25,0,3.36,1.94,5.16,4.44,5.4,7,.28-2.94-1.52-5.93-5.4-8.18-7.25-4.19-19-4.19-26.25,0-3.89,2.25-5.69,5.24-5.4,8.18C447.45,62.91,449.25,60.41,452.61,58.47Z" transform="translate(0)"/><path class="cls-21" d="M474.5,69.07l-7.32-4.22,7.32-4.22a.44.44,0,0,0,0-.84,1.61,1.61,0,0,0-1.45,0L465.74,64l-7.32-4.22a1.61,1.61,0,0,0-1.45,0,.44.44,0,0,0,0,.84l7.32,4.22L457,69.07a.44.44,0,0,0,0,.84,1.61,1.61,0,0,0,1.45,0l7.32-4.22,7.32,4.22a1.61,1.61,0,0,0,1.45,0A.44.44,0,0,0,474.5,69.07Z" transform="translate(0)"/><path class="cls-20" d="M447.33,124.87l-.32-.18a5.11,5.11,0,0,1-2.13-4.08V79.55c0-1.57,1-2.29,2.13-1.61l.32.18a5.11,5.11,0,0,1,2.13,4.08v41.05C449.47,124.82,448.51,125.55,447.33,124.87Z" transform="translate(0)"/><polygon class="cls-4" points="406.44 83.99 385.67 72 406.43 60.01 427.2 72 406.44 83.99"/><polygon class="cls-4" points="406.44 64.51 385.67 52.52 406.43 40.53 427.2 52.52 406.44 64.51"/><polygon class="cls-6" points="385.67 72 385.67 52.52 406.44 64.51 406.44 83.99 385.67 72"/><polygon class="cls-7" points="427.2 52.52 427.2 72 406.44 83.99 406.44 64.51 427.2 52.52"/><polygon class="cls-7" points="385.67 58.88 385.67 57.27 406.44 69.26 406.44 70.87 385.67 58.88"/><polygon class="cls-22" points="427.2 57.27 427.2 58.88 406.44 70.87 406.44 69.26 427.2 57.27"/><polygon class="cls-5" points="404.47 45 402.77 44.02 406.47 41.88 408.17 42.86 404.47 45"/><polygon class="cls-5" points="407.19 46.57 405.5 45.59 409.2 43.45 410.9 44.43 407.19 46.57"/><polygon class="cls-5" points="416.91 52.18 408.23 47.16 411.93 45.03 420.61 50.04 416.91 52.18"/><path class="cls-9" d="M422.42,85.24l-2.83-1.63V67.74l.2.11a6.3,6.3,0,0,1,2.63,5Z" transform="translate(0)"/><polygon class="cls-9" points="415.44 70.09 419.59 67.74 422.42 85.24 418.27 87.6 415.44 70.09"/><path class="cls-8" d="M418.27,87.6,415.44,86V70.09l.2.11a6.3,6.3,0,0,1,2.63,5Z" transform="translate(0)"/><path class="cls-9" d="M390.17,85.24,393,83.61V67.74l-.2.11a6.3,6.3,0,0,0-2.63,5Z" transform="translate(0)"/><polygon class="cls-9" points="397.15 70.09 393 67.74 390.17 85.24 394.32 87.6 397.15 70.09"/><path class="cls-8" d="M394.32,87.6,397.15,86V70.09l-.2.11a6.3,6.3,0,0,0-2.63,5Z" transform="translate(0)"/></svg>