<svg id="Capa_1" data-name="Capa 1" xmlns="http://www.w3.org/2000/svg" xmlns:xlink="http://www.w3.org/1999/xlink" viewBox="0 0 700 250"><defs><style>.cls-1{fill:none;}.cls-2{fill:#00b4c2;}.cls-3{clip-path:url(#clip-path);}.cls-4{fill:#b4eaf4;}.cls-5{fill:#00a4a3;}.cls-6{fill:#00657e;}.cls-7{fill:#005572;}.cls-8{fill:#00d1cb;}.cls-9{fill:#00989f;}.cls-10{fill:#d4dce8;}.cls-11{font-size:32.13px;fill:#fff;font-family:Montserrat-Medium, Montserrat;letter-spacing:0.05em;}</style><clipPath id="clip-path"><rect class="cls-1" x="-0.11" y="-17" width="737.11" height="265.77"/></clipPath></defs><title>inscripciones700</title><rect class="cls-1" x="37.56" y="0.78" width="660.72" height="238.22"/><rect class="cls-2" width="700" height="250"/><g class="cls-3"><path class="cls-4" d="M489.75,212.94h0c-1.27-.69-1.27-1.82,0-2.51l141.77-76.67a5.45,5.45,0,0,1,4.63,0h0c1.27.69,1.27,1.82,0,2.51L494.38,212.94A5.45,5.45,0,0,1,489.75,212.94Z"/><path class="cls-4" d="M397,263.1h0c-1.27-.69-1.27-1.82,0-2.51l33.92-18.34a5.45,5.45,0,0,1,4.63,0h0c1.27.69,1.27,1.82,0,2.51L401.63,263.1A5.45,5.45,0,0,1,397,263.1Z"/><path class="cls-5" d="M358.31,252.3h0c-2.68-1.45-2.68-3.81,0-5.26L386.15,232a11.45,11.45,0,0,1,9.73,0h0c2.68,1.45,2.68,3.81,0,5.26L368,252.3A11.45,11.45,0,0,1,358.31,252.3Z"/><path class="cls-6" d="M564.23,254.11h0c-1.27-.69-1.27-1.82,0-2.51l90.46-48.92a5.45,5.45,0,0,1,4.63,0h0c1.27.69,1.27,1.82,0,2.51l-90.46,48.92A5.45,5.45,0,0,1,564.23,254.11Z"/><path class="cls-6" d="M435.48,195.28h0c-1.27-.69-1.27-1.82,0-2.51l90.46-48.92a5.45,5.45,0,0,1,4.63,0h0c1.27.69,1.27,1.82,0,2.51l-90.46,48.92A5.45,5.45,0,0,1,435.48,195.28Z"/><path class="cls-6" d="M364.57,231.78h0c-1.27-.69-1.27-1.82,0-2.51l20.41-11a5.45,5.45,0,0,1,4.63,0h0c1.27.69,1.27,1.82,0,2.51l-20.41,11A5.45,5.45,0,0,1,364.57,231.78Z"/><path class="cls-5" d="M408.37,224.47h0c-2.93-1.58-2.93-4.18,0-5.76l66.95-36.21a12.54,12.54,0,0,1,10.66,0h0c2.93,1.58,2.93,4.18,0,5.76L419,224.47A12.54,12.54,0,0,1,408.37,224.47Z"/><path class="cls-7" d="M424.08,254.09h0c-7.57-4.09-7.57-10.79,0-14.88l103.13-55.78c7.57-4.09,20-4.09,27.52,0h0c7.57,4.09,7.57,10.79,0,14.88L451.6,254.09C444,258.19,431.65,258.19,424.08,254.09Z"/><path class="cls-8" d="M572.6,226.09h0c-4.91-2.65-4.91-7,0-9.65l39.14-21.17c4.91-2.65,12.94-2.65,17.85,0h0c4.91,2.65,4.91,7,0,9.65l-39.14,21.17C585.54,228.75,577.51,228.75,572.6,226.09Z"/><path class="cls-9" d="M478.37,262.42h0c-4.91-2.65-4.91-7,0-9.65l28-15.15c4.91-2.65,12.94-2.65,17.85,0h0c4.91,2.65,4.91,7,0,9.65l-28,15.15C491.31,265.07,483.28,265.07,478.37,262.42Z"/><path class="cls-9" d="M599.58,254.54h0c-4.91-2.65-4.91-7,0-9.65l28-15.15c4.91-2.65,12.94-2.65,17.85,0h0c4.91,2.65,4.91,7,0,9.65l-28,15.15C612.52,257.2,604.49,257.2,599.58,254.54Z"/><path class="cls-10" d="M489.12,278.15h0c-2.93-1.58-2.93-4.18,0-5.76l66.95-36.21a12.54,12.54,0,0,1,10.66,0h0c2.93,1.58,2.93,4.18,0,5.76l-66.95,36.21A12.54,12.54,0,0,1,489.12,278.15Z"/><path class="cls-5" d="M467.24,248.78h0c-7.57-4.09-7.57-10.79,0-14.88l103.13-55.78c7.57-4.09,20-4.09,27.52,0h0c7.57,4.09,7.57,10.79,0,14.88L494.76,248.78C487.19,252.87,474.81,252.87,467.24,248.78Z"/><path class="cls-7" d="M533.26,224.58h0c-2.68-1.45-2.68-3.81,0-5.26L623,170.78a11.45,11.45,0,0,1,9.73,0h0c2.68,1.45,2.68,3.81,0,5.26L543,224.58A11.45,11.45,0,0,1,533.26,224.58Z"/><path class="cls-10" d="M618.23,201.4h0c-1.88-1-1.88-2.69,0-3.71l20.2-10.93a8.06,8.06,0,0,1,6.85,0h0c1.88,1,1.88,2.69,0,3.71l-20.2,10.93A8.06,8.06,0,0,1,618.23,201.4Z"/><path class="cls-10" d="M423,225h0c-1.88-1-1.88-2.69,0-3.71l20.2-10.93a8.06,8.06,0,0,1,6.85,0h0c1.88,1,1.88,2.69,0,3.71L429.83,225A8.06,8.06,0,0,1,423,225Z"/><path class="cls-7" d="M508.29,184.38a4.68,4.68,0,0,0-4,0l-11.73,6.34c-1.09.59-1.09,1.56,0,2.15a4.68,4.68,0,0,0,4,0l11.73-6.34C509.38,185.94,509.38,185,508.29,184.38Z"/><path class="cls-8" d="M537.63,234a4.68,4.68,0,0,0-4,0l-11.73,6.34c-1.09.59-1.09,1.56,0,2.15a4.68,4.68,0,0,0,4,0l11.73-6.34C538.72,235.59,538.72,234.62,537.63,234Z"/><path class="cls-10" d="M519,220.86h0c-.57-.31-.57-.82,0-1.13l105.29-56.94a2.45,2.45,0,0,1,2.08,0h0c.57.31.57.82,0,1.13L521.12,220.86A2.45,2.45,0,0,1,519,220.86Z"/><path class="cls-10" d="M528.34,169.78h0c-.57-.31-.57-.82,0-1.13L607,126.1a2.45,2.45,0,0,1,2.08,0h0c.57.31.57.82,0,1.13l-78.68,42.55A2.45,2.45,0,0,1,528.34,169.78Z"/><path class="cls-10" d="M545.91,261.33h0c-.57-.31-.57-.82,0-1.13L651.2,203.26a2.45,2.45,0,0,1,2.08,0h0c.57.31.57.82,0,1.13L548,261.33A2.45,2.45,0,0,1,545.91,261.33Z"/><path class="cls-10" d="M453.62,257.66h0c-.57-.31-.57-.82,0-1.13l26.19-14.16a2.45,2.45,0,0,1,2.08,0h0c.57.31.57.82,0,1.13L455.7,257.66A2.45,2.45,0,0,1,453.62,257.66Z"/><path class="cls-10" d="M376.43,222.4h0c-.57-.31-.57-.82,0-1.13l26.19-14.16a2.45,2.45,0,0,1,2.08,0h0c.57.31.57.82,0,1.13L378.52,222.4A2.45,2.45,0,0,1,376.43,222.4Z"/><path class="cls-5" d="M558.59,228.74h0c-.57-.31-.57-.82,0-1.13l26.19-14.16a2.45,2.45,0,0,1,2.08,0h0c.57.31.57.82,0,1.13l-26.19,14.16A2.45,2.45,0,0,1,558.59,228.74Z"/><path class="cls-5" d="M533.23,150.61h0c-.57-.31-.57-.82,0-1.13l26.19-14.16a2.45,2.45,0,0,1,2.08,0h0c.57.31.57.82,0,1.13l-26.19,14.16A2.45,2.45,0,0,1,533.23,150.61Z"/><path class="cls-10" d="M471.73,190.57h0c-.57-.31-.57-.82,0-1.13l26.19-14.16a2.45,2.45,0,0,1,2.08,0h0c.57.31.57.82,0,1.13l-26.19,14.16A2.45,2.45,0,0,1,471.73,190.57Z"/><path class="cls-8" d="M419.56,234.16a4.54,4.54,0,0,0-3.86,0l-11.37,6.15c-1.06.57-1.06,1.51,0,2.09a4.54,4.54,0,0,0,3.86,0l11.37-6.15C420.63,235.67,420.63,234.73,419.56,234.16Z"/><path class="cls-5" d="M499.37,206.57a4.54,4.54,0,0,0-3.86,0l-11.37,6.15c-1.06.57-1.06,1.51,0,2.09a4.54,4.54,0,0,0,3.86,0l11.37-6.15C500.43,208.08,500.43,207.14,499.37,206.57Z"/><path class="cls-8" d="M587.57,252.74h0c-1.88-1-1.88-2.69,0-3.71l20.2-10.93a8.06,8.06,0,0,1,6.85,0h0c1.88,1,1.88,2.69,0,3.71l-20.2,10.93A8.06,8.06,0,0,1,587.57,252.74Z"/><path class="cls-6" d="M600.15,139.65a5.37,5.37,0,0,0-4.56,0l-3.24,1.75c-1.25.68-1.25,1.79,0,2.47a5.37,5.37,0,0,0,4.56,0l3.24-1.75C601.41,141.43,601.41,140.32,600.15,139.65Z"/><path class="cls-8" d="M440.4,179.21a5.37,5.37,0,0,0-4.56,0L432.6,181c-1.25.68-1.25,1.79,0,2.47a5.37,5.37,0,0,0,4.56,0l3.24-1.75C441.66,181,441.66,179.88,440.4,179.21Z"/><path class="cls-8" d="M518.87,175.78h0c-4.91-2.65-4.91-7,0-9.65L558,145c4.91-2.65,12.94-2.65,17.85,0h0c4.91,2.65,4.91,7,0,9.65l-39.14,21.17C531.81,178.43,523.78,178.43,518.87,175.78Z"/><path class="cls-5" d="M520.85,181h0c-.57-.31-.57-.82,0-1.13l44.48-24.06a2.45,2.45,0,0,1,2.08,0h0c.57.31.57.82,0,1.13L522.94,181A2.45,2.45,0,0,1,520.85,181Z"/><path class="cls-8" d="M498.14,231.47a5.37,5.37,0,0,0-4.56,0l-3.24,1.75c-1.25.68-1.25,1.79,0,2.47a5.37,5.37,0,0,0,4.56,0l3.24-1.75C499.4,233.26,499.4,232.15,498.14,231.47Z"/><path class="cls-7" d="M572.82,234.09a5.37,5.37,0,0,0-4.56,0L565,235.84c-1.25.68-1.25,1.79,0,2.47a5.37,5.37,0,0,0,4.56,0l3.24-1.75C574.07,235.88,574.07,234.77,572.82,234.09Z"/><path class="cls-4" d="M153.33,27.53h0c-1.27-.69-1.27-1.82,0-2.51L295.1-51.65a5.45,5.45,0,0,1,4.63,0h0c1.27.69,1.27,1.82,0,2.51L158,27.53A5.45,5.45,0,0,1,153.33,27.53Z"/><path class="cls-4" d="M60.58,77.69h0c-1.27-.69-1.27-1.82,0-2.51L94.5,56.84a5.45,5.45,0,0,1,4.63,0h0c1.27.69,1.27,1.82,0,2.51L65.21,77.69A5.45,5.45,0,0,1,60.58,77.69Z"/><path class="cls-5" d="M21.89,66.89h0c-2.68-1.45-2.68-3.81,0-5.26L49.74,46.57a11.45,11.45,0,0,1,9.73,0h0c2.68,1.45,2.68,3.81,0,5.26L31.62,66.89A11.45,11.45,0,0,1,21.89,66.89Z"/><path class="cls-6" d="M227.81,68.7h0c-1.27-.69-1.27-1.82,0-2.51l90.46-48.92a5.45,5.45,0,0,1,4.63,0h0c1.27.69,1.27,1.82,0,2.51L232.45,68.7A5.45,5.45,0,0,1,227.81,68.7Z"/><path class="cls-6" d="M143.4,115.13h0c-1.27-.69-1.27-1.82,0-2.51l45.85-24.8a5.45,5.45,0,0,1,4.63,0h0c1.27.69,1.27,1.82,0,2.51L148,115.13A5.45,5.45,0,0,1,143.4,115.13Z"/><path class="cls-6" d="M99.06,9.87h0c-1.27-.69-1.27-1.82,0-2.51l90.46-48.92a5.45,5.45,0,0,1,4.63,0h0c1.27.69,1.27,1.82,0,2.51L103.7,9.87A5.45,5.45,0,0,1,99.06,9.87Z"/><path class="cls-6" d="M28.16,46.37h0c-1.27-.69-1.27-1.82,0-2.51l20.41-11a5.45,5.45,0,0,1,4.63,0h0c1.27.69,1.27,1.82,0,2.51l-20.41,11A5.45,5.45,0,0,1,28.16,46.37Z"/><path class="cls-5" d="M72,39.06h0C69,37.48,69,34.89,72,33.3L138.9-2.91a12.54,12.54,0,0,1,10.66,0h0c2.93,1.58,2.93,4.18,0,5.76L82.61,39.06A12.54,12.54,0,0,1,72,39.06Z"/><path class="cls-7" d="M87.66,68.69h0c-7.57-4.09-7.57-10.79,0-14.88L190.79-2c7.57-4.09,20-4.09,27.52,0h0c7.57,4.09,7.57,10.79,0,14.88L115.19,68.69C107.62,72.78,95.23,72.78,87.66,68.69Z"/><path class="cls-8" d="M236.18,40.69h0c-4.91-2.65-4.91-7,0-9.65L275.32,9.87c4.91-2.65,12.94-2.65,17.85,0h0c4.91,2.65,4.91,7,0,9.65L254,40.69C249.12,43.34,241.09,43.34,236.18,40.69Z"/><path class="cls-9" d="M142,77h0c-4.91-2.65-4.91-7,0-9.65L170,52.2c4.91-2.65,12.94-2.65,17.85,0h0c4.91,2.65,4.91,7,0,9.65L159.8,77C154.9,79.66,146.86,79.66,142,77Z"/><path class="cls-9" d="M263.17,69.13h0c-4.91-2.65-4.91-7,0-9.65l28-15.15c4.91-2.65,12.94-2.65,17.85,0h0c4.91,2.65,4.91,7,0,9.65L281,69.13C276.11,71.79,268.08,71.79,263.17,69.13Z"/><path class="cls-10" d="M152.7,92.74h0c-2.93-1.58-2.93-4.18,0-5.76l66.95-36.21a12.54,12.54,0,0,1,10.66,0h0c2.93,1.58,2.93,4.18,0,5.76L163.36,92.74A12.54,12.54,0,0,1,152.7,92.74Z"/><path class="cls-5" d="M130.82,63.37h0c-7.57-4.09-7.57-10.79,0-14.88L234-7.29c7.57-4.09,20-4.09,27.52,0h0C269-3.2,269,3.5,261.48,7.59L158.35,63.37C150.78,67.46,138.39,67.46,130.82,63.37Z"/><path class="cls-7" d="M196.84,39.17h0c-2.68-1.45-2.68-3.81,0-5.26l89.74-48.54a11.45,11.45,0,0,1,9.73,0h0c2.68,1.45,2.68,3.81,0,5.26L206.57,39.17A11.45,11.45,0,0,1,196.84,39.17Z"/><path class="cls-10" d="M281.82,16h0c-1.88-1-1.88-2.69,0-3.71L302,1.36a8.06,8.06,0,0,1,6.85,0h0c1.88,1,1.88,2.69,0,3.71L288.67,16A8.06,8.06,0,0,1,281.82,16Z"/><path class="cls-10" d="M86.56,39.63h0c-1.88-1-1.88-2.69,0-3.71L106.76,25a8.06,8.06,0,0,1,6.85,0h0c1.88,1,1.88,2.69,0,3.71L93.41,39.63A8.06,8.06,0,0,1,86.56,39.63Z"/><path class="cls-7" d="M171.87-1a4.68,4.68,0,0,0-4,0L156.16,5.31c-1.09.59-1.09,1.56,0,2.15a4.68,4.68,0,0,0,4,0l11.73-6.34C173,.53,173-.44,171.87-1Z"/><path class="cls-8" d="M201.21,48.62a4.68,4.68,0,0,0-4,0L185.5,55c-1.09.59-1.09,1.56,0,2.15a4.68,4.68,0,0,0,4,0l11.73-6.34C202.31,50.18,202.31,49.21,201.21,48.62Z"/><path class="cls-10" d="M182.62,35.45h0c-.57-.31-.57-.82,0-1.13L287.91-22.62a2.45,2.45,0,0,1,2.08,0h0c.57.31.57.82,0,1.13L184.71,35.45A2.45,2.45,0,0,1,182.62,35.45Z"/><path class="cls-10" d="M209.5,75.92h0c-.57-.31-.57-.82,0-1.13L314.78,17.86a2.45,2.45,0,0,1,2.08,0h0c.57.31.57.82,0,1.13L211.58,75.92A2.45,2.45,0,0,1,209.5,75.92Z"/><path class="cls-10" d="M117.2,72.25h0c-.57-.31-.57-.82,0-1.13L143.39,57a2.45,2.45,0,0,1,2.08,0h0c.57.31.57.82,0,1.13L119.29,72.25A2.45,2.45,0,0,1,117.2,72.25Z"/><path class="cls-10" d="M40,37h0c-.57-.31-.57-.82,0-1.13L66.21,21.7a2.45,2.45,0,0,1,2.08,0h0c.57.31.57.82,0,1.13L42.1,37A2.45,2.45,0,0,1,40,37Z"/><path class="cls-5" d="M222.17,43.33h0c-.57-.31-.57-.82,0-1.13L248.36,28a2.45,2.45,0,0,1,2.08,0h0c.57.31.57.82,0,1.13L224.26,43.33A2.45,2.45,0,0,1,222.17,43.33Z"/><path class="cls-10" d="M135.31,5.16h0c-.57-.31-.57-.82,0-1.13L161.5-10.13a2.45,2.45,0,0,1,2.08,0h0c.57.31.57.82,0,1.13L137.4,5.16A2.45,2.45,0,0,1,135.31,5.16Z"/><path class="cls-8" d="M83.15,48.75a4.54,4.54,0,0,0-3.86,0L67.93,54.9c-1.06.57-1.06,1.51,0,2.09a4.54,4.54,0,0,0,3.86,0l11.37-6.15C84.21,50.26,84.21,49.32,83.15,48.75Z"/><path class="cls-5" d="M163,21.16a4.54,4.54,0,0,0-3.86,0l-11.37,6.15c-1.06.57-1.06,1.51,0,2.09a4.54,4.54,0,0,0,3.86,0L163,23.24C164,22.67,164,21.73,163,21.16Z"/><path class="cls-8" d="M251.15,67.33h0c-1.88-1-1.88-2.69,0-3.71l20.2-10.93a8.06,8.06,0,0,1,6.85,0h0c1.88,1,1.88,2.69,0,3.71L258,67.33A8.06,8.06,0,0,1,251.15,67.33Z"/><path class="cls-8" d="M161.73,46.06a5.37,5.37,0,0,0-4.56,0l-3.24,1.75c-1.25.68-1.25,1.79,0,2.47a5.37,5.37,0,0,0,4.56,0l3.24-1.75C163,47.85,163,46.74,161.73,46.06Z"/><path class="cls-7" d="M236.4,48.68a5.37,5.37,0,0,0-4.56,0l-3.24,1.75c-1.25.68-1.25,1.79,0,2.47a5.37,5.37,0,0,0,4.56,0l3.24-1.75C237.66,50.47,237.66,49.36,236.4,48.68Z"/><path class="cls-6" d="M313.92,233.27h0c-1.27-.69-1.27-1.82,0-2.51l90.46-48.92a5.45,5.45,0,0,1,4.63,0h0c1.27.69,1.27,1.82,0,2.51l-90.46,48.92A5.45,5.45,0,0,1,313.92,233.27Z"/><path class="cls-10" d="M323,204h0c-1.88-1-1.88-2.69,0-3.71l20.2-10.93a8.06,8.06,0,0,1,6.85,0h0c1.88,1,1.88,2.69,0,3.71L329.81,204A8.06,8.06,0,0,1,323,204Z"/><path class="cls-7" d="M256,183.83a4.68,4.68,0,0,0-4,0l-11.73,6.34c-1.09.59-1.09,1.56,0,2.15a4.68,4.68,0,0,0,4,0L256,186C257.09,185.39,257.09,184.43,256,183.83Z"/><path class="cls-10" d="M201.33,257.12h0c-.57-.31-.57-.82,0-1.13l26.19-14.16a2.45,2.45,0,0,1,2.08,0h0c.57.31.57.82,0,1.13l-26.19,14.16A2.45,2.45,0,0,1,201.33,257.12Z"/><path class="cls-5" d="M263.31,231.36h0c-.57-.31-.57-.82,0-1.13l26.19-14.16a2.45,2.45,0,0,1,2.08,0h0c.57.31.57.82,0,1.13L265.4,231.36A2.45,2.45,0,0,1,263.31,231.36Z"/><path class="cls-8" d="M447.78,158.44a4.54,4.54,0,0,0-3.86,0l-11.37,6.15c-1.06.57-1.06,1.51,0,2.09a4.54,4.54,0,0,0,3.86,0l11.37-6.15C448.84,160,448.84,159,447.78,158.44Z"/><path class="cls-5" d="M247.08,206a4.54,4.54,0,0,0-3.86,0l-11.37,6.15c-1.06.57-1.06,1.51,0,2.09a4.54,4.54,0,0,0,3.86,0l11.37-6.15C248.14,207.54,248.14,206.6,247.08,206Z"/><path class="cls-6" d="M381,163.07a5.37,5.37,0,0,0-4.56,0l-3.24,1.75c-1.25.68-1.25,1.79,0,2.47a5.37,5.37,0,0,0,4.56,0l3.24-1.75C382.25,164.86,382.25,163.75,381,163.07Z"/><path class="cls-8" d="M318.85,217.19a5.37,5.37,0,0,0-4.56,0l-3.24,1.75c-1.25.68-1.25,1.79,0,2.47a5.37,5.37,0,0,0,4.56,0l3.24-1.75C320.1,219,320.1,217.87,318.85,217.19Z"/><path class="cls-5" d="M282,196h0c-.57-.31-.57-.82,0-1.13l44.48-24.06a2.45,2.45,0,0,1,2.08,0h0c.57.31.57.82,0,1.13L284.07,196A2.45,2.45,0,0,1,282,196Z"/><path class="cls-8" d="M245.86,230.93a5.37,5.37,0,0,0-4.56,0l-3.24,1.75c-1.25.68-1.25,1.79,0,2.47a5.37,5.37,0,0,0,4.56,0l3.24-1.75C247.11,232.72,247.11,231.61,245.86,230.93Z"/><path class="cls-7" d="M277.54,236.71a5.37,5.37,0,0,0-4.56,0l-3.24,1.75c-1.25.68-1.25,1.79,0,2.47a5.37,5.37,0,0,0,4.56,0l3.24-1.75C278.8,238.5,278.8,237.39,277.54,236.71Z"/><path class="cls-6" d="M4.31,33h0C3,32.34,3,31.21,4.31,30.52L94.77-18.4a5.45,5.45,0,0,1,4.63,0h0c1.27.69,1.27,1.82,0,2.51L8.94,33A5.45,5.45,0,0,1,4.31,33Z"/><path class="cls-10" d="M13.34,3.78h0c-1.88-1-1.88-2.69,0-3.71l20.2-10.93a8.06,8.06,0,0,1,6.85,0h0c1.88,1,1.88,2.69,0,3.71L20.19,3.78A8.06,8.06,0,0,1,13.34,3.78Z"/><path class="cls-8" d="M9.23,17a5.37,5.37,0,0,0-4.56,0L1.43,18.71c-1.25.68-1.25,1.79,0,2.47a5.37,5.37,0,0,0,4.56,0l3.24-1.75C10.49,18.74,10.49,17.63,9.23,17Z"/><path class="cls-7" d="M684.54,116.88a6.9,6.9,0,0,0-5.75,0l-17,9c-1.58.84-1.58,2.21,0,3a6.9,6.9,0,0,0,5.75,0l17-9C686.12,119.09,686.12,117.72,684.54,116.88Z"/><path class="cls-10" d="M619.08,187.34h0c-.57-.31-.57-.82,0-1.13l26.19-14.16a2.45,2.45,0,0,1,2.08,0h0c.57.31.57.82,0,1.13l-26.19,14.16A2.45,2.45,0,0,1,619.08,187.34Z"/><path class="cls-10" d="M681.06,161.58h0c-.57-.31-.57-.82,0-1.13l26.19-14.16a2.45,2.45,0,0,1,2.08,0h0c.57.31.57.82,0,1.13l-26.19,14.16A2.45,2.45,0,0,1,681.06,161.58Z"/><path class="cls-5" d="M682.18,139.22a4.54,4.54,0,0,0-3.86,0L667,145.36c-1.06.57-1.06,1.51,0,2.09a4.54,4.54,0,0,0,3.86,0l11.37-6.15C683.24,140.73,683.24,139.79,682.18,139.22Z"/><path class="cls-5" d="M699.73,126.21h0c-.57-.31-.57-.82,0-1.13L744.22,101a2.45,2.45,0,0,1,2.08,0h0c.57.31.57.82,0,1.13l-44.48,24.06A2.45,2.45,0,0,1,699.73,126.21Z"/><path class="cls-8" d="M662.45,159.51a5.37,5.37,0,0,0-4.56,0l-3.24,1.75c-1.25.68-1.25,1.79,0,2.47a5.37,5.37,0,0,0,4.56,0l3.24-1.75C663.71,161.3,663.71,160.19,662.45,159.51Z"/><path class="cls-8" d="M686.88,175.66a5.37,5.37,0,0,0-4.56,0l-3.24,1.75c-1.25.68-1.25,1.79,0,2.47a5.37,5.37,0,0,0,4.56,0l3.24-1.75C688.13,177.45,688.13,176.34,686.88,175.66Z"/><path class="cls-6" d="M31.9,162.31h0c1.27.69,1.27,1.82,0,2.51l-90.46,48.92a5.45,5.45,0,0,1-4.63,0h0c-1.27-.69-1.27-1.82,0-2.51l90.46-48.92A5.45,5.45,0,0,1,31.9,162.31Z"/><path class="cls-10" d="M22.86,191.55h0c1.88,1,1.88,2.69,0,3.71L2.66,206.18a8.06,8.06,0,0,1-6.85,0h0c-1.88-1-1.88-2.69,0-3.71L16,191.55A8.06,8.06,0,0,1,22.86,191.55Z"/><path class="cls-7" d="M79,208.91a6.9,6.9,0,0,0,5.75,0l17-9c1.58-.84,1.58-2.21,0-3a6.9,6.9,0,0,0-5.75,0l-17,9C77.44,206.7,77.44,208.07,79,208.91Z"/><path class="cls-10" d="M144.49,138.45h0c.57.31.57.82,0,1.13L118.3,153.74a2.45,2.45,0,0,1-2.08,0h0c-.57-.31-.57-.82,0-1.13l26.19-14.16A2.45,2.45,0,0,1,144.49,138.45Z"/><path class="cls-10" d="M82.51,164.21h0c.57.31.57.82,0,1.13L56.32,179.51a2.45,2.45,0,0,1-2.08,0h0c-.57-.31-.57-.82,0-1.13l26.19-14.16A2.45,2.45,0,0,1,82.51,164.21Z"/><path class="cls-5" d="M81.39,186.58a4.54,4.54,0,0,0,3.86,0l11.37-6.15c1.06-.57,1.06-1.51,0-2.09a4.54,4.54,0,0,0-3.86,0l-11.37,6.15C80.33,185.07,80.33,186,81.39,186.58Z"/><path class="cls-8" d="M27,178.38a5.37,5.37,0,0,0,4.56,0l3.24-1.75c1.25-.68,1.25-1.79,0-2.47a5.37,5.37,0,0,0-4.56,0L27,175.91C25.72,176.59,25.72,177.7,27,178.38Z"/><path class="cls-5" d="M63.83,199.59h0c.57.31.57.82,0,1.13L19.35,224.77a2.45,2.45,0,0,1-2.08,0h0c-.57-.31-.57-.82,0-1.13l44.48-24.06A2.45,2.45,0,0,1,63.83,199.59Z"/><path class="cls-8" d="M101.12,166.28a5.37,5.37,0,0,0,4.56,0l3.24-1.75c1.25-.68,1.25-1.79,0-2.47a5.37,5.37,0,0,0-4.56,0l-3.24,1.75C99.86,164.49,99.86,165.6,101.12,166.28Z"/><path class="cls-8" d="M76.69,150.13a5.37,5.37,0,0,0,4.56,0l3.24-1.75c1.25-.68,1.25-1.79,0-2.47a5.37,5.37,0,0,0-4.56,0l-3.24,1.75C75.44,148.35,75.44,149.46,76.69,150.13Z"/><path class="cls-7" d="M690.36,7a6.9,6.9,0,0,0-5.75,0l-17,9c-1.58.84-1.58,2.21,0,3a6.9,6.9,0,0,0,5.75,0l17-9C691.95,9.23,691.95,7.86,690.36,7Z"/><path class="cls-10" d="M624.9,77.49h0c-.57-.31-.57-.82,0-1.13l26.19-14.16a2.45,2.45,0,0,1,2.08,0h0c.57.31.57.82,0,1.13L627,77.49A2.45,2.45,0,0,1,624.9,77.49Z"/><path class="cls-10" d="M686.88,51.72h0c-.57-.31-.57-.82,0-1.13l26.19-14.16a2.45,2.45,0,0,1,2.08,0h0c.57.31.57.82,0,1.13L689,51.72A2.45,2.45,0,0,1,686.88,51.72Z"/><path class="cls-5" d="M688,29.36a4.54,4.54,0,0,0-3.86,0l-11.37,6.15c-1.06.57-1.06,1.51,0,2.09a4.54,4.54,0,0,0,3.86,0L688,31.44C689.06,30.87,689.06,29.93,688,29.36Z"/><path class="cls-8" d="M668.27,49.66a5.37,5.37,0,0,0-4.56,0l-3.24,1.75c-1.25.68-1.25,1.79,0,2.47a5.37,5.37,0,0,0,4.56,0l3.24-1.75C669.53,51.45,669.53,50.34,668.27,49.66Z"/><path class="cls-8" d="M692.7,65.8a5.37,5.37,0,0,0-4.56,0l-3.24,1.75c-1.25.68-1.25,1.79,0,2.47a5.37,5.37,0,0,0,4.56,0l3.24-1.75C694,67.59,694,66.48,692.7,65.8Z"/><path class="cls-6" d="M434.34,42.39h0c-1.27-.69-1.27-1.82,0-2.51L524.8-9a5.45,5.45,0,0,1,4.63,0h0c1.27.69,1.27,1.82,0,2.51L439,42.39A5.45,5.45,0,0,1,434.34,42.39Z"/><path class="cls-6" d="M363.43,78.9h0c-1.27-.69-1.27-1.82,0-2.51l20.41-11a5.45,5.45,0,0,1,4.63,0h0c1.27.69,1.27,1.82,0,2.51l-20.41,11A5.45,5.45,0,0,1,363.43,78.9Z"/><path class="cls-10" d="M443.37,13.15h0c-1.88-1-1.88-2.69,0-3.71l20.2-10.93a8.06,8.06,0,0,1,6.85,0h0c1.88,1,1.88,2.69,0,3.71l-20.2,10.93A8.06,8.06,0,0,1,443.37,13.15Z"/><path class="cls-7" d="M376.41-7a4.68,4.68,0,0,0-4,0L360.7-.7c-1.09.59-1.09,1.56,0,2.15a4.68,4.68,0,0,0,4,0l11.73-6.34C377.51-5.48,377.51-6.45,376.41-7Z"/><path class="cls-10" d="M321.74,66.25h0c-.57-.31-.57-.82,0-1.13L347.93,51A2.45,2.45,0,0,1,350,51h0c.57.31.57.82,0,1.13L323.83,66.25A2.45,2.45,0,0,1,321.74,66.25Z"/><path class="cls-5" d="M383.72,40.48h0c-.57-.31-.57-.82,0-1.13l26.19-14.16a2.45,2.45,0,0,1,2.08,0h0c.57.31.57.82,0,1.13L385.81,40.48A2.45,2.45,0,0,1,383.72,40.48Z"/><path class="cls-5" d="M367.49,15.15a4.54,4.54,0,0,0-3.86,0L352.27,21.3c-1.06.57-1.06,1.51,0,2.09a4.54,4.54,0,0,0,3.86,0l11.37-6.15C368.56,16.66,368.56,15.72,367.49,15.15Z"/><path class="cls-8" d="M439.26,26.32a5.37,5.37,0,0,0-4.56,0l-3.24,1.75c-1.25.68-1.25,1.79,0,2.47a5.37,5.37,0,0,0,4.56,0l3.24-1.75C440.52,28.11,440.52,27,439.26,26.32Z"/><path class="cls-5" d="M402.4,5.11h0c-.57-.31-.57-.82,0-1.13l44.48-24.06a2.45,2.45,0,0,1,2.08,0h0c.57.31.57.82,0,1.13L404.48,5.11A2.45,2.45,0,0,1,402.4,5.11Z"/><path class="cls-8" d="M366.27,40.06a5.37,5.37,0,0,0-4.56,0l-3.24,1.75c-1.25.68-1.25,1.79,0,2.47a5.37,5.37,0,0,0,4.56,0l3.24-1.75C367.53,41.85,367.53,40.74,366.27,40.06Z"/><path class="cls-7" d="M398,45.84a5.37,5.37,0,0,0-4.56,0l-3.24,1.75c-1.25.68-1.25,1.79,0,2.47a5.37,5.37,0,0,0,4.56,0L398,48.3C399.21,47.62,399.21,46.51,398,45.84Z"/><path class="cls-7" d="M709.84,182.9a4.68,4.68,0,0,0-4,0l-11.73,6.34c-1.09.59-1.09,1.56,0,2.15a4.68,4.68,0,0,0,4,0l11.73-6.34C710.94,184.46,710.94,183.49,709.84,182.9Z"/><path class="cls-10" d="M655.18,256.18h0c-.57-.31-.57-.82,0-1.13l26.19-14.16a2.45,2.45,0,0,1,2.08,0h0c.57.31.57.82,0,1.13l-26.19,14.16A2.45,2.45,0,0,1,655.18,256.18Z"/><path class="cls-5" d="M700.93,205.09a4.54,4.54,0,0,0-3.86,0l-11.37,6.15c-1.06.57-1.06,1.51,0,2.09a4.54,4.54,0,0,0,3.86,0l11.37-6.15C702,206.6,702,205.66,700.93,205.09Z"/><path class="cls-8" d="M699.7,230a5.37,5.37,0,0,0-4.56,0l-3.24,1.75c-1.25.68-1.25,1.79,0,2.47a5.37,5.37,0,0,0,4.56,0l3.24-1.75C701,231.78,701,230.67,699.7,230Z"/><path class="cls-10" d="M538.66,44.52h0c1.88,1,1.88,2.69,0,3.71l-20.2,10.93a8.06,8.06,0,0,1-6.85,0h0c-1.88-1-1.88-2.69,0-3.71l20.2-10.93A8.06,8.06,0,0,1,538.66,44.52Z"/><path class="cls-7" d="M607.06,66.69a4.68,4.68,0,0,0,4,0l11.73-6.34c1.09-.59,1.09-1.56,0-2.15a4.68,4.68,0,0,0-4,0l-11.73,6.34C606,65.13,606,66.1,607.06,66.69Z"/><path class="cls-10" d="M661.73-6.6h0c.57.31.57.82,0,1.13L635.54,8.69a2.45,2.45,0,0,1-2.08,0h0c-.57-.31-.57-.82,0-1.13L659.64-6.6A2.45,2.45,0,0,1,661.73-6.6Z"/><path class="cls-5" d="M597,14.15h0c.57.31.57.82,0,1.13L570.81,29.44a2.45,2.45,0,0,1-2.08,0h0c-.57-.31-.57-.82,0-1.13l26.19-14.16A2.45,2.45,0,0,1,597,14.15Z"/><path class="cls-8" d="M471.69,58.42a4.54,4.54,0,0,0,3.86,0l11.37-6.15c1.06-.57,1.06-1.51,0-2.09a4.54,4.54,0,0,0-3.86,0l-11.37,6.15C470.63,56.91,470.63,57.85,471.69,58.42Z"/><path class="cls-5" d="M616,44.5a4.54,4.54,0,0,0,3.86,0l11.37-6.15c1.06-.57,1.06-1.51,0-2.09a4.54,4.54,0,0,0-3.86,0L616,42.41C614.92,43,614.92,43.92,616,44.5Z"/><path class="cls-6" d="M563.82,85.53a5.37,5.37,0,0,0,4.56,0l3.24-1.75c1.25-.68,1.25-1.79,0-2.47a5.37,5.37,0,0,0-4.56,0l-3.24,1.75C562.57,83.74,562.57,84.85,563.82,85.53Z"/><path class="cls-8" d="M516.39,23.67a5.37,5.37,0,0,0,4.56,0l3.24-1.75c1.25-.68,1.25-1.79,0-2.47a5.37,5.37,0,0,0-4.56,0l-3.24,1.75C515.14,21.88,515.14,23,516.39,23.67Z"/><path class="cls-5" d="M581.07,54.54h0c.57.31.57.82,0,1.13L536.59,79.72a2.45,2.45,0,0,1-2.08,0h0c-.57-.31-.57-.82,0-1.13L579,54.54A2.45,2.45,0,0,1,581.07,54.54Z"/><path class="cls-8" d="M617.2,19.59a5.37,5.37,0,0,0,4.56,0L625,17.84c1.25-.68,1.25-1.79,0-2.47a5.37,5.37,0,0,0-4.56,0l-3.24,1.75C615.95,17.8,615.95,18.91,617.2,19.59Z"/><path class="cls-7" d="M577.6,1.54a5.37,5.37,0,0,0,4.56,0L585.4-.21c1.25-.68,1.25-1.79,0-2.47a5.37,5.37,0,0,0-4.56,0L577.6-.93C576.35-.25,576.35.86,577.6,1.54Z"/><path class="cls-10" d="M80.44,230.36h0c1.88,1,1.88,2.69,0,3.71L60.24,245a8.06,8.06,0,0,1-6.85,0h0c-1.88-1-1.88-2.69,0-3.71l20.2-10.93A8.06,8.06,0,0,1,80.44,230.36Z"/><path class="cls-7" d="M148.84,252.53a4.68,4.68,0,0,0,4,0l11.73-6.34c1.09-.59,1.09-1.56,0-2.15a4.68,4.68,0,0,0-4,0l-11.73,6.34C147.74,251,147.74,251.94,148.84,252.53Z"/><path class="cls-10" d="M203.5,179.24h0c.57.31.57.82,0,1.13l-26.19,14.16a2.45,2.45,0,0,1-2.08,0h0c-.57-.31-.57-.82,0-1.13l26.19-14.16A2.45,2.45,0,0,1,203.5,179.24Z"/><path class="cls-5" d="M138.78,200h0c.57.31.57.82,0,1.13l-26.19,14.16a2.45,2.45,0,0,1-2.08,0h0c-.57-.31-.57-.82,0-1.13L136.69,200A2.45,2.45,0,0,1,138.78,200Z"/><path class="cls-8" d="M13.47,244.26a4.54,4.54,0,0,0,3.86,0l11.37-6.15c1.06-.57,1.06-1.51,0-2.09a4.54,4.54,0,0,0-3.86,0l-11.37,6.15C12.41,242.75,12.41,243.69,13.47,244.26Z"/><path class="cls-5" d="M157.75,230.34a4.54,4.54,0,0,0,3.86,0L173,224.19c1.06-.57,1.06-1.51,0-2.09a4.54,4.54,0,0,0-3.86,0l-11.37,6.15C156.69,228.83,156.69,229.76,157.75,230.34Z"/><path class="cls-8" d="M58.17,209.51a5.37,5.37,0,0,0,4.56,0L66,207.76c1.25-.68,1.25-1.79,0-2.47a5.37,5.37,0,0,0-4.56,0L58.17,207C56.91,207.72,56.91,208.83,58.17,209.51Z"/><path class="cls-5" d="M122.85,240.38h0c.57.31.57.82,0,1.13L78.37,265.57a2.45,2.45,0,0,1-2.08,0h0c-.57-.31-.57-.82,0-1.13l44.48-24.06A2.45,2.45,0,0,1,122.85,240.38Z"/><path class="cls-8" d="M159,205.43a5.37,5.37,0,0,0,4.56,0l3.24-1.75c1.25-.68,1.25-1.79,0-2.47a5.37,5.37,0,0,0-4.56,0L159,203C157.72,203.64,157.72,204.75,159,205.43Z"/><path class="cls-7" d="M119.38,187.38a5.37,5.37,0,0,0,4.56,0l3.24-1.75c1.25-.68,1.25-1.79,0-2.47a5.37,5.37,0,0,0-4.56,0l-3.24,1.75C118.13,185.59,118.13,186.7,119.38,187.38Z"/></g><text class="cls-11" transform="translate(209.11 124.55)">INSCRIPCIONES</text></svg>