<svg id="Capa_1" data-name="Capa 1" xmlns="http://www.w3.org/2000/svg" xmlns:xlink="http://www.w3.org/1999/xlink" viewBox="0 0 1334 750"><defs><style>.cls-1{fill:none;}.cls-2{fill:#00b4c2;}.cls-3{clip-path:url(#clip-path);}.cls-4{fill:#b4eaf4;}.cls-5{fill:#00a4a3;}.cls-6{fill:#00657e;}.cls-7{fill:#005572;}.cls-8{fill:#00d1cb;}.cls-9{fill:#00989f;}.cls-10{fill:#d4dce8;}.cls-11{font-size:62.68px;fill:#fff;font-family:Montserrat-Medium, Montserrat;letter-spacing:0.05em;}</style><clipPath id="clip-path"><rect class="cls-1" x="-75" y="-55.97" width="1486.07" height="836.71"/></clipPath></defs><title>inscripciones</title><rect class="cls-1" x="0.93" width="1332.07" height="750"/><rect class="cls-2" x="-2" width="1337" height="750"/><g class="cls-3"><path class="cls-4" d="M906.59,619.95h0a5,5,0,0,1,0-7.89L1192.4,370.67a7.52,7.52,0,0,1,9.34,0h0a5,5,0,0,1,0,7.89L915.93,619.95A7.52,7.52,0,0,1,906.59,619.95Z"/><path class="cls-4" d="M719.59,777.87h0a5,5,0,0,1,0-7.89L788,712.23a7.52,7.52,0,0,1,9.34,0h0a5,5,0,0,1,0,7.89l-68.38,57.75A7.52,7.52,0,0,1,719.59,777.87Z"/><path class="cls-5" d="M641.59,743.86h0a10.5,10.5,0,0,1,0-16.57l56.14-47.41a15.78,15.78,0,0,1,19.62,0h0a10.5,10.5,0,0,1,0,16.57l-56.14,47.41A15.78,15.78,0,0,1,641.59,743.86Z"/><path class="cls-6" d="M1056.74,749.57h0a5,5,0,0,1,0-7.89l182.37-154a7.52,7.52,0,0,1,9.34,0h0a5,5,0,0,1,0,7.89l-182.37,154A7.52,7.52,0,0,1,1056.74,749.57Z"/><path class="cls-6" d="M797.17,564.34h0a5,5,0,0,1,0-7.89l182.37-154a7.52,7.52,0,0,1,9.34,0h0a5,5,0,0,1,0,7.89l-182.37,154A7.52,7.52,0,0,1,797.17,564.34Z"/><path class="cls-6" d="M654.23,679.27h0a5,5,0,0,1,0-7.89l41.14-34.75a7.52,7.52,0,0,1,9.34,0h0a5,5,0,0,1,0,7.89l-41.14,34.75A7.52,7.52,0,0,1,654.23,679.27Z"/><path class="cls-5" d="M742.51,656.26h0c-5.91-5-5.91-13.15,0-18.14l135-114a17.29,17.29,0,0,1,21.48,0h0c5.91,5,5.91,13.15,0,18.14l-135,114A17.29,17.29,0,0,1,742.51,656.26Z"/><path class="cls-7" d="M774.19,749.51h0c-15.26-12.89-15.26-34,0-46.86l207.92-175.6c15.26-12.89,40.23-12.89,55.49,0h0c15.26,12.89,15.26,34,0,46.86L829.68,749.51C814.42,762.4,789.45,762.4,774.19,749.51Z"/><path class="cls-8" d="M1073.62,661.36h0c-9.89-8.36-9.89-22,0-30.39l78.91-66.64c9.89-8.36,26.09-8.36,36,0h0c9.89,8.36,9.89,22,0,30.39l-78.91,66.64C1099.7,669.72,1083.51,669.72,1073.62,661.36Z"/><path class="cls-9" d="M883.65,775.72h0c-9.89-8.36-9.89-22,0-30.39l56.49-47.71c9.89-8.36,26.09-8.36,36,0h0c9.89,8.36,9.89,22,0,30.39l-56.49,47.71C909.73,784.08,893.54,784.08,883.65,775.72Z"/><path class="cls-9" d="M1128,750.92h0c-9.89-8.36-9.89-22,0-30.39l56.49-47.71c9.89-8.36,26.09-8.36,36,0h0c9.89,8.36,9.89,22,0,30.39L1164,750.92C1154.11,759.28,1137.92,759.28,1128,750.92Z"/><path class="cls-10" d="M905.31,825.24h0c-5.91-5-5.91-13.15,0-18.14l135-114a17.29,17.29,0,0,1,21.48,0h0c5.91,5,5.91,13.15,0,18.14l-135,114A17.29,17.29,0,0,1,905.31,825.24Z"/><path class="cls-5" d="M861.21,732.78h0c-15.26-12.89-15.26-34,0-46.86l207.92-175.6c15.26-12.89,40.23-12.89,55.49,0h0c15.26,12.89,15.26,34,0,46.86L916.69,732.78C901.43,745.66,876.46,745.66,861.21,732.78Z"/><path class="cls-7" d="M994.3,656.58h0a10.5,10.5,0,0,1,0-16.57l180.93-152.81a15.78,15.78,0,0,1,19.62,0h0a10.5,10.5,0,0,1,0,16.57L1013.92,656.58A15.78,15.78,0,0,1,994.3,656.58Z"/><path class="cls-10" d="M1165.62,583.62h0a7.4,7.4,0,0,1,0-11.67l40.73-34.4a11.12,11.12,0,0,1,13.82,0h0a7.4,7.4,0,0,1,0,11.67l-40.73,34.4A11.12,11.12,0,0,1,1165.62,583.62Z"/><path class="cls-10" d="M772,658h0a7.4,7.4,0,0,1,0-11.67L812.69,612a11.12,11.12,0,0,1,13.82,0h0a7.4,7.4,0,0,1,0,11.67L785.78,658A11.12,11.12,0,0,1,772,658Z"/><path class="cls-7" d="M944,530a6.46,6.46,0,0,0-8,0l-23.65,20a4.3,4.3,0,0,0,0,6.78,6.46,6.46,0,0,0,8,0l23.65-20A4.3,4.3,0,0,0,944,530Z"/><path class="cls-8" d="M1003.11,686.33a6.46,6.46,0,0,0-8,0l-23.65,20a4.3,4.3,0,0,0,0,6.78,6.46,6.46,0,0,0,8,0l23.65-20A4.3,4.3,0,0,0,1003.11,686.33Z"/><path class="cls-10" d="M965.64,644.88h0a2.25,2.25,0,0,1,0-3.55L1177.9,462.06a3.38,3.38,0,0,1,4.2,0h0a2.25,2.25,0,0,1,0,3.55L969.84,644.88A3.38,3.38,0,0,1,965.64,644.88Z"/><path class="cls-10" d="M984.39,484.05h0a2.25,2.25,0,0,1,0-3.55l158.62-134a3.38,3.38,0,0,1,4.2,0h0a2.25,2.25,0,0,1,0,3.55l-158.62,134A3.38,3.38,0,0,1,984.39,484.05Z"/><path class="cls-10" d="M1019.81,772.3h0a2.25,2.25,0,0,1,0-3.55l212.26-179.27a3.38,3.38,0,0,1,4.2,0h0a2.25,2.25,0,0,1,0,3.55L1024,772.3A3.38,3.38,0,0,1,1019.81,772.3Z"/><path class="cls-10" d="M833.74,760.74h0a2.25,2.25,0,0,1,0-3.55l52.8-44.59a3.38,3.38,0,0,1,4.2,0h0a2.25,2.25,0,0,1,0,3.55l-52.8,44.59A3.38,3.38,0,0,1,833.74,760.74Z"/><path class="cls-10" d="M678.14,649.74h0a2.25,2.25,0,0,1,0-3.55l52.8-44.59a3.38,3.38,0,0,1,4.2,0h0a2.25,2.25,0,0,1,0,3.55l-52.8,44.59A3.38,3.38,0,0,1,678.14,649.74Z"/><path class="cls-5" d="M1045.37,669.68h0a2.25,2.25,0,0,1,0-3.55l52.8-44.59a3.38,3.38,0,0,1,4.2,0h0a2.25,2.25,0,0,1,0,3.55l-52.8,44.59A3.38,3.38,0,0,1,1045.37,669.68Z"/><path class="cls-5" d="M994.24,423.72h0a2.25,2.25,0,0,1,0-3.55l52.8-44.59a3.38,3.38,0,0,1,4.2,0h0a2.25,2.25,0,0,1,0,3.55l-52.8,44.59A3.38,3.38,0,0,1,994.24,423.72Z"/><path class="cls-10" d="M870.25,549.53h0a2.25,2.25,0,0,1,0-3.55l52.8-44.59a3.38,3.38,0,0,1,4.2,0h0a2.25,2.25,0,0,1,0,3.55l-52.8,44.59A3.38,3.38,0,0,1,870.25,549.53Z"/><path class="cls-8" d="M765.09,686.74a6.26,6.26,0,0,0-7.77,0L734.4,706.1a4.16,4.16,0,0,0,0,6.57,6.26,6.26,0,0,0,7.77,0l22.92-19.35A4.16,4.16,0,0,0,765.09,686.74Z"/><path class="cls-5" d="M926,599.88a6.26,6.26,0,0,0-7.77,0l-22.92,19.35a4.16,4.16,0,0,0,0,6.57,6.26,6.26,0,0,0,7.77,0L926,606.45A4.16,4.16,0,0,0,926,599.88Z"/><path class="cls-8" d="M1103.79,745.23h0a7.4,7.4,0,0,1,0-11.67l40.73-34.4a11.12,11.12,0,0,1,13.82,0h0a7.4,7.4,0,0,1,0,11.67l-40.73,34.4A11.12,11.12,0,0,1,1103.79,745.23Z"/><path class="cls-6" d="M1129.16,389.19a7.4,7.4,0,0,0-9.2,0l-6.53,5.51a4.92,4.92,0,0,0,0,7.77,7.4,7.4,0,0,0,9.2,0l6.53-5.51A4.92,4.92,0,0,0,1129.16,389.19Z"/><path class="cls-8" d="M807.1,513.74a7.4,7.4,0,0,0-9.2,0l-6.53,5.51a4.92,4.92,0,0,0,0,7.77,7.4,7.4,0,0,0,9.2,0l6.53-5.51A4.92,4.92,0,0,0,807.1,513.74Z"/><path class="cls-8" d="M965.3,502.95h0c-9.89-8.36-9.89-22,0-30.39l78.91-66.64c9.89-8.36,26.09-8.36,36,0h0c9.89,8.36,9.89,22,0,30.39l-78.91,66.64C991.38,511.3,975.19,511.3,965.3,502.95Z"/><path class="cls-5" d="M969.29,519.38h0a2.25,2.25,0,0,1,0-3.55L1059,440.08a3.38,3.38,0,0,1,4.2,0h0a2.25,2.25,0,0,1,0,3.55l-89.68,75.74A3.38,3.38,0,0,1,969.29,519.38Z"/><path class="cls-8" d="M923.51,678.29a7.4,7.4,0,0,0-9.2,0l-6.53,5.51a4.92,4.92,0,0,0,0,7.77,7.4,7.4,0,0,0,9.2,0l6.53-5.51A4.92,4.92,0,0,0,923.51,678.29Z"/><path class="cls-7" d="M1074.06,686.54a7.4,7.4,0,0,0-9.2,0l-6.53,5.51a4.92,4.92,0,0,0,0,7.77,7.4,7.4,0,0,0,9.2,0l6.53-5.51A4.92,4.92,0,0,0,1074.06,686.54Z"/><path class="cls-4" d="M234.35,84.23h0a5,5,0,0,1,0-7.89L520.17-165.05a7.52,7.52,0,0,1,9.34,0h0a5,5,0,0,1,0,7.89L243.69,84.23A7.52,7.52,0,0,1,234.35,84.23Z"/><path class="cls-4" d="M47.35,242.15h0a5,5,0,0,1,0-7.89l68.38-57.75a7.52,7.52,0,0,1,9.34,0h0a5,5,0,0,1,0,7.89L56.69,242.15A7.52,7.52,0,0,1,47.35,242.15Z"/><path class="cls-5" d="M-30.64,208.14h0a10.5,10.5,0,0,1,0-16.57L25.5,144.16a15.78,15.78,0,0,1,19.62,0h0a10.5,10.5,0,0,1,0,16.57L-11,208.14A15.78,15.78,0,0,1-30.64,208.14Z"/><path class="cls-6" d="M384.5,213.85h0a5,5,0,0,1,0-7.89l182.37-154a7.52,7.52,0,0,1,9.34,0h0a5,5,0,0,1,0,7.89l-182.37,154A7.52,7.52,0,0,1,384.5,213.85Z"/><path class="cls-6" d="M214.32,360h0a5,5,0,0,1,0-7.89l92.43-78.06a7.52,7.52,0,0,1,9.34,0h0a5,5,0,0,1,0,7.89L223.66,360A7.52,7.52,0,0,1,214.32,360Z"/><path class="cls-6" d="M124.94,28.62h0a5,5,0,0,1,0-7.89l182.37-154a7.52,7.52,0,0,1,9.34,0h0a5,5,0,0,1,0,7.89l-182.37,154A7.52,7.52,0,0,1,124.94,28.62Z"/><path class="cls-6" d="M-18,143.55h0a5,5,0,0,1,0-7.89l41.14-34.75a7.52,7.52,0,0,1,9.34,0h0a5,5,0,0,1,0,7.89L-8.67,143.55A7.52,7.52,0,0,1-18,143.55Z"/><path class="cls-5" d="M70.28,120.54h0c-5.91-5-5.91-13.15,0-18.14l135-114a17.29,17.29,0,0,1,21.48,0h0c5.91,5,5.91,13.15,0,18.14l-135,114A17.29,17.29,0,0,1,70.28,120.54Z"/><path class="cls-7" d="M102,213.79h0c-15.26-12.89-15.26-34,0-46.86L309.87-8.67c15.26-12.89,40.23-12.89,55.49,0h0c15.26,12.89,15.26,34,0,46.86L157.44,213.79C142.18,226.68,117.21,226.68,102,213.79Z"/><path class="cls-8" d="M401.38,125.64h0c-9.89-8.36-9.89-22,0-30.39l78.91-66.64c9.89-8.36,26.09-8.36,36,0h0c9.89,8.36,9.89,22,0,30.39l-78.91,66.64C427.47,134,411.28,134,401.38,125.64Z"/><path class="cls-9" d="M211.41,240h0c-9.89-8.36-9.89-22,0-30.39l56.49-47.71c9.89-8.36,26.09-8.36,36,0h0c9.89,8.36,9.89,22,0,30.39L247.39,240C237.5,248.36,221.31,248.36,211.41,240Z"/><path class="cls-9" d="M455.79,215.2h0c-9.89-8.36-9.89-22,0-30.39l56.49-47.71c9.89-8.36,26.09-8.36,36,0h0c9.89,8.36,9.89,22,0,30.39L491.77,215.2C481.87,223.56,465.68,223.56,455.79,215.2Z"/><path class="cls-10" d="M233.08,289.52h0c-5.91-5-5.91-13.15,0-18.14l135-114a17.29,17.29,0,0,1,21.48,0h0c5.91,5,5.91,13.15,0,18.14l-135,114A17.29,17.29,0,0,1,233.08,289.52Z"/><path class="cls-5" d="M189,197.06h0c-15.26-12.89-15.26-34,0-46.86L396.89-25.4c15.26-12.89,40.23-12.89,55.49,0h0c15.26,12.89,15.26,34,0,46.86L244.46,197.06C229.2,209.94,204.23,209.94,189,197.06Z"/><path class="cls-7" d="M322.07,120.86h0a10.5,10.5,0,0,1,0-16.57L503-48.51a15.78,15.78,0,0,1,19.61,0h0a10.5,10.5,0,0,1,0,16.57L341.68,120.86A15.78,15.78,0,0,1,322.07,120.86Z"/><path class="cls-10" d="M493.38,47.9h0a7.4,7.4,0,0,1,0-11.67l40.73-34.4a11.12,11.12,0,0,1,13.82,0h0a7.4,7.4,0,0,1,0,11.67L507.2,47.9A11.12,11.12,0,0,1,493.38,47.9Z"/><path class="cls-10" d="M99.73,122.32h0a7.4,7.4,0,0,1,0-11.67l40.73-34.4a11.12,11.12,0,0,1,13.82,0h0a7.4,7.4,0,0,1,0,11.67l-40.73,34.4A11.12,11.12,0,0,1,99.73,122.32Z"/><path class="cls-7" d="M271.72-5.7a6.46,6.46,0,0,0-8,0l-23.65,20a4.3,4.3,0,0,0,0,6.78,6.46,6.46,0,0,0,8,0l23.65-20A4.3,4.3,0,0,0,271.72-5.7Z"/><path class="cls-8" d="M330.88,150.61a6.46,6.46,0,0,0-8,0l-23.65,20a4.29,4.29,0,0,0,0,6.77,6.46,6.46,0,0,0,8,0l23.65-20A4.3,4.3,0,0,0,330.88,150.61Z"/><path class="cls-10" d="M293.4,109.16h0a2.25,2.25,0,0,1,0-3.55L505.66-73.66a3.38,3.38,0,0,1,4.2,0h0a2.25,2.25,0,0,1,0,3.55L297.6,109.16A3.38,3.38,0,0,1,293.4,109.16Z"/><path class="cls-10" d="M347.58,236.58h0a2.25,2.25,0,0,1,0-3.55L559.84,53.77a3.38,3.38,0,0,1,4.2,0h0a2.25,2.25,0,0,1,0,3.55L351.78,236.58A3.38,3.38,0,0,1,347.58,236.58Z"/><path class="cls-10" d="M161.51,225h0a2.25,2.25,0,0,1,0-3.55l52.8-44.59a3.38,3.38,0,0,1,4.2,0h0a2.25,2.25,0,0,1,0,3.55L165.71,225A3.38,3.38,0,0,1,161.51,225Z"/><path class="cls-10" d="M5.9,114h0a2.25,2.25,0,0,1,0-3.55L58.7,65.88a3.38,3.38,0,0,1,4.2,0h0a2.25,2.25,0,0,1,0,3.55L10.1,114A3.38,3.38,0,0,1,5.9,114Z"/><path class="cls-5" d="M373.13,134h0a2.25,2.25,0,0,1,0-3.55l52.8-44.59a3.38,3.38,0,0,1,4.2,0h0a2.25,2.25,0,0,1,0,3.55L377.34,134A3.38,3.38,0,0,1,373.13,134Z"/><path class="cls-10" d="M198,13.81h0a2.25,2.25,0,0,1,0-3.55l52.8-44.59a3.38,3.38,0,0,1,4.2,0h0a2.25,2.25,0,0,1,0,3.55l-52.8,44.59A3.38,3.38,0,0,1,198,13.81Z"/><path class="cls-8" d="M92.86,151a6.26,6.26,0,0,0-7.77,0L62.16,170.38a4.16,4.16,0,0,0,0,6.57,6.26,6.26,0,0,0,7.77,0l22.92-19.35A4.16,4.16,0,0,0,92.86,151Z"/><path class="cls-5" d="M253.74,64.16a6.26,6.26,0,0,0-7.77,0L223.05,83.52a4.16,4.16,0,0,0,0,6.57,6.26,6.26,0,0,0,7.77,0l22.92-19.35A4.16,4.16,0,0,0,253.74,64.16Z"/><path class="cls-8" d="M431.56,209.51h0a7.4,7.4,0,0,1,0-11.67l40.73-34.4a11.12,11.12,0,0,1,13.82,0h0a7.4,7.4,0,0,1,0,11.67l-40.73,34.4A11.12,11.12,0,0,1,431.56,209.51Z"/><path class="cls-8" d="M251.28,142.57a7.4,7.4,0,0,0-9.2,0l-6.53,5.51a4.92,4.92,0,0,0,0,7.77,7.4,7.4,0,0,0,9.2,0l6.53-5.51A4.92,4.92,0,0,0,251.28,142.57Z"/><path class="cls-7" d="M401.82,150.82a7.4,7.4,0,0,0-9.2,0l-6.53,5.51a4.92,4.92,0,0,0,0,7.77,7.4,7.4,0,0,0,9.2,0l6.53-5.51A4.92,4.92,0,0,0,401.82,150.82Z"/><path class="cls-6" d="M558.11,731.93h0a5,5,0,0,1,0-7.89L740.49,570a7.52,7.52,0,0,1,9.34,0h0a5,5,0,0,1,0,7.89l-182.37,154A7.52,7.52,0,0,1,558.11,731.93Z"/><path class="cls-10" d="M576.32,639.86h0a7.4,7.4,0,0,1,0-11.67L617,593.8a11.12,11.12,0,0,1,13.82,0h0a7.4,7.4,0,0,1,0,11.67l-40.73,34.4A11.12,11.12,0,0,1,576.32,639.86Z"/><path class="cls-7" d="M441.33,576.31a6.46,6.46,0,0,0-8,0l-23.65,20a4.3,4.3,0,0,0,0,6.78,6.46,6.46,0,0,0,8,0l23.65-20A4.3,4.3,0,0,0,441.33,576.31Z"/><path class="cls-5" d="M456.07,725.92h0a2.25,2.25,0,0,1,0-3.55l52.8-44.59a3.38,3.38,0,0,1,4.2,0h0a2.25,2.25,0,0,1,0,3.55l-52.8,44.59A3.38,3.38,0,0,1,456.07,725.92Z"/><path class="cls-8" d="M828,496.37a6.26,6.26,0,0,0-7.77,0l-22.92,19.35a4.16,4.16,0,0,0,0,6.57,6.26,6.26,0,0,0,7.77,0L828,502.93A4.16,4.16,0,0,0,828,496.37Z"/><path class="cls-5" d="M423.36,646.18a6.26,6.26,0,0,0-7.77,0l-22.92,19.35a4.16,4.16,0,0,0,0,6.57,6.26,6.26,0,0,0,7.77,0l22.92-19.35A4.16,4.16,0,0,0,423.36,646.18Z"/><path class="cls-6" d="M693.33,510.93a7.4,7.4,0,0,0-9.2,0l-6.53,5.51a4.92,4.92,0,0,0,0,7.77,7.4,7.4,0,0,0,9.2,0l6.53-5.51A4.92,4.92,0,0,0,693.33,510.93Z"/><path class="cls-8" d="M568,681.34a7.4,7.4,0,0,0-9.2,0l-6.53,5.51a4.92,4.92,0,0,0,0,7.77,7.4,7.4,0,0,0,9.2,0L568,689.1A4.92,4.92,0,0,0,568,681.34Z"/><path class="cls-5" d="M493.72,614.56h0a2.25,2.25,0,0,1,0-3.55l89.68-75.74a3.38,3.38,0,0,1,4.2,0h0a2.25,2.25,0,0,1,0,3.55l-89.68,75.74A3.38,3.38,0,0,1,493.72,614.56Z"/><path class="cls-8" d="M420.89,724.58a7.4,7.4,0,0,0-9.2,0l-6.53,5.51a4.92,4.92,0,0,0,0,7.77,7.4,7.4,0,0,0,9.2,0l6.53-5.51A4.92,4.92,0,0,0,420.89,724.58Z"/><path class="cls-7" d="M484.76,742.78a7.4,7.4,0,0,0-9.2,0L469,748.29a4.92,4.92,0,0,0,0,7.77,7.4,7.4,0,0,0,9.2,0l6.53-5.51A4.92,4.92,0,0,0,484.76,742.78Z"/><path class="cls-6" d="M-66.09,101.53h0a5,5,0,0,1,0-7.89l182.37-154a7.52,7.52,0,0,1,9.34,0h0a5,5,0,0,1,0,7.89l-182.37,154A7.52,7.52,0,0,1-66.09,101.53Z"/><path class="cls-10" d="M-47.89,9.46h0a7.4,7.4,0,0,1,0-11.67l40.73-34.4a11.12,11.12,0,0,1,13.82,0h0a7.4,7.4,0,0,1,0,11.67L-34.07,9.46A11.12,11.12,0,0,1-47.89,9.46Z"/><path class="cls-7" d="M1305.3,365.52a9.5,9.5,0,0,0-11.6,0l-34.2,28.26a6,6,0,0,0,0,9.59,9.5,9.5,0,0,0,11.6,0l34.2-28.26A6,6,0,0,0,1305.3,365.52Z"/><path class="cls-10" d="M1173.33,587.36h0a2.25,2.25,0,0,1,0-3.55l52.8-44.59a3.38,3.38,0,0,1,4.2,0h0a2.25,2.25,0,0,1,0,3.55l-52.8,44.59A3.38,3.38,0,0,1,1173.33,587.36Z"/><path class="cls-10" d="M1298.28,506.24h0a2.25,2.25,0,0,1,0-3.55l52.8-44.59a3.38,3.38,0,0,1,4.2,0h0a2.25,2.25,0,0,1,0,3.55l-52.8,44.59A3.38,3.38,0,0,1,1298.28,506.24Z"/><path class="cls-5" d="M1300.54,435.84a6.26,6.26,0,0,0-7.77,0l-22.92,19.35a4.16,4.16,0,0,0,0,6.57,6.26,6.26,0,0,0,7.77,0l22.92-19.35A4.16,4.16,0,0,0,1300.54,435.84Z"/><path class="cls-8" d="M1260.77,499.75a7.4,7.4,0,0,0-9.2,0l-6.53,5.51a4.92,4.92,0,0,0,0,7.77,7.4,7.4,0,0,0,9.2,0l6.53-5.51A4.92,4.92,0,0,0,1260.77,499.75Z"/><path class="cls-8" d="M1310,550.57a7.4,7.4,0,0,0-9.2,0l-6.53,5.51a4.92,4.92,0,0,0,0,7.77,7.4,7.4,0,0,0,9.2,0l6.53-5.51A4.92,4.92,0,0,0,1310,550.57Z"/><path class="cls-7" d="M84.54,655.27a9.5,9.5,0,0,0,11.6,0L130.34,627a6,6,0,0,0,0-9.59,9.5,9.5,0,0,0-11.6,0l-34.2,28.26A6,6,0,0,0,84.54,655.27Z"/><path class="cls-10" d="M216.52,433.43h0a2.25,2.25,0,0,1,0,3.55l-52.8,44.59a3.38,3.38,0,0,1-4.2,0h0a2.25,2.25,0,0,1,0-3.55l52.8-44.59A3.38,3.38,0,0,1,216.52,433.43Z"/><path class="cls-10" d="M91.56,514.55h0a2.25,2.25,0,0,1,0,3.55l-52.8,44.59a3.38,3.38,0,0,1-4.2,0h0a2.25,2.25,0,0,1,0-3.55l52.8-44.59A3.38,3.38,0,0,1,91.56,514.55Z"/><path class="cls-5" d="M89.3,585a6.26,6.26,0,0,0,7.77,0L120,565.6a4.16,4.16,0,0,0,0-6.57,6.26,6.26,0,0,0-7.77,0L89.3,578.38A4.16,4.16,0,0,0,89.3,585Z"/><path class="cls-5" d="M53.91,625.91h0a2.25,2.25,0,0,1,0,3.55L-35.77,705.2a3.38,3.38,0,0,1-4.2,0h0a2.25,2.25,0,0,1,0-3.55l89.68-75.74A3.38,3.38,0,0,1,53.91,625.91Z"/><path class="cls-8" d="M129.08,521a7.4,7.4,0,0,0,9.2,0l6.53-5.51a4.92,4.92,0,0,0,0-7.77,7.4,7.4,0,0,0-9.2,0l-6.53,5.51A4.92,4.92,0,0,0,129.08,521Z"/><path class="cls-8" d="M79.84,470.22a7.4,7.4,0,0,0,9.2,0l6.53-5.51a4.92,4.92,0,0,0,0-7.77,7.4,7.4,0,0,0-9.2,0l-6.53,5.51A4.92,4.92,0,0,0,79.84,470.22Z"/><path class="cls-7" d="M1317,19.66a9.5,9.5,0,0,0-11.6,0l-34.2,28.26a6,6,0,0,0,0,9.59,9.5,9.5,0,0,0,11.6,0L1317,29.25A6,6,0,0,0,1317,19.66Z"/><path class="cls-10" d="M1185.06,241.5h0a2.25,2.25,0,0,1,0-3.55l52.8-44.59a3.38,3.38,0,0,1,4.2,0h0a2.25,2.25,0,0,1,0,3.55l-52.8,44.59A3.38,3.38,0,0,1,1185.06,241.5Z"/><path class="cls-10" d="M1310,160.38h0a2.25,2.25,0,0,1,0-3.55l52.8-44.59a3.38,3.38,0,0,1,4.2,0h0a2.25,2.25,0,0,1,0,3.55l-52.8,44.59A3.38,3.38,0,0,1,1310,160.38Z"/><path class="cls-5" d="M1312.28,90a6.26,6.26,0,0,0-7.77,0l-22.92,19.35a4.16,4.16,0,0,0,0,6.57,6.26,6.26,0,0,0,7.77,0l22.92-19.35A4.16,4.16,0,0,0,1312.28,90Z"/><path class="cls-8" d="M1272.5,153.89a7.4,7.4,0,0,0-9.2,0l-6.53,5.51a4.92,4.92,0,0,0,0,7.77,7.4,7.4,0,0,0,9.2,0l6.53-5.51A4.92,4.92,0,0,0,1272.5,153.89Z"/><path class="cls-8" d="M1321.74,204.71a7.4,7.4,0,0,0-9.2,0l-6.53,5.51a4.92,4.92,0,0,0,0,7.77,7.4,7.4,0,0,0,9.2,0l6.53-5.51A4.92,4.92,0,0,0,1321.74,204.71Z"/><path class="cls-6" d="M800.87,131h0a5,5,0,0,1,0-7.89l182.37-154a7.52,7.52,0,0,1,9.34,0h0a5,5,0,0,1,0,7.89L810.21,131A7.52,7.52,0,0,1,800.87,131Z"/><path class="cls-6" d="M657.93,245.94h0a5,5,0,0,1,0-7.89l41.14-34.75a7.52,7.52,0,0,1,9.34,0h0a5,5,0,0,1,0,7.89l-41.14,34.75A7.52,7.52,0,0,1,657.93,245.94Z"/><path class="cls-10" d="M819.08,38.94h0a7.4,7.4,0,0,1,0-11.67L859.8-7.13a11.12,11.12,0,0,1,13.82,0h0a7.4,7.4,0,0,1,0,11.67l-40.73,34.4A11.12,11.12,0,0,1,819.08,38.94Z"/><path class="cls-7" d="M684.09-24.61a6.46,6.46,0,0,0-8,0l-23.65,20a4.3,4.3,0,0,0,0,6.78,6.46,6.46,0,0,0,8,0l23.65-20A4.3,4.3,0,0,0,684.09-24.61Z"/><path class="cls-10" d="M573.88,206.11h0a2.25,2.25,0,0,1,0-3.55L626.68,158a3.38,3.38,0,0,1,4.2,0h0a2.25,2.25,0,0,1,0,3.55l-52.8,44.59A3.38,3.38,0,0,1,573.88,206.11Z"/><path class="cls-5" d="M698.83,125h0a2.25,2.25,0,0,1,0-3.55l52.8-44.59a3.38,3.38,0,0,1,4.2,0h0a2.25,2.25,0,0,1,0,3.55L703,125A3.38,3.38,0,0,1,698.83,125Z"/><path class="cls-5" d="M666.11,45.25a6.26,6.26,0,0,0-7.77,0L635.42,64.6a4.16,4.16,0,0,0,0,6.57,6.26,6.26,0,0,0,7.77,0l22.92-19.35A4.16,4.16,0,0,0,666.11,45.25Z"/><path class="cls-8" d="M810.8,80.41a7.4,7.4,0,0,0-9.2,0l-6.52,5.51a4.92,4.92,0,0,0,0,7.77,7.4,7.4,0,0,0,9.2,0l6.53-5.51A4.92,4.92,0,0,0,810.8,80.41Z"/><path class="cls-5" d="M736.48,13.63h0a2.25,2.25,0,0,1,0-3.55l89.68-75.74a3.38,3.38,0,0,1,4.2,0h0a2.25,2.25,0,0,1,0,3.55L740.68,13.63A3.38,3.38,0,0,1,736.48,13.63Z"/><path class="cls-8" d="M663.65,123.66a7.4,7.4,0,0,0-9.2,0l-6.53,5.51a4.92,4.92,0,0,0,0,7.77,7.4,7.4,0,0,0,9.2,0l6.53-5.51A4.92,4.92,0,0,0,663.65,123.66Z"/><path class="cls-7" d="M727.52,141.85a7.4,7.4,0,0,0-9.2,0l-6.53,5.51a4.93,4.93,0,0,0,0,7.77,7.4,7.4,0,0,0,9.2,0l6.53-5.51A4.92,4.92,0,0,0,727.52,141.85Z"/><path class="cls-7" d="M1356.31,573.37a6.46,6.46,0,0,0-8,0l-23.65,20a4.29,4.29,0,0,0,0,6.77,6.46,6.46,0,0,0,8,0l23.65-20A4.3,4.3,0,0,0,1356.31,573.37Z"/><path class="cls-5" d="M1338.34,643.23a6.26,6.26,0,0,0-7.77,0l-22.92,19.35a4.16,4.16,0,0,0,0,6.57,6.26,6.26,0,0,0,7.77,0l22.92-19.35A4.16,4.16,0,0,0,1338.34,643.23Z"/><path class="cls-8" d="M1335.87,721.64a7.4,7.4,0,0,0-9.2,0l-6.53,5.51a4.92,4.92,0,0,0,0,7.77,7.4,7.4,0,0,0,9.2,0l6.53-5.51A4.92,4.92,0,0,0,1335.87,721.64Z"/><path class="cls-10" d="M1011.19,137.7h0a7.4,7.4,0,0,1,0,11.67l-40.73,34.4a11.12,11.12,0,0,1-13.82,0h0a7.4,7.4,0,0,1,0-11.67l40.73-34.4A11.12,11.12,0,0,1,1011.19,137.7Z"/><path class="cls-7" d="M1149.09,207.5a6.46,6.46,0,0,0,8,0l23.65-20a4.29,4.29,0,0,0,0-6.77,6.46,6.46,0,0,0-8,0l-23.65,20A4.3,4.3,0,0,0,1149.09,207.5Z"/><path class="cls-10" d="M1259.31-23.22h0a2.25,2.25,0,0,1,0,3.55l-52.8,44.59a3.38,3.38,0,0,1-4.2,0h0a2.25,2.25,0,0,1,0-3.55l52.8-44.59A3.38,3.38,0,0,1,1259.31-23.22Z"/><path class="cls-5" d="M1128.82,42.09h0a2.25,2.25,0,0,1,0,3.55L1076,90.23a3.38,3.38,0,0,1-4.2,0h0a2.25,2.25,0,0,1,0-3.55l52.8-44.59A3.38,3.38,0,0,1,1128.82,42.09Z"/><path class="cls-8" d="M876.18,181.48a6.26,6.26,0,0,0,7.77,0l22.92-19.35a4.16,4.16,0,0,0,0-6.57,6.26,6.26,0,0,0-7.77,0l-22.92,19.35A4.16,4.16,0,0,0,876.18,181.48Z"/><path class="cls-5" d="M1167.07,137.64a6.26,6.26,0,0,0,7.77,0l22.92-19.35a4.16,4.16,0,0,0,0-6.57,6.26,6.26,0,0,0-7.77,0l-22.92,19.35A4.16,4.16,0,0,0,1167.07,137.64Z"/><path class="cls-6" d="M1061.92,266.81a7.4,7.4,0,0,0,9.2,0l6.53-5.51a4.92,4.92,0,0,0,0-7.77,7.4,7.4,0,0,0-9.2,0l-6.53,5.51A4.92,4.92,0,0,0,1061.92,266.81Z"/><path class="cls-8" d="M966.3,72.08a7.4,7.4,0,0,0,9.2,0L982,66.57a4.92,4.92,0,0,0,0-7.77,7.4,7.4,0,0,0-9.2,0l-6.53,5.51A4.92,4.92,0,0,0,966.3,72.08Z"/><path class="cls-5" d="M1096.7,169.25h0a2.25,2.25,0,0,1,0,3.55L1007,248.55a3.38,3.38,0,0,1-4.2,0h0a2.25,2.25,0,0,1,0-3.55l89.68-75.74A3.38,3.38,0,0,1,1096.7,169.25Z"/><path class="cls-8" d="M1169.54,59.23a7.4,7.4,0,0,0,9.2,0l6.53-5.51a4.92,4.92,0,0,0,0-7.77,7.4,7.4,0,0,0-9.2,0l-6.53,5.51A4.92,4.92,0,0,0,1169.54,59.23Z"/><path class="cls-7" d="M1089.71,2.4a7.4,7.4,0,0,0,9.2,0l6.53-5.51a4.92,4.92,0,0,0,0-7.77,7.4,7.4,0,0,0-9.2,0l-6.53,5.51A4.92,4.92,0,0,0,1089.71,2.4Z"/><path class="cls-10" d="M87.38,722.78h0a7.4,7.4,0,0,1,0,11.67l-40.73,34.4a11.12,11.12,0,0,1-13.82,0h0a7.4,7.4,0,0,1,0-11.67l40.73-34.4A11.12,11.12,0,0,1,87.38,722.78Z"/><path class="cls-10" d="M335.49,561.86h0a2.25,2.25,0,0,1,0,3.55L282.7,610a3.38,3.38,0,0,1-4.2,0h0a2.25,2.25,0,0,1,0-3.55l52.8-44.59A3.38,3.38,0,0,1,335.49,561.86Z"/><path class="cls-5" d="M205,627.17h0a2.25,2.25,0,0,1,0,3.55l-52.8,44.59a3.38,3.38,0,0,1-4.2,0h0a2.25,2.25,0,0,1,0-3.55l52.8-44.59A3.38,3.38,0,0,1,205,627.17Z"/><path class="cls-5" d="M243.26,722.72a6.26,6.26,0,0,0,7.77,0l22.92-19.35a4.16,4.16,0,0,0,0-6.57,6.26,6.26,0,0,0-7.77,0l-22.92,19.35A4.16,4.16,0,0,0,243.26,722.72Z"/><path class="cls-8" d="M42.49,657.16a7.4,7.4,0,0,0,9.2,0l6.53-5.51a4.92,4.92,0,0,0,0-7.77,7.4,7.4,0,0,0-9.2,0l-6.53,5.51A4.92,4.92,0,0,0,42.49,657.16Z"/><path class="cls-8" d="M245.73,644.31a7.4,7.4,0,0,0,9.2,0l6.53-5.51a4.92,4.92,0,0,0,0-7.77,7.4,7.4,0,0,0-9.2,0l-6.53,5.51A4.92,4.92,0,0,0,245.73,644.31Z"/><path class="cls-7" d="M165.9,587.48a7.4,7.4,0,0,0,9.2,0l6.53-5.51a4.92,4.92,0,0,0,0-7.77,7.4,7.4,0,0,0-9.2,0l-6.53,5.51A4.92,4.92,0,0,0,165.9,587.48Z"/><path class="cls-4" d="M177.59,673.95h0a5,5,0,0,1,0-7.89L463.4,424.67a7.52,7.52,0,0,1,9.34,0h0a5,5,0,0,1,0,7.89L186.93,673.95A7.52,7.52,0,0,1,177.59,673.95Z"/><path class="cls-6" d="M327.74,803.57h0a5,5,0,0,1,0-7.89l182.37-154a7.52,7.52,0,0,1,9.34,0h0a5,5,0,0,1,0,7.89l-182.37,154A7.52,7.52,0,0,1,327.74,803.57Z"/><path class="cls-6" d="M68.17,618.34h0a5,5,0,0,1,0-7.89l182.37-154a7.52,7.52,0,0,1,9.34,0h0a5,5,0,0,1,0,7.89l-182.37,154A7.52,7.52,0,0,1,68.17,618.34Z"/><path class="cls-5" d="M13.51,710.26h0c-5.91-5-5.91-13.15,0-18.14l135-114a17.29,17.29,0,0,1,21.48,0h0c5.91,5,5.91,13.15,0,18.14l-135,114A17.29,17.29,0,0,1,13.51,710.26Z"/><path class="cls-7" d="M45.19,803.51h0c-15.26-12.89-15.26-34,0-46.86l207.92-175.6c15.26-12.89,40.23-12.89,55.49,0h0c15.26,12.89,15.26,34,0,46.86L100.68,803.51C85.42,816.4,60.45,816.4,45.19,803.51Z"/><path class="cls-8" d="M344.62,715.36h0c-9.89-8.36-9.89-22,0-30.39l78.91-66.64c9.89-8.36,26.09-8.36,36,0h0c9.89,8.36,9.89,22,0,30.39L380.6,715.36C370.7,723.72,354.51,723.72,344.62,715.36Z"/><path class="cls-9" d="M154.65,829.72h0c-9.89-8.36-9.89-22,0-30.39l56.49-47.71c9.89-8.36,26.09-8.36,36,0h0c9.89,8.36,9.89,22,0,30.39l-56.49,47.71C180.73,838.08,164.54,838.08,154.65,829.72Z"/><path class="cls-9" d="M399,804.92h0c-9.89-8.36-9.89-22,0-30.39l56.49-47.71c9.89-8.36,26.09-8.36,36,0h0c9.89,8.36,9.89,22,0,30.39L435,804.92C425.11,813.28,408.92,813.28,399,804.92Z"/><path class="cls-10" d="M176.31,879.24h0c-5.91-5-5.91-13.15,0-18.14l135-114a17.29,17.29,0,0,1,21.48,0h0c5.91,5,5.91,13.15,0,18.14l-135,114A17.29,17.29,0,0,1,176.31,879.24Z"/><path class="cls-5" d="M132.21,786.78h0c-15.26-12.89-15.26-34,0-46.86l207.92-175.6c15.26-12.89,40.23-12.89,55.49,0h0c15.26,12.89,15.26,34,0,46.86L187.69,786.78C172.43,799.66,147.46,799.66,132.21,786.78Z"/><path class="cls-7" d="M265.3,710.58h0a10.5,10.5,0,0,1,0-16.57L446.23,541.21a15.78,15.78,0,0,1,19.62,0h0a10.5,10.5,0,0,1,0,16.57L284.92,710.58A15.78,15.78,0,0,1,265.3,710.58Z"/><path class="cls-10" d="M436.62,637.62h0a7.4,7.4,0,0,1,0-11.67l40.73-34.4a11.12,11.12,0,0,1,13.82,0h0a7.4,7.4,0,0,1,0,11.67l-40.73,34.4A11.12,11.12,0,0,1,436.62,637.62Z"/><path class="cls-10" d="M43,712h0a7.4,7.4,0,0,1,0-11.67L83.69,666a11.12,11.12,0,0,1,13.82,0h0a7.4,7.4,0,0,1,0,11.67L56.78,712A11.12,11.12,0,0,1,43,712Z"/><path class="cls-7" d="M215,584a6.46,6.46,0,0,0-8,0l-23.65,20a4.3,4.3,0,0,0,0,6.78,6.46,6.46,0,0,0,8,0l23.65-20A4.3,4.3,0,0,0,215,584Z"/><path class="cls-8" d="M274.11,740.33a6.46,6.46,0,0,0-8,0l-23.65,20a4.3,4.3,0,0,0,0,6.78,6.46,6.46,0,0,0,8,0l23.65-20A4.3,4.3,0,0,0,274.11,740.33Z"/><path class="cls-10" d="M236.64,698.88h0a2.25,2.25,0,0,1,0-3.55L448.9,516.06a3.38,3.38,0,0,1,4.2,0h0a2.25,2.25,0,0,1,0,3.55L240.84,698.88A3.38,3.38,0,0,1,236.64,698.88Z"/><path class="cls-10" d="M255.39,538.05h0a2.25,2.25,0,0,1,0-3.55L414,400.54a3.38,3.38,0,0,1,4.2,0h0a2.25,2.25,0,0,1,0,3.55l-158.62,134A3.38,3.38,0,0,1,255.39,538.05Z"/><path class="cls-10" d="M290.81,826.3h0a2.25,2.25,0,0,1,0-3.55L503.08,643.49a3.38,3.38,0,0,1,4.2,0h0a2.25,2.25,0,0,1,0,3.55L295,826.3A3.38,3.38,0,0,1,290.81,826.3Z"/><path class="cls-10" d="M-50.86,703.74h0a2.25,2.25,0,0,1,0-3.55L1.93,655.6a3.38,3.38,0,0,1,4.2,0h0a2.25,2.25,0,0,1,0,3.55l-52.8,44.59A3.38,3.38,0,0,1-50.86,703.74Z"/><path class="cls-5" d="M316.37,723.68h0a2.25,2.25,0,0,1,0-3.55l52.8-44.59a3.38,3.38,0,0,1,4.2,0h0a2.25,2.25,0,0,1,0,3.55l-52.8,44.59A3.38,3.38,0,0,1,316.37,723.68Z"/><path class="cls-5" d="M265.24,477.72h0a2.25,2.25,0,0,1,0-3.55L318,429.58a3.38,3.38,0,0,1,4.2,0h0a2.25,2.25,0,0,1,0,3.55l-52.8,44.59A3.38,3.38,0,0,1,265.24,477.72Z"/><path class="cls-10" d="M141.25,603.53h0a2.25,2.25,0,0,1,0-3.55l52.8-44.59a3.38,3.38,0,0,1,4.2,0h0a2.25,2.25,0,0,1,0,3.55l-52.8,44.59A3.38,3.38,0,0,1,141.25,603.53Z"/><path class="cls-8" d="M36.09,740.74a6.26,6.26,0,0,0-7.77,0L5.4,760.1a4.16,4.16,0,0,0,0,6.57,6.26,6.26,0,0,0,7.77,0l22.92-19.35A4.16,4.16,0,0,0,36.09,740.74Z"/><path class="cls-5" d="M197,653.88a6.26,6.26,0,0,0-7.77,0l-22.92,19.35a4.16,4.16,0,0,0,0,6.57,6.26,6.26,0,0,0,7.77,0L197,660.45A4.16,4.16,0,0,0,197,653.88Z"/><path class="cls-6" d="M400.16,443.19a7.4,7.4,0,0,0-9.2,0l-6.53,5.51a4.92,4.92,0,0,0,0,7.77,7.4,7.4,0,0,0,9.2,0l6.53-5.51A4.92,4.92,0,0,0,400.16,443.19Z"/><path class="cls-8" d="M78.1,567.74a7.4,7.4,0,0,0-9.2,0l-6.53,5.51a4.92,4.92,0,0,0,0,7.77,7.4,7.4,0,0,0,9.2,0l6.53-5.51A4.92,4.92,0,0,0,78.1,567.74Z"/><path class="cls-8" d="M236.3,556.95h0c-9.89-8.36-9.89-22,0-30.39l78.91-66.64c9.89-8.36,26.09-8.36,36,0h0c9.89,8.36,9.89,22,0,30.39l-78.91,66.64C262.38,565.3,246.19,565.3,236.3,556.95Z"/><path class="cls-5" d="M240.29,573.38h0a2.25,2.25,0,0,1,0-3.55L330,494.08a3.38,3.38,0,0,1,4.2,0h0a2.25,2.25,0,0,1,0,3.55l-89.68,75.74A3.38,3.38,0,0,1,240.29,573.38Z"/><path class="cls-8" d="M194.51,732.29a7.4,7.4,0,0,0-9.2,0l-6.53,5.51a4.92,4.92,0,0,0,0,7.77,7.4,7.4,0,0,0,9.2,0l6.53-5.51A4.92,4.92,0,0,0,194.51,732.29Z"/><path class="cls-7" d="M345.06,740.54a7.4,7.4,0,0,0-9.2,0L329.34,746a4.92,4.92,0,0,0,0,7.77,7.4,7.4,0,0,0,9.2,0l6.53-5.51A4.92,4.92,0,0,0,345.06,740.54Z"/><path class="cls-4" d="M1103.59,90.95h0a5,5,0,0,1,0-7.89L1389.4-158.33a7.52,7.52,0,0,1,9.34,0h0a5,5,0,0,1,0,7.89L1112.93,90.95A7.52,7.52,0,0,1,1103.59,90.95Z"/><path class="cls-4" d="M916.59,248.87h0a5,5,0,0,1,0-7.89L985,183.23a7.52,7.52,0,0,1,9.34,0h0a5,5,0,0,1,0,7.89l-68.38,57.75A7.52,7.52,0,0,1,916.59,248.87Z"/><path class="cls-5" d="M838.59,214.86h0a10.5,10.5,0,0,1,0-16.57l56.14-47.41a15.78,15.78,0,0,1,19.62,0h0a10.5,10.5,0,0,1,0,16.57l-56.14,47.41A15.78,15.78,0,0,1,838.59,214.86Z"/><path class="cls-6" d="M1253.74,220.57h0a5,5,0,0,1,0-7.89l182.37-154a7.52,7.52,0,0,1,9.34,0h0a5,5,0,0,1,0,7.89l-182.37,154A7.52,7.52,0,0,1,1253.74,220.57Z"/><path class="cls-6" d="M1010.66,425.86h0a5,5,0,0,1,0-7.89l41.14-34.75a7.52,7.52,0,0,1,9.34,0h0a5,5,0,0,1,0,7.89L1020,425.86A7.52,7.52,0,0,1,1010.66,425.86Z"/><path class="cls-6" d="M994.17,35.34h0a5,5,0,0,1,0-7.89l182.37-154a7.52,7.52,0,0,1,9.34,0h0a5,5,0,0,1,0,7.89l-182.37,154A7.52,7.52,0,0,1,994.17,35.34Z"/><path class="cls-6" d="M851.23,150.27h0a5,5,0,0,1,0-7.89l41.14-34.75a7.52,7.52,0,0,1,9.34,0h0a5,5,0,0,1,0,7.89l-41.14,34.75A7.52,7.52,0,0,1,851.23,150.27Z"/><path class="cls-5" d="M939.51,127.26h0c-5.91-5-5.91-13.15,0-18.14l135-114a17.29,17.29,0,0,1,21.48,0h0c5.91,5,5.91,13.15,0,18.14l-135,114A17.29,17.29,0,0,1,939.51,127.26Z"/><path class="cls-7" d="M971.19,220.51h0c-15.26-12.89-15.26-34,0-46.86L1179.11-1.95c15.26-12.89,40.23-12.89,55.49,0h0c15.26,12.89,15.26,34,0,46.86l-207.92,175.6C1011.42,233.4,986.45,233.4,971.19,220.51Z"/><path class="cls-8" d="M1270.62,132.36h0c-9.89-8.36-9.89-22,0-30.39l78.91-66.64c9.89-8.36,26.09-8.36,36,0h0c9.89,8.36,9.89,22,0,30.39l-78.91,66.64C1296.7,140.72,1280.51,140.72,1270.62,132.36Z"/><path class="cls-9" d="M1080.65,246.72h0c-9.89-8.36-9.89-22,0-30.39l56.49-47.71c9.89-8.36,26.09-8.36,36,0h0c9.89,8.36,9.89,22,0,30.39l-56.49,47.71C1106.73,255.08,1090.54,255.08,1080.65,246.72Z"/><path class="cls-9" d="M1325,221.92h0c-9.89-8.36-9.89-22,0-30.39l56.49-47.71c9.89-8.36,26.09-8.36,36,0h0c9.89,8.36,9.89,22,0,30.39L1361,221.92C1351.11,230.28,1334.92,230.28,1325,221.92Z"/><path class="cls-10" d="M1102.31,296.24h0c-5.91-5-5.91-13.15,0-18.14l135-114a17.29,17.29,0,0,1,21.48,0h0c5.91,5,5.91,13.15,0,18.14l-135,114A17.29,17.29,0,0,1,1102.31,296.24Z"/><path class="cls-5" d="M1058.21,203.78h0c-15.26-12.89-15.26-34,0-46.86l207.92-175.6c15.26-12.89,40.23-12.89,55.49,0h0c15.26,12.89,15.26,34,0,46.86l-207.92,175.6C1098.43,216.66,1073.46,216.66,1058.21,203.78Z"/><path class="cls-7" d="M1191.3,127.58h0a10.5,10.5,0,0,1,0-16.57L1372.23-41.79a15.78,15.78,0,0,1,19.62,0h0a10.5,10.5,0,0,1,0,16.57L1210.92,127.58A15.78,15.78,0,0,1,1191.3,127.58Z"/><path class="cls-10" d="M969,129h0a7.4,7.4,0,0,1,0-11.67L1009.69,83a11.12,11.12,0,0,1,13.82,0h0a7.4,7.4,0,0,1,0,11.67L982.78,129A11.12,11.12,0,0,1,969,129Z"/><path class="cls-7" d="M1141,1a6.46,6.46,0,0,0-8,0l-23.65,20a4.3,4.3,0,0,0,0,6.78,6.46,6.46,0,0,0,8,0L1141,7.8A4.3,4.3,0,0,0,1141,1Z"/><path class="cls-8" d="M1200.11,157.33a6.46,6.46,0,0,0-8,0l-23.65,20a4.3,4.3,0,0,0,0,6.78,6.46,6.46,0,0,0,8,0l23.65-20A4.3,4.3,0,0,0,1200.11,157.33Z"/><path class="cls-10" d="M1162.64,115.88h0a2.25,2.25,0,0,1,0-3.55L1374.9-66.94a3.38,3.38,0,0,1,4.2,0h0a2.25,2.25,0,0,1,0,3.55L1166.84,115.88A3.38,3.38,0,0,1,1162.64,115.88Z"/><path class="cls-10" d="M1216.81,243.3h0a2.25,2.25,0,0,1,0-3.55L1429.08,60.49a3.38,3.38,0,0,1,4.2,0h0a2.25,2.25,0,0,1,0,3.55L1221,243.3A3.38,3.38,0,0,1,1216.81,243.3Z"/><path class="cls-10" d="M1030.74,231.74h0a2.25,2.25,0,0,1,0-3.55l52.8-44.59a3.38,3.38,0,0,1,4.2,0h0a2.25,2.25,0,0,1,0,3.55l-52.8,44.59A3.38,3.38,0,0,1,1030.74,231.74Z"/><path class="cls-10" d="M875.14,120.74h0a2.25,2.25,0,0,1,0-3.55l52.8-44.59a3.38,3.38,0,0,1,4.2,0h0a2.25,2.25,0,0,1,0,3.55l-52.8,44.59A3.38,3.38,0,0,1,875.14,120.74Z"/><path class="cls-5" d="M1242.37,140.68h0a2.25,2.25,0,0,1,0-3.55l52.8-44.59a3.38,3.38,0,0,1,4.2,0h0a2.25,2.25,0,0,1,0,3.55l-52.8,44.59A3.38,3.38,0,0,1,1242.37,140.68Z"/><path class="cls-10" d="M1067.25,20.53h0a2.25,2.25,0,0,1,0-3.55l52.8-44.59a3.38,3.38,0,0,1,4.2,0h0a2.25,2.25,0,0,1,0,3.55l-52.8,44.59A3.38,3.38,0,0,1,1067.25,20.53Z"/><path class="cls-8" d="M962.09,157.74a6.26,6.26,0,0,0-7.77,0L931.4,177.1a4.16,4.16,0,0,0,0,6.57,6.26,6.26,0,0,0,7.77,0l22.92-19.35A4.16,4.16,0,0,0,962.09,157.74Z"/><path class="cls-5" d="M1123,70.88a6.26,6.26,0,0,0-7.77,0l-22.92,19.35a4.16,4.16,0,0,0,0,6.57,6.26,6.26,0,0,0,7.77,0L1123,77.45A4.16,4.16,0,0,0,1123,70.88Z"/><path class="cls-8" d="M1300.79,216.23h0a7.4,7.4,0,0,1,0-11.67l40.73-34.4a11.12,11.12,0,0,1,13.82,0h0a7.4,7.4,0,0,1,0,11.67l-40.73,34.4A11.12,11.12,0,0,1,1300.79,216.23Z"/><path class="cls-8" d="M1120.51,149.29a7.4,7.4,0,0,0-9.2,0l-6.53,5.51a4.92,4.92,0,0,0,0,7.77,7.4,7.4,0,0,0,9.2,0l6.53-5.51A4.92,4.92,0,0,0,1120.51,149.29Z"/><path class="cls-7" d="M1271.06,157.54a7.4,7.4,0,0,0-9.2,0l-6.53,5.51a4.92,4.92,0,0,0,0,7.77,7.4,7.4,0,0,0,9.2,0l6.53-5.51A4.92,4.92,0,0,0,1271.06,157.54Z"/></g><text class="cls-11" transform="translate(392.92 371.52)">INSCRIPCIONES</text></svg>