<svg id="Capa_1" data-name="Capa 1" xmlns="http://www.w3.org/2000/svg" viewBox="0 0 700 250"><defs><style>.cls-1{fill:#ff5252;}.cls-2{fill:#7c8a98;}.cls-3{fill:#4d5a68;}.cls-4{fill:#109d59;}.cls-5{fill:#6c7a88;}.cls-6{fill:#34b67a;}.cls-7{fill:#198762;}.cls-8{fill:#0f4d38;}.cls-9{fill:#9caab8;}.cls-10{fill:#dfe8f0;}.cls-11{fill:#c5d3e1;}.cls-12{fill:#ebf0f5;}.cls-13{fill:#7bd0a9;}.cls-14{fill:#fff;}.cls-15{fill:#e54d42;}</style></defs><title>electricidad700</title><rect class="cls-1" width="700" height="250"/><path class="cls-2" d="M379,235.46H329.56c-15.73,0-28.54-14.53-28.54-32.39V165.62h6.34v37.46c0,13.89,10,25.19,22.19,25.19H379Z" transform="translate(0 0)"/><path class="cls-3" d="M314,108.92a5.32,5.32,0,0,1-5-4.91,199.39,199.39,0,0,1-1.42-23.86c0-15.87,11.38-28.77,25.35-28.77h45.63c14,0,25.35,12.9,25.35,28.77A199.6,199.6,0,0,1,402.49,104c-.41,3.15-3,5.31-5.76,4.84s-4.68-3.4-4.27-6.55a190.3,190.3,0,0,0,1.31-22.15c0-9.51-6.82-17.25-15.2-17.25H332.94c-8.38,0-15.2,7.74-15.2,17.25A190.27,190.27,0,0,0,319,102.3c.41,3.15-1.49,6.08-4.27,6.55A4.59,4.59,0,0,1,314,108.92Z" transform="translate(0 0)"/><path class="cls-4" d="M399.33,210.57a2.72,2.72,0,0,1-2.54,2.88H316.56a2.72,2.72,0,0,1-2.53-2.88V190.08a2.72,2.72,0,0,1,2.53-2.88h80.23a2.72,2.72,0,0,1,2.54,2.88Z" transform="translate(0 0)"/><path class="cls-5" d="M366.56,225.61a1.66,1.66,0,0,1,1.55-1.76h3.28a1.66,1.66,0,0,1,1.55,1.76v12.5a1.66,1.66,0,0,1-1.55,1.75h-3.28a1.66,1.66,0,0,1-1.55-1.75Z" transform="translate(0 0)"/><ellipse class="cls-6" cx="357.84" cy="142.87" rx="62.2" ry="70.58"/><ellipse class="cls-4" cx="357.84" cy="142.87" rx="51.23" ry="58.14"/><ellipse class="cls-6" cx="338.11" cy="120.52" rx="18.32" ry="20.79"/><path class="cls-7" d="M350.39,120.52c0,6.84-4.33,12.53-10.06,13.71v-2.29a.55.55,0,0,0-.52-.58h-3.2a.55.55,0,0,0-.52.58v2.33c-5.83-1.08-10.27-6.82-10.27-13.75s4.45-12.67,10.27-13.74V109a.56.56,0,0,0,.52.59h3.2a.56.56,0,0,0,.52-.59v-2.18C346.06,108,350.39,113.68,350.39,120.52Z" transform="translate(0 0)"/><path class="cls-8" d="M335.53,120.5a2.81,2.81,0,1,1-2.79-3.17A3,3,0,0,1,335.53,120.5Z" transform="translate(0 0)"/><ellipse class="cls-8" cx="343.88" cy="120.5" rx="2.79" ry="3.17"/><ellipse class="cls-6" cx="377.58" cy="120.52" rx="18.32" ry="20.79"/><path class="cls-7" d="M389.86,120.52c0,6.84-4.34,12.53-10.06,13.71v-2.29a.55.55,0,0,0-.52-.58h-3.2a.55.55,0,0,0-.52.58v2.33c-5.83-1.08-10.27-6.82-10.27-13.75s4.44-12.67,10.27-13.74V109a.56.56,0,0,0,.52.59h3.2a.56.56,0,0,0,.52-.59v-2.18C385.52,108,389.86,113.68,389.86,120.52Z" transform="translate(0 0)"/><ellipse class="cls-8" cx="372.21" cy="120.5" rx="2.79" ry="3.17"/><ellipse class="cls-8" cx="383.35" cy="120.5" rx="2.79" ry="3.17"/><path class="cls-6" d="M356.42,166.42c0,11.47-8.2,20.78-18.32,20.78s-18.31-9.31-18.31-20.78,8.2-20.8,18.31-20.8S356.42,154.93,356.42,166.42Z" transform="translate(0 0)"/><path class="cls-7" d="M350.39,166.41c0,6.85-4.33,12.53-10.06,13.71v-2.29a.56.56,0,0,0-.52-.59h-3.2a.56.56,0,0,0-.52.59v2.32c-5.83-1.07-10.27-6.82-10.27-13.74s4.45-12.67,10.27-13.75v2.22a.56.56,0,0,0,.52.58h3.2a.56.56,0,0,0,.52-.58V152.7C346.06,153.89,350.39,159.58,350.39,166.41Z" transform="translate(0 0)"/><path class="cls-8" d="M335.53,166.39a2.81,2.81,0,1,1-2.79-3.17A3,3,0,0,1,335.53,166.39Z" transform="translate(0 0)"/><ellipse class="cls-8" cx="343.88" cy="166.39" rx="2.79" ry="3.17"/><path class="cls-6" d="M395.89,166.42c0,11.47-8.2,20.78-18.31,20.78s-18.32-9.31-18.32-20.78,8.2-20.8,18.32-20.8S395.89,154.93,395.89,166.42Z" transform="translate(0 0)"/><path class="cls-7" d="M389.86,166.41c0,6.85-4.34,12.53-10.06,13.71v-2.29a.56.56,0,0,0-.52-.59h-3.2a.56.56,0,0,0-.52.59v2.32c-5.83-1.07-10.27-6.82-10.27-13.74s4.44-12.67,10.27-13.75v2.22a.56.56,0,0,0,.52.58h3.2a.56.56,0,0,0,.52-.58V152.7C385.52,153.89,389.86,159.58,389.86,166.41Z" transform="translate(0 0)"/><ellipse class="cls-8" cx="372.21" cy="166.39" rx="2.79" ry="3.17"/><ellipse class="cls-8" cx="383.35" cy="166.39" rx="2.79" ry="3.17"/><path class="cls-3" d="M383.75,238a1.48,1.48,0,0,1,1.37-1.56h11.56a1.48,1.48,0,0,1,1.38,1.56v.2a1.47,1.47,0,0,1-1.38,1.56H385.13a1.47,1.47,0,0,1-1.37-1.56Z" transform="translate(0 0)"/><path class="cls-3" d="M383.75,225.48a1.47,1.47,0,0,1,1.37-1.56h11.56a1.47,1.47,0,0,1,1.38,1.56v.2a1.48,1.48,0,0,1-1.38,1.56H385.13a1.47,1.47,0,0,1-1.37-1.56Z" transform="translate(0 0)"/><path class="cls-2" d="M369.07,243.45V220.28a1.65,1.65,0,0,1,1.54-1.76h18a1.65,1.65,0,0,1,1.55,1.76v23.17a1.66,1.66,0,0,1-1.55,1.75h-18A1.66,1.66,0,0,1,369.07,243.45Z" transform="translate(0 0)"/><path class="cls-5" d="M384.24,245.2V218.52h4.34a1.65,1.65,0,0,1,1.55,1.76v23.17a1.66,1.66,0,0,1-1.55,1.75Z" transform="translate(0 0)"/><path class="cls-9" d="M235.18,117.3a1.18,1.18,0,0,0-1.28,1.05v8.86a1.18,1.18,0,0,0,1.28,1.05h.16a1.19,1.19,0,0,0,1.29-1.05v-8.86a1.19,1.19,0,0,0-1.29-1.05Z" transform="translate(0 0)"/><path class="cls-9" d="M224.84,117.3a1.19,1.19,0,0,0-1.28,1.05v8.86a1.19,1.19,0,0,0,1.28,1.05H225a1.19,1.19,0,0,0,1.28-1.05v-8.86A1.19,1.19,0,0,0,225,117.3Z" transform="translate(0 0)"/><path class="cls-10" d="M226.91,61.82v52.62h5.77V61.82c0-3.59,3.56-6.51,7.93-6.51h14c4.37,0,7.93,2.92,7.93,6.51V66h5.77V61.82c0-6.21-6.15-11.26-13.7-11.26h-14C233.06,50.56,226.91,55.61,226.91,61.82Z" transform="translate(0 0)"/><path class="cls-11" d="M239.62,106H220.56a1.33,1.33,0,0,0-1.44,1.18V121a1.33,1.33,0,0,0,1.44,1.18h19.05a1.33,1.33,0,0,0,1.44-1.18V107.23A1.33,1.33,0,0,0,239.62,106Z" transform="translate(0 0)"/><path class="cls-11" d="M260.08,62.32a1.33,1.33,0,0,0-1.44,1.18V66a1.33,1.33,0,0,0,1.44,1.19h10.28A1.33,1.33,0,0,0,271.8,66V63.51a1.33,1.33,0,0,0-1.44-1.18Z" transform="translate(0 0)"/><path class="cls-11" d="M225,104.12a1.33,1.33,0,0,0-1.44,1.18v2.52A1.33,1.33,0,0,0,225,109h10.28a1.33,1.33,0,0,0,1.44-1.19v-2.52a1.33,1.33,0,0,0-1.44-1.18Z" transform="translate(0 0)"/><path class="cls-10" d="M252.43,66c-2,0-3.6,1.33-3.6,3V137.3c0,1.64,1.61,3,3.6,3h26.33c2,0,3.6-1.32,3.6-3V69c0-1.63-1.62-3-3.6-3Z" transform="translate(0 0)"/><ellipse class="cls-11" cx="265.59" cy="126.78" rx="13.36" ry="10.97"/><path class="cls-9" d="M265.59,119.42c-4.4,0-8.05,2.6-8.81,6h1.47a.35.35,0,0,1,.38.31v1.92a.35.35,0,0,1-.38.31h-1.49c.69,3.49,4.38,6.15,8.83,6.15s8.14-2.66,8.83-6.15H273a.35.35,0,0,1-.37-.31v-1.92a.35.35,0,0,1,.37-.31h1.4C273.64,122,270,119.42,265.59,119.42Z" transform="translate(0 0)"/><ellipse class="cls-3" cx="265.61" cy="130" rx="2.03" ry="1.67"/><ellipse class="cls-3" cx="265.61" cy="123.33" rx="2.03" ry="1.67"/><ellipse class="cls-11" cx="265.59" cy="103.14" rx="13.36" ry="10.97"/><path class="cls-9" d="M265.59,95.79c-4.4,0-8.05,2.6-8.81,6h1.47a.35.35,0,0,1,.38.31V104a.35.35,0,0,1-.38.31h-1.49c.69,3.49,4.38,6.15,8.83,6.15s8.14-2.66,8.83-6.15H273a.35.35,0,0,1-.37-.31v-1.92a.35.35,0,0,1,.37-.31h1.4C273.64,98.38,270,95.79,265.59,95.79Z" transform="translate(0 0)"/><ellipse class="cls-3" cx="265.61" cy="106.36" rx="2.03" ry="1.67"/><ellipse class="cls-3" cx="265.61" cy="99.69" rx="2.03" ry="1.67"/><ellipse class="cls-11" cx="265.59" cy="79.51" rx="13.36" ry="10.97"/><path class="cls-9" d="M265.59,72.15c-4.4,0-8.05,2.59-8.81,6h1.47a.35.35,0,0,1,.38.31V80.4a.35.35,0,0,1-.38.31h-1.49c.69,3.49,4.38,6.15,8.83,6.15s8.14-2.66,8.83-6.15H273a.35.35,0,0,1-.37-.31V78.48a.35.35,0,0,1,.37-.31h1.4C273.64,74.74,270,72.15,265.59,72.15Z" transform="translate(0 0)"/><ellipse class="cls-3" cx="265.61" cy="82.72" rx="2.03" ry="1.67"/><ellipse class="cls-3" cx="265.61" cy="76.05" rx="2.03" ry="1.67"/><path class="cls-10" d="M241.06,117.67H219.12V121a1.33,1.33,0,0,0,1.44,1.18h19.05a1.33,1.33,0,0,0,1.44-1.18Z" transform="translate(0 0)"/><path class="cls-11" d="M389,23.82H327.61c-4.65,0-8.46-2.91-8.89-6.64h67.21a1.77,1.77,0,0,0,1.91-1.57A1.77,1.77,0,0,0,385.93,14H318.79c.7-3.49,4.38-6.13,8.82-6.13H389c4.94,0,8.94,3.29,8.94,7.34v1.24C398,20.53,394,23.82,389,23.82Z" transform="translate(0 0)"/><path class="cls-11" d="M389,41.55H327.61c-4.65,0-8.46-2.91-8.89-6.64h67.21a1.77,1.77,0,0,0,1.91-1.57,1.77,1.77,0,0,0-1.91-1.58H318.79c.7-3.49,4.38-6.13,8.82-6.13H389C394,25.62,398,28.91,398,33V34.2C398,38.25,394,41.55,389,41.55Z" transform="translate(0 0)"/><path class="cls-10" d="M321.71,44.23h-7.56a5.83,5.83,0,0,1-1.92-.36c-3.64-1.3-7.2-5.61-7.74-5.61h-9.66c-4.31,0-7.82-2.87-7.82-6.44V17.62c0-3.55,3.51-6.44,7.82-6.44h9.66c.54,0,4.08-4.3,7.72-5.62a6,6,0,0,1,1.94-.36h7.56a8.84,8.84,0,0,1,4.76,1.34,6.06,6.06,0,0,1,3.07,5.09V37.8a6.06,6.06,0,0,1-3.07,5.09A8.84,8.84,0,0,1,321.71,44.23Z" transform="translate(0 0)"/><path class="cls-5" d="M275.66,14.77c-1.58,0-2.84,4.45-2.84,9.94s1.26,9.94,2.84,9.94,2.83-4.45,2.83-9.94S277.21,14.77,275.66,14.77Z" transform="translate(0 0)"/><path class="cls-11" d="M293.14,39.78a3.05,3.05,0,0,1-3.31-2.71V12.37a3.05,3.05,0,0,1,3.31-2.72,3.93,3.93,0,0,1,.92.11,2.86,2.86,0,0,1,2.4,2.61v24.7a2.53,2.53,0,0,1-1,1.92,3.7,3.7,0,0,1-1.43.68A4.11,4.11,0,0,1,293.14,39.78Z" transform="translate(0 0)"/><path class="cls-11" d="M286.51,39.78a3.05,3.05,0,0,1-3.31-2.71V12.37a3.05,3.05,0,0,1,3.31-2.72,3.9,3.9,0,0,1,.92.11,2.86,2.86,0,0,1,2.4,2.61v24.7a2.54,2.54,0,0,1-1,1.92,3.74,3.74,0,0,1-1.44.68A4.08,4.08,0,0,1,286.51,39.78Z" transform="translate(0 0)"/><path class="cls-11" d="M279.89,39.78c-1.84,0-3.31-1.22-3.31-2.71V12.37a3.05,3.05,0,0,1,3.31-2.72,3.89,3.89,0,0,1,.91.11,2.86,2.86,0,0,1,2.4,2.61v24.7a2.55,2.55,0,0,1-1,1.92,3.72,3.72,0,0,1-1.44.68A4.07,4.07,0,0,1,279.89,39.78Z" transform="translate(0 0)"/><rect class="cls-11" x="296.22" y="11.21" width="1.93" height="27.02"/><path class="cls-12" d="M321.71,44.23h-7.56a5.83,5.83,0,0,1-1.92-.36,1.7,1.7,0,0,1,0-.29v-38a6,6,0,0,1,1.94-.36h7.56a8.84,8.84,0,0,1,4.76,1.34V42.89A8.84,8.84,0,0,1,321.71,44.23Z" transform="translate(0 0)"/><path class="cls-13" d="M316.14,25.41a4.31,4.31,0,0,1,2.31-.7,2.77,2.77,0,0,1-1,1.85c-.91.7-1.94,1-2.31.7S315.23,26.11,316.14,25.41Z" transform="translate(0 0)"/><path class="cls-13" d="M317.32,26.27a4,4,0,0,1,2.23.85,4.13,4.13,0,0,1-2.29.73c-1.25,0-2.25-.41-2.23-.85S316.07,26.23,317.32,26.27Z" transform="translate(0 0)"/><path class="cls-13" d="M314.56,25.51a2.91,2.91,0,0,1,1-1.83,2.82,2.82,0,0,1,.89,1.88c0,1-.5,1.85-1,1.83S314.51,26.53,314.56,25.51Z" transform="translate(0 0)"/><path class="cls-13" d="M314.49,31.85V29.47h5.11v2.38h-.71V30.16h-1.39v1.58h-.7V30.16H315.2v1.69Z" transform="translate(0 0)"/><path class="cls-13" d="M319,34.54a1.05,1.05,0,0,0-.51-.93,2.49,2.49,0,0,0-1.41-.34,2.59,2.59,0,0,0-1.43.32,1.07,1.07,0,0,0-.48.94,2.22,2.22,0,0,0,.06.52,5.28,5.28,0,0,0,.17.52h-.72a2.64,2.64,0,0,1-.23-1.12A1.64,1.64,0,0,1,315.1,33a3.27,3.27,0,0,1,1.95-.5,3.7,3.7,0,0,1,1.4.24,1.94,1.94,0,0,1,.91.69,1.79,1.79,0,0,1,.32,1.06,2.24,2.24,0,0,1-.33,1.19l-.7-.25a3.41,3.41,0,0,0,.21-.45A1.38,1.38,0,0,0,319,34.54Z" transform="translate(0 0)"/><path class="cls-13" d="M317.06,40.21a3.2,3.2,0,0,1-1.94-.51,1.88,1.88,0,0,1,0-2.91,4,4,0,0,1,3.9,0,1.73,1.73,0,0,1,.68,1.46A1.71,1.71,0,0,1,319,39.7,3.21,3.21,0,0,1,317.06,40.21Zm0-3.2a2.65,2.65,0,0,0-1.43.31,1.12,1.12,0,0,0,0,1.85,2.69,2.69,0,0,0,1.44.31,2.65,2.65,0,0,0,1.42-.31,1,1,0,0,0,.49-.92,1,1,0,0,0-.49-.93A2.64,2.64,0,0,0,317.06,37Z" transform="translate(0 0)"/><path class="cls-10" d="M491,85.17c0,3.33-2.22,6-5,6H428.68c-2.74,0-5-2.7-5-6V15.32c0-3.33,2.21-6,5-6H486c2.74,0,5,2.7,5,6Z" transform="translate(0 0)"/><path class="cls-14" d="M483.76,88.52H431c-2.78,0-5-2.75-5-6.13V18.1c0-3.38,2.26-6.13,5-6.13h52.8c2.78,0,5,2.75,5,6.13V82.39C488.8,85.77,486.54,88.52,483.76,88.52ZM431,13.13c-2.25,0-4.08,2.23-4.08,5V82.39c0,2.73,1.83,5,4.08,5h52.8c2.25,0,4.08-2.22,4.08-5V18.1c0-2.74-1.83-5-4.08-5Z" transform="translate(0 0)"/><path class="cls-9" d="M477,48.81c0,11.78-7,21.57-16.16,23.61v-4a.92.92,0,0,0-.82-1h-5.14a.92.92,0,0,0-.82,1v4c-9.34-1.88-16.49-11.77-16.49-23.68S444.75,27,454.1,25.14v3.81a.93.93,0,0,0,.82,1h5.14a.93.93,0,0,0,.82-1V25.21C470.08,27.25,477,37,477,48.81Z" transform="translate(0 0)"/><ellipse class="cls-3" cx="448.71" cy="48.77" rx="4.48" ry="5.46"/><ellipse class="cls-3" cx="466.58" cy="48.77" rx="4.48" ry="5.46"/><path class="cls-10" d="M277.86,222.53c0,3.14-2.08,5.67-4.66,5.67h-54c-2.57,0-4.66-2.54-4.66-5.67V156.81c0-3.13,2.08-5.67,4.66-5.67h54c2.58,0,4.66,2.54,4.66,5.67Z" transform="translate(0 0)"/><path class="cls-14" d="M271.05,225.68H221.39c-2.62,0-4.74-2.59-4.74-5.77V159.43c0-3.18,2.12-5.77,4.74-5.77h49.67c2.61,0,4.74,2.59,4.74,5.77v60.48C275.79,223.09,273.66,225.68,271.05,225.68Zm-49.67-70.92c-2.12,0-3.84,2.1-3.84,4.67v60.48c0,2.57,1.72,4.67,3.84,4.67h49.67c2.12,0,3.84-2.09,3.84-4.67V159.43c0-2.58-1.72-4.67-3.84-4.67Z" transform="translate(0 0)"/><ellipse class="cls-11" cx="246.22" cy="188.5" rx="22.3" ry="27.15"/><path class="cls-10" d="M265.47,188.71a27.09,27.09,0,0,1-3,12.56c-3.42,6.54-9.42,10.87-16.25,10.87-10.63,0-19.25-10.49-19.25-23.43a28.2,28.2,0,0,1,.3-4.13,24.11,24.11,0,0,1,8.64-15.66,16.75,16.75,0,0,1,10.31-3.65c9.49,0,17.38,8.37,19,19.37A27.35,27.35,0,0,1,265.47,188.71Z" transform="translate(0 0)"/><path class="cls-15" d="M260.94,180.48c-.06-.14-.14-.27-.21-.41h0c-3-8.23-10.48-12.91-17.9-10.67a15.14,15.14,0,0,0-7.48,5.29,21.33,21.33,0,0,0-4.28,13.85,13.77,13.77,0,0,1,9.14-10.8c5.64-1.69,11.21,1.27,13.54,6.75.08.18.16.37.22.55a.26.26,0,0,0,0,.09,3.61,3.61,0,0,0,4.22,2.12l0,0h.05a4,4,0,0,0,2.16-1.68,5.36,5.36,0,0,0,.75-4A4.68,4.68,0,0,0,260.94,180.48Z" transform="translate(0 0)"/><path class="cls-10" d="M439,162.09A43,43,0,0,1,432,138.24c0-19.88,12.59-36.22,28.58-37.83h2.48c16,1.61,28.58,17.94,28.58,37.83a43.08,43.08,0,0,1-6.94,23.85h0s-7.53,24.2-6.25,33.89a4.78,4.78,0,0,1,.47,2v1c0,2.33-1.55,4.23-3.44,4.23h-27.4c-1.88,0-3.44-1.9-3.44-4.23v-1a4.78,4.78,0,0,1,.47-2c1.29-9.69-6.25-33.89-6.25-33.89Z" transform="translate(0 0)"/><path class="cls-11" d="M468.54,198.1c0,4.5-3,8.15-6.69,8.15h0c-3.69,0-6.69-3.65-6.69-8.15V174.36c0-4.5,3-8.15,6.69-8.15h0c3.7,0,6.69,3.65,6.69,8.15Z" transform="translate(0 0)"/><path class="cls-5" d="M451.1,225.13c0,1.7,4.81,3.07,10.74,3.07s10.74-1.37,10.74-3.07-4.81-3.06-10.74-3.06S451.1,223.45,451.1,225.13Z" transform="translate(0 0)"/><path class="cls-9" d="M478.12,206.24c0,2-1.31,3.58-2.92,3.58H448.51c-1.62,0-2.94-1.59-2.94-3.58a4.54,4.54,0,0,1,.12-1,3.1,3.1,0,0,1,2.82-2.59H475.2a2.75,2.75,0,0,1,2.07,1,4,4,0,0,1,.74,1.55A4.17,4.17,0,0,1,478.12,206.24Z" transform="translate(0 0)"/><path class="cls-9" d="M478.12,213.4c0,2-1.31,3.58-2.92,3.58H448.51c-1.62,0-2.94-1.59-2.94-3.58a4.54,4.54,0,0,1,.12-1,3.1,3.1,0,0,1,2.82-2.59H475.2a2.74,2.74,0,0,1,2.07,1,4.05,4.05,0,0,1,.74,1.55A4.17,4.17,0,0,1,478.12,213.4Z" transform="translate(0 0)"/><path class="cls-9" d="M478.12,220.56c0,2-1.31,3.58-2.92,3.58H448.51c-1.62,0-2.94-1.58-2.94-3.58a4.53,4.53,0,0,1,.12-1,3.09,3.09,0,0,1,2.82-2.59H475.2a2.75,2.75,0,0,1,2.07,1,4,4,0,0,1,.74,1.55A4.16,4.16,0,0,1,478.12,220.56Z" transform="translate(0 0)"/><path class="cls-9" d="M469,202.66h-1.45l.06-32.68L478,140.78c-4,0-9.65-1.58-11.21-3.27a5,5,0,0,1-.9-1.36,24.18,24.18,0,0,1-3.74.73,27.61,27.61,0,0,1-4.42-.81,5.11,5.11,0,0,1-.93,1.43c-1.56,1.69-7.23,3.26-11.22,3.27l10.53,29.55v32.33h-1.45V170.51L444,140.68a4.63,4.63,0,0,1-1.72-.54,2,2,0,0,1-1-1.93c0-.48.15-1.93,1.07-2.2s1.86,1.17,2.19,1.81L445,139c3.63.15,9.62-1.42,10.89-2.8a3.64,3.64,0,0,0,.46-.63,3,3,0,0,1-1.76-1.55,1.77,1.77,0,0,1,.32-1.62c.78-1,1.52-1,1.89-.84a2.22,2.22,0,0,1,1.31,1.81,4.14,4.14,0,0,1,.07,1,27.84,27.84,0,0,0,4,.76,24.14,24.14,0,0,0,3.32-.68,4.2,4.2,0,0,1,.07-1.08,2.22,2.22,0,0,1,1.31-1.81c.37-.12,1.12-.17,1.89.84a1.79,1.79,0,0,1,.33,1.66,3,3,0,0,1-1.74,1.57,3.56,3.56,0,0,0,.43.57c1.27,1.38,7.26,3,10.88,2.8l.38-1.06c.39-.76,1.27-2.21,2.25-1.93s1,1.72,1.07,2.2a2,2,0,0,1-1,1.93,4.54,4.54,0,0,1-1.73.54L469,170.51Zm11.91-64.72a5.29,5.29,0,0,0-.54.8c.49-.17.59-.35.59-.35C480.93,138.2,480.91,138.06,480.89,137.94Zm-38.1,0c0,.11,0,.25,0,.43,0,0,.09.2.58.37l0-.09A4.59,4.59,0,0,0,442.8,137.94Zm24.49-4.67h0c-.07,0-.2.19-.27.52a1.28,1.28,0,0,0,0,.16,2.65,2.65,0,0,0,.69-.41C467.5,133.34,467.37,133.27,467.29,133.27Zm-11.24.23a2.57,2.57,0,0,0,.66.37.71.71,0,0,0,0-.09c-.07-.33-.2-.49-.27-.52S456.22,133.31,456.05,133.5Z" transform="translate(0 0)"/><polygon class="cls-9" points="459.39 153.87 457.07 135.93 458.5 135.66 460.82 153.6 459.39 153.87"/><polygon class="cls-9" points="464.3 153.87 462.87 153.6 465.19 135.66 466.62 135.93 464.3 153.87"/><path class="cls-11" d="M466.4,153.39a1.66,1.66,0,0,1-1.48,1.8h-6.15a1.66,1.66,0,0,1-1.48-1.8h0a1.66,1.66,0,0,1,1.48-1.8h6.15a1.66,1.66,0,0,1,1.48,1.8Z" transform="translate(0 0)"/><path class="cls-11" d="M464.08,173.1c0,2.16-1,3.91-2.24,3.91h0c-1.24,0-2.24-1.75-2.24-3.91V155.5c0-2.16,1-3.91,2.24-3.91h0c1.24,0,2.24,1.75,2.24,3.91Z" transform="translate(0 0)"/><path class="cls-10" d="M464.49,202.58V178.45a2.49,2.49,0,1,0-4.89,0v24.14Z" transform="translate(0 0)"/></svg>